<?xml version="1.0" encoding="utf-8"?>
<!-- Generator: Adobe Illustrator 15.0.0, SVG Export Plug-In . SVG Version: 6.00 Build 0)  -->
<!DOCTYPE svg PUBLIC "-//W3C//DTD SVG 1.1//EN" "http://www.w3.org/Graphics/SVG/1.1/DTD/svg11.dtd">
<svg version="1.1" id="Layer_1" xmlns="http://www.w3.org/2000/svg" xmlns:xlink="http://www.w3.org/1999/xlink" x="0px" y="0px"
	 width="198.43px" height="198.43px" viewBox="0 0 198.43 198.43" enable-background="new 0 0 198.43 198.43" xml:space="preserve">
<circle fill="#FFFFFF" cx="100.87" cy="96.009" r="80.125"/>
<circle fill="#F9E257" cx="100.87" cy="96.008" r="80.125"/>
<path fill="none" stroke="#FFFFFF" stroke-width="2.9454" stroke-linecap="round" stroke-linejoin="round" stroke-miterlimit="10" d="
	M49.679,75.697c0,0,1.134-3.393,3.836-1.862C53.515,73.834,53.428,75.594,49.679,75.697z"/>
<g>
	<g>
		
			<path fill="none" stroke="#FFFFFF" stroke-width="2.9454" stroke-linecap="round" stroke-linejoin="round" stroke-miterlimit="10" d="
			M31.865,79.935c0,0,0,4.854,4.854,4.854s0,0,4.854,0c4.853,0,4.853,0,4.853,0s14.561,9.707,14.561-4.854"/>
		<g>
			
				<path fill="none" stroke="#FFFFFF" stroke-width="2.9454" stroke-linecap="round" stroke-linejoin="round" stroke-miterlimit="10" d="
				M51.28,70.229H36.719c0,0,0,4.853-4.854,4.853c0,0-4.853,4.854,0,4.854c4.854,0,4.854,0,4.854,0"/>
			
				<path fill="none" stroke="#FFFFFF" stroke-width="2.9454" stroke-linecap="round" stroke-linejoin="round" stroke-miterlimit="10" d="
				M51.28,70.229c0,0,0.929-1.928,4.731-1.928c0,0,1.768-4.598,5.748-3.449c0,0,2.21,3.184-0.265,8.401"/>
			
				<path fill="none" stroke="#FFFFFF" stroke-width="2.9454" stroke-linecap="round" stroke-linejoin="round" stroke-miterlimit="10" d="
				M51.755,87.615c0,0,8.25,11.387,4.896,21.362c-3.354,9.978,0.907,26.044,14.868,29.31"/>
			
				<path fill="none" stroke="#FFFFFF" stroke-width="2.9454" stroke-linecap="round" stroke-linejoin="round" stroke-miterlimit="10" d="
				M62.201,72.281c0,0,10.434,4.863,8.488,22.636c-1.638,14.965,4.489,14.895,8.036,14.345c0.666-0.104,9.866-0.381,19.437-0.384
				c20.02-0.009,49.713,0.103,49.713,0.103s14.377-3.07,10.208-13.828c-4.172-10.756,8.561-9.988,8.561-9.988
				s-8.451,4.28-1.428,13.611c7.026,9.328,5.38,22.171-1.975,29.306c-5.313,5.154-7.992,8.132-9.067,9.387"/>
		</g>
	</g>
	
		<path fill="none" stroke="#FFFFFF" stroke-width="2.9454" stroke-linecap="round" stroke-linejoin="round" stroke-miterlimit="10" d="
		M109.348,37.633l-0.219,62.673c0,0-14.159-4.611-27.659,7.134C81.47,107.44,72.469,68.804,109.348,37.633z"/>
	
		<path fill="none" stroke="#FFFFFF" stroke-width="2.9454" stroke-linecap="round" stroke-linejoin="round" stroke-miterlimit="10" d="
		M114.178,26.774l-0.33,79.575c0,0,18.001-15.587,33.148-11.306C146.996,95.043,127.678,45.322,114.178,26.774z"/>
	<path fill="none" stroke="#FFFFFF" stroke-width="2.9454" stroke-miterlimit="10" d="M59.042,136.243c0,0,6.848,6.733,16.092,0
		c9.245-6.735,15.18,0,15.18,0s7.646,7.418,15.064,0c7.42-7.419,15.408-0.344,15.408-0.344s7.418,5.844,14.952,0.298
		c7.533-5.547,15.749,0,15.749,0s8.56,5.318,14.837,0"/>
	<path fill="none" stroke="#FFFFFF" stroke-width="2.9454" stroke-miterlimit="10" d="M67.093,144.385c0,0,5.744,5.648,13.499,0
		c7.754-5.647,12.732,0,12.732,0s6.414,6.222,12.638,0c6.223-6.224,12.924-0.287,12.924-0.287s6.223,4.901,12.541,0.248
		c6.317-4.652,13.21,0,13.21,0s7.18,4.462,12.445,0"/>
	<path fill="none" stroke="#FFFFFF" stroke-width="2.9454" stroke-miterlimit="10" d="M59.742,151.565
		c4.377-0.503,6.982,2.451,6.982,2.451s6.414,6.222,12.637,0c6.223-6.223,12.925-0.287,12.925-0.287s6.222,4.901,12.539,0.248
		c6.318-4.651,13.211,0,13.211,0s7.179,4.463,12.444,0"/>
	<circle fill="#F9E257" stroke="#FFFFFF" stroke-width="2.9454" stroke-miterlimit="10" cx="88.459" cy="109.936" r="9.759"/>
	<circle fill="#F9E257" stroke="#FFFFFF" stroke-width="2.9454" stroke-miterlimit="10" cx="114.926" cy="109.078" r="9.758"/>
	<circle fill="#F9E257" stroke="#FFFFFF" stroke-width="2.9454" stroke-miterlimit="10" cx="140.181" cy="109.078" r="9.758"/>
</g>
</svg>
