<?xml version="1.0" encoding="utf-8"?>
<!-- Generator: Adobe Illustrator 15.0.0, SVG Export Plug-In . SVG Version: 6.00 Build 0)  -->
<!DOCTYPE svg PUBLIC "-//W3C//DTD SVG 1.1//EN" "http://www.w3.org/Graphics/SVG/1.1/DTD/svg11.dtd">
<svg version="1.1" id="Layer_1" xmlns="http://www.w3.org/2000/svg" xmlns:xlink="http://www.w3.org/1999/xlink" x="0px" y="0px"
	 width="198.43px" height="198.43px" viewBox="0 0 198.43 198.43" enable-background="new 0 0 198.43 198.43" xml:space="preserve">
<g>
	<circle fill="#FFFFFF" cx="98.994" cy="96.698" r="80.125"/>
	<circle fill="none" stroke="#7F7F7F" stroke-width="3" stroke-miterlimit="10" cx="99.435" cy="96.697" r="80.125"/>
	<g>
		<g>
			<g>
				<path fill="#A55E94" d="M105.148,99.248c3.943,3.432,7.604,7.118,12.049,9.917c6.092,3.834,13.887,5.332,20.473,8.203
					c0.584,0.256,2.527-0.01,2.605-0.869c0.615-6.727-5.15-12.871-9.451-17.379c-0.656-0.688-3.4,0.366-2.699,1.102
					c4.113,4.311,9.85,10.24,9.262,16.674c0.867-0.289,1.736-0.578,2.605-0.867c-5.809-2.533-11.848-4.457-17.727-6.812
					c-5.643-2.26-9.926-7.158-14.418-11.069C107.117,97.511,104.428,98.621,105.148,99.248L105.148,99.248z"/>
			</g>
		</g>
		<g>
			<g>
				<path fill="#A55E94" d="M113.121,93.054c-0.623,0.209-1.189,0.607-1.705,1.006c-0.377,0.292-0.801,0.617-1.086,1.002
					c-0.398,0.535,0.338,0.689,0.738,0.68c0.609-0.015,1.535-0.22,1.926-0.746c0.062-0.086,0.139-0.16,0.215-0.235
					c-0.16,0.157,0.104-0.089,0.111-0.095c0.09-0.079,0.182-0.154,0.275-0.229c0.16-0.131,0.328-0.254,0.496-0.373
					c0.314-0.222-0.188,0.105,0.115-0.069c0.295-0.169-0.275,0.1-0.006,0.01c0.256-0.086,1.27-0.608,0.814-1.008
					C114.545,92.581,113.621,92.888,113.121,93.054L113.121,93.054z"/>
			</g>
		</g>
		<g>
			<g>
				<path fill="#A55E94" d="M119.102,94.721c-1.215-0.052-2.32,0.46-3.328,1.089c-0.67,0.418-1.734,1.191-1.561,2.107
					c0.232,1.23,3.139,0.496,2.898-0.777c0.012,0.071-0.098,0.394-0.01,0.237c-0.143,0.257-0.016,0.036,0.047-0.029
					c0.24-0.25-0.215,0.164,0.086-0.075c0.133-0.107,0.277-0.201,0.42-0.295c0.363-0.238-0.242,0.121,0.143-0.087
					c0.117-0.063,0.238-0.118,0.357-0.173c0.385-0.175-0.293,0.084,0.084-0.036c0.17-0.042,0.145-0.042-0.08,0
					c0.16-0.015,0.127-0.019-0.102-0.01c0.682,0.029,1.545-0.203,1.895-0.854C120.279,95.206,119.67,94.746,119.102,94.721
					L119.102,94.721z"/>
			</g>
		</g>
		<g>
			<g>
				<path fill="#A55E94" d="M121.898,96.546c-1.107,0.289-2.066,1.144-2.924,1.862c-0.654,0.547-1.639,1.177-2.029,1.958
					c-0.326,0.65,0.285,1.137,0.879,1.205c0.695,0.082,1.559-0.227,1.889-0.883c-0.18,0.359-0.174,0.246-0.043,0.113
					c0.047-0.047,0.385-0.363,0.191-0.186c0.336-0.309,0.682-0.609,1.029-0.904c0.377-0.317,0.762-0.625,1.158-0.917
					c0.15-0.111,0.307-0.216,0.463-0.317c-0.146,0.085-0.152,0.091-0.021,0.017c0.301-0.163-0.33,0.085-0.064,0.016
					c0.561-0.146,1.371-0.674,1.186-1.371C123.422,96.439,122.461,96.4,121.898,96.546L121.898,96.546z"/>
			</g>
		</g>
		<g>
			<g>
				<path fill="#A55E94" d="M129.143,98.791c-1.795,0.016-3.457,1.174-4.867,2.17c-0.854,0.602-3.162,1.941-3.23,3.168
					c-0.064,1.191,2.846,0.604,2.898-0.363c0.027-0.484,1.461-1.443,1.971-1.828c0.527-0.398,1.09-0.758,1.658-1.102
					c0.205-0.123,0.416-0.244,0.631-0.348c0.441-0.213,0.34-0.059-0.188-0.053c0.656-0.006,1.514-0.213,1.912-0.792
					C130.314,99.082,129.604,98.787,129.143,98.791L129.143,98.791z"/>
			</g>
		</g>
		<g>
			<g>
				<path fill="#A55E94" d="M131.895,102.449c-2.605,0.902-4.811,2.582-6.613,4.648c-0.447,0.514-0.258,1.186,0.377,1.41
					c0.691,0.246,1.57,0,2.051-0.549c1.27-1.457,2.861-2.873,4.721-3.516c0.555-0.191,1.377-0.652,1.182-1.385
					C133.43,102.383,132.451,102.258,131.895,102.449L131.895,102.449z"/>
			</g>
		</g>
	</g>
	<g>
		<g>
			<g>
				<path fill="#7F7F7F" d="M97.007,109.322c-2.161,0.217-5.057,2.117-6.372,3.807c-2.649,3.398-1.896,7.834-1.12,11.781
					c2.054,10.461,11.622,1.373,15.989-2.09c1.332-1.055-1.559-1.211-2.352-0.582c-2.105,1.668-4.108,3.451-6.327,4.971
					c-3.271,2.238-4.087-1.414-4.578-3.92c-0.498-2.535-0.755-5.119-0.21-7.662c0.323-1.51,2.862-4.381,4.612-4.555
					C98.125,110.924,99.007,109.121,97.007,109.322L97.007,109.322z"/>
			</g>
		</g>
		<g>
			<g>
				<path fill="#7F7F7F" d="M70.621,100.771c-8.722,0.373-17.969,7.605-18.575,16.646c-0.044,0.66,2.515-0.248,2.762-0.492
					c3.84-3.783,11.313-10.584,15.572-4.008c0.471,0.727,3.14-0.404,2.898-0.777c-5.345-8.25-16.396,0.363-21.096,4.994
					c0.92-0.164,1.841-0.328,2.762-0.494c0.472-7.035,7.257-14.381,14.425-14.688C70.143,101.92,72.54,100.689,70.621,100.771
					L70.621,100.771z"/>
			</g>
		</g>
		<g>
			<g>
				<path fill="#7F7F7F" d="M115.213,75.918c1.594,2.273,3.381,4.394,5.252,6.443c0.506,0.556,3.203-0.477,2.727-0.998
					c-1.807-1.981-3.539-4.024-5.08-6.223C117.598,74.41,114.965,75.564,115.213,75.918L115.213,75.918z"/>
			</g>
		</g>
		<g>
			<g>
				<path fill="#7F7F7F" d="M80.879,84.472c-5.265,4.049-10.53,8.097-15.796,12.145c-0.509,0.392-0.279,0.889,0.272,1.018
					c5.398,1.257,5.29,12.17,5.192,16.038c-0.03,1.195,2.873,0.584,2.896-0.367c0.123-4.869-0.038-9.877-2.554-14.182
					c-0.55-0.94-1.361-1.805-2.282-2.389c-1.761-1.114-0.624-0.094-1.152,0.312c5.248-4.035,10.497-8.069,15.745-12.104
					C84.51,83.934,81.605,83.916,80.879,84.472L80.879,84.472z"/>
			</g>
		</g>
		<g>
			<g>
				<path fill="#7F7F7F" d="M93.966,77.178c5.876-3.754,11.752-7.507,17.627-11.26c-0.793-0.056-1.588-0.111-2.381-0.167
					c0.523,1.333,1.068,2.748,2.105,3.764c0.84,0.822,3.588-0.314,2.67-1.211c-0.934-0.915-1.408-2.13-1.877-3.33
					c-0.359-0.915-1.771-0.557-2.383-0.167c-5.875,3.754-11.751,7.507-17.627,11.26C90.443,77.126,92.899,77.86,93.966,77.178
					L93.966,77.178z"/>
			</g>
		</g>
		<g>
			<g>
				<path fill="#7F7F7F" d="M112.156,66.292c11.889-7.278,23.779-14.556,35.668-21.834c-0.662-0.09-1.322-0.18-1.984-0.27
					c2.723,4.611,5.445,9.223,8.168,13.834c0.113-0.463,0.229-0.925,0.342-1.388c-11.416,7.889-22.834,15.778-34.25,23.667
					c-1.615,1.116,0.719,2.313,1.959,1.457c11.416-7.889,22.832-15.778,34.25-23.667c0.461-0.319,0.625-0.905,0.342-1.388
					c-2.723-4.611-5.445-9.223-8.168-13.834c-0.357-0.606-1.457-0.592-1.982-0.27c-11.889,7.278-23.777,14.556-35.668,21.833
					C109.168,65.453,110.693,67.187,112.156,66.292L112.156,66.292z"/>
			</g>
		</g>
		<g>
			<g>
				<path fill="#7F7F7F" d="M122.545,50.585c0.207,2.378,0.414,4.756,0.621,7.135c0.09,1.028,1.943,0.469,2.391,0.194
					c7.514-4.601,15.029-9.201,22.545-13.802c0.4-0.245,0.701-0.77,0.393-1.198c-1.721-2.389-3.443-4.777-5.164-7.166
					c-0.471-0.652-1.748-0.373-2.273,0.031c-6,4.611-12.002,9.223-18.002,13.834c-1.562,1.201,0.822,1.979,1.881,1.167
					c6-4.611,12-9.223,18.002-13.834c-0.758,0.01-1.516,0.021-2.273,0.031c1.721,2.389,3.443,4.777,5.164,7.166
					c0.131-0.399,0.262-0.798,0.393-1.198c-7.514,4.601-15.029,9.202-22.545,13.803c0.797,0.064,1.592,0.13,2.389,0.194
					c-0.207-2.378-0.414-4.756-0.621-7.134C125.338,48.605,122.432,49.283,122.545,50.585z"/>
			</g>
		</g>
		<g>
			<g>
				<path fill="#7F7F7F" d="M84.413,88.237c-2.734,1.258-6.779,2.792-6.921,6.318c-0.06,1.463,0.933,2.967,1.568,4.213
					c0.951,1.863,1.736,3.794,2.737,5.636c1.611,2.965,3.718,5.459,7.256,5.25c2.584-0.152,5.458-2,6.908-4.074
					c0.84-1.203-2.11-1.086-2.734-0.193c-4.201,6.012-8.295-1.027-10.055-4.758c-0.806-1.708-1.665-3.405-2.41-5.137
					c-1.396-3.247,2.516-4.73,4.863-5.812C87.444,88.843,85.8,87.598,84.413,88.237L84.413,88.237z"/>
			</g>
		</g>
		<g>
			<g>
				<path fill="#7F7F7F" d="M85.919,91.451c-2.029,0.371-5.688,2.821-3.838,5.234c0.792,1.032,2.796,0.59,3.817,0.318
					c1.094-0.292,2.491-0.832,3.247-1.727c0.419-0.495-0.363-0.559-0.7-0.536c-0.594,0.038-1.524,0.222-1.935,0.708
					c-0.489,0.579-1.141,0.785-1.706,0.225c-0.474-0.469-0.292-1.288-0.075-1.816c0.144-0.351,0.374-0.649,0.624-0.93
					c0.32-0.359,0.85-0.465,0.05-0.318c0.494-0.09,1.454-0.289,1.69-0.822C87.32,91.277,86.092,91.418,85.919,91.451L85.919,91.451z
					"/>
			</g>
		</g>
		<g>
			<g>
				<path fill="#7F7F7F" d="M90.881,98.166c-1.554,0.032-3.05,0.589-3.969,1.893c-0.619,0.879-0.797,2.074-0.586,3.113
					c0.228,1.123,1.069,1.803,2.181,1.928c1.734,0.197,3.361-0.941,4.492-2.131c0.42-0.439,0.342-0.945-0.293-1.094
					c-0.649-0.15-1.577,0.055-2.049,0.549c-0.367,0.387-0.706,0.715-1.132,0.977c0.138-0.064,0.135-0.062-0.008,0.004
					c-0.35,0.168,0.31-0.08-0.034,0.016c0.48-0.133-0.171-0.031,0.297-0.033c-0.291,0.002,0.27,0.061-0.002-0.006
					c0.334,0.082-0.206-0.156-0.018-0.01c-0.104-0.08-0.19-0.186-0.271-0.289c-0.118-0.156-0.221-0.461-0.285-0.777
					c-0.114-0.566,0.005-1.346,0.216-1.789c0.188-0.393,0.253-0.447,0.481-0.65c-0.131,0.095-0.138,0.102-0.02,0.02
					c0.284-0.194-0.281,0.121,0.038-0.022c-0.365,0.163-0.07,0.026,0.033,0.002c-0.498,0.121,0.219,0.021-0.179,0.029
					c0.668-0.015,1.518-0.199,1.908-0.81C92.048,98.516,91.378,98.156,90.881,98.166L90.881,98.166z"/>
			</g>
		</g>
		<g>
			<g>
				<path fill="#7F7F7F" d="M86.889,130.707c4.02,9.129,15.748,0.168,20.501-3.533c0.545-0.424-2.088-0.115-2.605,0.287
					c-4.127,3.215-11.759,9.828-14.998,2.469C89.511,129.303,86.707,130.291,86.889,130.707L86.889,130.707z"/>
			</g>
		</g>
	</g>
	<g>
		<g>
			<g>
				<path fill="#7F7F7F" d="M60.866,52.919c-2.88,0.556-5.451,2.557-7.916,4.036c-4.203,2.522-8.421,4.979-12.697,7.37
					c-2.07,1.157-5.392,3.013-6.219,5.451c-1.03,3.034,1.353,5.592,3.273,7.689c2.911,3.18,6.363,6.166,9.599,9.01
					c1.958,1.722,5.804,6.687,8.687,6.604c2.899-0.084,4.356-1.685,6.196-3.836c3.745-4.382,8.02-8.169,11.386-12.882
					c0.754-1.056-2.159-0.781-2.691-0.035c-2.201,3.082-12.079,16.827-16.141,13.142c-4.473-4.058-9.032-7.996-13.399-12.172
					c-1.896-1.813-4.456-4.255-4.285-7.102c0.156-2.615,4.408-4.51,6.385-5.614c2.239-1.253,4.461-2.488,6.664-3.81
					c3.029-1.817,7.254-5.621,10.751-6.296C61.796,54.216,62.862,52.534,60.866,52.919L60.866,52.919z"/>
			</g>
		</g>
		<g>
			<g>
				<path fill="#7F7F7F" d="M81.492,42.869c4.559-2.216,12.195-7.994,14.656-0.331c0.868,2.706-2.544,6.465-3.753,8.614
					c-1.542,2.739-2.821,5.63-4.161,8.471c-0.195,0.415,2.513,0.204,2.855-0.521c2.083-4.418,4.266-8.668,6.796-12.846
					c1.948-3.215,1.325-6.784-2.175-8.486c-4.954-2.41-11.755,2.75-15.879,4.755C78.111,43.361,80.83,43.191,81.492,42.869
					L81.492,42.869z"/>
			</g>
		</g>
		<g>
			<g>
				<path fill="#7F7F7F" d="M68.345,50.233c0.774-1.079,2.247-1.612,3.407-2.156c1.244-0.583,2.52-1.143,3.644-1.94
					c1.602-1.137-0.884-1.533-1.803-0.88c-2.492,1.769-6.09,2.311-7.949,4.903C64.864,51.248,67.789,51.009,68.345,50.233
					L68.345,50.233z"/>
			</g>
		</g>
		<g>
			<g>
				<path fill="#7F7F7F" d="M81.545,71.216c1.566-1.301,3.43-2.135,5.095-3.293c0.551-0.383-0.491-0.396-0.658-0.378
					c-0.674,0.075-1.385,0.277-1.945,0.667c-1.67,1.16-3.521,1.986-5.095,3.293c-0.501,0.416,0.448,0.401,0.658,0.378
					C80.234,71.813,81.041,71.635,81.545,71.216L81.545,71.216z"/>
			</g>
		</g>
	</g>
	<g>
		<g>
			<path fill="#543927" d="M89.52,130c-1.821-5.941-4.007-11.561-5.029-17.703c-0.564-3.395-2.601-7.889-6.646-7.984
				c-2.822-0.064-4.519,1.961-5.193,4.475c-1.168,4.35-3.503,7.316-7.286,9.898c-2.699,1.84-2.707,0.555-3.377,3.689
				c-1.544,7.217-3.842,14.252-5.43,21.459c-0.962,4.371-3.409,9.529,0.461,13.006c3.11,2.795,8.777,4.172,12.646,5.396
				c7.224,2.287,14.589,3.84,22.109,4.748c0.619,0.074,2.857-0.297,2.232-1.355c-2.952-4.992-3.699-11.615-4.938-17.227
				c-0.718-3.254-1.159-6.605-1.098-9.943c0.057-3.121,1.21-6.143,1.312-9.283c0.038-1.201-2.867-0.598-2.898,0.363
				c-0.102,3.146-0.943,6.166-1.312,9.283c-0.334,2.836,0.296,5.881,0.764,8.658c1.054,6.246,2.232,13.793,5.479,19.283
				c0.744-0.451,1.488-0.902,2.232-1.354c-10.329-1.248-20.169-3.83-29.854-7.617c-1.771-0.693-3.359-1.525-4.786-2.807
				c-2.189-1.967-0.749-6.072-0.198-8.477c1.183-5.166,2.495-10.295,3.879-15.412c0.653-2.414,1.281-4.832,1.876-7.262
				c0.783-3.203,1.373-3.387,3.922-5.125c2.602-1.775,5.319-4.654,6.513-7.611c0.492-0.826,0.708-1.719,0.649-2.676
				c2.423-1.887,4.062-1.59,4.916,0.887c1.058,1.852,1.235,4.305,1.532,6.369c0.736,5.133,3.104,10.135,4.624,15.098
				C86.934,131.795,89.823,130.99,89.52,130L89.52,130z"/>
			<path fill="#543927" d="M75.551,109.443c0.131-0.699,0.262-1.396,0.393-2.096c-0.966,0.121-1.933,0.242-2.898,0.363
				c-0.053,0.715-0.191,1.408-0.393,2.096c-0.187,0.641,0.905,0.664,1.251,0.621C74.473,110.355,75.367,110.074,75.551,109.443
				c0.2-0.688,0.339-1.381,0.393-2.096c0.088-1.195-2.721-0.584-2.898,0.363c-0.131,0.699-0.262,1.396-0.393,2.096
				C72.444,110.922,75.366,110.432,75.551,109.443z"/>
		</g>
	</g>
	<g>
		<g>
			<path fill="#543927" d="M79.47,82.615c4.562,5.964,7.348,13.005,11.28,19.366c4.276,6.918,9.318,13.539,12.83,20.896
				c1.424,2.98,3.074,8.586,6.541,9.771c3.137,1.074,7.301-2.051,9.686-3.662c2.855-1.93,4.541-4.322,2.684-7.762
				c-3.461-6.41-7.977-12.104-12.01-18.145c-3.975-5.948-7.367-12.382-11.158-18.459c-3.102-4.971-5.78-10.167-8.648-15.27
				c-0.617-1.097-3.353-0.044-2.625,1.252c4.437,7.891,9.208,15.495,13.789,23.285c3.227,5.485,6.184,10.897,10.037,15.989
				c1.85,2.443,10.791,13.787,7.555,16.682c-1.482,1.326-3.283,2.344-5.033,3.258c-3.23,1.684-4.205-0.471-5.645-3
				c-2.346-4.117-4.211-8.408-6.688-12.48c-3.42-5.623-7.162-11.043-10.566-16.677c-3.266-5.403-5.54-11.242-9.403-16.296
				C81.318,80.347,78.587,81.458,79.47,82.615L79.47,82.615z"/>
		</g>
	</g>
	<g>
		<g>
			<path fill="#543927" d="M115.064,141.828c0.297,6.711,5.543,11.947,9.391,17.018c3.305,4.354,5.373,6.594,11.043,4.873
				c4.703-1.428,9.219-3.604,7.521-9.154c-1.236-4.043-4.387-8.004-6.727-11.451c-2.148-3.166-3.369-6.717-6.098-9.494
				c-0.869-0.883-3.48,0.24-2.525,1.211c3.104,3.158,4.68,7.404,7.145,11.035c1.398,2.061,2.66,4.201,3.881,6.369
				c0.93,1.381,1.594,2.869,1.992,4.465c0.98,3.205-3.877,4.508-5.691,5.148c-5.344,1.887-7.744-3.908-10.459-7.365
				c-2.924-3.723-6.461-7.926-6.68-12.869C117.795,140.17,115.012,140.613,115.064,141.828L115.064,141.828z"/>
		</g>
	</g>
	<g>
		<g>
			<path fill="#543927" d="M63.192,49.559c-0.218-2.179-2.361-4.342-3.3-6.25c-1.756-3.574,2.359-4.576,4.666-5.851
				c0.918-0.507,3.477-2.54,4.502-1.714c0.813,0.654,1.374,1.76,1.91,2.631c1.204,1.958,1.854,4.187,3.18,6.065
				c0.588,0.834,3.392-0.152,2.686-1.152c-2.033-2.882-2.689-6.765-5.561-9.076c-1.875-1.508-5.248,0.528-6.92,1.413
				c-2.52,1.334-6.303,2.542-7.684,5.233c-1.64,3.197,3.334,6.583,3.622,9.478C60.394,51.344,63.305,50.698,63.192,49.559
				L63.192,49.559z"/>
		</g>
	</g>
	<g>
		<g>
			<g>
				<path fill="#EEBC40" d="M88.486,58.225c-3.611-1.729-26.499-14.759-28.129-7.311c0.939-0.252,1.879-0.504,2.818-0.755
					c-0.112-0.168-0.225-0.336-0.337-0.505c-0.594-0.89-2.694-0.251-2.818,0.755c-0.594,4.817,1.976,7.042,6.057,9.054
					c6.697,3.3,13.578,6.364,19.824,10.485c2.312,1.525,4.445,0.743,5.642-1.797C93.68,63.613,92.959,60.539,88.486,58.225
					c-1.052-0.545-3.659,0.898-2.271,1.615c3.899,2.018,3.922,4.323,2.553,8.048c-0.281,0.764-7.822-3.769-8.891-4.31
					c-3.831-1.94-7.637-3.912-11.528-5.731c-3.468-1.622-5.894-3.511-5.377-7.699c-0.939,0.252-1.879,0.504-2.818,0.755
					c0.112,0.168,0.225,0.336,0.337,0.505c0.629,0.943,2.608,0.203,2.818-0.755c0.236-1.078,20.82,8.189,22.906,9.187
					C87.277,60.349,89.88,58.892,88.486,58.225z"/>
			</g>
		</g>
		<g>
			<g>
				<path fill="#EEBC40" d="M75.38,51.778c0.215-1.583,0.501-3.15,0.899-4.698c0.274-1.063,0.64-2.105,1.151-3.078
					c0.573-1.089,0.771-1.232,1.611-0.303c2.382,2.636,0.246,8.588-0.205,11.643c-0.171,1.153,2.775,0.63,2.922-0.365
					c0.542-3.666,3.347-12.441-2.169-13.642c-5.443-1.185-6.654,7.285-7.132,10.809C72.3,53.305,75.247,52.772,75.38,51.778
					L75.38,51.778z"/>
			</g>
		</g>
		<g>
			<g>
				<path fill="#EEBC40" d="M70.991,62.285c-0.052,4.179-0.643,8.329-0.751,12.497c-0.074,2.855,3.336,2.818,5.375,2.704
					c6.652-0.375,6.233-8.569,4.988-13.377c-0.154-0.593-3.08,0.179-2.924,0.783c0.626,2.414,0.637,4.855,0.488,7.331
					c-0.159,2.669-0.758,5.095-4.005,3.783c-1.609-0.649-0.914-3.393-0.792-4.625c0.324-3.268,0.503-6.598,0.544-9.88
					C73.919,61.107,71.001,61.489,70.991,62.285L70.991,62.285z"/>
			</g>
		</g>
	</g>
	<g>
		<g>
			<g>
				<path fill="#EEBC40" d="M107.707,131.025c-0.428,2.541,1.951,5.359,4.236,6.094c3.195,1.025,7.277-2.584,9.877-3.846
					c2.496-1.213,5.602-2.865,5.963-5.906c0.34-2.871-3.043-5.396-5.609-5.207c-1.482,0.109-2.359,1.887-0.359,1.74
					c2.66-0.197,3.492,4.262,2.217,5.795c-1.148,1.381-3.137,2.135-4.717,2.889c-1.604,0.768-3.041,1.816-4.639,2.596
					c-2.135,1.039-4.326-2.906-4.061-4.48C110.822,129.477,107.889,129.959,107.707,131.025L107.707,131.025z"/>
			</g>
		</g>
		<g>
			<g>
				<path fill="#EEBC40" d="M111.402,136.461c-0.344,1.854,0.727,5.438,2.988,5.576c2.766,0.168,5.518-1.986,7.707-3.32
					c2.463-1.5,5.986-2.426,7.68-4.945c1.416-2.109,0.717-5.715-1.92-6.453c-0.648-0.182-3.186,0.867-2.391,1.09
					c1.771,0.496,2.109,2.682,2.146,4.238c0.061,2.434-3.76,3.99-5.512,4.879c-1.236,0.629-2.43,1.271-3.6,2.021
					c-1.092,0.701-2.072,1.934-2.963,0.5c-0.818-1.316-1.588-2.467-1.283-4.113C114.369,135.316,111.527,135.785,111.402,136.461
					L111.402,136.461z"/>
			</g>
		</g>
	</g>
	<g>
		<g>
			<path fill="#FFFFFF" d="M79.736,73.863c4.57,1,12.926,2.623,12.926,2.623c1.607-0.172,2.453,1.962,1.184,2.985
				c1.946-0.086,5.33,4.607,3.13,4.863l0.687,0.028c-3.516-0.5-20.92-2.333-21.097-6.666l0.965-1.167
				c4.923,1.167,12.482,3.167,17.054,3.333"/>
			<g>
				<path fill="#EEBC40" d="M78.801,74.667c2.721,0.589,5.448,1.141,8.177,1.687c0.603,0.121,7.248,0.617,5.459,3.101
					c-0.3,0.415,0.05,0.755,0.474,0.821c0.666,0.104,3.883,3.312,3.473,3.463c-0.984,0.365-1.296,1.379-0.005,1.433
					c0.229,0.01,0.458,0.019,0.687,0.028c0.771,0.032,3.214-1.408,1.531-1.64c-3.646-0.502-7.284-0.979-10.895-1.702
					c-1.985-0.398-11.424-2.092-8.764-5.31c-0.78,0.263-1.562,0.524-2.343,0.786c5.729,1.373,11.486,3.004,17.392,3.365
					c1.121,0.068,3.242-1.546,1.193-1.672c-5.662-0.347-11.224-1.985-16.716-3.301c-0.778-0.187-1.838,0.175-2.343,0.786
					c-2.786,3.369,2.593,5.081,5.335,5.87c4.994,1.438,10.137,2.078,15.271,2.784c0.511-0.546,1.021-1.093,1.531-1.64
					c-0.229-0.01-0.458-0.019-0.687-0.028c-0.002,0.478-0.003,0.955-0.005,1.433c3.818-1.413-0.246-5.865-2.787-6.264
					c0.158,0.273,0.315,0.548,0.474,0.821c1.764-2.446-0.256-3.532-2.459-3.963c-4.048-0.791-8.094-1.596-12.124-2.467
					C79.739,72.858,77.093,74.297,78.801,74.667L78.801,74.667z"/>
			</g>
		</g>
	</g>
	<g>
		<g>
			<g>
				<g>
					<path fill="#80D0DE" d="M95.01,79.414c8.71-3.75,20.718,0.917,28.781,4.614c9.408,4.315,15.312,10.463,21.254,18.724
						c0.545,0.756,3.18-0.387,2.898-0.777c-3.066-4.262-5.898-8.507-9.92-11.954c-4.691-4.019-10.65-6.813-16.342-9.086
						c-8.338-3.328-19.064-6.009-27.703-2.289C92.095,79.457,93.875,79.903,95.01,79.414L95.01,79.414z"/>
				</g>
			</g>
			<g>
				<g>
					<path fill="#80D0DE" d="M93.474,79.896c7.284,6.905,15.67,12.349,24.774,16.541c8.08,3.721,18.369,7.129,27.32,7.305
						c0.945,0.02,3.135-1.387,1.186-1.426c-4.908-0.096-10.617-1.895-15.383-3.192c-4.238-1.153-8.322-2.829-12.305-4.662
						c-8.418-3.877-16.166-9.266-22.883-15.633C95.532,78.212,92.835,79.291,93.474,79.896L93.474,79.896z"/>
				</g>
			</g>
		</g>
		<g>
			<g>
				<path fill="#80D0DE" d="M117.244,80.487c-2.266,0.532-5.383,1.931-6.668,3.979c-0.658,1.048,2.225,0.673,2.672-0.039
					c0.852-1.357,2.811-2.331,4.332-2.688c0.352-0.083,1.428-0.466,1.281-1.015C118.709,80.163,117.598,80.404,117.244,80.487
					L117.244,80.487z"/>
			</g>
		</g>
		<g>
			<g>
				<path fill="#80D0DE" d="M123.707,82.347c-3.129,0.961-5.893,2.932-8.305,5.092c0.842,0.106,1.684,0.212,2.525,0.318
					c0.002-0.004,0.004-0.007,0.006-0.01c0.404-0.577-0.342-0.89-0.801-0.907c-0.674-0.026-1.506,0.23-1.908,0.806
					c-0.002,0.003-0.004,0.006-0.008,0.009c-0.295,0.42,0.068,0.773,0.477,0.867c0.688,0.156,1.525-0.082,2.049-0.55
					c1.836-1.644,3.986-3.36,6.375-4.094c0.43-0.133,1.412-0.521,1.244-1.154C125.197,82.113,124.137,82.215,123.707,82.347
					L123.707,82.347z"/>
			</g>
		</g>
		<g>
			<g>
				<path fill="#80D0DE" d="M122.811,90.021c1.719-1.66,3.812-3.075,6.146-3.676c0.266-0.067,1.445-0.404,1.32-0.871
					c-0.125-0.469-1.312-0.162-1.578-0.094c-3.197,0.821-6.152,2.533-8.521,4.824c-0.482,0.468,0.422,0.54,0.697,0.521
					C121.518,90.681,122.332,90.484,122.811,90.021L122.811,90.021z"/>
			</g>
		</g>
		<g>
			<g>
				<path fill="#80D0DE" d="M127.576,92.997c2.018-1.903,4.877-2.598,7.141-4.149c0.494-0.34,0.324-0.776-0.227-0.85
					c-0.707-0.093-1.471,0.153-2.051,0.549c-2.455,1.684-5.314,2.426-7.527,4.515c-0.518,0.488,0.441,0.689,0.74,0.682
					C126.355,93.726,127.064,93.48,127.576,92.997L127.576,92.997z"/>
			</g>
		</g>
		<g>
			<g>
				<path fill="#80D0DE" d="M133.582,96.265c1.174-1.408,3.098-2.224,4.834-2.683c0.355-0.094,1.428-0.464,1.277-1.024
					s-1.262-0.342-1.619-0.247c-2.574,0.681-5.422,1.891-7.166,3.981c-0.443,0.532,0.375,0.735,0.752,0.731
					C132.318,97.017,133.145,96.79,133.582,96.265L133.582,96.265z"/>
			</g>
		</g>
	</g>
</g>
</svg>
