<?xml version="1.0" encoding="utf-8"?>
<!-- Generator: Adobe Illustrator 15.0.0, SVG Export Plug-In . SVG Version: 6.00 Build 0)  -->
<!DOCTYPE svg PUBLIC "-//W3C//DTD SVG 1.1//EN" "http://www.w3.org/Graphics/SVG/1.1/DTD/svg11.dtd">
<svg version="1.1" id="Layer_1" xmlns="http://www.w3.org/2000/svg" xmlns:xlink="http://www.w3.org/1999/xlink" x="0px" y="0px"
	 width="198.43px" height="198.43px" viewBox="0 0 198.43 198.43" enable-background="new 0 0 198.43 198.43" xml:space="preserve">
<circle fill="#FFFFFF" cx="100.7" cy="99.214" r="80.125"/>
<g>
	<g>
		<g>
			<g>
				<path fill="#80CFDD" d="M202.817-152.443c-4.241,2.238-7.564,4.189-9.5,8.734c-2.112,4.959-5.212,10.831-2.078,15.9
					c2.545,4.118,0.229,7.528-1.895,11.228c-0.925,1.611-3.373,4.433-2.77,6.551c1.122,3.941,5.833,5.145,9.485,5.1
					c-0.298-0.227-0.597-0.453-0.896-0.679c-0.185,1.827-0.456,3.608-0.854,5.402c-0.053,0.235,0.09,0.45,0.303,0.546
					c1.581,0.925,2.097,2.069,1.546,3.434c-0.06,0.273,0.108,0.403,0.303,0.546c4.087,2.976-1.274,10.68,5.622,12.287
					c4.556,1.062,7.674-2.137,10.91-4.924c1.283-1.106-1.598-1.162-2.338-0.525c-1.285,1.107-2.541,2.223-3.907,3.236
					c-4.446,3.296-6.06-2.764-5.798-5.026c0.211-1.834,0.731-3.917-0.719-5.489c-1.178-1.275-0.471-1.898-1.179-3.477
					c-0.19-0.426-0.626-0.82-1.048-1.01c-1.149-0.513-0.03-4.442,0.061-5.346c0.05-0.495-0.478-0.684-0.896-0.679
					c-2.343,0.029-4.461-0.524-6.369-1.932c-2.97-2.191-0.045-5.717,1.249-7.92c2.033-3.46,4.414-7.037,2.771-11.049
					c-0.938-2.289-2.205-3.37-2.057-6.074c0.129-2.343,1.182-4.716,2.018-6.872c1.015-2.618,1.923-5.333,3.895-7.403
					c1.559-1.635,3.988-2.604,5.951-3.641C206.358-152.436,203.794-152.959,202.817-152.443L202.817-152.443z"/>
			</g>
		</g>
		<g>
			<g>
				<path fill="#80CFDD" d="M214.44-85.574c4.729,0.184,6.241,7.589,6.377,11.242c0.2,5.385-7.85,5.478-10.704,9.036
					c-0.185,0.229,2.319,0.159,2.857-0.512c3.558-4.436,10.988-2.739,10.716-10.062c-0.156-4.237-2.361-10.689-7.367-10.885
					C215.709-86.778,213.004-85.631,214.44-85.574L214.44-85.574z"/>
			</g>
		</g>
	</g>
	<g>
		<g>
			<g>
				<path fill="#807F7F" d="M218.084-167.604c-9.412,1.655-13.41,10.399-15.659,18.827c-0.604,2.267-1.373,4.745-1.362,7.102
					c0.017,3.498,2.943,7.004,2.172,10.301c-0.75,3.205-8.669,9.365-7.129,12.889c0.719,1.645,2.08,2.731,3.443,3.851
					c2.605,2.137,3.261,2.656,2.773,6.222c-0.322,2.355,3.23,4.308,2.798,6.057c-0.396,1.599,1.422,2.38,2.543,2.935
					c5.055,2.499-0.992,11.746,5.131,13.953c5.33,1.921,7.632-1.448,12.14-3.547c2.448-1.141,0.176-2.177-1.479-1.406
					c-1.398,0.651-2.602,1.412-3.842,2.329c-4.802,3.554-5.947-1.77-6.031-4.617c-0.053-1.819,0.729-4.742-0.382-6.41
					c-1.013-1.52-2.261-1.844-3.762-2.805c-0.484-0.311-0.302-3.116-1.249-3.932c-2.689-2.313-1.799-3.482-1.609-6.448
					c0.137-2.136-3.77-4.033-5.135-5.254c-3.5-3.131,1.571-7.74,3.463-10.569c2.619-3.914,2.693-5.608,0.746-9.873
					c-1.998-4.375,0.22-10.279,1.583-14.628c1.534-4.896,4.514-12.006,10.271-13.018
					C219.262-165.955,220.762-168.074,218.084-167.604L218.084-167.604z"/>
			</g>
		</g>
		<g>
			<g>
				<path fill="#807F7F" d="M229.057-87.195c3.387-0.19,6.144,10.238,6.687,12.691c1.116,5.049-2.304,6.707-6.351,8.409
					c-1.436,0.604-2.467,2.25-3.307,3.47c-1.03,1.497,2.873,1.183,3.607,0.115c2.047-2.973,6.266-3.258,8.697-6.039
					c1.982-2.267,1.519-5.957,0.822-8.612c-1.176-4.484-3.9-12.562-9.646-12.239C227.627-89.29,226.385-87.045,229.057-87.195
					L229.057-87.195z"/>
			</g>
		</g>
	</g>
	<g>
		<g>
			<g>
				<path fill="#80CFDD" d="M239.329-188.143c-6.883,1.157-13.89,5.127-17.083,11.604c-2.455,4.981-5.2,10.542-5.605,16.151
					c-0.137,1.912,0.631,3.707,1.395,5.401c1.51,3.345,1.673,5.371-0.505,8.58c-3.168,4.667-6.716,9.053-9.562,13.948
					c-1.729,2.974,3.494,6.383,5.352,7.614c2.674,1.773,3.574,3.122,2.277,5.964c-0.564,1.237,0.322,2.402,1.082,3.234
					c0.842,0.923,2.555,1.323,3.699,1.647c-0.411-0.116-1.427,4.31-1.469,4.571c-0.061,0.376,0.254,0.479,0.551,0.564
					c9.22,2.669-0.555,12.966,3.976,18.562c3.889,4.803,9.95,2.018,14.587,0.839c1.741-0.442,1.367-1.806-0.365-1.365
					c-4.104,1.043-7.932,2.496-11.524-0.586c-3.425-2.938-0.005-8.146,0.501-11.577c0.307-2.087-0.525-4.047-1.803-5.614
					c-0.488-0.6-1.429-1.006-2.084-1.339c-1.855-0.942,0.304-3.685,0.941-4.501c0.326-0.418-0.088-0.665-0.449-0.767
					c-1.867-0.528-5.025-1.106-4.75-4.056c0.096-1.038,0.992-2.099,1.178-3.198c0.362-2.147-3.951-3.69-4.982-4.375
					c-1.613-1.069-2.973-2.574-3.936-4.244c-0.906-1.571,2.641-5.633,3.383-6.77c2.172-3.324,4.646-6.416,6.873-9.696
					c1.503-2.215,1.566-4.372,0.656-6.812c-1.561-4.179-2.58-6.574-1.195-11.177c2.859-9.509,7.643-19.264,18.444-21.08
					C240.254-186.845,241.335-188.48,239.329-188.143L239.329-188.143z"/>
			</g>
		</g>
		<g>
			<g>
				<path fill="#80CFDD" d="M251.071-86.681c2.847-0.283,4.654,4.96,5.394,6.984c1.647,4.51,1.151,9.099,0.077,13.664
					c0.97-0.106,1.94-0.212,2.91-0.318c0-0.25,0-0.5,0-0.75c0-1.319-2.91-0.742-2.91,0.318c0,0.25,0,0.5,0,0.75
					c0,1.349,2.671,0.699,2.91-0.318c1.365-5.805,1.384-11.088-1.102-16.592c-1.336-2.958-3.391-5.86-6.928-5.51
					C249.939-88.305,249.072-86.483,251.071-86.681L251.071-86.681z"/>
			</g>
		</g>
	</g>
	<g>
		<g>
			<g>
				<path fill="#807F7F" d="M277.989-209.275c-7.013,0.613-13.98,2.061-20.831,3.652c-8.426,1.957-13.528,8.622-17.498,15.846
					c-2.202,4.01-4.158,8.163-6.312,12.202c-1.856,3.481-3.913,7.742-2.084,11.618c0.891,1.889,1.977,1.787,1.321,4.318
					c-0.772,2.988-3.175,5.712-4.616,8.426c-3.119,5.872-6.986,11.185-9.599,17.337c-0.052,0.174-0.013,0.323,0.12,0.448
					c4.684,3.651,9.393,7.834,15.681,7.595c-0.381-0.238-0.762-0.476-1.143-0.714c-0.253,2.553-1.686,5.015-0.708,7.51
					c0.756,1.928,4.197,2.194,5.865,2.506c-0.106-0.397-0.213-0.794-0.319-1.191c-1.64,1.307-4.13,3.42-4.163,5.734
					c-0.048,3.33,3.369,3.993,4.646,6.785c1.366,2.988-1.708,7.681-2.578,10.504c-1.08,3.507,0.752,6.008,3.35,8.163
					c10.285,8.534,25.193-5.518,33.379-10.677c4.068-2.564,8.218-4.995,12.261-7.599c2.342-1.509,5.427-2.78,7.174-5.045
					c3.768-4.885,4.322-12.05,4.044-18.021c-0.305-6.532-6.26-8.818-11.95-8.973c-5.23-0.143-8.733,2.888-10.8,7.417
					c-0.461,1.011,3.319,0.603,3.846-0.551c3.211-7.038,12.577-5.808,14.801,1.238c1.236,3.921,0.04,9.153-0.849,13.039
					c-1.34,5.865-5.425,7.914-10.138,10.949c-4.871,3.137-9.877,6.059-14.758,9.182c-3.708,2.373-7.164,5.086-11.005,7.258
					c-5.329,3.014-16.167,2.756-15.741-5.765c0.191-3.822,2.959-7.013,3.033-10.963c0.032-1.715-1.148-2.924-2.31-3.981
					c-1.008-0.917-1.965-1.44-2.56-2.765c-0.87-1.938,2.139-4.491,3.368-5.471c0.634-0.505,0.44-1.051-0.319-1.192
					c-2.516-0.47-5.23-1.014-4.645-4.231c0.271-1.494,0.771-2.89,0.921-4.411c0.062-0.621-0.654-0.731-1.143-0.713
					c-3.665,0.139-6.481-1.703-9.343-3.732c-2.633-1.867-4.283-2.81-2.695-6.188c2.686-5.708,6.365-11.116,9.597-16.536
					c1.226-2.056,4.882-6.658,3.09-9.143c-3.171-4.398-1.46-8.242,0.813-12.715c4.269-8.399,8.18-19.107,16.489-24.3
					c2.664-1.665,6.476-2.1,9.508-2.722c4.694-0.963,9.429-1.81,14.206-2.228C279.191-207.531,280.683-209.51,277.989-209.275
					L277.989-209.275z"/>
			</g>
		</g>
		<g>
			<g>
				<path fill="#807F7F" d="M265.396-94.668c2.973-0.672,5.585,4.938,6.492,6.902c1.998,4.327,1.318,9.332,1.048,13.927
					c0.729-0.451,1.456-0.901,2.185-1.352c-0.052,0.005-0.104,0.01-0.156,0.016c0.562,0.299,1.124,0.598,1.687,0.896
					c0.011-0.088,0.021-0.177,0.031-0.266c0.191-1.623-3.709-0.921-3.871,0.455c-0.011,0.088-0.021,0.177-0.031,0.266
					c-0.105,0.892,1.072,0.958,1.687,0.896c0.052-0.005,0.104-0.01,0.156-0.016c0.631-0.062,2.136-0.511,2.185-1.352
					c0.355-6.038,0.836-11.909-2.483-17.283c-2.264-3.666-5.024-6.144-9.477-5.138C262.48-96.18,263.062-94.141,265.396-94.668
					L265.396-94.668z"/>
			</g>
		</g>
	</g>
	<g>
		<g>
			<g>
				<path fill="#E84344" d="M214.576-177.588c6.66-13.411-4.867-27.708-19.205-24.036c0.476,0.474,0.951,0.947,1.426,1.42
					c13.484-7.613,31.575-6.844,46.018-3.366c-0.113-0.425-0.228-0.851-0.342-1.276c-4.939,4.399-9.892,8.783-14.854,13.156
					c-3.439,3.03-6.886,6.053-10.353,9.052c-1.332,1.151-2.668,2.297-4.018,3.428c-1.797,1.506-2.412,0.937,0.157,0.882
					c0.387,0.261,0.774,0.521,1.161,0.781C214.57-177.561,214.573-177.574,214.576-177.588c0.344-1.325-3.531-0.73-3.854,0.519
					c-0.004,0.014-0.008,0.027-0.011,0.041c-0.164,0.634,0.733,0.79,1.161,0.781c2.139-0.045,3.77-1.843,5.296-3.13
					c3.575-3.016,7.085-6.112,10.601-9.197c5.946-5.219,11.869-10.465,17.777-15.726c0.62-0.552,0.433-1.089-0.342-1.276
					c-16.104-3.878-35.854-4.086-50.775,4.339c-1.877,1.06,0.271,1.715,1.426,1.42c13.137-3.365,19.907,12.601,14.867,22.75
					C210.202-176.022,213.99-176.408,214.576-177.588z"/>
			</g>
		</g>
		<path fill="none" stroke="#E84344" stroke-width="2" stroke-miterlimit="10" d="M174.311-87.105
			c-26.598-58.5,18.824-93.038,39.026-104.556l-2.501-3.712c-16.932,7.939-50.678,29.647-55.314,75.049"/>
	</g>
	<circle fill="none" stroke="#807F7F" stroke-width="3" stroke-miterlimit="10" cx="232.68" cy="-141.994" r="80.125"/>
</g>
<g>
	<circle fill="#F9AA53" cx="101.092" cy="99.215" r="80.125"/>
	<g>
		<g>
			<g>
				<g>
					<path fill="#FFFFFF" d="M146.401,31.935c-7.013,0.613-13.98,2.061-20.831,3.652c-8.426,1.957-13.528,8.622-17.498,15.846
						c-2.202,4.01-4.158,8.163-6.312,12.202c-1.856,3.481-3.913,7.742-2.084,11.618c0.891,1.889,1.977,1.787,1.322,4.318
						c-0.773,2.988-3.175,5.712-4.617,8.426c-3.119,5.872-6.986,11.185-9.598,17.337c-0.052,0.174-0.012,0.323,0.12,0.448
						c4.684,3.65,9.393,7.834,15.681,7.594c-0.381-0.237-0.762-0.475-1.143-0.713c-0.253,2.553-1.686,5.015-0.708,7.51
						c0.756,1.928,4.197,2.194,5.865,2.506c-0.106-0.397-0.213-0.795-0.319-1.191c-1.64,1.307-4.13,3.42-4.163,5.734
						c-0.048,3.33,3.369,3.993,4.646,6.785c1.366,2.988-1.708,7.681-2.578,10.504c-1.08,3.507,0.752,6.008,3.35,8.163
						c10.285,8.534,25.193-5.518,33.379-10.677c4.068-2.564,8.218-4.995,12.261-7.599c2.342-1.509,5.427-2.78,7.174-5.045
						c3.768-4.885,4.322-12.05,4.044-18.021c-0.305-6.532-6.26-8.818-11.95-8.974c-5.23-0.142-8.733,2.889-10.8,7.418
						c-0.461,1.011,3.319,0.603,3.846-0.551c3.211-7.038,12.577-5.809,14.801,1.238c1.236,3.92,0.04,9.153-0.849,13.039
						c-1.34,5.865-5.425,7.914-10.138,10.949c-4.871,3.137-9.877,6.059-14.758,9.182c-3.708,2.373-7.164,5.086-11.005,7.258
						c-5.329,3.014-16.167,2.756-15.741-5.765c0.191-3.822,2.959-7.013,3.033-10.963c0.032-1.715-1.148-2.924-2.31-3.981
						c-1.008-0.917-1.965-1.44-2.56-2.765c-0.87-1.938,2.139-4.491,3.368-5.472c0.634-0.504,0.44-1.05-0.319-1.191
						c-2.516-0.47-5.23-1.014-4.645-4.232c0.271-1.493,0.771-2.889,0.921-4.41c0.062-0.621-0.654-0.732-1.143-0.713
						c-3.666,0.139-6.482-1.703-9.342-3.732c-2.633-1.867-4.284-2.811-2.695-6.188c2.685-5.708,6.365-11.116,9.596-16.536
						c1.226-2.056,4.882-6.658,3.09-9.143c-3.171-4.398-1.46-8.242,0.813-12.715c4.269-8.399,8.18-19.107,16.489-24.3
						c2.664-1.665,6.476-2.1,9.508-2.722c4.694-0.963,9.429-1.81,14.206-2.228C147.603,33.678,149.095,31.699,146.401,31.935
						L146.401,31.935z"/>
				</g>
			</g>
			<g>
				<g>
					<path fill="#FFFFFF" d="M107.811,52.813c-7.348,1.235-13.648,5.204-17.498,11.653c-2.418,4.052-3.97,8.867-5.321,13.36
						c-1.584,5.268,2.88,8.817,2.228,13.703c-0.268,2.006-2.339,4.093-3.513,5.645c-1.896,2.507-3.623,5.13-5.341,7.761
						c-2.376,3.638-3.795,5.092-0.761,8.698c1.024,1.217,2.551,2.313,3.931,3.083c1.552,0.602,2.55,1.783,2.991,3.545
						c-0.195,1.158-0.982,1.949-1.099,3.199c-0.264,2.824,4.222,3.765,6.136,4.306c-0.199-0.341-0.398-0.682-0.598-1.022
						c-1.268,1.623-1.796,3.046-2.127,5.104c-0.081,0.501,0.339,0.639,0.734,0.753c5.11,1.479,4.348,6.505,2.943,10.406
						c-1.109,3.082-1.205,5.512,0.882,8.088c3.987,4.926,10.329,2.094,15.098,0.882c2.32-0.59,1.822-2.407-0.488-1.82
						c-3.955,1.005-7.53,2.444-11.014-0.544c-3.366-2.887,0.036-8.081,0.533-11.455c0.314-2.135-0.527-4.132-1.834-5.736
						c-0.499-0.612-1.477-1.039-2.147-1.38c-1.682-0.854,0.396-3.495,1.002-4.271c0.436-0.558-0.117-0.887-0.598-1.022
						c-1.78-0.503-4.83-1.061-4.567-3.867c0.097-1.038,0.993-2.099,1.179-3.198c0.38-2.255-3.863-3.73-5.016-4.496
						c-1.589-1.055-2.953-2.543-3.901-4.188c-0.882-1.53,2.628-5.534,3.348-6.636c2.171-3.324,4.646-6.417,6.872-9.696
						c1.528-2.251,1.619-4.461,0.691-6.945c-1.554-4.165-2.575-6.527-1.196-11.112c2.771-9.215,7.382-18.995,17.894-20.762
						C109.044,54.543,110.486,52.363,107.811,52.813L107.811,52.813z"/>
				</g>
			</g>
			<g>
				<g>
					<path fill="#FFFFFF" d="M86.496,73.606c-9.413,1.655-13.41,10.399-15.659,18.827c-0.605,2.267-1.373,4.745-1.362,7.102
						c0.017,3.498,2.943,7.003,2.172,10.3c-0.75,3.206-8.669,9.366-7.129,12.89c0.718,1.645,2.08,2.731,3.444,3.851
						c2.605,2.137,3.26,2.656,2.772,6.222c-0.322,2.355,3.231,4.308,2.798,6.057c-0.396,1.599,1.422,2.38,2.543,2.935
						c5.055,2.499-0.992,11.746,5.131,13.953c5.33,1.921,7.632-1.448,12.139-3.547c2.449-1.141,0.177-2.177-1.478-1.406
						c-1.399,0.651-2.602,1.412-3.842,2.329c-4.802,3.554-5.948-1.77-6.032-4.617c-0.053-1.819,0.729-4.742-0.382-6.41
						c-1.012-1.52-2.261-1.844-3.762-2.805c-0.484-0.311-0.302-3.116-1.25-3.932c-2.689-2.313-1.798-3.482-1.609-6.448
						c0.136-2.136-3.77-4.033-5.135-5.254c-3.5-3.131,1.571-7.74,3.463-10.569c2.619-3.915,2.693-5.608,0.746-9.873
						c-1.998-4.375,0.22-10.279,1.583-14.628c1.534-4.896,4.514-12.006,10.271-13.018C87.674,75.254,89.175,73.135,86.496,73.606
						L86.496,73.606z"/>
				</g>
			</g>
			<g>
				<g>
					<path fill="#FFFFFF" d="M70.926,88.613c-4.328,2.284-7.706,4.308-9.681,8.945c-2.142,5.03-5.214,10.902-2.042,16.034
						c2.494,4.034,0.18,7.399-1.898,11.021c-0.955,1.664-3.421,4.518-2.801,6.695c1.154,4.056,6.027,5.301,9.783,5.255
						c-0.398-0.303-0.796-0.604-1.194-0.905c-0.184,1.827-0.456,3.608-0.854,5.402c-0.069,0.313,0.121,0.601,0.404,0.728
						c1.501,0.869,1.983,1.953,1.445,3.252c-0.08,0.365,0.144,0.538,0.404,0.728c4.104,2.987-1.402,10.66,5.711,12.318
						c4.829,1.126,8.16-2.15,11.592-5.107c1.713-1.476-2.128-1.55-3.115-0.699c-1.257,1.083-2.485,2.18-3.821,3.17
						c-3.94,2.92-5.221-3.119-5.012-4.931c0.217-1.883,0.73-4.015-0.755-5.624c-1.191-1.29-0.409-1.776-1.143-3.413
						c-0.208-0.465-0.685-0.912-1.148-1.12c-0.987-0.44,0.081-4.357,0.162-5.164c0.066-0.661-0.637-0.911-1.194-0.905
						c-2.242,0.028-4.277-0.49-6.106-1.84c-2.887-2.13-0.006-5.568,1.253-7.711c2.054-3.496,4.464-7.14,2.803-11.195
						c-0.922-2.252-2.203-3.339-2.056-6.002c0.128-2.344,1.181-4.715,2.017-6.871c0.991-2.558,1.875-5.237,3.801-7.258
						c1.531-1.607,3.934-2.557,5.864-3.575C75.647,88.623,72.23,87.925,70.926,88.613L70.926,88.613z"/>
				</g>
			</g>
			<g>
				<g>
					<path fill="#FFFFFF" d="M97.469,154.015c3.387-0.19,6.144,10.238,6.687,12.691c1.116,5.049-2.304,6.707-6.351,8.409
						c-1.435,0.604-2.466,2.25-3.306,3.47c-1.031,1.497,2.872,1.183,3.606,0.115c2.046-2.973,6.266-3.258,8.698-6.039
						c1.982-2.267,1.519-5.957,0.822-8.612c-1.176-4.484-3.9-12.562-9.646-12.239C96.039,151.919,94.798,154.164,97.469,154.015
						L97.469,154.015z"/>
				</g>
			</g>
			<g>
				<g>
					<path fill="#FFFFFF" d="M82.538,155.831c4.608,0.18,6.077,7.649,6.208,11.175c0.194,5.223-7.886,5.487-10.698,8.992
						c-0.246,0.307,3.093,0.212,3.811-0.682c3.561-4.44,10.998-2.7,10.723-10.105c-0.162-4.361-2.435-10.753-7.537-10.952
						C84.232,154.228,80.624,155.756,82.538,155.831L82.538,155.831z"/>
				</g>
			</g>
		</g>
		<g>
			<g>
				<path fill="#FFFFFF" d="M82.989,63.622c6.66-13.411-4.868-27.708-19.205-24.036c0.475,0.474,0.95,0.947,1.425,1.42
					c13.484-7.613,31.575-6.844,46.018-3.366c-0.113-0.425-0.228-0.851-0.342-1.276c-4.939,4.399-9.892,8.783-14.854,13.156
					c-3.439,3.03-6.886,6.053-10.353,9.052c-1.332,1.151-2.668,2.297-4.018,3.428c-1.796,1.506-2.412,0.937,0.157,0.882
					c0.387,0.261,0.774,0.521,1.161,0.781C82.982,63.649,82.986,63.635,82.989,63.622c0.343-1.325-3.531-0.73-3.854,0.519
					c-0.003,0.014-0.007,0.027-0.01,0.041c-0.164,0.634,0.733,0.79,1.161,0.781c2.14-0.045,3.77-1.843,5.296-3.13
					c3.575-3.016,7.084-6.112,10.6-9.197c5.947-5.219,11.87-10.465,17.778-15.726c0.62-0.552,0.433-1.089-0.342-1.276
					c-16.104-3.878-35.854-4.086-50.775,4.339c-1.877,1.06,0.271,1.715,1.425,1.42c13.138-3.365,19.908,12.601,14.867,22.75
					C78.615,65.188,82.403,64.801,82.989,63.622z"/>
			</g>
		</g>
		<g>
			<g>
				<path fill="#FFFFFF" d="M119.424,154.823c2.514-0.25,4.325,5.055,4.97,6.819c1.64,4.49,1.145,9.042,0.075,13.587
					c1.293-0.142,2.586-0.282,3.879-0.424c0-0.25,0-0.5,0-0.75c0-1.76-3.879-0.989-3.879,0.424c0,0.25,0,0.5,0,0.75
					c0,1.799,3.561,0.933,3.879-0.424c1.37-5.822,1.39-11.148-1.103-16.668c-1.43-3.165-3.603-6.048-7.353-5.676
					C117.915,152.658,116.759,155.088,119.424,154.823L119.424,154.823z"/>
			</g>
		</g>
		<g>
			<g>
				<path fill="#FFFFFF" d="M133.808,146.541c2.973-0.672,5.585,4.938,6.492,6.902c1.998,4.327,1.318,9.332,1.048,13.927
					c0.729-0.451,1.456-0.901,2.185-1.352c-0.052,0.005-0.104,0.01-0.156,0.016c0.562,0.299,1.124,0.598,1.687,0.896
					c0.011-0.088,0.021-0.177,0.031-0.266c0.191-1.623-3.709-0.921-3.871,0.455c-0.011,0.088-0.021,0.177-0.031,0.266
					c-0.105,0.892,1.072,0.958,1.687,0.896c0.052-0.005,0.104-0.01,0.156-0.016c0.631-0.062,2.136-0.511,2.185-1.352
					c0.355-6.038,0.836-11.909-2.483-17.283c-2.264-3.666-5.024-6.144-9.477-5.138C130.892,145.03,131.474,147.069,133.808,146.541
					L133.808,146.541z"/>
			</g>
		</g>
		<path fill="none" stroke="#FFFFFF" stroke-width="2" stroke-miterlimit="10" d="M42.723,154.105
			c-26.598-58.5,18.824-93.038,39.026-104.556l-2.501-3.712c-16.932,7.939-50.678,29.647-55.314,75.049"/>
	</g>
</g>
</svg>
