<?xml version="1.0" encoding="utf-8"?>
<!-- Generator: Adobe Illustrator 15.0.0, SVG Export Plug-In . SVG Version: 6.00 Build 0)  -->
<!DOCTYPE svg PUBLIC "-//W3C//DTD SVG 1.1//EN" "http://www.w3.org/Graphics/SVG/1.1/DTD/svg11.dtd">
<svg version="1.1" id="Layer_1" xmlns="http://www.w3.org/2000/svg" xmlns:xlink="http://www.w3.org/1999/xlink" x="0px" y="0px"
	 width="198.43px" height="198.43px" viewBox="0 0 198.43 198.43" enable-background="new 0 0 198.43 198.43" xml:space="preserve">
<circle fill="#FFFFFF" cx="100.87" cy="96.009" r="80.125"/>
<g>
	<g>
		<g>
			<path fill="#FAAB54" d="M269.521,54.763c5.312,0.761,9.351,2.004,14.682,0.738c4.885-1.158,9.259-4.064,13.127-7.139
				c8.86-7.045,15.664-18.029,16.277-29.458c0.069-1.302-2.853-0.754-2.91,0.317c-0.526,9.831-5.539,18.42-12.252,25.39
				c-3.438,3.567-7.554,6.418-12.087,8.397c-5.396,2.357-10.312,0.74-15.749-0.037C269.395,52.801,267.573,54.487,269.521,54.763
				L269.521,54.763z"/>
		</g>
	</g>
	<g>
		<g>
			<path fill="#FAAB54" d="M343.201,6.203c0.725,3.083,0.898,6.344,2.25,9.25c0.478,1.022,3.312,0.115,2.898-0.777
				c-1.353-2.904-1.526-6.166-2.25-9.25C345.859,4.396,342.954,5.148,343.201,6.203L343.201,6.203z"/>
		</g>
	</g>
	<g>
		<g>
			<path fill="#FAAB54" d="M360.696,44.894c3.773,6.804,7.91,11.136,15.568,13.171c7.855,2.09,15.842,0.202,22.292-4.552
				c1.581-1.164-0.888-1.578-1.81-0.897c-6.273,4.623-12.913,5.387-20.331,3.414c-6.276-1.668-9.84-6.531-12.821-11.912
				C363.035,43.114,360.237,44.067,360.696,44.894L360.696,44.894z"/>
		</g>
	</g>
</g>
<g>
	<g>
		<g>
			<path fill="#7F7F7F" d="M316.603-7.682c1.182-8.481-12.336-1.926-15.693-0.979c-8.648,2.439-13.252-5.619-9.076-12.903
				c2.522-4.401,7.915-5.62,12.152-3.171c1.329,0.77,2.312,2.022,2.944,3.391c3.504,7.58-9.272,2.543-6.195,0.968
				c1.783-0.913,0.144-1.938-1.166-1.269c-2.253,1.153-3.455,3.295-0.582,4.926c3.21,1.822,6.251,1.533,9.237-0.576
				c6.788-4.796-4.696-11.492-9.527-10.479c-8.327,1.746-15.975,11.876-8.608,19.383c2.432,2.479,6.715,2.152,9.782,1.588
				c2.8-0.517,14.647-6.405,13.83-0.534C313.532-6.139,316.458-6.653,316.603-7.682L316.603-7.682z"/>
		</g>
	</g>
	<g>
		<g>
			<path fill="#7F7F7F" d="M303.351-27.401c-0.309-5.143,0.066-10.125,5.179-12.805c5.054-2.649,10.596-0.539,12.871,4.456
				c1.398,3.069,1.345,7.551-1.637,9.662c-2.424,1.716-6.047-0.035-7.978-1.654c-1.064-0.895-1.626-2.113-1.647-3.5
				c1.074-0.596,2.147-1.191,3.223-1.788c0.699,0.479,1.062,1.113,1.091,1.905c0.207,1.084,3.115,0.362,2.898-0.776
				c-1.166-6.102-12.612-2.678-9.504,3.737c2.97,6.128,13.309,5.682,16.418,0.128c1.725-3.081,0.877-7.055-0.704-9.971
				c-1.938-3.572-5.521-4.958-9.404-5.057c-3.807-0.097-7.642,1.484-10.429,4.017c-3.561,3.23-3.54,7.994-3.275,12.422
				C300.515-25.591,303.421-26.215,303.351-27.401L303.351-27.401z"/>
		</g>
	</g>
	<g>
		<g>
			<path fill="#7F7F7F" d="M363.005-26.665c7.632-4.787,5.981-22.468-4.982-20.487c-3.619,0.654-6.851,2.593-8.875,5.697
				c-2.3,3.528-0.49,6.608,3.31,7.566c0.652,0.165,3.178-0.893,2.39-1.092c-7.528-1.896-2.04-11.796,3.75-11.12
				c8.151,0.95,7.847,15.855,2.202,19.396C359.6-25.954,362.51-26.355,363.005-26.665L363.005-26.665z"/>
		</g>
	</g>
	<g>
		<g>
			<path fill="#7F7F7F" d="M350.242-40.842c-11.636-10.863-32.739,15.788-16.429,20.645c5.472,1.629,15.683-2.437,12.037-9.744
				c-2.556-5.122-10.856-1.616-10.399,3.566c0.091,1.022,3,0.381,2.898-0.776c-0.186-2.087,0.948-4.042,3.307-3.102
				c2.016,0.803,1.964,3.171,1.542,4.91c-1.58,6.509-9.892,3.952-12.079-0.552c-3.668-7.554,9.816-19.971,16.439-13.788
				C348.342-38.952,351.074-40.066,350.242-40.842L350.242-40.842z"/>
		</g>
	</g>
	<g>
		<g>
			<path fill="#7F7F7F" d="M341.851-6.324c0.085-0.982,0.213-2.019,0.902-2.781c-0.532,0.043-0.476,0.068,0.173,0.079
				c0.426,0.045,0.847,0.156,1.262,0.258c1.68,0.404,3.283,1.055,4.984,1.382c2.448,0.471,5.453-0.147,6.905-2.312
				c0.17-0.255-2.389-0.163-2.854,0.529c-0.957,1.427-2.979,0.418-4.392-0.017c-1.498-0.461-2.967-0.942-4.545-1.008
				c-3.123-0.127-5.073,1.625-5.337,4.647C338.923-5.21,341.779-5.491,341.851-6.324L341.851-6.324z"/>
		</g>
	</g>
	<g>
		<g>
			<path fill="#7F7F7F" d="M365.486-36.486c3.682,1.791,7.625-0.045,10.443-2.575c2.731-2.454,5.068-6.976,2.521-10.314
				c-0.717-0.94-3.498,0.131-2.668,1.219c3.086,4.045-3.41,12.359-8.034,10.109C366.739-38.54,364.137-37.142,365.486-36.486
				L365.486-36.486z"/>
		</g>
	</g>
	<g>
		<g>
			<path fill="#7F7F7F" d="M288.975-35.498c-1.653,3.943-0.818,8.117,1.478,11.624c0.451,0.688,3.102-0.467,2.898-0.776
				c-2.241-3.422-3.147-7.5-1.522-11.376C292.01-36.459,289.277-36.218,288.975-35.498L288.975-35.498z"/>
		</g>
	</g>
</g>
<g>
	<g>
		<path fill="#E94444" d="M315.038-7.962c-8.471,1.395-4.791,14.771-4.803,20.514c-0.006,3.188-0.325,10.049,4.429,10.151
			c3.839,0.082,4.289-5.397,5.942-7.736c-0.845,0.075-1.69,0.151-2.535,0.228c3.37,3.994,0.482,10.133,2.63,14.759
			c0.414,0.891,1.726,0.766,2.402,0.242c0.779-0.604,1.298-1.052,2.003-1.729c-0.885-0.004-1.77-0.01-2.655-0.014
			c1.908,5.467,1.595,11.211,1.356,16.912c-0.267,6.397-0.485,12.865-0.352,19.268c0.065,3.104-0.154,7.695,2.415,9.875
			c1.587,1.346,3.515-0.922,4.159-2.051c2.266-3.959,1.084-10.92,1.085-15.305c0.001-6.431,0.039-12.861,0.453-19.279
			c0.342-5.287,1.251-10.557,1.354-15.856c0.083-4.249-0.689-10.273,2.183-13.8c-0.885-0.005-1.77-0.01-2.655-0.014
			c0.57,2.626-1.055,14.427,4.831,12.85c2.007-0.537,2.869-2.886,3.499-4.591c1.702-4.61,0.701-9.644,2.75-14.25
			c-0.942,0.081-1.887,0.161-2.83,0.241c0.271,2.062,0.619,4.013,1.25,6c0.363,1.143,2.062,0.562,2.655,0.014
			c2.699-2.504,4.556-13.257,0.056-15.029c-3.069-1.209-6.656,0.214-9.782,0.508c-2.969,0.278-6.033-0.278-8.97-0.652
			c-3.155-0.402-6.371,0.78-9.388-0.796c-1.079-0.563-3.644,0.905-2.244,1.637c2.312,1.208,4.583,1.295,7.161,1.243
			c3.893-0.078,7.709,0.798,11.593,0.672c3.154-0.103,10.3-2.661,11.028,2.118c0.415,2.724,0.278,7.507-1.866,9.496
			c0.885,0.005,1.771,0.01,2.655,0.014c-0.632-1.985-0.981-3.936-1.25-6c-0.161-1.234-2.487-0.528-2.83,0.241
			c-1.611,3.622-1.822,7.394-2.242,11.293c-0.15,1.488-0.49,2.938-1.02,4.343c-1.748-0.3-2.352-1.463-1.81-3.487
			c-0.12-2.287,0.141-4.381-0.35-6.64c-0.242-1.111-2.169-0.608-2.655-0.014c-3.648,4.479-2.534,11.395-2.76,16.771
			c-0.439,10.515-1.719,20.864-1.747,31.429c-0.015,5.258,0.768,11.506-0.917,16.549c0.505-1.512-0.812-6.357-0.883-7.769
			c-0.156-3.075,0.011-6.176,0.11-9.25c0.289-8.842,1.82-18.954-1.148-27.468c-0.392-1.117-2.05-0.595-2.655-0.014
			c-0.499,0.423-0.998,0.847-1.497,1.271c0.801,0.082,1.603,0.162,2.402,0.242c-2.243-4.83,0.752-10.947-2.87-15.24
			c-0.575-0.682-2.042-0.471-2.535,0.228c-1.167,1.649-1.743,3.601-2.603,5.417c-1.071,2.263-1.899-0.883-2.246-2.239
			c-0.591-2.306-0.117-5.025-0.229-7.396c-0.121-2.525-2.439-15.182,1.646-15.854C316.316-6.165,317.007-8.285,315.038-7.962
			L315.038-7.962z"/>
	</g>
</g>
<g>
	<g>
		<g>
			<path fill="#80D0DE" d="M291.453,85.183c5.662,3.039,10.166,6.517,16.461,8.279c6.248,1.752,12.575,1.795,18.919,0.529
				c5.724-1.144,11.038-3.178,15.227-7.359c4.62-4.61,6.877-10.584,12.344-14.531c-0.749,0.043-1.498,0.086-2.247,0.127
				c3.736,6.244-1.65,12.115-2.581,18.339c-0.075,0.502,0.501,0.649,0.892,0.657c13.87,0.312,31.018-7.162,39.737-18.039
				c9.083-11.327,14.415-30.897,6.964-44.27c-6.682-11.991-24.734-10.424-31.677,0.182c-1.575,2.406-2.412,5.156-2.924,7.953
				c-0.299,1.631-1.117,9.408-3.205,7.021c-4.122-4.72-0.439-16.205,2.916-20.435c0.806-1.016-1.557-0.812-1.929-0.649
				c-3.087,1.339-4.352,5.045-5.532,7.934c-1.959,4.789-3.301,9.99-6.146,14.361c-2.173,3.338-4.286-0.449-5.505-2.697
				c-2.144-3.955-2.026-8.783-1.3-13.074c1.821-10.738,10.14-21.262,21.588-21.854c1.049-0.056,2.545-1.643,0.753-1.654
				c-3.268-0.021-9.76,0.302-11.356-3.285c-1.573-3.535,4.905-6.804,7.09-7.513c3.193-1.036,6.802-1.108,10.004-0.138
				c0.51,0.153,3.139-0.722,2.229-1.37c-3.605-2.573-7.463-3.28-11.812-3.695c-2.544-0.243-5.132-0.266-7.647-0.722
				c-7.274-1.317-2.615-9.773,0.765-12.277c9.288-6.881,24.322-0.299,30.858,7.486c0.632,0.752,3.312-0.078,2.688-1.144
				c-0.865-1.478-1.441-2.901-1.84-4.554c-1.001-4.159,2.938-3.664,5.505-2.207c3.709,2.105,6.417,6.433,8.745,9.874
				c0.896-0.381,1.793-0.762,2.688-1.143c-3.792-4.423-1.583-9.278,3.655-11.015c-1.69,0.561-1.33,2.056,0.396,1.482
				c0.84-0.278,1.334-0.511,1.896-1.195c0.327-0.398-0.092-0.759-0.468-0.838c-7.546-1.581-13.612,6.36-8.17,12.707
				c0.64,0.745,3.374-0.13,2.688-1.143c-3.254-4.809-9.067-13.491-16.151-11.827c-5.635,1.323-3.836,7.242-1.638,10.999
				c0.896-0.382,1.793-0.763,2.689-1.144c-7.657-9.12-21.831-13.483-32.949-8.6c-4.132,1.814-10.917,8.15-7.367,13.191
				c1.765,2.505,4.054,3.021,6.981,3.314c5.484,0.549,11.088,0.228,15.793,3.586c0.743-0.457,1.486-0.913,2.229-1.37
				c-7.26-2.201-17.966,0.036-21.489,7.389c-3.091,6.451,9.542,6.795,12.866,6.816c0.252-0.551,0.503-1.103,0.754-1.654
				c-10.54,0.546-18.385,7.665-22.649,16.893c-3.017,6.526-5.325,20.632,2.726,25.052c10.619,5.83,11.686-21.195,17.585-23.754
				c-0.644-0.217-1.285-0.434-1.929-0.65c-3.146,3.964-4.669,10.026-4.589,15.006c0.051,3.181,1.116,9.132,5.563,8.437
				c3.816-0.596,4.225-6.486,4.751-9.375c1.764-9.68,7.826-16.7,18.51-15.081c17.63,2.672,14.703,26.747,10.313,38.528
				c-3.1,8.319-8.148,15.155-15.723,19.836c-7.781,4.807-17.548,8.852-26.817,8.645c0.297,0.222,0.595,0.439,0.892,0.658
				c1.006-6.736,6.378-12.424,2.37-19.125c-0.366-0.611-1.838-0.168-2.247,0.127c-3.352,2.42-5.928,5.258-8.265,8.65
				c-3.96,5.748-7.56,9.799-14.558,11.901c-7.28,2.188-14.679,1.617-21.889-0.401c-5.369-1.504-9.316-5.015-14.135-7.599
				C292.906,83.308,290.24,84.531,291.453,85.183L291.453,85.183z"/>
		</g>
	</g>
	<g>
		<g>
			<path fill="#80D0DE" d="M380.698,6.669c0.479-2.353,2.173,0.773,2.354,1.204c0.588,2.357-0.899,3.306-4.461,2.844
				c-0.665-0.758-1.079-1.624-1.241-2.6c-0.992-3.653,3.681-5.568,6.666-5.442c2.224,0.094,4.44,1.044,6.393,2.022
				c6.652,3.336,9.818,11.433,12.639,17.809c0.471,1.062,3.318,0.176,2.897-0.776c-3.886-8.787-8.12-17.532-18.033-20.326
				c-5.681-1.603-15.249,0.905-13.181,8.517c1.647,6.063,11.008,3.645,11.363-1.829c0.31-4.78-7.328-5.868-8.302-1.085
				C377.555,8.178,380.486,7.712,380.698,6.669L380.698,6.669z"/>
		</g>
	</g>
	<g>
		<g>
			<path fill="#80D0DE" d="M403.756,1.303c-3.063,0.548-4.417-7.374,0.796-5.944c3.375,0.925,5.035,4.625,6.056,7.62
				c1.971,5.779,1.85,12.265,1.845,18.296c0,0.586,2.897,0.134,2.898-0.777c0.005-7.512,0.851-25.34-9.768-26.673
				c-3.104-0.391-6.479,0.593-7.276,3.956c-0.808,3.396,1.981,5.263,4.947,4.731C404.462,2.295,405.782,0.942,403.756,1.303
				L403.756,1.303z"/>
		</g>
	</g>
	<g>
		<g>
			<path fill="#80D0DE" d="M407.995,29.408c0.923,5.168-0.206,10.502-1.499,15.512c-0.341,1.32,2.616,0.943,2.927-0.256
				c1.343-5.199,2.428-10.674,1.472-16.033C410.67,27.371,407.764,28.103,407.995,29.408L407.995,29.408z"/>
		</g>
	</g>
	<g>
		<g>
			<path fill="#80D0DE" d="M409.469,52.073c-1.741,6.389-4.532,12.28-8.646,17.487c-1.124,1.425,1.643,1.695,2.396,0.742
				c4.36-5.518,7.33-11.721,9.176-18.494C412.744,50.515,409.789,50.892,409.469,52.073L409.469,52.073z"/>
		</g>
	</g>
</g>
<circle fill="none" stroke="#7F7F7F" stroke-width="3" stroke-miterlimit="10" cx="100.87" cy="96.008" r="80.125"/>
<path fill="#FFFFFF" stroke="#7F7F7F" stroke-width="2" stroke-linecap="round" stroke-linejoin="round" stroke-miterlimit="10" d="
	M49.679,75.697c0,0,1.134-3.393,3.836-1.862C53.515,73.834,53.428,75.594,49.679,75.697z"/>
<g>
	<g>
		
			<path fill="none" stroke="#FAAB54" stroke-width="2.9454" stroke-linecap="round" stroke-linejoin="round" stroke-miterlimit="10" d="
			M31.865,79.935c0,0,0,4.854,4.854,4.854s0,0,4.854,0c4.853,0,4.853,0,4.853,0s14.561,9.707,14.561-4.854"/>
		<g>
			
				<path fill="none" stroke="#FAAB54" stroke-width="2.9454" stroke-linecap="round" stroke-linejoin="round" stroke-miterlimit="10" d="
				M51.28,70.229H36.719c0,0,0,4.853-4.854,4.853c0,0-4.853,4.854,0,4.854c4.854,0,4.854,0,4.854,0"/>
			
				<path fill="none" stroke="#FAAB54" stroke-width="2.9454" stroke-linecap="round" stroke-linejoin="round" stroke-miterlimit="10" d="
				M51.28,70.229c0,0,0.929-1.928,4.731-1.928c0,0,1.768-4.598,5.748-3.449c0,0,2.21,3.184-0.265,8.401"/>
			
				<path fill="none" stroke="#FAAB54" stroke-width="2.9454" stroke-linecap="round" stroke-linejoin="round" stroke-miterlimit="10" d="
				M51.755,87.615c0,0,8.25,11.387,4.896,21.362c-3.354,9.978,0.907,26.044,14.868,29.31"/>
			
				<path fill="none" stroke="#FAAB54" stroke-width="2.9454" stroke-linecap="round" stroke-linejoin="round" stroke-miterlimit="10" d="
				M62.201,72.281c0,0,10.434,4.863,8.488,22.636c-1.638,14.965,4.489,14.895,8.036,14.345c0.666-0.104,9.866-0.381,19.437-0.384
				c20.02-0.009,49.713,0.103,49.713,0.103s14.377-3.07,10.208-13.828c-4.172-10.756,8.561-9.988,8.561-9.988
				s-8.451,4.28-1.428,13.611c7.026,9.328,5.38,22.171-1.975,29.306c-5.313,5.154-7.992,8.132-9.067,9.387"/>
		</g>
	</g>
	
		<path fill="none" stroke="#E94444" stroke-width="2.9454" stroke-linecap="round" stroke-linejoin="round" stroke-miterlimit="10" d="
		M109.348,37.633l-0.219,62.673c0,0-14.159-4.611-27.659,7.134C81.47,107.44,72.469,68.804,109.348,37.633z"/>
	
		<path fill="none" stroke="#E94444" stroke-width="2.9454" stroke-linecap="round" stroke-linejoin="round" stroke-miterlimit="10" d="
		M114.178,26.774l-0.33,79.575c0,0,18.001-15.587,33.148-11.306C146.996,95.043,127.678,45.322,114.178,26.774z"/>
	<path fill="none" stroke="#80D0DE" stroke-width="2.9454" stroke-miterlimit="10" d="M59.042,136.243c0,0,6.848,6.733,16.092,0
		c9.245-6.735,15.18,0,15.18,0s7.646,7.418,15.064,0c7.42-7.419,15.408-0.344,15.408-0.344s7.418,5.844,14.952,0.298
		c7.533-5.547,15.749,0,15.749,0s8.56,5.318,14.837,0"/>
	<path fill="none" stroke="#80D0DE" stroke-width="2.9454" stroke-miterlimit="10" d="M67.093,144.385c0,0,5.744,5.648,13.499,0
		c7.754-5.647,12.732,0,12.732,0s6.414,6.222,12.638,0c6.223-6.224,12.924-0.287,12.924-0.287s6.223,4.901,12.541,0.248
		c6.317-4.652,13.21,0,13.21,0s7.18,4.462,12.445,0"/>
	<path fill="none" stroke="#80D0DE" stroke-width="2.9454" stroke-miterlimit="10" d="M59.742,151.565
		c4.377-0.503,6.982,2.451,6.982,2.451s6.414,6.222,12.637,0c6.223-6.223,12.925-0.287,12.925-0.287s6.222,4.901,12.539,0.248
		c6.318-4.651,13.211,0,13.211,0s7.179,4.463,12.444,0"/>
	<circle fill="#FFFFFF" stroke="#7F7F7F" stroke-width="2.9454" stroke-miterlimit="10" cx="88.459" cy="109.936" r="9.759"/>
	<circle fill="#FFFFFF" stroke="#7F7F7F" stroke-width="2.9454" stroke-miterlimit="10" cx="114.926" cy="109.078" r="9.758"/>
	<circle fill="#FFFFFF" stroke="#7F7F7F" stroke-width="2.9454" stroke-miterlimit="10" cx="140.181" cy="109.078" r="9.758"/>
</g>
</svg>
