<?xml version="1.0" encoding="utf-8"?>
<!-- Generator: Adobe Illustrator 15.0.0, SVG Export Plug-In . SVG Version: 6.00 Build 0)  -->
<!DOCTYPE svg PUBLIC "-//W3C//DTD SVG 1.1//EN" "http://www.w3.org/Graphics/SVG/1.1/DTD/svg11.dtd">
<svg version="1.1" id="Layer_1" xmlns="http://www.w3.org/2000/svg" xmlns:xlink="http://www.w3.org/1999/xlink" x="0px" y="0px"
	 width="198.43px" height="198.43px" viewBox="0 0 198.43 198.43" enable-background="new 0 0 198.43 198.43" xml:space="preserve">
<g>
	<circle fill="#944563" cx="101.9" cy="98.215" r="80.125"/>
	<g>
		<g>
			<g>
				<path fill="#FFFFFF" d="M107.615,100.775c3.943,3.432,7.606,7.125,12.052,9.924c6.092,3.834,13.886,5.332,20.472,8.203
					c0.608,0.266,2.522,0.018,2.604-0.877c0.616-6.732-5.15-12.885-9.454-17.396c-0.68-0.713-3.43,0.348-2.695,1.119
					c4.108,4.307,9.844,10.229,9.257,16.656c0.867-0.291,1.735-0.584,2.604-0.875c-5.809-2.533-11.847-4.457-17.726-6.812
					c-5.645-2.26-9.924-7.15-14.417-11.061C109.557,99,106.857,100.115,107.615,100.775L107.615,100.775z"/>
			</g>
		</g>
		<g>
			<g>
				<path fill="#FFFFFF" d="M115.938,94.342c-1.155,0.387-2.418,1.187-3.158,2.185c-0.415,0.56,0.35,0.818,0.778,0.825
					c0.659,0.01,1.504-0.23,1.915-0.784c0.13-0.176-0.155,0.141,0.095-0.097c0.134-0.127,0.275-0.246,0.417-0.364
					c0.063-0.053,0.128-0.104,0.192-0.155c0.006-0.004,0.336-0.248,0.137-0.107c0.094-0.066,0.192-0.127,0.291-0.188
					c0.289-0.178-0.307,0.101-0.29,0.096c0.393-0.132,1.424-0.482,1.261-1.094C117.421,94.081,116.329,94.212,115.938,94.342
					L115.938,94.342z"/>
			</g>
		</g>
		<g>
			<g>
				<path fill="#FFFFFF" d="M121.628,96.47c-1.156-0.049-2.366,0.489-3.327,1.089c-0.554,0.346-1.775,1.068-1.623,1.876
					c0.166,0.875,3.078,0.176,2.898-0.777c0.027,0.149,0.021-0.02-0.046,0.102c0.041-0.073,0.102-0.138,0.157-0.201
					c-0.093,0.105,0.467-0.357,0.37-0.294c0.112-0.073,0.229-0.14,0.347-0.206c0.021-0.012,0.415-0.202,0.146-0.08
					c0.062-0.028,0.459-0.166,0.081-0.046c0.375-0.119-0.478,0.014-0.172,0.027c0.627,0.026,1.519-0.248,1.921-0.76
					C122.813,96.65,122.012,96.487,121.628,96.47L121.628,96.47z"/>
			</g>
		</g>
		<g>
			<g>
				<path fill="#FFFFFF" d="M124.409,98.233c-1.169,0.306-2.153,1.187-3.062,1.937c-0.579,0.48-1.564,1.104-1.915,1.801
					c-0.667,1.334,2.251,1.094,2.723,0.152c-0.036,0.072-0.222,0.252-0.052,0.08c0.113-0.115,0.232-0.225,0.351-0.334
					c0.325-0.301,0.659-0.594,0.995-0.881c0.335-0.285,0.673-0.559,1.026-0.818c0.15-0.111,0.306-0.217,0.462-0.318
					c0.067-0.043,0.136-0.084,0.205-0.123c-0.353,0.205,0.274-0.016-0.298,0.133c0.466-0.121,1.402-0.562,1.231-1.203
					C125.903,98.015,124.874,98.112,124.409,98.233L124.409,98.233z"/>
			</g>
		</g>
		<g>
			<g>
				<path fill="#FFFFFF" d="M131.646,100.449c-1.792,0.016-3.507,1.209-4.921,2.186c-0.933,0.643-3.143,1.924-3.214,3.219
					c-0.033,0.609,2.845,0.197,2.898-0.777c0.025-0.473,1.557-1.447,1.938-1.736c0.531-0.4,1.082-0.781,1.651-1.125
					c0.255-0.154,0.517-0.295,0.781-0.43c0.382-0.195-0.138,0.025-0.338,0.027c0.63-0.006,1.495-0.242,1.929-0.732
					C132.825,100.566,131.98,100.447,131.646,100.449L131.646,100.449z"/>
			</g>
		</g>
		<g>
			<g>
				<path fill="#FFFFFF" d="M134.14,104.688c-2.606,0.902-4.803,2.562-6.604,4.629c-0.313,0.359,1.092,0.225,1.142,0.215
					c0.578-0.109,1.305-0.291,1.708-0.754c1.27-1.455,2.878-2.895,4.729-3.535c0.095-0.033,1.304-0.516,0.882-0.756
					C135.512,104.209,134.607,104.525,134.14,104.688L134.14,104.688z"/>
			</g>
		</g>
	</g>
	<g>
		<g>
			<g>
				<path fill="#FFFFFF" d="M99.479,110.869c-2.151,0.215-5.062,2.109-6.375,3.793c-2.648,3.398-1.899,7.818-1.124,11.766
					c2.05,10.439,11.646,1.33,15.984-2.109c1.32-1.045-1.574-1.148-2.342-0.541c-2.105,1.67-4.104,3.453-6.326,4.975
					c-3.271,2.238-4.093-1.441-4.584-3.943c-0.498-2.537-0.758-5.125-0.212-7.67c0.324-1.514,2.849-4.4,4.607-4.576
					C100.56,112.416,101.483,110.668,99.479,110.869L99.479,110.869z"/>
			</g>
		</g>
		<g>
			<g>
				<path fill="#FFFFFF" d="M72.633,101.986c-8.558,0.365-17.541,7.953-18.129,16.719c-0.086,1.287,2.138,0.641,2.637,0.15
					c3.783-3.729,11.553-10.795,15.814-4.215c0.593,0.916,3.395-0.078,2.678-1.186c-5.383-8.311-16.091,0.096-20.854,4.787
					c0.879,0.049,1.758,0.1,2.637,0.15c0.492-7.348,7.484-14.301,14.871-14.615C73.804,103.713,74.626,101.9,72.633,101.986
					L72.633,101.986z"/>
			</g>
		</g>
		<g>
			<g>
				<path fill="#FFFFFF" d="M117.678,77.437c1.598,2.277,3.382,4.402,5.256,6.457c0.539,0.59,3.257-0.438,2.721-1.025
					c-1.804-1.977-3.541-4.016-5.078-6.209C120.034,75.888,117.383,77.015,117.678,77.437L117.678,77.437z"/>
			</g>
		</g>
		<g>
			<g>
				<path fill="#FFFFFF" d="M83.39,86.158c-5.266,4.048-10.53,8.097-15.796,12.145c-0.229,0.177-0.558,0.533-0.069,0.646
					c5.821,1.356,5.592,12.331,5.488,16.446c-0.013,0.51,2.876,0.105,2.898-0.777c0.117-4.67,0.155-10.543-2.902-14.451
					c-0.649-0.83-1.347-1.535-2.275-2.043c-0.986-0.539-0.608,0.085-0.706,0.16c5.198-3.997,10.396-7.993,15.595-11.99
					C86.808,85.38,83.913,85.755,83.39,86.158L83.39,86.158z"/>
			</g>
		</g>
		<g>
			<g>
				<path fill="#FFFFFF" d="M96.596,78.135c5.876-3.753,11.752-7.507,17.628-11.26c-0.849,0.132-1.697,0.263-2.546,0.395
					c0.521,1.325,1.044,2.629,2.071,3.634c0.502,0.49,3.092-0.606,2.74-0.951c-0.954-0.933-1.438-2.247-1.913-3.46
					c-0.229-0.585-2.228,0.191-2.546,0.395c-5.876,3.753-11.752,7.507-17.628,11.26C93.232,78.895,96.128,78.434,96.596,78.135
					L96.596,78.135z"/>
			</g>
		</g>
		<g>
			<g>
				<path fill="#FFFFFF" d="M114.906,67.489c11.89-7.277,23.778-14.556,35.667-21.833c-0.759,0.004-1.518,0.009-2.277,0.014
					c2.723,4.611,5.445,9.222,8.167,13.833c0.128-0.41,0.257-0.819,0.385-1.229c-11.417,7.89-22.834,15.778-34.25,23.667
					c-1.621,1.12,0.783,1.981,1.893,1.215c11.417-7.889,22.834-15.778,34.25-23.667c0.426-0.294,0.663-0.758,0.385-1.229
					c-2.723-4.61-5.445-9.222-8.167-13.833c-0.438-0.742-1.749-0.31-2.277,0.014c-11.889,7.278-23.778,14.556-35.667,21.833
					C111.339,67.299,113.775,68.181,114.906,67.489L114.906,67.489z"/>
			</g>
		</g>
		<g>
			<g>
				<path fill="#FFFFFF" d="M125.011,52.104c0.207,2.378,0.414,4.756,0.621,7.135c0.093,1.056,1.931,0.511,2.397,0.225
					c7.516-4.601,15.03-9.201,22.546-13.802c0.409-0.25,0.692-0.807,0.382-1.237c-1.722-2.389-3.443-4.778-5.165-7.167
					c-0.48-0.668-1.734-0.408-2.278,0.01c-6.001,4.611-12.001,9.223-18.002,13.834c-1.562,1.201,0.808,2.063,1.896,1.227
					c6.001-4.611,12.001-9.223,18.002-13.834c-0.76,0.003-1.52,0.007-2.278,0.01c1.722,2.389,3.443,4.778,5.165,7.167
					c0.127-0.412,0.255-0.825,0.382-1.237c-7.516,4.601-15.03,9.201-22.546,13.802c0.799,0.075,1.598,0.15,2.397,0.225
					c-0.207-2.378-0.414-4.756-0.621-7.135C127.8,50.077,124.895,50.763,125.011,52.104z"/>
			</g>
		</g>
		<g>
			<g>
				<path fill="#FFFFFF" d="M86.621,90.181c-2.039,0.938-6.512,2.573-6.627,5.435c-0.139,3.443,2.984,8.128,4.702,11.011
					c1.525,2.559,3.574,4.764,6.748,4.27c2.574-0.398,5.424-1.768,6.943-3.943c0.652-0.934-2.206-0.549-2.656,0.096
					c-4.443,6.357-8.801-2.018-10.487-5.779c-0.75-1.672-1.694-3.261-2.26-5.01c-0.973-3.006,3.23-4.505,5.363-5.486
					C90.102,89.966,87.418,89.815,86.621,90.181L86.621,90.181z"/>
			</g>
		</g>
		<g>
			<g>
				<path fill="#FFFFFF" d="M88.305,92.67c-2.187,0.401-5.613,3.168-3.736,5.615c1.453,1.894,5.654,0.365,6.902-1.111
					c1.134-1.342-1.666-1.4-2.354-0.586c-0.251,0.297-1.338,1.048-1.869,0.521c-0.429-0.425-0.262-1.143-0.03-1.615
					c0.153-0.314,0.37-0.578,0.614-0.825c0.188-0.19,0.706-0.352,0.117-0.243c0.572-0.105,1.493-0.351,1.632-1.039
					C89.713,92.735,88.74,92.591,88.305,92.67L88.305,92.67z"/>
			</g>
		</g>
		<g>
			<g>
				<path fill="#FFFFFF" d="M93.402,99.893c-2.646,0.055-5.189,1.941-4.61,4.799c0.203,1,0.954,1.674,1.978,1.729
					c1.896,0.098,3.588-0.949,4.848-2.271c0.468-0.492-0.404-0.604-0.715-0.588c-0.643,0.031-1.471,0.238-1.932,0.723
					c-0.293,0.307-0.804,0.777-1.037,0.91c-0.149,0.074-0.147,0.078,0.006,0.01c-0.319,0.137,0.259-0.064,0.272-0.068
					c0.106-0.02,0.213-0.027,0.32-0.021c-0.264-0.014,0.179,0.057-0.063-0.018c-0.399-0.123-0.695-0.768-0.798-1.273
					c-0.137-0.674-0.022-1.361,0.252-1.984c0.125-0.285,0.299-0.512,0.521-0.727c0.016-0.014,0.08-0.049,0.116-0.066
					c-0.157,0.078-0.312,0.125-0.485,0.158c-0.318,0.062,0.047,0.002,0.11,0c0.629-0.014,1.487-0.244,1.932-0.721
					C94.582,99.982,93.715,99.887,93.402,99.893L93.402,99.893z"/>
			</g>
		</g>
		<g>
			<g>
				<path fill="#FFFFFF" d="M89.354,132.225c4.104,9.322,15.082,1.039,20.118-2.883c1.553-1.207-0.868-1.766-1.838-1.012
					c-3.881,3.021-12.187,10.379-15.382,3.117C91.768,130.346,88.914,131.223,89.354,132.225L89.354,132.225z"/>
			</g>
		</g>
	</g>
	<g>
		<g>
			<g>
				<path fill="#FFFFFF" d="M62.873,54.267c-3.188,0.615-6.485,3.377-9.19,4.992c-3.984,2.377-8.045,4.607-12.034,6.969
					c-1.846,1.092-5.288,3.304-5.438,5.796c-0.197,3.292,2.366,5.799,4.521,7.978c2.448,2.476,5.074,4.914,7.686,7.21
					c2.289,2.012,4.619,3.97,6.877,6.019c0.731,0.663,1.782,1.474,2.821,1.582c3.254,0.34,5.08-2.645,6.979-4.774
					c3.63-4.07,7.563-7.799,10.736-12.261c1.061-1.491-1.674-1.824-2.408-0.791c-3.781,5.317-8.616,9.713-12.833,14.666
					c-2.222,2.609-14.271-10.173-16.23-11.978c-2.011-1.851-4.051-3.872-5.099-6.443c-1.368-3.357,4.827-6.106,6.949-7.249
					c2.046-1.103,4.024-2.281,6.02-3.479c3.255-1.952,7.406-5.617,11.151-6.34C65.208,55.811,64.658,53.922,62.873,54.267
					L62.873,54.267z"/>
			</g>
		</g>
		<g>
			<g>
				<path fill="#FFFFFF" d="M83.71,44.85c3.921-1.905,10.014-7.008,13.907-2.891c2.98,3.151-1.111,7.605-2.685,10.398
					c-1.542,2.739-2.821,5.631-4.16,8.472c-0.618,1.311,2.285,1.003,2.709,0.104c2.083-4.418,4.266-8.669,6.797-12.846
					c1.591-2.626,1.933-6.087-0.833-8.128c-5.32-3.925-12.081,1.277-16.901,3.62C80.737,44.456,82.393,45.491,83.71,44.85
					L83.71,44.85z"/>
			</g>
		</g>
		<g>
			<g>
				<path fill="#FFFFFF" d="M70.825,51.807c0.755-1.052,2.296-1.579,3.421-2.106c1.246-0.583,2.516-1.152,3.641-1.952
					c1.606-1.142-0.83-1.796-1.854-1.069c-2.521,1.792-6.054,2.315-7.938,4.944c-0.423,0.59,0.357,0.986,0.83,1.019
					C69.643,52.69,70.402,52.398,70.825,51.807L70.825,51.807z"/>
			</g>
		</g>
		<g>
			<g>
				<path fill="#FFFFFF" d="M83.658,73.497c1.57-1.303,3.427-2.134,5.095-3.293c0.482-0.335,0.771-1.041,0.175-1.428
					c-0.616-0.399-1.51-0.199-2.073,0.193c-1.668,1.159-3.524,1.988-5.095,3.293C80.245,73.519,82.589,74.384,83.658,73.497
					L83.658,73.497z"/>
			</g>
		</g>
	</g>
	<g>
		<g>
			<path fill="#FFFFFF" d="M91.985,131.518c-1.821-5.939-4.007-11.559-5.029-17.703c-0.547-3.285-2.592-7.963-6.619-7.883
				c-2.816,0.055-4.513,1.799-5.212,4.404c-1.071,3.992-3.003,6.664-6.312,9.305c-3.278,2.617-3.597,0.752-4.352,4.283
				c-1.544,7.217-3.842,14.252-5.43,21.461c-0.959,4.354-3.408,9.482,0.445,12.943c3.452,3.102,9.776,4.461,14.044,5.812
				c6.72,2.127,13.709,3.438,20.696,4.281c0.333,0.039,2.797-0.352,2.358-1.096c-3.008-5.086-3.778-11.684-5.041-17.404
				c-0.831-3.77-1.375-7.689-0.922-11.543c0.314-2.666,1.048-5.191,1.136-7.893c0.022-0.703-2.865-0.24-2.898,0.777
				c-0.1,3.088-0.943,6.053-1.303,9.107c-0.333,2.82,0.288,5.857,0.755,8.627c1.034,6.131,2.192,13.723,5.375,19.105
				c0.786-0.365,1.572-0.73,2.358-1.094c-10.331-1.248-20.182-3.855-29.86-7.641c-1.764-0.689-3.378-1.562-4.793-2.834
				c-2.209-1.984-0.771-6.113-0.216-8.537c1.323-5.777,2.829-11.502,4.367-17.225c0.648-2.414,1.247-4.838,1.809-7.273
				c0.472-2.045,2.168-2.463,3.751-3.545c3.098-2.113,5.422-5.283,6.81-8.721c-0.015-0.854,0.124-1.682,0.415-2.482
				c2.341-0.752,3.878-0.061,4.612,2.076c1.058,1.854,1.235,4.305,1.532,6.371c0.736,5.131,3.104,10.133,4.624,15.096
				C89.356,133.174,92.243,132.359,91.985,131.518L91.985,131.518z"/>
			<path fill="#FFFFFF" d="M78.008,110.932c0.131-0.699,0.262-1.396,0.393-2.096c-0.96,0.143-1.921,0.283-2.881,0.424
				c-0.053,0.715-0.191,1.408-0.393,2.096C74.873,112.223,77.753,111.803,78.008,110.932c0.201-0.688,0.34-1.381,0.393-2.096
				c0.076-1.023-2.727-0.4-2.881,0.424c-0.131,0.699-0.262,1.396-0.393,2.096C74.949,112.305,77.846,111.797,78.008,110.932z"/>
		</g>
	</g>
	<g>
		<g>
			<path fill="#FFFFFF" d="M81.936,84.133c4.562,5.964,7.348,13.005,11.28,19.367c4.276,6.916,9.317,13.537,12.83,20.895
				c1.424,2.982,3.074,8.586,6.541,9.773c3.137,1.074,7.3-2.051,9.685-3.662c2.855-1.932,4.542-4.322,2.685-7.764
				c-3.461-6.41-7.977-12.104-12.011-18.143c-3.974-5.95-7.366-12.383-11.157-18.46c-3.102-4.971-5.78-10.167-8.648-15.27
				c-0.617-1.097-3.353-0.044-2.625,1.252c4.437,7.891,9.208,15.495,13.789,23.285c3.227,5.486,6.183,10.898,10.036,15.988
				c1.851,2.443,10.792,13.787,7.556,16.684c-1.482,1.326-3.283,2.344-5.033,3.256c-3.23,1.686-4.205-0.471-5.645-2.998
				c-2.347-4.119-4.212-8.41-6.688-12.48c-3.42-5.625-7.161-11.043-10.565-16.678c-3.266-5.404-5.54-11.243-9.403-16.296
				C83.783,81.866,81.053,82.977,81.936,84.133L81.936,84.133z"/>
		</g>
	</g>
	<g>
		<g>
			<path fill="#FFFFFF" d="M117.53,143.348c0.297,6.709,5.543,11.947,9.39,17.016c3.305,4.355,5.374,6.596,11.044,4.873
				c4.702-1.426,9.218-3.602,7.521-9.152c-1.235-4.043-4.386-8.004-6.726-11.453c-2.148-3.166-3.37-6.717-6.099-9.492
				c-0.869-0.885-3.48,0.238-2.525,1.211c3.104,3.158,4.681,7.404,7.145,11.035c1.398,2.059,2.661,4.201,3.882,6.367
				c0.929,1.383,1.593,2.871,1.992,4.465c0.979,3.207-3.877,4.508-5.691,5.148c-5.344,1.887-7.744-3.908-10.46-7.365
				c-2.924-3.723-6.46-7.926-6.679-12.867C120.26,141.689,117.477,142.131,117.53,143.348L117.53,143.348z"/>
		</g>
	</g>
	<g>
		<g>
			<path fill="#FFFFFF" d="M65.657,51.077c-0.169-1.689-1.499-3.114-2.361-4.518c-1.332-2.171-1.972-4.345,0.715-5.787
				c0.905-0.486,1.854-0.875,2.755-1.374c1.127-0.624,2.229-1.26,3.396-1.809c1.75-0.823,2.653,1.333,3.293,2.374
				c1.203,1.956,1.856,4.189,3.18,6.065c0.778,1.104,3.533-0.037,2.648-1.291c-1.916-2.717-2.587-6.718-5.3-8.9
				c-2.354-1.894-5.553,0.123-7.747,1.361c-2.52,1.421-5.733,2.318-7.134,5.047c-1.674,3.263,3.367,6.69,3.657,9.609
				C62.896,53.219,65.799,52.504,65.657,51.077L65.657,51.077z"/>
		</g>
	</g>
	<g>
		<g>
			<g>
				<path fill="#FFFFFF" d="M91.001,59.928c-3.227-1.545-26.576-14.603-28.152-7.398c0.97-0.206,1.94-0.413,2.911-0.619
					c-0.112-0.168-0.225-0.337-0.337-0.505c-0.434-0.649-2.812-0.193-2.911,0.619c-0.586,4.747,1.975,6.799,5.98,8.772
					c6.915,3.407,14.008,6.569,20.405,10.908c1.559,1.058,4.17-0.268,4.885-1.785C95.972,65.273,95.664,62.34,91.001,59.928
					c-0.693-0.359-3.397,0.716-2.371,1.246c4.248,2.198,3.977,4.687,2.54,8.592c-0.187,0.508-6.136-3.146-7.052-3.609
					c-4.022-2.038-8.008-4.141-12.088-6.061c-3.953-1.861-7.229-3.585-6.62-8.526c-0.97,0.206-1.94,0.413-2.911,0.619
					c0.112,0.168,0.225,0.337,0.337,0.505c0.454,0.68,2.736,0.18,2.911-0.619c0.189-0.425,0.051-0.474-0.416-0.146
					c0.628,0.023,1.248,0.108,1.859,0.256c1.077,0.225,2.13,0.582,3.174,0.925c2.52,0.827,4.969,1.883,7.398,2.939
					c3.675,1.6,7.254,3.396,10.867,5.126C89.336,61.513,92.03,60.42,91.001,59.928z"/>
			</g>
		</g>
		<g>
			<g>
				<path fill="#FFFFFF" d="M77.847,53.088c0.256-1.891,0.611-3.759,1.171-5.585c0.287-0.937,0.681-1.829,1.188-2.666
					c0.082-0.116,0.163-0.232,0.245-0.348c0.521-0.544,0.553-0.584,0.094-0.12c0.479,0.188,0.815,0.604,1.094,1.013
					c2.079,3.057,0.152,8.388-0.336,11.688c-0.038,0.263,2.798,0.065,2.924-0.783c0.499-3.381,3.408-13.001-2.463-13.212
					c-5.409-0.195-6.302,6.83-6.84,10.797C74.886,54.146,77.731,53.933,77.847,53.088L77.847,53.088z"/>
			</g>
		</g>
		<g>
			<g>
				<path fill="#FFFFFF" d="M73.456,63.803c-0.052,4.179-0.643,8.329-0.751,12.497c-0.074,2.855,3.336,2.818,5.375,2.704
					c6.652-0.375,6.233-8.569,4.988-13.377c-0.154-0.593-3.08,0.179-2.924,0.783c0.626,2.414,0.637,4.855,0.488,7.331
					c-0.159,2.669-0.758,5.095-4.005,3.783c-1.609-0.649-0.914-3.393-0.792-4.625c0.324-3.268,0.503-6.598,0.544-9.88
					C76.385,62.625,73.467,63.007,73.456,63.803L73.456,63.803z"/>
			</g>
		</g>
	</g>
	<g>
		<g>
			<g>
				<path fill="#FFFFFF" d="M110.195,132.629c-0.347,2.055,1.826,5.717,4.152,5.785c3.499,0.104,5.865-1.965,8.865-3.43
					c2.59-1.264,5.885-2.584,6.933-5.512c0.995-2.779-2.577-5.717-5.065-5.533c-0.786,0.057-3.158,1.359-1.24,1.219
					c1.938-0.143,3.298,2.736,3.505,4.279c0.323,2.404-3.519,4-5.176,4.805c-1.344,0.652-2.604,1.393-3.88,2.172
					c-2.7,1.648-5.659-1.742-5.23-4.279C113.184,131.391,110.318,131.9,110.195,132.629L110.195,132.629z"/>
			</g>
		</g>
		<g>
			<g>
				<path fill="#FFFFFF" d="M113.833,137.854c-0.314,1.705,0.833,5.938,3.084,6.074c3.166,0.193,5.758-2.254,8.389-3.609
					c2.739-1.412,6.219-2.807,7.525-5.824c0.95-2.191-0.645-5.4-2.848-6.016c-1.119-0.314-3.431,1.326-1.713,1.807
					c2.274,0.637,2.07,4.117,0.86,5.459c-1.282,1.422-3.378,2.219-5.055,3.064c-1.3,0.656-2.511,1.432-3.74,2.209
					c-0.649,0.41-1.968,1.031-2.124,0.846c-0.98-1.162-1.74-2.754-1.457-4.285C117,136.248,114.051,136.678,113.833,137.854
					L113.833,137.854z"/>
			</g>
		</g>
	</g>
	<g>
		<g>
			<path fill="#FFFFFF" d="M79.03,79.215c0.177,4.333,17.581,6.166,21.097,6.666"/>
			<g>
				<path fill="#FFFFFF" d="M77.542,79.614c0.536,3.232,6.195,4.191,8.681,4.802c4.259,1.046,8.624,1.558,12.961,2.154
					c0.753,0.104,3.469-1.16,1.887-1.377c-3.338-0.46-6.672-0.894-9.984-1.52c-2.656-0.503-9.999-1.426-10.567-4.856
					C80.389,78.037,77.394,78.718,77.542,79.614L77.542,79.614z"/>
			</g>
		</g>
		<g>
			<path fill="#FFFFFF" d="M82.201,75.381c4.57,1,9.669,2,14.063,2.667"/>
			<g>
				<path fill="#FFFFFF" d="M81.311,76.267c4.776,1.036,9.57,1.969,14.4,2.72c1.274,0.197,3.104-1.566,1.107-1.877
					c-4.604-0.715-9.174-1.626-13.727-2.614C82.017,74.262,79.564,75.888,81.311,76.267L81.311,76.267z"/>
			</g>
		</g>
		<g>
			<path fill="#FFFFFF" d="M79.995,78.048c4.923,1.167,12.482,3.167,17.054,3.333"/>
			<g>
				<path fill="#FFFFFF" d="M78.771,78.618c5.692,1.36,11.439,3.031,17.311,3.36c0.618,0.035,3.406-1.111,1.936-1.193
					c-5.687-0.319-11.282-1.987-16.797-3.306C80.536,77.316,77.94,78.419,78.771,78.618L78.771,78.618z"/>
			</g>
		</g>
		<g>
			<path fill="#FFFFFF" d="M95.127,78.004c1.607-0.172,2.453,1.962,1.184,2.985c1.946-0.086,5.33,4.607,3.13,4.863"/>
			<g>
				<path fill="#FFFFFF" d="M94.53,78.84c0.896-0.001,1.084,1.409,0.569,1.92c-0.623,0.619-0.108,1.036,0.614,1.065
					c0.713,0.029,1.513,1.06,1.928,1.548c0.343,0.402,0.611,0.851,0.822,1.334c0.061,0.149,0.108,0.303,0.142,0.461
					c0.172,0.664-0.448,0.177,0.64-0.046c-0.418,0.086-1.483,0.534-1.321,1.137c0.17,0.636,1.293,0.41,1.712,0.324
					c4.585-0.939,0.089-6.315-2.729-6.43c0.205,0.355,0.409,0.71,0.614,1.065c1.767-1.755,0.613-4.053-1.798-4.051
					c-0.681,0.001-1.585,0.23-2.005,0.818C93.301,78.571,94.07,78.84,94.53,78.84L94.53,78.84z"/>
			</g>
		</g>
	</g>
	<g>
		<g>
			<g>
				<g>
					<path fill="#FFFFFF" d="M97.476,80.932c8.71-3.75,20.719,0.917,28.78,4.614c9.409,4.315,15.313,10.463,21.255,18.723
						c0.545,0.758,3.179-0.387,2.898-0.777c-3.066-4.262-5.899-8.506-9.921-11.953c-4.69-4.019-10.649-6.813-16.342-9.086
						c-8.337-3.328-19.064-6.009-27.702-2.289C94.561,80.975,96.34,81.421,97.476,80.932L97.476,80.932z"/>
				</g>
			</g>
			<g>
				<g>
					<path fill="#FFFFFF" d="M95.939,81.415c7.284,6.905,15.671,12.349,24.773,16.541c8.08,3.72,18.369,7.13,27.321,7.306
						c0.945,0.018,3.134-1.387,1.186-1.426c-4.909-0.096-10.617-1.895-15.384-3.193c-4.237-1.152-8.321-2.829-12.304-4.662
						c-8.419-3.877-16.167-9.266-22.884-15.633C97.997,79.731,95.301,80.809,95.939,81.415L95.939,81.415z"/>
				</g>
			</g>
		</g>
		<g>
			<g>
				<path fill="#FFFFFF" d="M119.709,82.005c-2.266,0.532-5.383,1.931-6.668,3.979c-0.657,1.048,2.226,0.673,2.672-0.039
					c0.852-1.357,2.811-2.331,4.332-2.688c0.353-0.083,1.428-0.466,1.281-1.015C121.175,81.681,120.063,81.922,119.709,82.005
					L119.709,82.005z"/>
			</g>
		</g>
		<g>
			<g>
				<path fill="#FFFFFF" d="M126.172,83.866c-3.128,0.961-5.892,2.932-8.304,5.092c0.841,0.106,1.683,0.212,2.524,0.318
					c0.002-0.004,0.004-0.007,0.006-0.01c0.405-0.577-0.342-0.89-0.801-0.907c-0.674-0.026-1.505,0.23-1.908,0.806
					c-0.002,0.003-0.004,0.006-0.007,0.009c-0.295,0.42,0.068,0.773,0.476,0.867c0.688,0.156,1.526-0.082,2.049-0.55
					c1.836-1.644,3.986-3.36,6.375-4.094c0.431-0.133,1.413-0.521,1.244-1.154C127.662,83.631,126.603,83.734,126.172,83.866
					L126.172,83.866z"/>
			</g>
		</g>
		<g>
			<g>
				<path fill="#FFFFFF" d="M125.276,91.54c1.718-1.66,3.812-3.075,6.146-3.676c0.266-0.067,1.445-0.404,1.32-0.871
					c-0.126-0.47-1.313-0.162-1.578-0.094c-3.198,0.821-6.152,2.533-8.521,4.824c-0.483,0.468,0.422,0.54,0.697,0.521
					C123.982,92.2,124.798,92.002,125.276,91.54L125.276,91.54z"/>
			</g>
		</g>
		<g>
			<g>
				<path fill="#FFFFFF" d="M130.042,94.515c2.017-1.903,4.876-2.598,7.141-4.149c0.494-0.34,0.324-0.776-0.228-0.85
					c-0.707-0.093-1.471,0.153-2.05,0.549c-2.455,1.684-5.315,2.426-7.527,4.515c-0.518,0.488,0.441,0.689,0.739,0.682
					C128.82,95.245,129.53,94.999,130.042,94.515L130.042,94.515z"/>
			</g>
		</g>
		<g>
			<g>
				<path fill="#FFFFFF" d="M136.047,97.783c1.175-1.407,3.099-2.223,4.834-2.682c0.356-0.094,1.428-0.464,1.278-1.024
					c-0.15-0.561-1.263-0.342-1.62-0.247c-2.574,0.681-5.422,1.891-7.166,3.982c-0.443,0.531,0.376,0.734,0.753,0.73
					C134.783,98.536,135.609,98.308,136.047,97.783L136.047,97.783z"/>
			</g>
		</g>
	</g>
</g>
</svg>
