<svg xmlns="http://www.w3.org/2000/svg" viewBox="0 0 75.62 7.43"><title>Asset 1</title><g id="Layer_2" data-name="Layer 2"><g id="Layer_2-2" data-name="Layer 2"><path d="M73.38,5.23c-3.2,1.68-7.93,3.36-11.22,1.13h0a5.13,5.13,0,0,1-1.32-1.42h0C40.49,5.89,20.26,2.3.28,5.4h0L0,3.6C21.18.35,42.29,4.35,63.13,3h0a30.74,30.74,0,0,1-3.29-1.34h0L60.56,0A31.25,31.25,0,0,0,71.38,2.17h0l.07,1.05,1.67.32h0L75.62,4,73.38,5.23ZM63.22,4.88C64.65,6,67.44,5.7,70,4.78h0L68.15,4.4h0q-2.51.27-5,.42h0l.09.06Z"/></g></g></svg>