<svg xmlns="http://www.w3.org/2000/svg" viewBox="0 0 75 13.7"><title>Asset 4</title><g id="Layer_2" data-name="Layer 2"><g id="Layer_2-2" data-name="Layer 2"><path d="M74.71,4.64l.19-.56A13.6,13.6,0,0,0,71.44,3,13.37,13.37,0,0,1,68.3.65L67.8.12l-.17.71c-.08.34-.18.69-.29,1.06l-.22-.09-.45-.2-.1.48-.09.42-.11,0L66,3.17l.28.19A25.82,25.82,0,0,0,66,5.92l-.33,0,.15.11C59.35,7.18,51.23,7,45.62,7.29c-6.86.33-14.58,1-22.17,1A78.9,78.9,0,0,1,9,7.15q-.35-.64-.69-1.28a12.16,12.16,0,0,0-2.7-4.3A11.43,11.43,0,0,0,4,0L3.41.55c.19.26.48.66.82,1.15a11,11,0,0,0,2.84,5l-.93-.24C4.78,4.21,2.5,2.32.65.41L0,.85a12.62,12.62,0,0,0,2.84,3.8c.57.71,1.11,1.46,1.67,2.22v0h0l.31.41C4.17,8.06,3.25,9,2.4,9.87c-.54.53-1.07,1.07-1.61,1.61L.28,12l.56.56.46-.46,1.65-1.66A13.54,13.54,0,0,1,6,8.07l-.29-.56.14-.16-.09-.11,1.54.37c0,.12,0,.25,0,.36-1.21,1.5-2.64,3.29-3.69,4.42-.24.23-.49.47-.74.74l.56.57c.22-.2.47-.45.74-.74.91-.84,1.75-1.41,2.45-2A4.12,4.12,0,0,0,8.1,8.28l.27-.34L9,8.42,9.3,8A80.85,80.85,0,0,0,23.45,9.09c7.63,0,15.37-.68,22.21-1C51.23,7.8,59.34,8,65.9,6.79A11.09,11.09,0,0,0,65.63,9a6.1,6.1,0,0,0,.11,1.17l.08.42.42-.12c.36-.11.73-.22,1.09-.36a2.36,2.36,0,0,0,1.07.34h.11l.1-.05a13.26,13.26,0,0,0,2.62-1.79,9.38,9.38,0,0,0,1.83-1.76c.53-.56,1-1.13,1.55-1.71L75,4.75ZM69.37,3.42l-1-.33c.47.13.93.24,1.39.34ZM69.68,5l-.58.19-.57-.67C68.91,4.71,69.3,4.87,69.68,5ZM68.23,1.69a11.12,11.12,0,0,0,1,.79c-.38-.09-.75-.19-1.12-.31Zm-.85,2.76c.3.31.59.65.89,1-.42.11-.85.21-1.28.31C67.1,5.32,67.23,4.88,67.37,4.44Zm0,4.84-.07,0C67.19,9,67,9,66.93,8.85l-.1-.11H67l.79,0C67.66,8.9,67.5,9.09,67.36,9.29ZM67,7.94h-.31c0-.2,0-.39,0-.59s0-.35,0-.52l0-.1,0,0A16.68,16.68,0,0,1,68,7.9C67.68,7.91,67.33,7.94,67,7.94ZM68,6.8c.31,0,.62,0,.93,0a3.94,3.94,0,0,1,.68.05l.16,0a10.53,10.53,0,0,0-.92.74C68.61,7.34,68.34,7.07,68,6.8Zm1.34,1.52.08-.19A9,9,0,0,1,71,7l.14,0L71,7l.45-.24A11,11,0,0,1,69.39,8.32Zm1-1.86L70,6.12l-.29-.26c.38-.12.74-.25,1.1-.39l.88.35A8.92,8.92,0,0,0,70.39,6.46Zm3.08-1.2-.66.18-1-.42L72,4.94l1.53.27Zm0-.05,0-.1h0Z"/></g></g></svg>