<svg xmlns="http://www.w3.org/2000/svg" viewBox="0 0 106.71 17.5"><title>Asset 2</title><g id="Layer_2" data-name="Layer 2"><g id="Layer_2-2" data-name="Layer 2"><path d="M105.92,10.7c-1.27.72-2.56,1.45-3.82,2.21h0a7.53,7.53,0,0,0-1.83,2.31h0l-1.22-.32c-.68.49-1.35,1-2,1.53h0L95.81,17.5l0-1.66c0-1,0-2.54.06-4.07h0c0-.3,0-.6,0-.9h0a23.62,23.62,0,0,1-4.87.6h0a9.39,9.39,0,0,1-7.24-3.31h0c-1.62,2.12-3,3-4.51,3h0c-1.67,0-2.88-1.15-4.19-2.16h0a10.06,10.06,0,0,0-4.49-2.34h0a19,19,0,0,0-2.8-.27h0c-3.2,0-5.27,1.05-9.68,1.89h0a.36.36,0,0,1-.23,0h0c-.57-.1-.44-.2-.54-.22h0l-.07-.08h0l-.12-.14h0l-.33-.41h0c-.27-.33-.64-.78-1.07-1.21h0a4.67,4.67,0,0,0-2.61-1.63H53c-.08,0-.14,0-.3.27h0a4.36,4.36,0,0,0-.43,1.11h0a22.14,22.14,0,0,1-.85,3.12h0a2,2,0,0,1-1.68,1.36h0l-.89,0h0c-5.84-.07-7.54-3.8-11.18-8.06h0a18.23,18.23,0,0,0-2.49,4.83h0c-1,2.23-1.55,4.42-3.35,5h0a3.62,3.62,0,0,1-.86.1h0c-2.27-.08-4-1.92-5.65-3.6h0a14.33,14.33,0,0,0-4-3.33h0A28.74,28.74,0,0,1,17.22,14h0l-.5.66-.61-.56c-3.7-3.47-4.42-8.37-7.25-11.67h0C6.55,6.08,4.28,10.6,1.2,14.67h0L0,13.77C3.21,9.55,5.56,4.7,8.12.77h0L8.62,0l.65.64c3.58,3.61,4.28,8.53,7.25,11.71h0a28,28,0,0,0,3.64-8h0l.17-.64.66.1c2.16.36,3.79,2.26,5.45,3.95h0C28.07,9.53,29.71,11,31,11h0a2.32,2.32,0,0,0,.5-.05h0C31.88,11,33,9,33.82,6.78h0c.94-2.25,1.85-4.74,3.54-6h0l.55-.38.44.5C42.61,5.79,43.71,9,48.9,9.06h0l.79,0h0c.06,0,.17,0,.39-.48h0a10.75,10.75,0,0,0,.52-1.81h0c.38-1.35.47-3.15,2.25-3.56h0a2,2,0,0,1,.34,0h0c2.35.14,4.24,2.7,5,3.62h0c4-.78,6.13-1.88,9.65-1.85h0a18.78,18.78,0,0,1,3,.29h0A11.41,11.41,0,0,1,76,7.87h0c1.33,1.06,2.39,1.86,3.27,1.84h0c.84,0,2.05-.61,3.84-3.19h0l.58-.82.63.79A8.06,8.06,0,0,0,91.05,10h0a22.18,22.18,0,0,0,4.86-.64h0s0,0,0,0h0c0-.76,0-1.52.06-2.28h0l1.09.06c.05-.29.1-.58.15-.89h0l1.49,0c0,.42.22,1.37.39,2.46h0c.31-.68.58-1.26.72-1.62h0l1.42.48c-.09.29-.16.58-.23.87h0c.5-.05,1-.1,1.54-.12h0a27.21,27.21,0,0,0-6.77-3.47h0l.41-1.44a14.34,14.34,0,0,1,8.79,5h0c.38.37.76.77,1.11,1.18h0l.58.69-.78.45Zm-1.55-.85,0,0h0c-.32,0-.64,0-1,0h0a18.79,18.79,0,0,0-2.61.16h0c-.09.7-.15,1.41-.2,2.14h0c1.26-.79,2.54-1.52,3.79-2.23Zm-5.3,2.23-1.16-.17a11.13,11.13,0,0,0-.06-1.22h0c-.17.77-.34,1.54-.46,2.32h0c0,.43,0,.86,0,1.26h0c.54-.4,1.08-.79,1.64-1.17h0c0-.34,0-.68.07-1ZM57.76,6.87h0l-.07,0h0Zm-.55.44v0h0v0Z"/></g></g></svg>