<?xml version="1.0" encoding="utf-8"?>
<!-- Generator: Adobe Illustrator 15.0.0, SVG Export Plug-In . SVG Version: 6.00 Build 0)  -->
<!DOCTYPE svg PUBLIC "-//W3C//DTD SVG 1.1//EN" "http://www.w3.org/Graphics/SVG/1.1/DTD/svg11.dtd">
<svg version="1.1" id="Layer_1" xmlns="http://www.w3.org/2000/svg" xmlns:xlink="http://www.w3.org/1999/xlink" x="0px" y="0px"
	 width="198.43px" height="198.43px" viewBox="0 0 198.43 198.43" enable-background="new 0 0 198.43 198.43" xml:space="preserve">
<g>
	<circle fill="#FFFFFF" cx="101.627" cy="96.965" r="80.125"/>
	<circle fill="none" stroke="#7F7F7F" stroke-width="3" stroke-miterlimit="10" cx="101.129" cy="96.965" r="80.125"/>
	<g>
		<g>
			<path fill="#E84444" d="M120.428,54.526c-6.234-10.789-12.471-21.577-18.705-32.365c-0.564-0.977-2.295-0.244-2.71,0.475
				C86.53,44.229,74.058,65.829,61.596,87.434c-0.49,0.851,0.652,1.215,1.253,1.215c8.13,0,16.261,0,24.391,0
				c-0.445-0.313-0.891-0.627-1.337-0.94c0,15.111,0,30.223,0,45.333c0,0.759,0.701,0.94,1.337,0.94c8.684,0,17.368,0,26.051,0
				c0.562,0,1.598-0.481,1.598-1.165c0-15.111,0-30.223,0-45.333c-0.533,0.389-1.064,0.776-1.598,1.165c8.129,0,16.26,0,24.391,0
				c0.811,0,1.971-0.798,1.457-1.688C132.902,76.148,126.664,65.337,120.428,54.526c-0.645-1.119-3.41-0.04-2.654,1.272
				c6.238,10.811,12.475,21.623,18.711,32.433c0.486-0.562,0.973-1.126,1.459-1.688c-8.131,0-16.262,0-24.391,0
				c-0.564,0-1.6,0.481-1.6,1.165c0,15.111,0,30.223,0,45.333c0.533-0.388,1.066-0.776,1.6-1.165c-8.684,0-17.368,0-26.051,0
				c0.445,0.313,0.891,0.627,1.337,0.94c0-15.111,0-30.223,0-45.333c0-0.759-0.701-0.94-1.337-0.94c-8.13,0-16.261,0-24.391,0
				c0.418,0.405,0.836,0.81,1.253,1.215c12.463-21.605,24.935-43.205,37.416-64.799c-0.902,0.158-1.806,0.316-2.71,0.475
				c6.236,10.789,12.47,21.577,18.705,32.365C118.42,56.917,121.186,55.837,120.428,54.526z"/>
		</g>
	</g>
	<g>
		<g>
			<path fill="#E84444" d="M113.547,144.527c-8.682,0-17.362,0-26.043,0c0.446,0.315,0.893,0.631,1.339,0.946c0-3.333,0-6.666,0-10
				c-0.532,0.39-1.064,0.779-1.597,1.169c8.681,0,17.362,0,26.043,0c-0.447-0.315-0.893-0.631-1.34-0.946c0,3.333,0,6.666,0,10
				c0,1.52,2.936,1.077,2.936-0.223c0-3.333,0-6.666,0-10c0-0.76-0.699-0.946-1.338-0.946c-8.682,0-17.362,0-26.043,0
				c-0.565,0-1.597,0.482-1.597,1.169c0,3.333,0,6.666,0,10c0,0.76,0.7,0.946,1.339,0.946c8.681,0,17.362,0,26.043,0
				C114.941,146.643,115.514,144.527,113.547,144.527z"/>
		</g>
	</g>
	<g>
		<g>
			<path fill="#FFFFFF" d="M162.736,100.085c5.5-1.75,8-6.75,9.5-12c-2,2-6,1.25-8.75,1c3.75-5.25,7.25-11.25,7-18
				c-1.25,3.75-6.25,4.5-9.5,6.25c4-7.25,3.75-12.75,3.75-20.5c0,3.75-4.75,7-7.5,9.25c1-6.5-1.25-17.5-6.5-21.75
				c1.5,14.75-3.25,26.5-14.5,36.25c-4.5,4.25-14,6.75-17,12c-5,8,8,7.25,9,13.75c1.5,9.25-19.25,15.75-19.25,15.75
				c-3-0.25-4.25,0.5-3.75,3.25c0.75,4.5,2.75,2.25,5.5,1.75c5.75-1,11,2.25,12,8c1.25-2.25,0.75-5,0.25-7.25
				c5.25,3.25,8.5,6,9.25,12.25c2-2.75,3-5.75,2.25-9.25c5.5,0.25,12.25,7.5,11.75,13c3.5-3.5,4.75-8.75,3.25-13.75
				c3,0.5,7.5,1.25,8.75,4.25c0-3.75,0-7.75-2.75-10.75c5.25,1.5,11.5-5.25,13.25-9.75c-2.5-0.25-5.75-0.75-7.5-2.75
				c5.25-0.5,8.25-3.25,10.75-8C168.736,103.335,165.986,100.835,162.736,100.085z"/>
			<g>
				<path fill="#80D0DE" d="M163.084,100.36c5.705-2.186,8.381-6.749,10.109-12.43c0.184-0.606-1.523-0.049-1.709,0.085
					c3.121-2.246-8.564,3.262-6.111-0.413c1.221-1.83,2.346-3.68,3.373-5.625c1.84-3.483,2.674-7.243,2.705-11.151
					c0.004-0.51-1.758,0.057-1.922,0.414c-1.67,3.597-5.842,4.32-9.113,5.917c0.508,0.008,1.018,0.016,1.527,0.023
					c3.473-6.688,3.768-13.225,3.758-20.604c0-0.425-1.863-0.069-1.922,0.414c-0.508,4.147-4.273,6.602-7.295,9.025
					c0.57-0.028,1.139-0.057,1.709-0.085c0.914-7.427-0.773-16.726-6.551-21.94c-0.348-0.312-1.922,0.047-1.873,0.604
					c0.725,8.307-0.393,16.221-4.227,23.668c-4.328,8.409-11.457,13.675-19.521,18.092c-3.781,2.07-8.697,5.114-8.885,9.954
					c-0.156,4.02,7.707,5.734,9.619,8.744c5.213,8.206-13.791,16.073-19.508,16.647c-3.387,0.341-4.307,4.573-1.574,6.644
					c0.631,0.478,2.021,0.086,2.66-0.13c6.475-2.183,11.93,0.793,13.436,7.131c0.131,0.549,1.771-0.03,1.924-0.413
					c1.016-2.57,0.807-4.669,0.258-7.354c-0.623,0.201-1.248,0.402-1.871,0.604c4.842,3.059,8.268,6.297,9.189,12.164
					c0.096,0.606,1.732-0.126,1.924-0.413c1.998-3.01,2.783-5.791,2.258-9.354c-0.527,0.231-1.053,0.463-1.58,0.694
					c5.957,0.753,11.43,6.805,11.398,12.823c-0.002,0.536,1.672-0.104,1.85-0.302c3.596-4.031,4.609-8.738,3.332-13.966
					c-0.527,0.231-1.053,0.463-1.58,0.694c3.141,0.535,6.662,1.062,8.398,4.073c0.281,0.487,1.934,0.046,1.932-0.518
					c-0.016-4.022-0.277-7.575-2.809-10.836c-0.508,0.261-1.016,0.521-1.521,0.78c6.615,1.156,12.354-4.783,14.822-10.34
					c0.092-0.207-0.215-0.267-0.342-0.281c-2.711-0.315-5.123-0.802-7.209-2.659c-0.357,0.253-0.715,0.506-1.07,0.758
					c5.611-0.782,9.129-3.656,11.871-8.567c0.107-0.194-0.23-0.277-0.342-0.281c-3.326-0.117-5.98-2.025-9.08-2.969
					c-0.484-0.146-2.219,0.611-1.572,0.809c2.709,0.824,5.119,2.311,7.885,2.951c1.73,0.4-1.137,3.414-0.924,3.123
					c-1.818,2.47-4.385,3.672-7.51,4.108c-0.164,0.022-1.469,0.403-1.07,0.758c1.924,1.712,3.992,2.272,6.488,2.689
					c1.779,0.297-1.617,4.163-1.439,3.922c-2.029,2.76-5.496,5.77-9.277,5.108c-0.285-0.05-1.908,0.282-1.521,0.78
					c2.516,3.241,2.676,6.729,2.689,10.664c0.645-0.173,1.289-0.345,1.932-0.518c-1.885-3.266-5.654-3.84-9.1-4.427
					c-0.297-0.051-1.707,0.184-1.582,0.694c1.232,5.042,0.332,9.614-3.166,13.534c0.615-0.101,1.232-0.201,1.848-0.302
					c0.033-6.399-5.887-12.393-12.1-13.177c-0.33-0.042-1.66,0.159-1.582,0.694c0.525,3.568-0.299,6.223-2.24,9.146
					c0.641-0.138,1.281-0.275,1.922-0.413c-0.943-6.009-4.338-9.194-9.309-12.336c-0.348-0.219-1.994,0.012-1.873,0.604
					c0.508,2.491,0.721,4.712-0.24,7.146c0.641-0.138,1.281-0.275,1.922-0.413c-1.264-5.319-5.877-8.976-11.484-8.311
					c-3.082,0.365-6.664,1.743-6.023-3.226c0.039-0.304,3.104-0.911,3.891-1.179c6.65-2.259,18.889-6.832,19.193-15.249
					c0.172-4.769-6.234-6.256-9.082-8.776c-6.271-5.552,9.773-12.726,12.934-14.663c13.656-8.375,19.928-23.809,18.572-39.347
					c-0.623,0.201-1.248,0.402-1.871,0.604c5.621,5.072,7.342,14.316,6.449,21.56c-0.078,0.63,1.482,0.096,1.707-0.085
					c3.16-2.535,7.176-5.139,7.707-9.475c-0.641,0.138-1.283,0.276-1.924,0.414c0.01,7.278-0.328,13.826-3.74,20.396
					c-0.266,0.511,1.402,0.084,1.527,0.023c3.652-1.783,8.029-2.578,9.887-6.583c-0.641,0.138-1.283,0.276-1.924,0.414
					c-0.055,6.791-3.111,12.354-6.916,17.784c-0.176,0.25,0.006,0.366,0.268,0.393c3.584,0.369,7.055,0.837,10.115-1.366
					c-0.568,0.028-1.139,0.057-1.707,0.085c-1.514,4.978-3.633,9.554-8.893,11.57C161.107,100.299,162.309,100.658,163.084,100.36z"
					/>
			</g>
		</g>
		<g>
			<g>
				<path fill="#80D0DE" d="M137.629,83.535c5.322-1.377,10.662-7.644,13.43-12.154c-0.625,0.021-1.25,0.041-1.875,0.061
					c-0.561,6.115-3.348,11.101-6.604,16.18c-0.404,0.628,0.719,0.677,1.049,0.58c4.281-1.251,8.451-2.706,11.098-6.488
					c-0.625,0.021-1.25,0.041-1.877,0.062c-1.33,4.949-4.912,8.134-8.648,11.364c-0.588,0.51,0.232,0.812,0.666,0.779
					c4.416-0.329,8.379-0.49,11.902-3.389c-0.562-0.081-1.127-0.161-1.689-0.241c-1.963,4.517-5.393,7.688-9.822,9.766
					c-0.41,0.192-0.936,0.844-0.188,1.007c4.014,0.879,8.248,1.774,12.145,0.053c-0.434-0.164-0.867-0.328-1.301-0.492
					c-2.271,4.86-7.949,5.851-12.205,8.382c-0.291,0.173-0.555,0.608-0.15,0.824c2.848,1.519,6.436,2.15,8.91,4.298
					c-0.328-0.285-4.957,0.429-5.52,0.443c-1.277,0.034-2.531,0.091-3.773,0.397c-1.178,0.291-0.883,1.357,0.287,1.068
					c0.977-0.24,15.064-0.032,9.639-3.55c-1.652-1.07-3.637-1.74-5.445-2.492c-0.73-0.305-1.459-0.611-2.18-0.941
					c0.602,0.275,2.844-1.105,3.395-1.35c3.609-1.602,7.107-3.248,8.855-6.988c0.361-0.772-0.916-0.662-1.301-0.492
					c-3.215,1.419-6.963,0.425-10.191-0.281c-0.062,0.336-0.125,0.671-0.188,1.007c4.805-2.254,8.705-5.64,10.846-10.566
					c0.422-0.973-1.328-0.539-1.691-0.241c-2.963,2.438-6.611,2.352-10.096,2.611c0.221,0.26,0.443,0.52,0.664,0.779
					c3.953-3.418,7.625-6.777,9.02-11.97c0.232-0.863-1.607-0.322-1.875,0.062c-2.322,3.317-5.9,4.438-9.572,5.512
					c0.352,0.193,0.701,0.387,1.051,0.58c3.34-5.21,6.154-10.22,6.73-16.486c0.08-0.89-1.602-0.387-1.877,0.061
					c-2.242,3.652-7.426,10.018-11.904,11.178C136.17,82.771,136.459,83.838,137.629,83.535L137.629,83.535z"/>
			</g>
		</g>
		<g>
			<g>
				<path fill="#80D0DE" d="M129.309,85.664c3.348,0.137,6.037-1.753,8.807-3.427c-0.535-0.105-1.07-0.211-1.605-0.316
					c0.121,2.743,0.031,4.789-1.275,7.326c-0.16,0.312,0.033,0.616,0.352,0.707c1.373,0.394,1.602,0.439,3.012,0.648
					c1.938,0.287-2.641,5.922-2.412,5.646c-0.219,0.263-0.25,0.573,0.049,0.788c3.486,2.497,3.33,2.949,0.785,5.546
					c-0.225,0.229-0.252,0.607,0.049,0.788c2.559,1.527,2.396,3.337,0.785,5.545c-0.717,0.979,1.113,1.172,1.6,0.506
					c0.703-0.963,2.436-2.704,2.123-4.054c-0.533-2.316-2.992-2.591,0.039-4.797c0.238-0.173,0.5-0.532,0.258-0.816
					c-0.404-0.476-3.803-3.343-3.18-4.091c1.414-1.703,2.199-3.612,2.602-5.748c0.066-0.353-0.338-0.564-0.631-0.577
					c-4.408-0.197-2.066-4.485-2.203-7.589c-0.035-0.824-1.137-0.6-1.605-0.316c-2.041,1.233-4.312,3.009-6.857,2.905
					C129.113,84.302,127.998,85.611,129.309,85.664L129.309,85.664z"/>
			</g>
		</g>
	</g>
	<g>
		<g>
			<path fill="#FFFFFF" d="M38.971,100.085c-5.5-1.75-8-6.75-9.5-12c2,2,6,1.25,8.75,1c-3.75-5.25-7.25-11.25-7-18
				c1.25,3.75,6.25,4.5,9.5,6.25c-4-7.25-3.75-12.75-3.75-20.5c0,3.75,4.75,7,7.5,9.25c-1-6.5,1.25-17.5,6.5-21.75
				c-1.5,14.75,3.25,26.5,14.5,36.25c4.5,4.25,14,6.75,17,12c5,8-8,7.25-9,13.75c-1.5,9.25,19.25,15.75,19.25,15.75
				c3-0.25,4.25,0.5,3.75,3.25c-0.75,4.5-2.75,2.25-5.5,1.75c-5.75-1-11,2.25-12,8c-1.25-2.25-0.75-5-0.25-7.25
				c-5.25,3.25-8.5,6-9.25,12.25c-2-2.75-3-5.75-2.25-9.25c-5.5,0.25-12.25,7.5-11.75,13c-3.5-3.5-4.75-8.75-3.25-13.75
				c-3,0.5-7.5,1.25-8.75,4.25c0-3.75,0-7.75,2.75-10.75c-5.25,1.5-11.5-5.25-13.25-9.75c2.5-0.25,5.75-0.75,7.5-2.75
				c-5.25-0.5-8.25-3.25-10.75-8C32.971,103.335,35.721,100.835,38.971,100.085z"/>
			<g>
				<path fill="#80D0DE" d="M39.757,99.681c-5.354-2.052-7.733-6.635-9.32-11.854c-0.624,0.201-1.248,0.402-1.872,0.604
					c2.765,1.99,6.038,1.426,9.251,1.095c0.26-0.027,1.658-0.289,1.312-0.784c-3.834-5.473-6.885-11.087-6.94-17.914
					c-0.644,0.172-1.288,0.345-1.932,0.518c1.808,3.896,6.128,4.661,9.68,6.396c0.275,0.134,1.988-0.208,1.752-0.663
					c-3.443-6.631-3.76-13.17-3.75-20.5c-0.644,0.172-1.288,0.345-1.932,0.518c0.523,4.282,4.438,6.831,7.56,9.336
					c0.352,0.281,1.942-0.033,1.872-0.604c-0.891-7.224,0.789-16.456,6.417-21.534c-0.613,0.066-1.227,0.132-1.84,0.198
					c-1.348,15.464,4.795,30.859,18.408,39.208c4.082,2.504,16.56,7.043,13.862,13.801c-1.705,4.273-8.515,3.816-9.771,8.991
					c-2.012,8.292,12.958,13.761,18.673,15.75c2.081,0.725,4.632,0.238,4.327,3.25c-0.324,3.201-4.34,1.009-6.743,0.99
					c-5.296-0.041-9.575,3.788-10.757,8.76c0.641-0.138,1.282-0.275,1.923-0.413c-0.965-2.441-0.784-4.569-0.259-7.146
					c0.131-0.644-1.506-0.043-1.708,0.085c-4.993,3.155-8.504,6.416-9.456,12.474c0.641-0.138,1.282-0.275,1.923-0.413
					c-1.954-2.941-2.785-5.571-2.259-9.146c0.056-0.378-0.58-0.286-0.793-0.259c-6.532,0.825-12.915,6.882-12.88,13.672
					c0.624-0.201,1.248-0.402,1.872-0.604c-3.526-3.951-4.448-8.452-3.199-13.56c0.091-0.371-0.61-0.29-0.793-0.259
					c-3.689,0.628-7.854,1.32-9.871,4.817c0.641-0.138,1.282-0.275,1.923-0.413c0.015-3.901,0.191-7.346,2.667-10.534
					c0.339-0.438-0.493-0.41-0.719-0.37c-5.583,0.976-10.472-5.146-12.448-9.596c-0.377,0.224-0.754,0.448-1.13,0.672
					c3.223-0.375,6.085-1.015,8.547-3.206c0.255-0.228-0.078-0.366-0.268-0.393c-5.088-0.709-7.968-3.469-10.399-7.823
					c-0.457,0.232-0.914,0.466-1.371,0.698c3.645-0.129,6.299-2.031,9.751-3.082c1.117-0.34,0.939-1.059-0.191-0.715
					c-2.821,0.858-5.815,2.814-8.749,2.918c-0.176,0.007-1.595,0.299-1.371,0.698c1.315,2.355,2.733,4.354,4.881,6.033
					c0.989,0.772,2.235,1.211,3.398,1.617c3.749,1.311-1.81,2.184-3.899,2.428c-0.18,0.021-1.292,0.307-1.13,0.672
					c2.068,4.657,5.986,9.014,11.135,10.063c2.179,0.444,1.728-0.184,0.534,2c-1.324,2.425-1.159,5.778-1.169,8.437
					c-0.002,0.546,1.745-0.106,1.923-0.413c-1.681,2.911,7.617-7.136,6.468-2.436c-0.364,1.491-0.264,3.084-0.152,4.591
					c0.223,3.026,1.864,5.65,3.821,7.844c0.331,0.371,1.875-0.077,1.872-0.604c-0.022-4.338,2.668-7.808,5.933-10.412
					c4.57-3.645,3.577,0.209,3.826,2.174c0.233,1.838,1.312,3.506,2.31,5.006c0.28,0.423,1.842,0.099,1.923-0.413
					c0.913-5.809,4.227-8.982,9.044-12.026c-0.569,0.028-1.139,0.057-1.708,0.085c-0.538,2.639-0.774,4.785,0.241,7.354
					c0.198,0.501,1.816,0.032,1.923-0.413c1.503-6.325,6.927-8.641,13.008-6.589c0.851,0.286,1.959,0.247,2.761-0.166
					c3.154-1.623,2.359-6.71-1.393-6.573c-3.358,0.123-7.596-2.53-10.436-4.033c-4.379-2.317-10.646-6.417-9.244-12.197
					c1-4.124,7.366-4.731,9.574-8.184c3.083-4.819-6.492-10.079-9.346-11.642c-15.765-8.634-24.51-23.189-22.925-41.367
					c0.061-0.697-1.601-0.018-1.84,0.198c-5.77,5.207-7.5,14.527-6.583,21.966c0.624-0.201,1.248-0.402,1.872-0.604
					c-3.059-2.453-6.927-4.965-7.44-9.164c-0.059-0.48-1.931-0.05-1.932,0.518c-0.01,7.33,0.306,13.869,3.75,20.5
					c0.584-0.221,1.168-0.441,1.752-0.663c-3.396-1.657-7.585-2.363-9.32-6.104c-0.237-0.511-1.937-0.028-1.932,0.518
					c0.056,6.9,3.195,12.568,7.06,18.086c0.438-0.262,0.874-0.522,1.312-0.784c-2.817,0.29-5.713,0.92-8.249-0.905
					c-0.325-0.234-2.04,0.052-1.872,0.604c1.657,5.449,4.136,10.021,9.68,12.146C38.658,100.67,40.414,99.933,39.757,99.681z"/>
			</g>
		</g>
		<g>
			<g>
				<path fill="#80D0DE" d="M64.803,82.44c-4.718-1.222-9.936-7.555-12.355-11.497c-0.364-0.593-1.922-0.032-1.859,0.65
					c0.574,6.254,3.416,11.281,6.739,16.466c0.492-0.317,0.983-0.635,1.476-0.952c-3.889-1.138-7.605-2.378-10.021-5.831
					c-0.365-0.521-2.049-0.053-1.859,0.65c1.376,5.121,5.006,8.428,8.905,11.8c0.419-0.328,0.838-0.656,1.258-0.983
					c-3.78-0.282-7.349-0.231-10.471-2.8c-0.402-0.331-2.186-0.1-1.859,0.65c2.097,4.825,5.819,8.188,10.537,10.4
					c0.206-0.343,0.412-0.685,0.618-1.027c-3.302,0.723-6.998,1.649-10.261,0.208c-0.365-0.161-2.062,0.036-1.728,0.752
					c2.424,5.191,8.158,6.198,12.704,8.901c0.122-0.313,0.244-0.626,0.367-0.939c-2.054,1.095-9.261,2.552-9.812,5.277
					c-0.431,2.13,9.482,1.614,10.625,1.896c0.676,0.167,2.287-0.844,1.164-1.121c-3.014-0.744-6.201-0.183-9.252-0.722
					c-0.619-0.109,4.034-2.678,4.556-2.897c1.176-0.496,2.382-0.938,3.509-1.54c0.317-0.169,0.898-0.624,0.367-0.939
					c-4.274-2.542-10.004-3.524-12.296-8.433c-0.576,0.251-1.151,0.501-1.728,0.752c3.857,1.704,8.105,0.742,12.071-0.126
					c0.322-0.07,1.296-0.71,0.618-1.027c-4.518-2.119-8.119-5.308-10.129-9.932c-0.62,0.217-1.239,0.434-1.859,0.65
					c3.374,2.775,7.327,2.888,11.529,3.2c0.287,0.021,1.853-0.469,1.258-0.983c-3.793-3.28-7.411-6.513-8.761-11.534
					c-0.62,0.217-1.239,0.434-1.859,0.65c2.528,3.614,6.568,4.978,10.645,6.169c0.456,0.134,1.925-0.252,1.476-0.952
					c-3.278-5.113-6.031-10.066-6.595-16.2c-0.62,0.217-1.239,0.434-1.859,0.65c2.616,4.261,7.901,10.521,12.979,11.835
					C64.315,83.736,65.925,82.73,64.803,82.44L64.803,82.44z"/>
			</g>
		</g>
		<g>
			<g>
				<path fill="#80D0DE" d="M72.152,84.337c-2.674,0.109-4.997-1.718-7.18-3.037c-0.471-0.284-1.695-0.082-1.727,0.621
					c-0.128,2.907,0.08,5.221,1.421,7.828c0.241-0.344,0.481-0.688,0.723-1.031c-1.271,0.433-2.573,0.639-3.903,0.619
					c-0.45,0.021-1.167,0.374-1.063,0.923c0.413,2.193,1.234,3.739,2.505,5.563c0.707,1.014-2.421,3.403-3.006,4.092
					c-0.224,0.262-0.246,0.573,0.049,0.788c1.286,0.935,2.771,1.882,1.142,3.188c-0.339,0.271-0.734,0.711-0.836,1.15
					c-0.414,1.79,0.891,3.172,1.891,4.541c0.485,0.663,2.335-0.061,1.775-0.828c-1.716-2.349-2.34-3.776,0.576-5.517
					c0.236-0.141,0.506-0.562,0.258-0.816c-2.518-2.566-2.912-3.018,0.575-5.518c0.241-0.173,0.494-0.531,0.258-0.816
					c-1.598-1.923-2.782-3.84-3.255-6.345c-0.354,0.308-0.709,0.615-1.063,0.923c1.575-0.07,2.926-0.282,4.429-0.713
					c0.461-0.133,0.99-0.509,0.723-1.031c-1.238-2.405-1.361-4.542-1.245-7.172c-0.575,0.207-1.15,0.414-1.727,0.621
					c2.683,1.621,5.25,3.427,8.486,3.295C73.021,85.621,73.473,84.283,72.152,84.337L72.152,84.337z"/>
			</g>
		</g>
	</g>
	<g>
		<g>
			<path fill="#E84444" d="M85.907,149.525c0.137,6.374,1.902,11.747,8.154,14.269c3.499,1.411,7.435,1.139,11.06,0.585
				c3.848-0.588,14.053-3.31,14.053,3.317c0,1.533,2.334,0.947,2.854,0.053c1.961-3.386,4.482-10.306,0.123-13.11
				c-2.369-1.525-4.379-1.584-7.09-1.223c-2.758,0.368-0.955-2.896-0.432-4.333c0.322-0.885-0.518-1.221-1.254-1.221
				c-8.518,0-17.034,0-25.55,0c-1.653,0-2.226,2.113-0.26,2.113c8.517,0,17.033,0,25.55,0c-0.418-0.406-0.838-0.813-1.256-1.221
				c-0.801,2.201-3.283,5.816,0.197,6.78c3.09,0.856,5.523-1.467,8.338,1.235c2.793,2.681,0.391,8.012-1.137,10.65
				c0.951,0.018,1.9,0.035,2.852,0.053c0-6.658-6.533-6.506-11.529-6.089c-5.73,0.478-11.014,2.525-16.532-0.295
				c-4.309-2.202-5.113-7.464-5.206-11.787C88.809,147.781,85.879,148.232,85.907,149.525L85.907,149.525z"/>
		</g>
	</g>
</g>
</svg>
