<?xml version="1.0" encoding="utf-8"?>
<!-- Generator: Adobe Illustrator 15.0.0, SVG Export Plug-In . SVG Version: 6.00 Build 0)  -->
<!DOCTYPE svg PUBLIC "-//W3C//DTD SVG 1.1//EN" "http://www.w3.org/Graphics/SVG/1.1/DTD/svg11.dtd">
<svg version="1.1" id="Layer_1" xmlns="http://www.w3.org/2000/svg" xmlns:xlink="http://www.w3.org/1999/xlink" x="0px" y="0px"
	 width="198.43px" height="198.43px" viewBox="0 0 198.43 198.43" enable-background="new 0 0 198.43 198.43" xml:space="preserve">
<g>
	<circle fill="#FFFFFF" cx="98.763" cy="99.816" r="80.125"/>
	<g>
		<g>
			<g>
				<path fill="#FAF067" d="M102.379,124.5c7.322-17.525,14.645-35.052,21.967-52.579c0.559-1.338-1.619-1.916-2.17-0.598
					c-7.322,17.526-14.645,35.053-21.967,52.579C99.65,125.24,101.828,125.818,102.379,124.5L102.379,124.5z"/>
			</g>
		</g>
		<g>
			<g>
				<path fill="#FAF067" d="M102.266,124.77c13.089-19.174,26.178-38.347,39.268-57.521c0.82-1.202-1.131-2.326-1.943-1.136
					c-13.089,19.174-26.178,38.348-39.268,57.522C99.502,124.836,101.453,125.959,102.266,124.77L102.266,124.77z"/>
			</g>
		</g>
		<g>
			<g>
				<path fill="#FAF067" d="M102.09,124.998c13.812-13.252,27.623-26.503,41.435-39.754c1.048-1.007-0.545-2.596-1.592-1.592
					c-13.812,13.252-27.623,26.502-41.435,39.754C99.45,124.412,101.043,126.002,102.09,124.998L102.09,124.998z"/>
			</g>
		</g>
		<g>
			<g>
				<path fill="#FAF067" d="M101.861,125.174c19.251-11.846,38.502-23.689,57.752-35.533c1.233-0.759,0.104-2.706-1.135-1.943
					c-19.251,11.845-38.502,23.689-57.752,35.533C99.493,123.988,100.622,125.936,101.861,125.174L101.861,125.174z"/>
			</g>
		</g>
		<g>
			<g>
				<path fill="#FAF067" d="M101.593,125.287c17.102-5.924,34.203-11.846,51.305-17.77c1.362-0.471,0.777-2.645-0.598-2.17
					c-17.102,5.924-34.203,11.846-51.305,17.77C99.633,123.588,100.218,125.762,101.593,125.287L101.593,125.287z"/>
			</g>
		</g>
		<g>
			<g>
				<path fill="#FAF067" d="M97.593,123.117c-16.028-5.574-32.058-11.148-48.087-16.723c-1.374-0.477-1.959,1.697-0.598,2.17
					c16.028,5.574,32.058,11.148,48.087,16.723C98.369,125.764,98.954,123.59,97.593,123.117L97.593,123.117z"/>
			</g>
		</g>
		<g>
			<g>
				<path fill="#FAF067" d="M97.861,123.23c-19.209-11.844-38.419-23.688-57.629-35.533c-1.238-0.764-2.367,1.184-1.135,1.943
					c19.209,11.843,38.419,23.687,57.629,35.533C97.965,125.938,99.094,123.99,97.861,123.23L97.861,123.23z"/>
			</g>
		</g>
		<g>
			<g>
				<path fill="#FAF067" d="M94.229,119.691c-12.37-11.9-24.739-23.8-37.108-35.701c-1.046-1.005-2.639,0.584-1.592,1.592
					c12.37,11.899,24.739,23.8,37.108,35.701C93.683,122.287,95.275,120.699,94.229,119.691L94.229,119.691z"/>
			</g>
		</g>
		<g>
			<g>
				<path fill="#FAF067" d="M98.266,123.635c-13.045-19.174-26.089-38.348-39.133-57.522c-0.812-1.192-2.762-0.068-1.943,1.136
					c13.045,19.174,26.089,38.347,39.133,57.521C97.134,125.961,99.084,124.838,98.266,123.635L98.266,123.635z"/>
			</g>
		</g>
		<g>
			<g>
				<path fill="#FAF067" d="M93.212,111.475c-5.562-13.383-11.126-26.767-16.688-40.151c-0.549-1.32-2.727-0.742-2.17,0.598
					c5.562,13.384,11.126,26.768,16.688,40.151C91.591,113.393,93.769,112.814,93.212,111.475L93.212,111.475z"/>
			</g>
		</g>
		<ellipse fill="#FFFFFF" cx="99.997" cy="123.668" rx="42.838" ry="32.967"/>
		<circle fill="none" stroke="#7F7F7F" stroke-width="3" stroke-miterlimit="10" cx="99.665" cy="98.613" r="80.125"/>
		<g>
			<g>
				<path fill="#EEBC40" d="M136.998,67.781c0-4.239,0-8.479,0-12.718c0-0.774-0.69-1.045-1.365-1.045c-9.594,0-19.188,0-28.783,0
					c0.455,0.348,0.91,0.697,1.365,1.045c0.021-10.249,0.044-20.497,0.073-30.746c0.002-0.774-0.692-1.045-1.365-1.045
					c-4.648,0-9.297,0-13.945,0c-0.61,0-1.582,0.51-1.582,1.225c0,10.249,0,20.497,0,30.746c0.527-0.408,1.055-0.816,1.582-1.225
					c-9.569,0-19.14,0-28.71,0c-0.61,0-1.582,0.51-1.582,1.225c0,4.239,0,8.479,0,12.718c0,0.774,0.69,1.045,1.365,1.045
					c9.569,0,19.14,0,28.71,0c-0.455-0.348-0.91-0.697-1.365-1.045c0,10.991,0,21.982,0,32.973c0,2.02,2.494,4.762,3.429,6.443
					c1.985,3.57,5.473,8.582,4.667,12.844c-0.145,0.766,0.804,1.051,1.364,1.045c0.011,0,0.021,0,0.033,0
					c0.627-0.006,1.214-0.389,1.504-0.93c1.054-1.967,2.241-6.738,4.609-7.396c0.49-0.137,1.188-0.564,1.187-1.16
					c-0.051-14.666-0.02-29.333,0.003-43.999c-0.527,0.408-1.055,0.816-1.582,1.225c9.602,0,19.204,0,28.807,0
					c1.709,0,2.177-2.27,0.217-2.27c-9.602,0-19.204,0-28.807,0c-0.611,0-1.581,0.51-1.582,1.225
					c-0.021,14.666-0.053,29.333-0.003,43.999c0.396-0.387,0.791-0.773,1.187-1.158c-3.87,1.074-5.148,5.992-6.826,9.125
					c0.501-0.311,1.003-0.619,1.504-0.93c-0.011,0-0.021,0-0.032,0c0.454,0.348,0.909,0.697,1.364,1.045
					c0.626-3.311-1.177-6.479-2.576-9.398c-1.143-2.383-2.438-4.693-3.749-6.986c-0.397-0.693-1.77-3.531-1.77-2.73
					c0-11.048,0-22.097,0-33.145c0-0.774-0.69-1.045-1.365-1.045c-9.569,0-19.14,0-28.71,0c0.455,0.348,0.91,0.697,1.365,1.045
					c0-4.239,0-8.479,0-12.718c-0.527,0.408-1.055,0.816-1.582,1.225c9.569,0,19.14,0,28.71,0c0.61,0,1.582-0.51,1.582-1.225
					c0-10.249,0-20.497,0-30.746c-0.527,0.408-1.055,0.816-1.582,1.225c4.648,0,9.297,0,13.945,0
					c-0.455-0.348-0.91-0.697-1.365-1.045c-0.028,10.249-0.052,20.497-0.073,30.746c-0.001,0.774,0.691,1.045,1.365,1.045
					c9.594,0,19.188,0,28.783,0c-0.455-0.348-0.91-0.697-1.365-1.045c0,4.239,0,8.479,0,12.718
					C134.051,69.561,136.998,69.188,136.998,67.781z"/>
			</g>
		</g>
		<g>
			<g>
				<g>
					<path fill="#A55E94" d="M124.5,98.942c-2.365,3.595-6.518,6.044-9.825,8.667c-3.212,2.549-6.184,5.209-8.729,8.434
						c-5.054,6.402-6.892,17.057-4.722,24.805c0.257,0.912,1.859,0.4,2.365,0.104c3.221-1.895,4.945-4.191,8.876-5.484
						c2.136-0.703,4.295-1.439,6.228-2.615c3.638-2.215,6.349-5.027,8.112-8.932c3.482-7.709,1.591-17.279,0.503-25.299
						c-0.146-1.076-3.057-0.394-2.898,0.777c1.057,7.79,2.426,15.926-0.024,23.588c-1.513,4.732-5.306,7.934-9.701,9.932
						c-2.131,0.971-4.564,1.314-6.625,2.455c-2.329,1.289-4.01,3.246-6.302,4.594c0.788,0.035,1.577,0.068,2.365,0.104
						c-2.435-8.689,0.405-19.273,6.254-25.953c4.915-5.611,12.728-8.787,16.841-15.041C128,97.887,125.063,98.085,124.5,98.942z"/>
				</g>
			</g>
		</g>
		<g>
			<g>
				<path fill="#A55E94" d="M97.651,120.18c0.823-4.068-0.151-8.059-2.49-11.52c-2.983-4.416-8.814-6.699-10.36-11.688
					c-0.213-0.687-1.586-0.352-2.009-0.159c-6.95,3.157-9.648,12.718-9.384,19.542c0.228,5.873,3.673,10.357,7.818,14.156
					c4.292,3.932,10.588,5.52,14.604,9.498c0.602,0.598,2.903,0.053,2.798-0.941C97.963,132.826,96.111,126.406,97.651,120.18
					c0.247-1-2.659-0.547-2.891,0.391c-1.578,6.381,0.288,12.879,0.969,19.275c0.933-0.314,1.865-0.629,2.798-0.943
					c-2.968-2.941-7.572-4.518-11.07-6.787c-4.043-2.623-7.763-6.312-9.804-10.701c-2.118-4.555-1.574-9.926-0.152-14.57
					c0.833-2.725,3.557-7.638,6.41-8.935c-0.669-0.053-1.339-0.106-2.009-0.159c1.483,4.784,4.463,5.131,7.792,8.461
					c3.728,3.729,6.131,9.094,5.066,14.359C94.552,121.604,97.462,121.115,97.651,120.18z"/>
			</g>
		</g>
		<g>
			<g>
				<path fill="#A55E94" d="M134.038,134.188c-7.024,0.283-13.922,0.449-20.526,3.102c-4.837,1.943-10.772,5.738-13.109,10.549
					c-0.21,0.434,0.641,0.498,0.845,0.488c5.629-0.273,9.69,1.268,14.604,3.914c4.626,2.492,8.636,2.559,13.448,0.746
					c9.078-3.418,15.494-14.27,17.728-23.213c0.253-1.016-2.434-0.154-2.771,0.256C141.72,133.125,137.834,133.902,134.038,134.188
					c-0.9,0.068-3.12,1.555-1.189,1.41c5.102-0.385,10.67-1.496,14.069-5.645c-0.924,0.086-1.847,0.172-2.771,0.256
					c-1.462,5.857-4.679,11.654-8.549,16.25c-3.856,4.58-9.921,7.754-15.979,5.283c-3.099-1.262-5.682-3.133-8.896-4.264
					c-1.759-0.619-3.611-0.625-5.448-0.641c-0.868-0.008-1.738,0.031-2.606,0.066c1.239-0.051,3.625-3.342,4.661-4.168
					c7.655-6.107,16.143-6.762,25.519-7.139C133.764,135.561,135.979,134.109,134.038,134.188z"/>
			</g>
		</g>
		<g>
			<g>
				<path fill="#A55E94" d="M90.692,139.555c-4.929-3.113-9.989-4.504-15.754-5.111c-6.766-0.713-15.77,0.861-20.673-5.045
					c-0.612-0.736-3.07-0.137-2.788,0.982c2.259,8.932,8.628,19.559,17.633,22.998c4.185,1.598,7.825,1.377,11.92-0.312
					c2.977-1.229,5.536-3.055,8.639-4.133c2.204-0.766,4.755-0.516,7.053-0.406c0.463,0.021,2.414-0.434,1.99-1.295
					C96.979,143.711,93.861,141.701,90.692,139.555c-0.882-0.596-3.524,0.658-2.279,1.502c2.847,1.928,5.83,3.76,7.4,6.953
					c0.663-0.432,1.327-0.863,1.99-1.297c-2.183-0.104-4.693-0.357-6.841,0.158c-5.304,1.273-10.571,5.807-15.924,5.893
					c-10.448,0.166-18.53-14.725-20.663-23.16c-0.93,0.326-1.858,0.654-2.788,0.98c2.974,3.582,7.53,4.621,11.971,5.131
					c8.912,1.021,16.909,0.32,24.854,5.342C89.312,141.625,91.954,140.354,90.692,139.555z"/>
			</g>
		</g>
		<g>
			<g>
				<path fill="#A55E94" d="M98.448,150.232c-5.922,1.137-10.438,2.324-15.444,5.781c-2.004,1.383-5.099,1.941-6.748,3.746
					c-1.094,1.197,4.374,4.414,4.848,4.615c3.854,1.65,9.166,0.283,12.466-2.016c4.449-3.098,5.629-6.854,6.044-12.035
					c0.024-0.307-2.834-0.029-2.898,0.777c-0.18,2.246-0.415,4.568-1.219,6.684c-2.195,5.781-9.916,7.697-14.544,3.859
					c-3.341-2.77,0.025-3.035,2.336-4.367c1.838-1.059,3.516-2.395,5.318-3.512c2.523-1.562,6.306-2.004,9.273-2.574
					C98.981,150.98,100.488,149.842,98.448,150.232z"/>
			</g>
		</g>
		<g>
			<g>
				<path fill="#A55E94" d="M102.771,152.443c3.584,0.691,7.146,1.197,10.39,2.965c2.96,1.613,5.383,3.994,8.641,5.055
					c0.26,1.029,0.016,1.809-0.732,2.338c-1.912,1.527-4.025,2.066-6.339,1.617c-2.134-0.305-4.126-1.678-5.735-3.004
					c-2.973-2.451-3.693-6.113-4.184-9.721c-0.138-1.008-3.05-0.336-2.898,0.777c0.927,6.807,4.101,11.758,11.051,13.551
					c4.229,1.092,11.385-1.078,12.623-5.777c0.033-0.152-0.002-0.283-0.106-0.396c-1.052-0.926-2.326-1.098-3.604-1.721
					c-1.889-0.92-3.587-2.305-5.327-3.469c-3.658-2.447-7.785-3.004-12.013-3.818C103.592,150.658,101.111,152.125,102.771,152.443
					L102.771,152.443z"/>
			</g>
		</g>
		<g>
			<g>
				<path fill="#A55E94" d="M75.985,128.717c-1.245-1.436-2.238-2.98-3.159-4.641c-1.019-1.834-0.854-4.658-1.998-6.246
					c-0.996-1.383-3.732-1.883-5.207-2.352c-2.788-0.889-5.584-1.49-8.271-2.686c-0.733-0.326-1.902,0.062-2.219,0.824
					c-1.729,4.16,2.764,11.08,5.541,13.711c4.161,3.941,11.201,5.967,16.887,5.217c0.744-0.1,2.438-1.205,1.222-1.984
					c-1.04-0.666-2.048-1.277-3.009-2.057c-1.062-0.861-3.551,0.65-2.217,1.732c0.96,0.779,1.968,1.391,3.009,2.057
					c0.407-0.66,0.814-1.322,1.222-1.982c-4.492,0.592-10.49-1.016-13.95-3.818c-1.644-1.332-2.848-3.172-3.927-4.959
					c-0.893-1.479-2.725-5.76-1.99-7.525c-0.74,0.273-1.479,0.549-2.219,0.822c2.513,1.117,12.337,2.502,12.645,5.381
					c0.38,3.547,2.721,7.188,4.997,9.814C74.251,131.074,76.992,129.877,75.985,128.717z"/>
			</g>
		</g>
		<g>
			<g>
				<path fill="#A55E94" d="M128.319,130.211c2.069-2.389,4.227-5.568,4.847-8.711c0.858-4.355,9.031-4.77,12.724-6.412
					c-0.7-0.166-1.4-0.334-2.101-0.5c1.332,3.203-2.339,8.586-4.132,10.828c-3.179,3.979-10.039,5.977-15.073,5.312
					c0.158,0.594,0.317,1.186,0.477,1.779c1.246-0.799,1.933-1.184,3.009-2.057c1.528-1.24-0.785-2.324-1.939-1.387
					c-0.964,0.781-1.974,1.393-3.009,2.057c-0.89,0.568-0.465,1.654,0.477,1.777c5.372,0.709,12.195-1.047,16.408-4.461
					c2.24-1.816,3.86-4.322,5.165-6.855c0.935-1.812,2.335-5.801,1.517-7.771c-0.35-0.842-1.38-0.822-2.101-0.502
					c-4.298,1.912-9.333,2.238-13.301,4.867c-1.045,0.693-1.159,3.766-1.412,4.51c-0.825,2.438-2.323,4.689-3.994,6.617
					C124.669,130.701,127.43,131.238,128.319,130.211z"/>
			</g>
		</g>
		<g>
			<g>
				<path fill="#A55E94" d="M55.261,145.285c-3.744,0.75-7.084,2.533-10.087,4.859c-0.472,0.365-0.776,0.938-0.192,1.361
					c6.771,4.914,13.87,6.953,22.13,5.039c0.622-0.145,1.849-1.092,0.891-1.68c-4.092-2.508-9.746-3.84-11.053-9.076
					c-0.306-1.223-3.206-0.455-2.898,0.777c1.418,5.682,7.237,7.143,11.691,9.871c0.297-0.559,0.594-1.119,0.891-1.68
					c-7.365,1.709-13.5-0.549-19.392-4.824c-0.063,0.455-0.128,0.908-0.192,1.361c2.62-2.029,5.417-3.568,8.69-4.223
					C57.553,146.709,57.035,144.93,55.261,145.285z"/>
			</g>
		</g>
		<g>
			<g>
				<path fill="#A55E94" d="M143.98,144.721c-2.837-0.18-5.081,4.99-7.084,6.537c-1.909,1.475-6.377,1.701-7.632,3.799
					c-0.182,0.305-0.09,0.75,0.245,0.912c2.716,1.316,6.902,0.777,9.825,0.715c5.597-0.119,10.146-3.266,14.554-6.393
					c0.496-0.352,0.755-0.961,0.188-1.377C151.138,146.76,147.669,144.971,143.98,144.721c-1.312-0.09-3.01,1.82-1.045,1.953
					c3.277,0.223,6.284,1.92,8.884,3.824c0.062-0.459,0.126-0.918,0.188-1.377c-3.252,2.307-6.657,5.004-10.743,5.514
					c-2.778,0.346-5.715,0.111-8.495-0.137c-0.788-0.297-1.122,0.094-1.001,1.176c0.538-0.213,1.076-0.424,1.614-0.635
					c1.433-0.562,2.824-1.188,4.191-1.893c0.921-0.477,1.851-1.082,2.588-1.811c0.601-0.594,4.708-4.541,2.773-4.662
					C144.246,146.756,145.945,144.844,143.98,144.721z"/>
			</g>
		</g>
	</g>
</g>
</svg>
