<?xml version="1.0" encoding="utf-8"?>
<!-- Generator: Adobe Illustrator 15.0.0, SVG Export Plug-In . SVG Version: 6.00 Build 0)  -->
<!DOCTYPE svg PUBLIC "-//W3C//DTD SVG 1.1//EN" "http://www.w3.org/Graphics/SVG/1.1/DTD/svg11.dtd">
<svg version="1.1" id="Layer_1" xmlns="http://www.w3.org/2000/svg" xmlns:xlink="http://www.w3.org/1999/xlink" x="0px" y="0px"
	 width="198.43px" height="198.43px" viewBox="0 0 198.43 198.43" enable-background="new 0 0 198.43 198.43" xml:space="preserve">
<g>
	<circle fill="#80D0DE" cx="100.865" cy="99.215" r="80.125"/>
	<g>
		<g>
			<g>
				<path fill="#FFFFFF" d="M88.317,124.447c2.571-7.934,6.125-15.45,9.608-23.012c2.897-6.29,5.098-12.923,8.182-19.112
					c2.57-5.157,6.32-9.404,11.133-12.56c4.816-3.16,10.461-4.31,15.637-6.67c1.76-0.802,0.232-3.387-1.514-2.591
					c-5.219,2.38-10.678,3.666-15.639,6.67c-4.621,2.8-8.209,6.884-11.006,11.454c-4.014,6.562-6.2,14.324-9.384,21.293
					c-3.569,7.812-7.258,15.543-9.91,23.729C84.826,125.496,87.723,126.28,88.317,124.447L88.317,124.447z"/>
			</g>
		</g>
		<g>
			<g>
				<path fill="#FFFFFF" d="M134.371,65.799c-0.182,15.029-5.395,28.75-13.748,41.11c-4.328,6.407-9.545,12.187-15.021,17.623
					c-2.887,2.866-4.844,5.694-8.92,3.425c-3.114-1.733-6.584-2.727-9.554-4.703c-1.615-1.076-3.115,1.523-1.514,2.59
					c3.298,2.196,7.167,3.376,10.631,5.304c1.551,0.864,3.43,1.771,5.179,0.854c3.309-1.733,5.955-4.975,8.541-7.598
					c3.318-3.365,6.41-6.946,9.336-10.655c10.898-13.811,17.855-30.226,18.07-47.95C137.395,63.863,134.395,63.866,134.371,65.799
					L134.371,65.799z"/>
			</g>
		</g>
		<g>
			<g>
				<path fill="#FFFFFF" d="M95.519,100.353c-6.697-0.977-11.192,2.641-14.655,8.089c-3.815,6.001-7.89,13.607-7.993,20.857
					c-0.016,1.078,1.309,1.949,2.257,1.295c3.645-2.511,8.078-3.293,11.75-5.75c1.6-1.069,0.1-3.669-1.514-2.59
					c-3.669,2.454-8.1,3.233-11.75,5.75c0.752,0.432,1.505,0.863,2.257,1.295c0.082-5.748,3.048-10.91,5.69-15.854
					c2.812-5.261,6.188-11.216,13.161-10.199C96.614,103.521,97.428,100.631,95.519,100.353L95.519,100.353z"/>
			</g>
		</g>
		<g>
			<g>
				<path fill="#FFFFFF" d="M99.924,130.15c-0.5,1.453,0.371,3.855,0.626,5.289c0.418,2.342,0.865,4.684,1.373,7.008
					c0.414,1.89,3.307,1.089,2.893-0.797c-0.434-1.987-0.812-3.986-1.186-5.985c-0.207-1.113-0.404-2.229-0.586-3.346
					c-0.062-0.381-0.098-1.749-0.229-1.372C103.449,129.113,100.551,128.332,99.924,130.15L99.924,130.15z"/>
			</g>
		</g>
		<g>
			<g>
				<path fill="#FFFFFF" d="M116.811,114.109c5.469,6.848-4.334,21.222-8.75,26.629c-1.213,1.484,0.896,3.62,2.121,2.121
					c5.646-6.912,15.691-22.18,8.75-30.871C117.725,110.477,115.615,112.614,116.811,114.109L116.811,114.109z"/>
			</g>
		</g>
	</g>
	<g>
		<g>
			<path fill="#FFFFFF" d="M77.696,59.234c-0.046-0.025-0.092-0.051-0.138-0.076c-0.78-0.632-2.223-0.542-2.456,0.648
				c-0.021,0.107-0.042,0.215-0.063,0.323c-0.131,0.665,0.08,1.294,0.675,1.66c5.746,3.525,7.309,9.566,7.245,15.946
				c-0.062,6.072-4.604,11.316-7.689,16.174c-0.77,1.211,0.786,2.852,2.011,2.011c8.562-5.884,16.91-10.713,20.74-20.917
				c3.062-8.154,1.933-17.622-6.283-21.982c-1.673-0.888-3.157,1.649-1.482,2.538c8.615,4.572,7.102,14.768,3.367,22.199
				c-3.653,7.268-11.403,11.21-17.826,15.624c0.671,0.67,1.341,1.34,2.011,2.011c3.935-6.195,8.03-11.641,8.107-19.26
				c0.068-6.852-2.834-13.272-8.716-16.881c0.225,0.553,0.45,1.106,0.675,1.66c0.021-0.107,0.042-0.215,0.063-0.323
				c-0.818,0.216-1.638,0.432-2.456,0.648c0.237,0.192,0.473,0.375,0.733,0.536C77.829,62.774,79.303,60.23,77.696,59.234
				L77.696,59.234z"/>
		</g>
	</g>
	<g>
		<g>
			<circle fill="none" stroke="#FFFFFF" stroke-width="3" stroke-miterlimit="10" cx="103.457" cy="97.369" r="51"/>
			<circle fill="none" stroke="#FFFFFF" stroke-width="3" stroke-miterlimit="10" cx="103.456" cy="97.369" r="45.991"/>
		</g>
		
			<line fill="none" stroke="#FFFFFF" stroke-width="3" stroke-miterlimit="10" x1="125.523" y1="143.361" x2="144.357" y2="166.521"/>
		
			<line fill="none" stroke="#FFFFFF" stroke-width="3" stroke-miterlimit="10" x1="137.961" y1="134.92" x2="156.512" y2="156.862"/>
	</g>
	<g>
		<circle fill="none" stroke="#FFFFFF" stroke-width="3" stroke-miterlimit="10" cx="121.604" cy="80.383" r="6.493"/>
		<circle fill="none" stroke="#FFFFFF" stroke-width="3" stroke-miterlimit="10" cx="112.362" cy="98.139" r="8.208"/>
	</g>
	<g>
		<g>
			<path fill="#FFFFFF" d="M115.924,151.4c-0.586,2.494-0.785,5.092-0.803,7.648c-0.014,1.936,2.986,1.934,3,0
				c0.016-2.296,0.17-4.611,0.695-6.852C119.26,150.315,116.367,149.518,115.924,151.4L115.924,151.4z"/>
		</g>
	</g>
	<g>
		<g>
			<g>
				<path fill="#FFFFFF" d="M74.621,44.549c3.82,0.114,7.4,1.648,11.102,2.446c1.886,0.407,2.688-2.485,0.797-2.893
					c-3.979-0.859-7.786-2.431-11.898-2.554C72.685,41.491,72.691,44.491,74.621,44.549L74.621,44.549z"/>
			</g>
		</g>
		<g>
			<g>
				<path fill="#FFFFFF" d="M83.114,36.253c-2.165,1.399-3.887,3.293-5.554,5.235c-1.253,1.459,0.859,3.591,2.121,2.121
					c1.489-1.734,3.011-3.514,4.946-4.765C86.246,37.798,84.744,35.2,83.114,36.253L83.114,36.253z"/>
			</g>
		</g>
		<g>
			<g>
				<path fill="#FFFFFF" d="M99.377,43.094c1.458-0.712,2.324-1.992,3.208-3.304c1.994-2.956,4.613-1.039,7.027,0.304
					c-0.18-0.684-0.359-1.368-0.537-2.052c-0.539,0.771-1.047,1.357-1.766,1.946c-1.498,1.226,0.637,3.335,2.121,2.121
					c0.898-0.735,1.572-1.607,2.234-2.554c0.461-0.66,0.133-1.678-0.539-2.052c-2.691-1.498-5.293-3.149-8.404-1.901
					c-2.295,0.92-2.721,3.857-4.859,4.901C96.125,41.352,97.647,43.939,99.377,43.094L99.377,43.094z"/>
			</g>
		</g>
		<g>
			<g>
				<path fill="#FFFFFF" d="M70.871,48.049c0.146,2.076-1.857,3.717-2.446,5.601c-0.579,1.852,2.317,2.638,2.893,0.798
					c0.237-0.757,1.059-1.837,1.508-2.677c0.604-1.129,1.137-2.417,1.046-3.722C73.737,46.13,70.736,46.117,70.871,48.049
					L70.871,48.049z"/>
			</g>
		</g>
		<g>
			<g>
				<path fill="#FFFFFF" d="M69.269,47.995c1.081-0.174,2.248,0.523,3.164,1.001c1.008,0.525,1.983,1.073,3.039,1.499
					c1.795,0.724,2.567-2.179,0.797-2.893c-2.634-1.063-4.776-2.986-7.797-2.5C66.566,45.409,67.377,48.3,69.269,47.995
					L69.269,47.995z"/>
			</g>
		</g>
		<g>
			<g>
				<path fill="#FFFFFF" d="M66.769,55.495c1.689-0.472,3.146,0.938,4.595,1.599c1.746,0.797,3.271-1.788,1.514-2.591
					c-2.314-1.057-4.203-2.656-6.905-1.901C64.112,53.123,64.903,56.017,66.769,55.495L66.769,55.495z"/>
			</g>
		</g>
		<g>
			<g>
				<path fill="#FFFFFF" d="M132.77,38.103c-2.818-0.696-5.635-1.097-8.348,0.148c-2.545,1.167-3.984,4.161-5.096,6.542
					c-0.363,0.775-0.145,2.055,0.896,2.203c3.166,0.451,6.408,0.583,9.391,1.849c1.76,0.747,3.291-1.837,1.514-2.591
					c-3.279-1.392-6.621-1.654-10.107-2.151c0.299,0.734,0.598,1.469,0.896,2.203c0.889-1.902,1.838-4.073,3.658-5.264
					c1.84-1.205,4.449-0.528,6.398-0.046C133.85,41.459,134.646,38.566,132.77,38.103L132.77,38.103z"/>
			</g>
		</g>
		<g>
			<g>
				<path fill="#FFFFFF" d="M136.061,41.738c-1.41,1.177-2.805,2.35-4,3.75c-0.865,1.011-0.291,2.478,1.061,2.561
					c1.061,0.065,2.029,0.352,2.992,0.795c-0.18-0.684-0.359-1.368-0.537-2.052c-1.541,2.055-3.064,4.119-4.5,6.25
					c-1.086,1.609,1.516,3.109,2.59,1.514c1.436-2.13,2.959-4.194,4.5-6.25c0.457-0.61,0.146-1.737-0.539-2.052
					c-1.457-0.671-2.898-1.106-4.506-1.205c0.354,0.854,0.707,1.707,1.061,2.561c1.195-1.399,2.59-2.573,4-3.75
					C139.668,42.618,137.533,40.507,136.061,41.738L136.061,41.738z"/>
			</g>
		</g>
		<g>
			<g>
				<path fill="#FFFFFF" d="M64.114,130.504c-3.142,1.865-5.289,4.899-7.038,8.038c-0.396,0.708-0.183,1.641,0.538,2.052
					c1.332,0.762,2.247,1.837,3.196,3.016c1.213,1.508,3.322-0.63,2.121-2.121c-1.115-1.386-2.247-2.596-3.804-3.484
					c0.18,0.684,0.359,1.368,0.538,2.052c1.499-2.688,3.262-5.357,5.962-6.962C67.289,132.107,65.781,129.514,64.114,130.504
					L64.114,130.504z"/>
			</g>
		</g>
		<g>
			<g>
				<path fill="#FFFFFF" d="M110.674,147.4c-0.789,2.651-2.346,4.948-3.598,7.392c-0.508,0.991,0.107,2.264,1.295,2.257
					c2.521-0.014,5.152-0.284,7.602,0.446c1.857,0.555,2.646-2.341,0.797-2.893c-2.717-0.811-5.604-0.569-8.398-0.554
					c0.432,0.752,0.863,1.505,1.295,2.257c1.373-2.679,3.035-5.199,3.9-8.108C114.121,146.339,111.225,145.551,110.674,147.4
					L110.674,147.4z"/>
			</g>
		</g>
		<g>
			<g>
				<path fill="#FFFFFF" d="M110.311,165.109c0.887,1.139,1.531,2.46,2.266,3.696c0.986,1.662,3.58,0.153,2.59-1.514
					c-0.873-1.472-1.68-2.95-2.734-4.304c-0.504-0.646-1.598-0.524-2.121,0C109.68,163.619,109.809,164.465,110.311,165.109
					L110.311,165.109z"/>
			</g>
		</g>
		<g>
			<g>
				<path fill="#FFFFFF" d="M119.363,161.504c-4.184,2.634-7.225,6.703-10.303,10.484c-1.211,1.486,0.898,3.622,2.121,2.121
					c2.896-3.557,5.762-7.537,9.695-10.016C122.51,163.066,121.006,160.47,119.363,161.504L119.363,161.504z"/>
			</g>
		</g>
		<g>
			<g>
				<path fill="#FFFFFF" d="M102.871,174.299c0.861,0.114,1.381,1.451,1.717,2.1c0.582,1.129,1.172,2.245,2.275,2.945
					c1.639,1.04,3.143-1.557,1.514-2.59c-0.771-0.49-1.24-2.008-1.738-2.855c-0.865-1.472-2.07-2.375-3.768-2.6
					c-0.812-0.107-1.5,0.764-1.5,1.5C101.371,173.698,102.061,174.191,102.871,174.299L102.871,174.299z"/>
			</g>
		</g>
	</g>
	<g>
		<g>
			<g>
				<path fill="#FFFFFF" d="M158.57,64.477c3.162-3.399,4.096-14.599-1.658-16.327c-5.959-1.791-8.469,8.049-8.611,12.151
					c-0.229,6.6,1.584,15.303,9.908,14.806c7.865-0.469,12.822-11.579,11.691-18.277c-0.324-1.911-3.225-1.098-2.902,0.8
					c0.875,5.187-2.492,10.957-6.814,13.712c-6.039,3.852-8.604-4.01-8.857-8.38c-0.219-3.745,0.299-7.058,2.318-10.276
					c2.102-3.35,4.064,0.313,4.312,2.789c0.209,2.058-0.027,5.273-1.516,6.873C155.121,63.767,157.246,65.9,158.57,64.477
					L158.57,64.477z"/>
			</g>
		</g>
		<g>
			<g>
				<path fill="#FFFFFF" d="M149.674,62.15c-0.324,1.686,1.217,2.146,2.531,2.325c1.543,0.211,3.107,0.315,4.666,0.324
					c1.934,0.01,1.934-2.99,0-3c-0.916-0.005-1.832-0.054-2.744-0.12c-0.449-0.032-0.902-0.066-1.35-0.127
					c-0.197-0.027-0.395-0.064-0.592-0.103c-0.598-0.118,0.037-0.032,0.221,0.392c0.051,0.385,0.102,0.771,0.15,1.156
					c0.004-0.016,0.008-0.033,0.01-0.049C152.93,61.058,150.039,60.251,149.674,62.15L149.674,62.15z"/>
			</g>
		</g>
		<g>
			<g>
				<path fill="#FFFFFF" d="M141.066,60.15c-2.508-7.35,5.764-19.094,13.555-18.851c1.936,0.061,1.93-2.94,0-3
					c-9.715-0.303-19.58,13.47-16.447,22.649C138.795,62.768,141.693,61.986,141.066,60.15L141.066,60.15z"/>
			</g>
		</g>
		<g>
			<g>
				<path fill="#FFFFFF" d="M141.871,51.549c4.006-0.019,8.002-0.25,12-0.5c1.92-0.12,1.932-3.121,0-3
					c-3.998,0.25-7.994,0.481-12,0.5C139.936,48.558,139.936,51.558,141.871,51.549L141.871,51.549z"/>
			</g>
		</g>
		<g>
			<g>
				<path fill="#FFFFFF" d="M148.621,73.799c1.555,0.001,3.102-0.013,4.602,0.446c1.854,0.569,2.641-2.328,0.797-2.893
					c-1.748-0.536-3.586-0.553-5.398-0.554C146.686,70.798,146.686,73.798,148.621,73.799L148.621,73.799z"/>
			</g>
		</g>
		<g>
			<g>
				<path fill="#FFFFFF" d="M79.972,26.853c-2.952,1.049-4.979,3.753-6.959,6.052c-3.445,4.002-7.312,7.587-10.7,11.648
					c-7.159,8.583-11.775,18.786-14.815,29.473c-3.342,11.747-4.011,24.381-3.086,36.506c0.387,5.064,1.296,10.038,2.404,14.987
					c1.299,5.792,2.846,12.142,0.608,17.881c-0.704,1.805,2.198,2.579,2.893,0.797c3.088-7.921-0.194-16.888-1.75-24.797
					c-2.407-12.24-2-25.41,0.211-37.636c2.038-11.271,6.417-22.188,12.972-31.579c3.013-4.317,6.667-8.166,10.432-11.826
					c2.63-2.557,4.988-7.334,8.588-8.614C82.579,29.102,81.799,26.203,79.972,26.853L79.972,26.853z"/>
			</g>
		</g>
		<g>
			<g>
				<path fill="#FFFFFF" d="M80.621,29.299c10.623-0.126,21.252,2.142,31.721,3.73c11.73,1.78,23.146,3.02,35.029,3.02
					c1.934,0,1.934-3,0-3c-12.246,0-24.004-1.361-36.102-3.196c-10.113-1.535-20.381-3.676-30.649-3.554
					C78.687,26.322,78.685,29.322,80.621,29.299L80.621,29.299z"/>
			</g>
		</g>
		<g>
			<g>
				<path fill="#FFFFFF" d="M93.364,160.254c-4.367,2.403-5.161,12.97,1.6,12.482c6.234-0.45,11.074-8.461,10.654-14.255
					c-0.527-7.278-10.115-8.691-15.503-6.228c-9.539,4.361-12.469,13.754-12.493,23.545c-0.003,1.087,1.295,1.937,2.257,1.295
					c0.25-0.166,0.5-0.333,0.75-0.5c1.602-1.067,0.101-3.667-1.514-2.59c-0.25,0.166-0.5,0.333-0.75,0.5
					c0.752,0.432,1.505,0.863,2.257,1.295c0.025-9.922,4.071-21.688,15.945-21.64c6.245,0.024,6.995,5.795,4.528,10.217
					c-0.828,1.487-1.924,2.761-3.136,3.94c-4.333,4.217-6.954-3.34-3.08-5.473C96.573,161.911,95.059,159.32,93.364,160.254
					L93.364,160.254z"/>
			</g>
		</g>
		<g>
			<g>
				<path fill="#FFFFFF" d="M33.769,142.995c2.455-0.564,6.899,2.073,9.453,2.5c5.277,0.884,10.84,0.896,16.173,1.579
					c6.762,0.867,13.475,2.271,20.137,3.696c4.765,1.019,10.496,3.528,15.339,3.528c1.935,0,1.935-3,0-3
					c-2.781,0-6.24-1.531-8.962-2.17c-3.1-0.727-6.213-1.394-9.329-2.043c-6.264-1.305-12.564-2.419-18.911-3.233
					c-5.263-0.675-11.022-0.456-16.13-1.816c-2.491-0.664-5.935-2.539-8.566-1.934C31.086,140.536,31.886,143.428,33.769,142.995
					L33.769,142.995z"/>
			</g>
		</g>
		<g>
			<g>
				<path fill="#FFFFFF" d="M81.067,170.947c-0.101,0.593-0.048,0.277,0.843,0.266c0.696-0.01,1.396,0.064,2.089,0.129
					c1.739,0.161,3.467,0.461,5.192,0.728c2.141,0.331,5.109,1.243,7.187,0.274c1.753-0.816,0.228-3.402-1.514-2.59
					c-2.411,1.123-15.799-4.833-16.689,0.396C77.852,172.042,80.743,172.852,81.067,170.947L81.067,170.947z"/>
			</g>
		</g>
		<g>
			<g>
				<path fill="#FFFFFF" d="M83.621,161.049c3.571,0.02,6.994,0.427,10.352,1.696c1.812,0.686,2.589-2.215,0.797-2.893
					c-3.591-1.358-7.33-1.782-11.148-1.804C81.686,158.038,81.687,161.038,83.621,161.049L83.621,161.049z"/>
			</g>
		</g>
		<g>
			<g>
				<path fill="#FFFFFF" d="M122.111,144.299c0.086,5.427,0.859,10.711,1.756,16.052c0.584,3.477,1.213,6.83,0.549,10.344
					c-0.146,0.78-1.285,3.902-2.037,4.244c0.758,0.435,1.514,0.869,2.27,1.303c-0.006-0.114-0.014-0.229-0.02-0.343
					c-0.113-1.934-3.131-1.944-3.018,0c0.008,0.114,0.014,0.229,0.021,0.343c0.07,1.212,1.209,1.785,2.27,1.303
					c2.775-1.265,3.688-6.904,3.855-9.491c0.512-7.812-2.506-15.874-2.629-23.754C125.1,142.355,122.082,142.353,122.111,144.299
					L122.111,144.299z"/>
			</g>
		</g>
	</g>
</g>
</svg>
