<?xml version="1.0" encoding="utf-8"?>
<!-- Generator: Adobe Illustrator 15.0.0, SVG Export Plug-In . SVG Version: 6.00 Build 0)  -->
<!DOCTYPE svg PUBLIC "-//W3C//DTD SVG 1.1//EN" "http://www.w3.org/Graphics/SVG/1.1/DTD/svg11.dtd">
<svg version="1.1" id="Layer_1" xmlns="http://www.w3.org/2000/svg" xmlns:xlink="http://www.w3.org/1999/xlink" x="0px" y="0px"
	 width="198.43px" height="198.43px" viewBox="0 0 198.43 198.43" enable-background="new 0 0 198.43 198.43" xml:space="preserve">
<g>
	<circle fill="#80D0DE" cx="99.215" cy="95.82" r="80.125"/>
	<g>
		<polygon fill="#80D0DE" points="117.92,55.593 99.215,23.228 80.507,55.593 61.799,88.026 86.189,88.026 86.189,133.359 
			112.24,133.359 112.24,88.026 136.631,88.026 		"/>
		<g>
			<path fill="#FFFFFF" d="M119.369,55.205c-6.235-10.789-12.471-21.577-18.705-32.365c-0.356-0.616-2.59,0.166-2.874,0.658
				C85.308,45.091,72.836,66.69,60.374,88.295c-0.154,0.267,0.355,0.283,0.475,0.283c6.402,0,12.804,0,19.205,0
				c1.323,0,2.646,0,3.97,0c1.361,0,0.717-0.162,0.717,0.085c0,1.978,0,3.955,0,5.933c0,13.05,0,26.101,0,39.152
				c0,0.166,0.434,0.164,0.499,0.164c8.684,0,17.367,0,26.051,0c0.464,0,2.399-0.248,2.399-0.941c0-15.111,0-30.223,0-45.333
				c-0.8,0.314-1.6,0.628-2.399,0.941c8.131,0,16.261,0,24.391,0c0.244,0,2.682-0.451,2.399-0.941
				C131.843,76.827,125.605,66.016,119.369,55.205c-0.385-0.667-3.091,0.443-2.898,0.776c6.237,10.811,12.475,21.622,18.711,32.434
				c0.8-0.314,1.6-0.628,2.399-0.941c-8.131,0-16.261,0-24.391,0c-0.464,0-2.399,0.248-2.399,0.941c0,15.111,0,30.222,0,45.333
				c0.8-0.314,1.6-0.627,2.399-0.941c-6.528,0-13.057,0-19.585,0c-1.45,0-2.901,0-4.352,0c-0.462,0-0.924,0-1.385,0
				c-1.039,0-0.23-0.053-0.23,0.137c0-1.822,0-3.645,0-5.467c0-13.279,0-26.559,0-39.839c0-0.166-0.434-0.164-0.499-0.164
				c-3.9,0-7.801,0-11.701,0c-2.77,0-5.539,0-8.308,0c-1.056,0-2.111,0-3.166,0c-1.342,0-0.626,0.084-0.724,0.254
				c4.757-8.248,9.515-16.496,14.272-24.744c7.699-13.348,15.415-26.685,23.126-40.025c-0.958,0.219-1.916,0.438-2.874,0.658
				c6.235,10.789,12.471,21.577,18.705,32.365C116.856,56.648,119.562,55.537,119.369,55.205z"/>
		</g>
	</g>
	<g>
		<rect x="86.193" y="136.016" fill="#80D0DE" width="26.043" height="10"/>
		<g>
			<path fill="#FFFFFF" d="M112.844,145.359c-6.525,0-13.052,0-19.578,0c-1.45,0-2.9,0-4.351,0c-0.462,0-0.923,0-1.385,0
				c-1.318,0,0.112-0.033,0.112,0.141c0-3.291,0-6.582,0-9.873c-0.686,0.35-1.371,0.697-2.057,1.045c6.525,0,13.052,0,19.578,0
				c1.45,0,2.9,0,4.351,0c0.462,0,0.923,0,1.385,0c1.318,0-0.112,0.035-0.112-0.141c0,3.291,0,6.582,0,9.873
				c0,0.609,2.898,0.148,2.898-0.777c0-3.332,0-6.666,0-10c0-0.297-0.695-0.268-0.842-0.268c-8.681,0-17.361,0-26.043,0
				c-0.532,0-2.057,0.311-2.057,1.045c0,3.334,0,6.666,0,10c0,0.299,0.695,0.268,0.842,0.268c8.681,0,17.361,0,26.043,0
				C112.496,146.672,114.781,145.359,112.844,145.359z"/>
		</g>
	</g>
	<g>
		<g>
			<path fill="#80D0DE" d="M161.555,100.516c5.5-1.75,8-6.75,9.5-12c-2,2-6,1.25-8.75,1c3.75-5.25,7.25-11.25,7-18
				c-1.25,3.75-6.25,4.5-9.5,6.25c4-7.25,3.75-12.75,3.75-20.5c0,3.75-4.75,7-7.5,9.25c1-6.5-1.25-17.5-6.5-21.75
				c1.5,14.75-3.25,26.5-14.5,36.25c-4.5,4.25-14,6.75-17,12c-5,8,8,7.25,9,13.75c1.5,9.25-19.25,15.75-19.25,15.75
				c-3-0.25-4.25,0.5-3.75,3.25c0.75,4.5,2.75,2.25,5.5,1.75c5.75-1,11,2.25,12,8c1.25-2.25,0.75-5,0.25-7.25
				c5.25,3.25,8.5,6,9.25,12.25c2-2.75,3-5.75,2.25-9.25c5.5,0.25,12.25,7.5,11.75,13c3.5-3.5,4.75-8.75,3.25-13.75
				c3,0.5,7.5,1.25,8.75,4.25c0-3.75,0-7.75-2.75-10.75c5.25,1.5,11.5-5.25,13.25-9.75c-2.5-0.25-5.75-0.75-7.5-2.75
				c5.25-0.5,8.25-3.25,10.75-8C167.555,103.766,164.805,101.266,161.555,100.516z"/>
			<g>
				<path fill="#FFFFFF" d="M162.212,101.428c5.757-2.207,8.51-7.039,10.236-12.715c0.446-1.468-1.539-1.506-2.368-0.909
					c-2.135,1.536-4.898,0.854-7.288,0.608c0.246,0.524,0.491,1.05,0.736,1.574c3.958-5.65,7.191-11.501,7.248-18.564
					c0.013-1.534-2.382-1.145-2.865-0.102c-1.563,3.371-5.725,4.051-8.764,5.534c0.684,0.369,1.367,0.739,2.051,1.108
					c3.484-6.709,3.839-13.355,3.828-20.792c-0.002-1.597-2.776-1.177-2.943,0.189c-0.475,3.874-4.193,6.188-7.003,8.442
					c0.815,0.206,1.631,0.412,2.446,0.618c0.948-7.687-0.916-17.155-6.863-22.522c-0.9-0.812-2.657,0.105-2.558,1.255
					c0.752,8.622-0.597,16.821-4.866,24.409c-4.602,8.176-11.772,12.662-19.633,17.141c-3.168,1.806-8.897,5.711-8.134,10.165
					c0.772,4.502,6.691,5.237,9.322,8.342c6.313,7.453-13.757,15.711-19.02,16.24c-3.29,0.332-4.811,5.326-2.04,7.424
					c1.355,1.027,2.635,0.787,4.188,0.264c5.689-1.918,10.814,1.006,12.183,6.766c0.299,1.256,2.47,0.752,2.843-0.191
					c1.063-2.693,0.876-5.037,0.306-7.836c-0.853,0.42-1.705,0.838-2.558,1.256c4.727,2.986,8.008,6.037,8.909,11.771
					c0.182,1.156,2.21,0.779,2.673,0.082c2.142-3.223,3.046-6.234,2.476-10.109c-0.646,0.498-1.291,0.996-1.937,1.494
					c5.519,0.697,10.795,6.357,10.766,11.99c-0.008,1.447,2.036,1.113,2.695,0.375c3.742-4.193,4.801-9.186,3.476-14.609
					c-0.646,0.498-1.291,0.996-1.937,1.494c2.962,0.504,6.271,0.951,7.915,3.799c0.562,0.973,2.799,0.377,2.794-0.748
					c-0.016-4.17-0.262-7.912-2.899-11.311c-0.604,0.588-1.207,1.174-1.81,1.76c6.779,1.186,12.604-4.971,15.131-10.658
					c0.294-0.662-0.267-1.227-0.906-1.301c-2.528-0.295-4.906-0.756-6.879-2.512c-0.407,0.66-0.814,1.322-1.222,1.984
					c5.86-0.816,9.414-3.83,12.257-8.922c0.489-0.877-0.649-1.293-1.28-1.314c-3.025-0.107-5.711-2.041-8.538-2.901
					c-1.317-0.401-3.417,1.5-1.65,2.038c3.457,1.051,6.28,2.969,9.962,3.1c-0.427-0.439-0.854-0.877-1.28-1.314
					c-2.148,3.848-4.708,6.445-9.243,7.078c-0.905,0.125-2.251,1.068-1.222,1.984c2.345,2.088,5.062,2.633,8.121,2.988
					c-0.303-0.434-0.604-0.867-0.906-1.301c-1.857,4.182-6.18,9.748-11.369,8.842c-0.798-0.141-2.603,0.736-1.81,1.758
					c2.395,3.086,2.586,6.422,2.601,10.191c0.931-0.25,1.862-0.5,2.794-0.75c-1.968-3.408-5.988-4.088-9.585-4.699
					c-0.809-0.139-2.183,0.484-1.937,1.492c1.187,4.854,0.326,9.137-3.024,12.893c0.898,0.125,1.797,0.25,2.695,0.375
					c0.036-6.789-6.098-13.172-12.734-14.01c-0.883-0.113-2.089,0.455-1.937,1.492c0.478,3.242-0.208,5.658-2.024,8.393
					c0.891,0.027,1.781,0.055,2.673,0.08c-0.964-6.133-4.517-9.521-9.591-12.727c-0.88-0.557-2.824-0.057-2.558,1.254
					c0.486,2.381,0.732,4.32-0.194,6.666c0.947-0.064,1.895-0.129,2.843-0.193c-1.201-5.055-5.316-8.938-10.731-8.895
					c-1.393,0.01-2.653,0.143-3.995,0.484c-0.584,0.203-1.169,0.404-1.756,0.6c-1.594-1.529-1.329-2.762,0.796-3.695
					c1.005,0.037,1.99-0.463,2.915-0.803c6.782-2.49,19.129-7.457,18.271-16.441c-0.456-4.773-6.872-5.688-9.536-8.691
					c-4.639-5.231,12.291-12.516,15.284-14.522c12.74-8.541,18.031-24.112,16.752-38.786c-0.853,0.418-1.705,0.836-2.558,1.255
					c5.448,4.916,6.996,14.005,6.137,20.978c-0.159,1.292,1.812,1.127,2.446,0.618c3.365-2.699,7.434-5.453,7.997-10.058
					c-0.981,0.063-1.962,0.126-2.943,0.189c0.009,7.221-0.268,13.656-3.672,20.209c-0.646,1.245,1.344,1.453,2.051,1.108
					c3.862-1.886,8.28-2.749,10.236-6.966c-0.955-0.034-1.91-0.068-2.865-0.102c-0.055,6.658-3.016,12.101-6.752,17.436
					c-0.484,0.691-0.127,1.485,0.736,1.574c3.632,0.374,7.111,0.841,10.212-1.392c-0.789-0.303-1.578-0.605-2.368-0.909
					c-1.511,4.968-3.624,9.314-8.764,11.284C159.049,100.312,160.678,102.016,162.212,101.428z"/>
			</g>
		</g>
		<g>
			<g>
				<path fill="#FFFFFF" d="M136.495,84.142c5.47-1.417,10.975-7.713,13.823-12.353c-0.932,0.054-1.863,0.108-2.794,0.162
					c-0.56,6.097-3.312,11.05-6.566,16.123c-0.582,0.907,1.091,0.864,1.537,0.733c4.405-1.288,8.762-2.786,11.49-6.687
					c-0.932,0.054-1.862,0.108-2.794,0.162c-1.322,4.918-4.824,8.035-8.546,11.255c-0.872,0.755,0.343,1.062,0.957,1.016
					c4.564-0.341,8.714-0.561,12.361-3.561c-0.869-0.014-1.738-0.028-2.606-0.042c-1.881,4.328-5.21,7.407-9.454,9.398
					c-0.584,0.275-1.431,1.117-0.321,1.359c4.188,0.916,8.564,1.766,12.625-0.029c-0.672-0.133-1.344-0.264-2.016-0.396
					c-2.19,4.688-7.859,5.633-11.948,8.066c-0.411,0.244-0.857,0.791-0.26,1.109c2.83,1.51,6.394,2.137,8.852,4.27
					c-1.021-0.887-7.128,0.059-8.887,0.494c-1.751,0.432-1.357,1.85,0.381,1.42c1.831-0.453,10.692,0.824,11.423-2.062
					c0.619-2.443-7.831-4.641-9.458-5.508c-0.087,0.371-0.173,0.74-0.26,1.111c4.731-2.814,10.528-3.869,13.052-9.271
					c0.412-0.881-1.767-0.506-2.016-0.396c-3.026,1.338-6.65,0.309-9.709-0.359c-0.106,0.451-0.214,0.904-0.321,1.357
					c4.994-2.343,8.987-5.811,11.212-10.933c0.466-1.07-2.292-0.301-2.606-0.042c-2.797,2.3-6.335,2.193-9.639,2.439
					c0.318,0.339,0.638,0.677,0.957,1.016c3.969-3.434,7.718-6.855,9.122-12.081c0.312-1.16-2.424-0.367-2.794,0.162
					c-2.213,3.162-5.652,4.282-9.178,5.313c0.513,0.244,1.025,0.488,1.537,0.733c3.345-5.215,6.191-10.258,6.768-16.541
					c0.111-1.207-2.421-0.446-2.794,0.162c-2.183,3.556-7.156,9.852-11.511,10.979C134.372,83.173,134.758,84.592,136.495,84.142
					L136.495,84.142z"/>
			</g>
		</g>
		<g>
			<g>
				<path fill="#FFFFFF" d="M127.897,86.215c3.516,0.144,6.388-1.8,9.296-3.558c-0.779-0.001-1.559-0.002-2.338-0.003
					c0.123,2.783,0.072,4.578-1.227,7.104c-0.233,0.452,0.009,0.638,0.447,0.764c1.042,0.299,2.019,0.583,3.111,0.632
					c1.45,0.065-2.225,5.167-2.726,5.771c-0.116,0.14-0.189,0.432-0.006,0.563c3.111,2.229,3.737,2.809,1.029,5.573
					c-0.31,0.314-0.443,0.623-0.006,0.885c3.106,1.854,2.499,3.113,0.649,5.645c-0.749,1.025,2.157,0.74,2.686,0.016
					c1.018-1.391,2.329-2.789,1.909-4.607c-0.632-2.738-3.526-1.455,0.234-4.193c0.244-0.178,0.417-0.502,0.195-0.762
					c-0.526-0.619-3.904-3.224-3.099-4.195c1.366-1.646,2.139-3.538,2.529-5.609c0.094-0.495-0.524-0.574-0.871-0.59
					c-3.215-0.144-2.838-0.581-2.13-2.957c0.442-1.488,0.238-3.28,0.171-4.814c-0.037-0.835-2.031-0.188-2.338-0.003
					c-1.86,1.124-4.083,2.867-6.37,2.774C128,84.606,125.94,86.136,127.897,86.215L127.897,86.215z"/>
			</g>
		</g>
	</g>
	<g>
		<g>
			<path fill="#80D0DE" d="M37.79,100.516c-5.5-1.75-8-6.75-9.5-12c2,2,6,1.25,8.75,1c-3.75-5.25-7.25-11.25-7-18
				c1.25,3.75,6.25,4.5,9.5,6.25c-4-7.25-3.75-12.75-3.75-20.5c0,3.75,4.75,7,7.5,9.25c-1-6.5,1.25-17.5,6.5-21.75
				c-1.5,14.75,3.25,26.5,14.5,36.25c4.5,4.25,14,6.75,17,12c5,8-8,7.25-9,13.75c-1.5,9.25,19.25,15.75,19.25,15.75
				c3-0.25,4.25,0.5,3.75,3.25c-0.75,4.5-2.75,2.25-5.5,1.75c-5.75-1-11,2.25-12,8c-1.25-2.25-0.75-5-0.25-7.25
				c-5.25,3.25-8.5,6-9.25,12.25c-2-2.75-3-5.75-2.25-9.25c-5.5,0.25-12.25,7.5-11.75,13c-3.5-3.5-4.75-8.75-3.25-13.75
				c-3,0.5-7.5,1.25-8.75,4.25c0-3.75,0-7.75,2.75-10.75c-5.25,1.5-11.5-5.25-13.25-9.75c2.5-0.25,5.75-0.75,7.5-2.75
				c-5.25-0.5-8.25-3.25-10.75-8C31.79,103.766,34.54,101.266,37.79,100.516z"/>
			<g>
				<path fill="#FFFFFF" d="M38.954,99.855c-5.326-2.041-7.636-6.532-9.215-11.728c-0.934,0.312-1.867,0.623-2.801,0.935
					c2.962,2.132,6.44,1.535,9.883,1.18c0.459-0.047,2.078-0.547,1.57-1.271c-3.831-5.47-6.848-11.035-6.902-17.843
					c-0.966,0.259-1.933,0.519-2.898,0.777c1.846,3.977,6.15,4.747,9.785,6.522c0.462,0.226,3.046-0.217,2.613-1.05
					c-3.444-6.63-3.76-13.17-3.75-20.5c-0.966,0.259-1.933,0.518-2.898,0.776c0.527,4.311,4.455,6.886,7.598,9.408
					c0.609,0.489,2.925,0.076,2.801-0.934c-0.864-7.011,0.721-16.237,6.197-21.18c-0.863,0.007-1.727,0.014-2.59,0.021
					c-1.292,14.818,4.324,30.699,17.565,38.82c3.712,2.276,18.562,8.13,14.448,14.561c-2.454,3.836-8.266,3.477-9.514,8.62
					c-2.036,8.395,13.044,13.963,18.78,15.959c1.992,0.693,4.513,0.143,4.22,3.041c-0.258,2.553-4.373,0.438-6.443,0.654
					c-5.486,0.578-9.747,3.584-11.057,9.096c0.964-0.197,1.929-0.395,2.893-0.592c-0.958-2.422-0.777-4.508-0.256-7.064
					c0.203-0.994-1.979-0.377-2.324-0.158c-5.11,3.229-8.835,6.598-9.812,12.814c0.932-0.25,1.863-0.5,2.795-0.748
					c-1.932-2.908-2.672-5.422-2.158-8.908c0.091-0.617-0.846-0.57-1.225-0.521c-6.776,0.855-13.454,7.033-13.418,14.113
					c0.934-0.311,1.867-0.623,2.801-0.934c-3.476-3.895-4.39-8.371-3.158-13.408c0.147-0.605-0.895-0.578-1.225-0.521
					c-3.782,0.643-8.228,1.381-10.308,4.984c0.93-0.133,1.858-0.266,2.788-0.398c0.015-3.859,0.19-7.215,2.64-10.369
					c0.536-0.691-0.736-0.785-1.12-0.717c-5.384,0.939-10.132-5.162-12.02-9.414c-0.556,0.373-1.111,0.744-1.668,1.115
					c3.302-0.385,6.33-1.037,8.865-3.293c0.426-0.379,0.371-0.828-0.244-0.914c-5.022-0.701-7.826-3.4-10.203-7.658
					c-0.677,0.381-1.354,0.762-2.031,1.143c3.718-0.131,6.511-2.045,10.005-3.107c1.696-0.516,1.371-1.814-0.346-1.292
					c-2.801,0.852-5.529,2.788-8.495,2.891c-0.314,0.012-2.427,0.434-2.031,1.143c1.32,2.365,2.764,4.42,4.919,6.105
					c1.016,0.793,2.27,1.256,3.466,1.674c3.82,1.334-1.584,1.637-3.467,1.857c-0.334,0.037-1.948,0.48-1.668,1.113
					c2.479,5.58,7.898,11.238,14.48,10.088c-0.373-0.238-0.746-0.479-1.12-0.717c-2.598,3.346-2.845,7.023-2.86,11.129
					c-0.003,0.891,2.519,0.068,2.788-0.396c1.474-2.557,4.526-3.061,7.192-3.516c-0.408-0.174-0.816-0.35-1.225-0.523
					c-1.282,5.248-0.28,10.033,3.342,14.094c0.588,0.658,2.806-0.02,2.801-0.936c-0.028-5.311,4.716-11.207,10.082-11.885
					c-0.408-0.174-0.816-0.35-1.225-0.523c-0.537,3.648,0.318,6.547,2.342,9.594c0.438,0.656,2.68-0.016,2.795-0.75
					c0.889-5.656,3.975-8.707,8.688-11.686c-0.774-0.053-1.55-0.105-2.324-0.158c-0.541,2.654-0.776,4.852,0.244,7.436
					c0.351,0.887,2.707,0.189,2.893-0.592c1.544-6.498,6.367-7.402,12.405-6.213c1.141,0.225,2.473,0.254,3.453-0.488
					c1.574-1.191,1.89-3.238,1.647-5.125c-0.27-2.088-2.937-1.281-4.085-1.646c-5.754-1.83-23.521-8.738-18.089-17.291
					c2.207-3.475,7.55-3.498,9.185-7.594c1.997-5.003-6.626-9.544-9.82-11.293c-15.652-8.572-24.267-23.085-22.696-41.099
					c0.095-1.092-2.191-0.339-2.59,0.021c-5.914,5.336-7.744,14.678-6.803,22.32c0.934-0.312,1.867-0.623,2.801-0.934
					c-3.036-2.435-6.893-4.926-7.402-9.092c-0.11-0.896-2.896-0.189-2.898,0.776c-0.01,7.33,0.307,13.87,3.75,20.501
					c0.871-0.351,1.742-0.7,2.613-1.05c-3.308-1.614-7.522-2.329-9.215-5.978c-0.422-0.908-2.906-0.179-2.898,0.777
					c0.057,6.923,3.227,12.63,7.098,18.157c0.523-0.424,1.047-0.848,1.57-1.271c-2.532,0.261-5.294,0.853-7.617-0.82
					c-0.55-0.396-3.104-0.064-2.801,0.935c1.665,5.475,4.212,10.137,9.785,12.273C37.428,101.484,40.073,100.283,38.954,99.855z"/>
			</g>
		</g>
		<g>
			<g>
				<path fill="#FFFFFF" d="M63.895,82.525c-4.715-1.222-9.767-7.428-12.188-11.371c-0.608-0.991-2.884-0.108-2.782,1.001
					c0.577,6.279,3.444,11.349,6.783,16.556c0.729-0.507,1.459-1.013,2.188-1.52c-3.796-1.11-7.488-2.324-9.854-5.705
					c-0.604-0.864-3.093-0.157-2.782,1.001c1.383,5.143,5.033,8.504,8.949,11.892c0.619-0.527,1.238-1.054,1.857-1.581
					c-3.747-0.279-7.346-0.311-10.395-2.818c-0.628-0.517-3.036,0.124-2.579,1.176c2.124,4.885,5.869,8.319,10.652,10.564
					c0.297-0.561,0.594-1.121,0.89-1.682c-3.062,0.67-6.751,1.621-9.796,0.273c-0.597-0.264-3.132-0.01-2.579,1.176
					c2.468,5.283,8.187,6.312,12.819,9.066c0.171-0.516,0.342-1.031,0.514-1.547c-2.182,1.162-9.609,2.641-10.082,5.619
					c-0.438,2.764,9.429,1.865,10.844,2.215c1.125,0.277,3.435-1.389,1.709-1.814c-2.856-0.705-5.901-0.355-8.815-0.648
					c0.084,0.01,3.503-2.074,4.068-2.312c1.175-0.496,2.382-0.938,3.509-1.539c0.513-0.271,1.328-1.062,0.514-1.547
					c-4.18-2.484-9.938-3.467-12.181-8.27c-0.86,0.393-1.72,0.785-2.579,1.176c4.032,1.783,8.373,0.852,12.536-0.057
					c0.539-0.119,1.935-1.193,0.89-1.684c-4.448-2.087-8.032-5.206-10.014-9.767c-0.86,0.393-1.72,0.784-2.579,1.176
					c3.385,2.784,7.399,2.868,11.605,3.182c0.488,0.036,2.817-0.751,1.857-1.581c-3.777-3.269-7.372-6.439-8.717-11.444
					c-0.928,0.334-1.855,0.667-2.782,1.001c2.571,3.676,6.661,5.082,10.812,6.295c0.76,0.223,2.914-0.387,2.188-1.52
					c-3.263-5.089-5.99-10.003-6.551-16.108c-0.928,0.334-1.855,0.667-2.782,1.001c2.63,4.283,8.073,10.647,13.146,11.961
					C63.312,84.631,65.619,82.971,63.895,82.525L63.895,82.525z"/>
			</g>
		</g>
		<g>
			<g>
				<path fill="#FFFFFF" d="M71.497,84.834c-2.604,0.105-4.965-1.78-7.093-3.066c-0.569-0.344-2.777,0.07-2.813,0.887
					c-0.122,2.777,0.047,4.999,1.333,7.5c0.441-0.285,0.883-0.569,1.324-0.854c-1.139,0.178-2.278,0.356-3.417,0.534
					c-0.376,0.017-2.194,0.342-2.073,0.986c0.389,2.061,1.154,3.884,2.512,5.518c1.082,1.303-2.405,3.61-3.044,4.361
					c-0.101,0.117-0.224,0.27-0.05,0.396c2.458,1.789,2.477,1.826,0.955,3.879c-1.393,1.881,0.101,3.381,1.293,5.012
					c0.529,0.725,3.139-0.447,2.898-0.777c-1.86-2.545-2.987-3.809,0.497-5.889c0.191-0.113,0.464-0.336,0.252-0.553
					c-2.666-2.717-2.797-3.36,0.581-5.781c0.199-0.143,0.451-0.312,0.252-0.553c-1.686-2.029-2.764-3.82-3.248-6.391
					c-0.691,0.329-1.382,0.658-2.073,0.986c1.716-0.076,3.264-0.324,4.915-0.798c0.176-0.051,1.529-0.455,1.324-0.854
					c-1.287-2.5-1.455-4.722-1.333-7.5c-0.938,0.296-1.876,0.592-2.813,0.887c2.743,1.657,5.275,3.4,8.573,3.266
					C71.032,85.999,73.418,84.756,71.497,84.834L71.497,84.834z"/>
			</g>
		</g>
	</g>
	<g>
		<path fill="#80D0DE" d="M86.193,149.844c0,8.922,3.52,13.711,12.476,14.373c4.318,0.164,8.316-1.322,12.314-1.488
			c1.76,0,3.839-0.33,5.599,0.33c0.639,0.33,1.599,0.992,2.078,1.652c0.32,0.33,0.801,2.975,0.801,2.975s0,0.164,0,0.33
			c2.879-4.627,4.318-12.225-2.72-13.381c-1.759-0.166-5.597,1.156-6.237-0.33c-0.64-1.486,2.079-3.469,1.439-4.625l0.12-0.33
			h-25.55"/>
		<g>
			<path fill="#FFFFFF" d="M84.726,149.955c0.137,6.375,1.902,11.748,8.155,14.27c3.498,1.41,7.434,1.139,11.06,0.586
				c3.848-0.588,14.053-3.312,14.053,3.316c0,1.533,2.335,0.947,2.853,0.053c1.961-3.385,4.483-10.307,0.124-13.111
				c-2.37-1.525-4.38-1.584-7.091-1.223c-2.757,0.369-0.954-2.895-0.431-4.332c0.322-0.885-0.518-1.221-1.255-1.221
				c-8.517,0-17.033,0-25.55,0c-1.653,0-2.226,2.113-0.26,2.113c8.517,0,17.033,0,25.55,0c-0.418-0.406-0.837-0.812-1.255-1.221
				c-0.801,2.201-3.282,5.816,0.197,6.779c3.09,0.855,5.522-1.467,8.338,1.236c2.793,2.68,0.391,8.012-1.138,10.65
				c0.951,0.018,1.901,0.035,2.853,0.053c0-6.658-6.533-6.506-11.53-6.09c-5.729,0.48-11.014,2.527-16.531-0.293
				c-4.309-2.203-5.113-7.465-5.206-11.789C87.628,148.211,84.698,148.662,84.726,149.955L84.726,149.955z"/>
		</g>
	</g>
</g>
</svg>
