<?xml version="1.0" encoding="utf-8"?>
<!-- Generator: Adobe Illustrator 15.0.0, SVG Export Plug-In . SVG Version: 6.00 Build 0)  -->
<!DOCTYPE svg PUBLIC "-//W3C//DTD SVG 1.1//EN" "http://www.w3.org/Graphics/SVG/1.1/DTD/svg11.dtd">
<svg version="1.1" id="Layer_1" xmlns="http://www.w3.org/2000/svg" xmlns:xlink="http://www.w3.org/1999/xlink" x="0px" y="0px"
	 width="198.43px" height="198.43px" viewBox="0 0 198.43 198.43" enable-background="new 0 0 198.43 198.43" xml:space="preserve">
<g>
	<circle fill="#FFFFFF" cx="100.87" cy="96.009" r="80.125"/>
	<g>
		<g>
			<g>
				<g>
					<path fill="#FAAB54" d="M26.425,127.066c5.312,0.76,9.351,2.004,14.682,0.738c4.884-1.158,9.258-4.064,13.127-7.139
						c8.86-7.045,15.664-18.029,16.277-29.458c0.069-1.301-2.853-0.754-2.91,0.318c-0.527,9.831-5.539,18.42-12.252,25.389
						c-3.438,3.568-7.554,6.418-12.087,8.398c-5.396,2.357-10.312,0.74-15.749-0.037C26.299,125.104,24.478,126.789,26.425,127.066
						L26.425,127.066z"/>
				</g>
			</g>
			<g>
				<g>
					<path fill="#FAAB54" d="M100.106,78.506c0.724,3.083,0.898,6.344,2.25,9.25c0.477,1.023,3.312,0.115,2.898-0.777
						c-1.352-2.905-1.526-6.166-2.25-9.25C102.763,76.699,99.859,77.45,100.106,78.506L100.106,78.506z"/>
				</g>
			</g>
			<g>
				<g>
					<path fill="#FAAB54" d="M117.6,117.197c3.773,6.803,7.91,11.135,15.568,13.17c7.856,2.09,15.842,0.203,22.292-4.551
						c1.581-1.164-0.887-1.578-1.809-0.898c-6.274,4.623-12.913,5.387-20.331,3.414c-6.277-1.668-9.84-6.531-12.822-11.912
						C119.94,115.416,117.141,116.369,117.6,117.197L117.6,117.197z"/>
				</g>
			</g>
		</g>
		<g>
			<g>
				<g>
					<path fill="#7F7F7F" d="M73.507,64.62c1.182-8.481-12.336-1.925-15.693-0.979c-8.649,2.439-13.252-5.619-9.076-12.903
						c2.522-4.402,7.915-5.621,12.152-3.171c1.329,0.769,2.312,2.022,2.944,3.39c3.504,7.58-9.272,2.543-6.195,0.968
						c1.783-0.913,0.143-1.938-1.166-1.268c-2.253,1.153-3.455,3.294-0.582,4.925c3.21,1.823,6.251,1.534,9.237-0.576
						c6.788-4.796-4.696-11.492-9.527-10.479c-8.327,1.746-15.975,11.876-8.609,19.382c2.432,2.479,6.715,2.153,9.783,1.588
						c2.799-0.516,14.647-6.405,13.83-0.534C70.437,66.163,73.363,65.65,73.507,64.62L73.507,64.62z"/>
				</g>
			</g>
			<g>
				<g>
					<path fill="#7F7F7F" d="M60.255,44.902c-0.308-5.143,0.067-10.125,5.179-12.805c5.054-2.649,10.596-0.539,12.871,4.456
						c1.398,3.069,1.345,7.551-1.637,9.662c-2.424,1.716-6.047-0.035-7.977-1.654c-1.065-0.895-1.626-2.113-1.648-3.5
						c1.074-0.596,2.148-1.192,3.223-1.788c0.699,0.478,1.062,1.113,1.091,1.905c0.207,1.084,3.115,0.362,2.898-0.776
						c-1.166-6.102-12.612-2.678-9.504,3.737c2.97,6.128,13.309,5.682,16.418,0.128c1.725-3.081,0.877-7.055-0.704-9.971
						c-1.937-3.572-5.521-4.958-9.404-5.056c-3.807-0.097-7.642,1.484-10.429,4.016c-3.56,3.231-3.54,7.994-3.275,12.422
						C57.419,46.712,60.325,46.088,60.255,44.902L60.255,44.902z"/>
				</g>
			</g>
			<g>
				<g>
					<path fill="#7F7F7F" d="M119.909,45.638c7.632-4.787,5.982-22.468-4.982-20.487c-3.619,0.654-6.851,2.592-8.875,5.697
						c-2.3,3.528-0.49,6.608,3.31,7.566c0.652,0.165,3.177-0.892,2.389-1.091c-7.528-1.897-2.04-11.796,3.75-11.121
						c8.152,0.951,7.847,15.856,2.202,19.396C116.504,46.349,119.414,45.948,119.909,45.638L119.909,45.638z"/>
				</g>
			</g>
			<g>
				<g>
					<path fill="#7F7F7F" d="M107.147,31.461c-11.636-10.863-32.74,15.788-16.429,20.645c5.472,1.629,15.683-2.437,12.037-9.744
						c-2.556-5.122-10.856-1.617-10.399,3.566c0.091,1.022,3,0.381,2.898-0.776c-0.185-2.087,0.948-4.042,3.307-3.102
						c2.015,0.803,1.964,3.171,1.542,4.91c-1.58,6.509-9.892,3.952-12.079-0.552c-3.668-7.553,9.816-19.97,16.439-13.788
						C105.246,33.351,107.979,32.237,107.147,31.461L107.147,31.461z"/>
				</g>
			</g>
			<g>
				<g>
					<path fill="#7F7F7F" d="M98.755,65.979c0.085-0.983,0.213-2.019,0.902-2.781c-0.532,0.043-0.475,0.068,0.173,0.079
						c0.426,0.045,0.847,0.156,1.262,0.257c1.68,0.405,3.283,1.055,4.984,1.382c2.449,0.471,5.454-0.147,6.906-2.312
						c0.17-0.255-2.389-0.163-2.854,0.529c-0.957,1.427-2.978,0.418-4.391-0.017c-1.498-0.46-2.967-0.942-4.545-1.007
						c-3.123-0.127-5.074,1.625-5.337,4.647C95.827,67.093,98.683,66.812,98.755,65.979L98.755,65.979z"/>
				</g>
			</g>
			<g>
				<g>
					<path fill="#7F7F7F" d="M122.39,35.817c3.682,1.791,7.625-0.045,10.443-2.576c2.732-2.454,5.069-6.975,2.522-10.314
						c-0.717-0.94-3.498,0.131-2.668,1.219c3.086,4.045-3.41,12.359-8.034,10.109C123.643,33.763,121.041,35.16,122.39,35.817
						L122.39,35.817z"/>
				</g>
			</g>
			<g>
				<g>
					<path fill="#7F7F7F" d="M45.879,36.805c-1.653,3.943-0.818,8.117,1.478,11.624c0.451,0.688,3.101-0.467,2.898-0.776
						c-2.241-3.422-3.147-7.5-1.522-11.376C48.914,35.844,46.181,36.085,45.879,36.805L45.879,36.805z"/>
				</g>
			</g>
		</g>
		<g>
			<g>
				<path fill="#E94444" d="M71.943,64.341c-8.471,1.395-4.791,14.772-4.803,20.514c-0.006,3.187-0.325,10.049,4.429,10.151
					c3.838,0.082,4.289-5.397,5.942-7.736c-0.845,0.075-1.69,0.151-2.535,0.227c3.37,3.994,0.482,10.133,2.63,14.759
					c0.414,0.891,1.725,0.766,2.402,0.242c0.779-0.604,1.298-1.051,2.003-1.729c-0.885-0.004-1.77-0.01-2.655-0.014
					c1.908,5.467,1.594,11.211,1.356,16.912c-0.266,6.398-0.485,12.865-0.351,19.268c0.065,3.104-0.155,7.695,2.415,9.875
					c1.587,1.346,3.514-0.922,4.159-2.051c2.265-3.959,1.084-10.92,1.085-15.305c0.001-6.43,0.039-12.861,0.453-19.279
					c0.342-5.287,1.251-10.557,1.354-15.856c0.083-4.249-0.689-10.274,2.183-13.8c-0.885-0.005-1.77-0.01-2.655-0.014
					c0.57,2.626-1.055,14.427,4.831,12.85c2.007-0.537,2.869-2.886,3.499-4.591c1.702-4.61,0.701-9.644,2.75-14.25
					c-0.943,0.081-1.887,0.161-2.83,0.241c0.27,2.063,0.619,4.013,1.25,6c0.363,1.143,2.062,0.563,2.655,0.014
					c2.699-2.504,4.556-13.257,0.056-15.029c-3.07-1.209-6.657,0.213-9.783,0.507c-2.968,0.279-6.033-0.278-8.969-0.652
					c-3.156-0.402-6.371,0.78-9.388-0.796c-1.079-0.563-3.644,0.905-2.244,1.637c2.312,1.208,4.583,1.295,7.161,1.243
					c3.893-0.078,7.709,0.798,11.593,0.672c3.154-0.103,10.3-2.661,11.028,2.118c0.415,2.724,0.278,7.507-1.866,9.496
					c0.885,0.005,1.77,0.01,2.655,0.014c-0.632-1.986-0.981-3.936-1.25-6c-0.161-1.235-2.487-0.529-2.83,0.241
					c-1.611,3.622-1.822,7.394-2.242,11.293c-0.15,1.488-0.49,2.937-1.02,4.343c-1.748-0.3-2.351-1.463-1.809-3.488
					c-0.12-2.287,0.14-4.38-0.35-6.639c-0.242-1.112-2.169-0.609-2.655-0.014c-3.649,4.479-2.534,11.395-2.76,16.772
					c-0.439,10.514-1.719,20.864-1.747,31.428c-0.015,5.258,0.768,11.506-0.917,16.549c0.505-1.512-0.812-6.357-0.883-7.768
					c-0.156-3.076,0.011-6.176,0.111-9.25c0.289-8.842,1.82-18.955-1.149-27.468c-0.391-1.117-2.05-0.595-2.655-0.014
					c-0.499,0.423-0.998,0.847-1.497,1.271c0.801,0.082,1.602,0.162,2.402,0.242c-2.243-4.83,0.752-10.947-2.87-15.24
					c-0.575-0.682-2.042-0.471-2.535,0.227c-1.167,1.65-1.743,3.601-2.603,5.417c-1.071,2.263-1.899-0.883-2.246-2.239
					c-0.591-2.306-0.117-5.026-0.229-7.396c-0.121-2.525-2.44-15.181,1.646-15.854C73.22,66.138,73.911,64.018,71.943,64.341
					L71.943,64.341z"/>
			</g>
		</g>
		<g>
			<g>
				<g>
					<path fill="#80D0DE" d="M48.358,157.486c5.662,3.039,10.166,6.516,16.461,8.279c6.248,1.752,12.575,1.795,18.919,0.529
						c5.723-1.143,11.038-3.178,15.226-7.359c4.62-4.611,6.877-10.584,12.344-14.531c-0.749,0.043-1.498,0.086-2.247,0.127
						c3.736,6.244-1.651,12.115-2.581,18.338c-0.075,0.502,0.501,0.65,0.891,0.658c13.87,0.311,31.018-7.162,39.738-18.039
						c9.083-11.328,14.415-30.898,6.964-44.27c-6.682-11.991-24.735-10.424-31.677,0.182c-1.575,2.406-2.412,5.156-2.924,7.953
						c-0.299,1.631-1.117,9.408-3.205,7.02c-4.122-4.719-0.44-16.205,2.916-20.434c0.806-1.016-1.557-0.812-1.929-0.65
						c-3.087,1.339-4.351,5.045-5.532,7.934c-1.959,4.789-3.301,9.99-6.146,14.361c-2.172,3.338-4.286-0.449-5.504-2.697
						c-2.144-3.955-2.027-8.783-1.3-13.074c1.821-10.739,10.139-21.262,21.588-21.854c1.048-0.055,2.545-1.642,0.753-1.654
						c-3.268-0.022-9.76,0.302-11.357-3.285c-1.573-3.535,4.905-6.804,7.09-7.513c3.193-1.036,6.802-1.108,10.004-0.138
						c0.51,0.154,3.139-0.721,2.229-1.37c-3.605-2.573-7.463-3.28-11.812-3.695c-2.544-0.243-5.132-0.266-7.648-0.722
						c-7.274-1.317-2.615-9.773,0.765-12.277c9.288-6.881,24.322-0.299,30.858,7.486c0.632,0.752,3.312-0.078,2.689-1.143
						c-0.865-1.478-1.441-2.902-1.84-4.554c-1.001-4.159,2.938-3.664,5.505-2.207c3.709,2.105,6.417,6.433,8.745,9.874
						c0.896-0.381,1.793-0.762,2.689-1.143c-3.792-4.422-1.583-9.278,3.655-11.014c-1.691,0.56-1.33,2.055,0.396,1.482
						c0.84-0.278,1.334-0.511,1.896-1.195c0.327-0.399-0.092-0.759-0.468-0.838c-7.546-1.581-13.612,6.36-8.17,12.707
						c0.64,0.745,3.374-0.13,2.689-1.143c-3.254-4.808-9.068-13.491-16.152-11.827c-5.634,1.324-3.836,7.243-1.637,10.999
						c0.896-0.381,1.793-0.762,2.689-1.143c-7.657-9.12-21.831-13.484-32.949-8.6c-4.132,1.815-10.917,8.151-7.367,13.192
						c1.764,2.504,4.053,3.021,6.981,3.314c5.484,0.549,11.088,0.228,15.793,3.586c0.743-0.457,1.486-0.913,2.229-1.37
						c-7.26-2.201-17.966,0.036-21.49,7.389c-3.091,6.451,9.542,6.794,12.867,6.816c0.251-0.551,0.502-1.103,0.753-1.654
						c-10.54,0.546-18.384,7.665-22.649,16.892c-3.017,6.527-5.325,20.632,2.726,25.052c10.619,5.83,11.685-21.195,17.585-23.754
						c-0.644-0.217-1.286-0.434-1.929-0.65c-3.146,3.964-4.669,10.026-4.589,15.006c0.051,3.18,1.116,9.131,5.563,8.436
						c3.817-0.596,4.225-6.486,4.751-9.375c1.764-9.68,7.827-16.7,18.51-15.081c17.63,2.672,14.703,26.747,10.314,38.528
						c-3.1,8.32-8.149,15.156-15.723,19.836c-7.781,4.807-17.548,8.852-26.817,8.645c0.297,0.221,0.594,0.439,0.891,0.658
						c1.006-6.736,6.378-12.424,2.37-19.125c-0.366-0.611-1.838-0.168-2.247,0.127c-3.351,2.42-5.927,5.258-8.264,8.65
						c-3.96,5.748-7.56,9.799-14.558,11.902c-7.28,2.188-14.679,1.617-21.889-0.402c-5.369-1.504-9.316-5.014-14.134-7.598
						C49.81,155.611,47.144,156.834,48.358,157.486L48.358,157.486z"/>
				</g>
			</g>
			<g>
				<g>
					<path fill="#80D0DE" d="M137.602,78.972c0.479-2.353,2.173,0.773,2.354,1.204c0.588,2.357-0.899,3.306-4.461,2.844
						c-0.665-0.758-1.079-1.624-1.241-2.6c-0.992-3.653,3.681-5.568,6.666-5.442c2.224,0.094,4.441,1.044,6.393,2.022
						c6.652,3.336,9.818,11.433,12.638,17.809c0.471,1.062,3.319,0.176,2.898-0.777c-3.886-8.787-8.12-17.532-18.033-20.326
						c-5.681-1.602-15.249,0.906-13.181,8.517c1.647,6.063,11.008,3.644,11.363-1.829c0.31-4.78-7.328-5.868-8.301-1.085
						C134.459,80.481,137.39,80.015,137.602,78.972L137.602,78.972z"/>
				</g>
			</g>
			<g>
				<g>
					<path fill="#80D0DE" d="M160.66,73.606c-3.063,0.548-4.417-7.374,0.796-5.945c3.375,0.925,5.035,4.625,6.056,7.621
						c1.971,5.779,1.85,12.264,1.845,18.295c0,0.586,2.897,0.134,2.898-0.777c0.005-7.512,0.851-25.34-9.767-26.673
						c-3.104-0.39-6.479,0.593-7.277,3.956c-0.807,3.396,1.982,5.263,4.947,4.732C161.366,74.598,162.687,73.244,160.66,73.606
						L160.66,73.606z"/>
				</g>
			</g>
			<g>
				<g>
					<path fill="#80D0DE" d="M164.9,101.711c0.923,5.168-0.206,10.502-1.499,15.512c-0.341,1.32,2.616,0.943,2.926-0.256
						c1.343-5.199,2.428-10.674,1.472-16.033C167.574,99.674,164.668,100.406,164.9,101.711L164.9,101.711z"/>
				</g>
			</g>
			<g>
				<g>
					<path fill="#80D0DE" d="M166.373,124.375c-1.741,6.389-4.532,12.281-8.646,17.488c-1.124,1.424,1.642,1.695,2.395,0.742
						c4.361-5.518,7.33-11.721,9.176-18.494C169.649,122.818,166.694,123.195,166.373,124.375L166.373,124.375z"/>
				</g>
			</g>
		</g>
		<circle fill="none" stroke="#7F7F7F" stroke-width="3" stroke-miterlimit="10" cx="100.87" cy="96.008" r="80.125"/>
	</g>
</g>
</svg>
