<?xml version="1.0" encoding="utf-8"?>
<!-- Generator: Adobe Illustrator 15.0.0, SVG Export Plug-In . SVG Version: 6.00 Build 0)  -->
<!DOCTYPE svg PUBLIC "-//W3C//DTD SVG 1.1//EN" "http://www.w3.org/Graphics/SVG/1.1/DTD/svg11.dtd">
<svg version="1.1" id="Layer_1" xmlns="http://www.w3.org/2000/svg" xmlns:xlink="http://www.w3.org/1999/xlink" x="0px" y="0px"
	 width="198.43px" height="198.43px" viewBox="0 0 198.43 198.43" enable-background="new 0 0 198.43 198.43" xml:space="preserve">
<g>
	<circle fill="#E94444" cx="99.215" cy="98.178" r="80.125"/>
	<g>
		<path fill="#FFFFFF" d="M70.15,67.538c-5.25,0.25-3.75,13.25-3.25,17c0.25,2.75-0.5,7.5,1,9.75c3.75,5.75,5-3.25,6.75-5.25
			c3.5,3.25,0.25,10.75,2.75,15c0.5-0.5,1.5-1,1.75-1.5c2.5,6.25,1.25,15,1.25,21.75c0,6.5-0.75,13.75,0.25,20
			c0.5,4.25,2.5,5.75,3.75,1c0.75-3.75,0.25-8.25,0.5-11.75c0-6,0-11.75,0.25-17.5c0.25-6,1-11.75,1.5-17.5
			c0.25-4.25-0.5-13.25,2.5-16.25c1,3-0.25,6.5,0.75,9.5c1.25,4.75,3.5,3,4.75-1c1.25-4.75,0.5-10,2.75-14.25c0.25,2,0.5,4,1.25,6
			c2.25-1.5,2.5-8.5,2-11c-1-4.75-4.75-2.75-9-2.25c-4,0.5-7,0-11-0.5c-3-0.25-7.5,0.75-10-1"/>
		<g>
			<path fill="#FFFFFF" d="M70.242,66.854c-7.896,1.299-4.258,14.844-4.268,20.131c-0.006,2.961-0.39,9.754,4.109,9.85
				c3.311,0.071,3.962-5.538,5.37-7.529c-0.563,0.05-1.126,0.101-1.689,0.151c3.413,4.046,0.503,10.172,2.67,14.84
				c0.275,0.594,1.149,0.511,1.601,0.161c0.821-0.636,1.185-0.946,1.919-1.652c-0.59-0.003-1.18-0.006-1.77-0.009
				c1.917,5.492,1.6,11.273,1.362,17c-0.267,6.399-0.486,12.865-0.352,19.269c0.062,2.987-0.177,7.541,2.301,9.643
				c1.321,1.12,2.836-0.972,3.325-1.827c2.242-3.921,1.056-10.873,1.057-15.217c0-6.43,0.039-12.86,0.453-19.279
				c0.341-5.287,1.251-10.557,1.354-15.855c0.084-4.346-0.667-10.37,2.269-13.974c-0.59-0.003-1.18-0.006-1.77-0.009
				c0.47,2.166-0.969,14.062,4.262,12.661c1.803-0.483,2.575-2.833,3.124-4.321c1.702-4.611,0.698-9.636,2.75-14.25
				c-0.628,0.053-1.257,0.107-1.886,0.16c0.269,2.064,0.619,4.014,1.25,6c0.242,0.762,1.374,0.376,1.77,0.009
				c2.521-2.338,4.446-12.896,0.177-14.578c-2.974-1.171-6.526,0.247-9.548,0.531c-3.01,0.283-6.115-0.274-9.093-0.653
				c-3.251-0.415-6.465,0.77-9.592-0.864c-0.72-0.376-2.429,0.604-1.496,1.091c2.205,1.152,4.375,1.223,6.833,1.174
				c3.894-0.078,7.711,0.798,11.593,0.672c3.304-0.107,10.694-2.726,11.465,2.331c0.431,2.822,0.274,7.7-1.946,9.76
				c0.59,0.003,1.18,0.006,1.77,0.009c-0.631-1.986-0.981-3.936-1.25-6c-0.107-0.824-1.658-0.354-1.886,0.16
				c-1.598,3.592-1.798,7.338-2.215,11.204c-0.154,1.52-0.504,2.997-1.047,4.432c-2.426,0.208-3.345-0.958-2.758-3.497
				c-0.118-2.259,0.139-4.32-0.345-6.549c-0.161-0.742-1.446-0.407-1.77-0.009c-3.587,4.402-2.452,11.315-2.673,16.598
				c-0.44,10.515-1.72,20.863-1.748,31.427c-0.015,5.303,0.754,11.554-0.945,16.639c-0.982-0.623-1.438-1.509-1.364-2.655
				c-0.264-1.696-0.42-3.404-0.468-5.122c-0.155-3.075,0.012-6.175,0.112-9.249c0.288-8.815,1.817-18.892-1.145-27.378
				c-0.26-0.746-1.366-0.397-1.77-0.01c-0.527,0.449-1.055,0.898-1.581,1.348c0.533,0.054,1.067,0.107,1.601,0.162
				c-2.225-4.793,0.754-10.914-2.83-15.161c-0.383-0.454-1.361-0.314-1.689,0.151c-1.145,1.618-1.702,3.552-2.545,5.333
				c-1.314,2.776-2.798-0.632-3.189-2.159c-0.598-2.334-0.121-5.087-0.235-7.485c-0.141-2.949-2.609-15.447,2.182-16.236
				C71.093,68.052,71.554,66.638,70.242,66.854L70.242,66.854z"/>
		</g>
	</g>
	<g>
		<g>
			<path fill="#FFFFFF" d="M24.089,129.117c5.555,0.619,9.773,2.104,15.342,0.783c4.877-1.157,9.266-4.044,13.134-7.118
				c8.856-7.041,15.673-17.996,16.285-29.424c0.064-1.205-2.847-0.621-2.898,0.358c-0.527,9.825-5.53,18.451-12.243,25.421
				c-3.435,3.565-7.553,6.438-12.082,8.418c-5.601,2.446-10.756,0.532-16.414-0.099C24.089,127.332,22.138,128.899,24.089,129.117
				L24.089,129.117z"/>
		</g>
	</g>
	<g>
		<g>
			<path fill="#FFFFFF" d="M98.451,80.676c0.724,3.083,0.898,6.344,2.25,9.25c0.464,0.998,3.297,0.082,2.898-0.776
				c-1.352-2.906-1.526-6.167-2.25-9.25C101.115,78.902,98.211,79.651,98.451,80.676L98.451,80.676z"/>
		</g>
	</g>
	<g>
		<g>
			<path fill="#FFFFFF" d="M116.435,120.168c4.439,7.179,9.393,11.13,17.762,12.723c7.469,1.422,14.909-0.382,21.181-4.533
				c1.597-1.057-0.843-1.483-1.762-0.875c-6.542,4.329-13.477,4.931-20.997,3.136c-6.414-1.531-10.267-6.234-13.564-11.567
				C118.547,118.232,115.804,119.146,116.435,120.168L116.435,120.168z"/>
		</g>
	</g>
	<g>
		<g>
			<g>
				<path fill="#FFFFFF" d="M71.899,66.543c0.515-3.753-2.36-4.458-5.536-3.892c-5.192,0.924-9.943,4.689-15.352,3.762
					c-8.48-1.454-5.554-13.715-1.367-17.698c4.407-4.193,10.025-1.3,12.283,2.893c1.217,2.26-0.145,6.418-4.235,4.743
					c-1.571-0.643-3.446-2.564-1.146-3.825c1.274-0.699-1.755-0.363-2.291-0.069c-3.12,1.71-1.28,4.693,1.795,5.387
					c2.559,0.577,5.891,0.154,7.784-1.913c5.952-6.497-5.986-11.806-11.48-9.902c-4.334,1.502-7.506,4.198-9.236,8.516
					c-1.813,4.522-0.244,10.657,4.36,12.689c2.84,1.253,6.464,0.428,9.307-0.336c3.357-0.903,13.091-6.652,12.117,0.449
					C68.854,67.688,71.776,67.444,71.899,66.543L71.899,66.543z"/>
			</g>
		</g>
		<g>
			<g>
				<path fill="#FFFFFF" d="M58.649,45.667c-0.307-5.504-0.022-10.891,5.278-13.965c5.509-3.194,11,0.386,12.912,5.672
					c1.146,3.167,0.936,7.372-1.708,9.731c-2.38,2.124-6.217-0.12-8.038-1.757c-0.912-0.819-1.371-1.917-1.646-3.078
					c-0.812-3.432,3.688-3.506,4.203-0.618c0.163,0.916,3.178,0.201,2.998-0.804c-1.193-6.689-13.58-1.977-9.503,4.137
					c3.463,5.192,13.361,6.531,16.36,0c3.366-7.332-1.835-15.448-9.609-15.938c-3.676-0.232-7.506,1.346-10.301,3.634
					c-4.186,3.427-4.221,8.85-3.945,13.788C55.698,47.32,58.709,46.731,58.649,45.667L58.649,45.667z"/>
			</g>
		</g>
		<g>
			<g>
				<path fill="#FFFFFF" d="M118.136,47.071c7.688-5.162,6.7-24.045-4.754-23.12c-7.06,0.57-15.409,12.426-5.354,15.155
					c1.243,0.337,3.55-1.479,1.744-1.969c-7.303-1.982-1.269-10.691,3.857-11.105c3.917-0.316,5.7,4.78,6.196,7.77
					c0.658,3.967-0.077,9.558-3.661,11.965C114.474,46.901,116.955,47.864,118.136,47.071L118.136,47.071z"/>
			</g>
		</g>
		<g>
			<g>
				<path fill="#FFFFFF" d="M105.541,31.29c-5.655-5.667-14.224-0.647-18.489,4.231c-4.721,5.397-6.495,15.583,2.411,17.946
					c2.988,0.793,6.583,0.512,9.043-1.558c2.331-1.961,4.416-6.087,2.599-9.037c-3.112-5.053-10.92-1.639-10.453,3.867
					c0.087,1.024,3.098,0.372,2.998-0.804c-0.184-2.172,0.894-4.499,3.392-3.276c1.921,0.94,1.749,3.489,1.358,5.197
					c-1.576,6.892-9.812,4.274-11.991-0.606c-3.363-7.528,9.405-21.734,16.352-14.772C103.524,33.243,106.366,32.117,105.541,31.29
					L105.541,31.29z"/>
			</g>
		</g>
		<g>
			<g>
				<path fill="#FFFFFF" d="M97.149,68.231c0.081-1.01,0.202-2.097,0.863-2.917c0.017-0.021,1.182,0.236,1.629,0.36
					c1.637,0.451,3.197,1.111,4.87,1.434c2.517,0.485,5.457-0.221,6.868-2.481c0.236-0.377-2.492-0.228-2.959,0.521
					c-0.989,1.583-3.04,0.419-4.556-0.085c-1.442-0.479-2.885-0.975-4.419-1.002c-3.283-0.058-5.043,1.838-5.295,4.976
					C94.116,69.476,97.076,69.143,97.149,68.231L97.149,68.231z"/>
			</g>
		</g>
		<g>
			<g>
				<path fill="#FFFFFF" d="M120.482,36.199c6.44,3.333,14.427-4.885,13.865-11.169c-0.049-0.544-3.069,0.009-2.998,0.804
					c0.314,3.52-3.599,11.649-8.041,9.351C122.536,34.784,120.141,36.022,120.482,36.199L120.482,36.199z"/>
			</g>
		</g>
		<g>
			<g>
				<path fill="#FFFFFF" d="M43.4,39.431c-0.478,3.638,0.452,7.092,2.364,10.191c0.578,0.938,3.482-0.067,2.771-1.219
					c-1.732-2.808-2.558-6.014-2.126-9.302C46.582,37.795,43.547,38.312,43.4,39.431L43.4,39.431z"/>
			</g>
		</g>
	</g>
	<g>
		<g>
			<g>
				<path fill="#FFFFFF" d="M45.332,159.871c6.29,3.293,11.001,6.819,18.034,8.592c6.68,1.683,13.219,1.288,19.923-0.017
					c4.785-0.931,10.06-2.882,13.615-6.344c5.116-4.981,7.894-11.468,13.874-15.684c-0.872,0.082-1.744,0.163-2.615,0.245
					c4.017,6.466-1.593,12.293-2.557,18.764c-0.07,0.476,0.523,0.491,0.855,0.498c14.671,0.32,33.019-7.515,41.988-19.283
					c8.366-10.975,14.79-31.666,6.001-44.2c-7.448-10.624-25.778-10.406-32.451,1.062c-1.651,2.838-2.515,5.57-3.102,8.76
					c-0.302,1.643-0.638,3.27-1.075,4.881c-0.161,0.565-0.356,1.119-0.585,1.661c-0.677,1.748-0.178,0.895-0.997,0.242
					c-5.324-4.237-1.01-17.173,2.43-21.397c0.746-0.917-1.592-0.566-1.892-0.439c-3.168,1.34-4.5,4.961-5.739,7.917
					c-2.031,4.844-3.424,10.149-6.363,14.555c-2.233,3.349-4.465-0.426-5.749-2.712c-2.144-3.816-2.153-8.541-1.52-12.729
					c1.67-11.024,10.396-22.19,22.137-22.783c0.894-0.045,3.205-1.421,1.201-1.434c-3.611-0.023-8.647,0.093-11.394-2.642
					c-2.358-2.349,2.118-6.274,3.727-7.267c3.722-2.293,9.196-2.677,13.323-1.441c0.498,0.149,3.356-0.622,2.554-1.181
					c-4.097-2.853-8.588-3.362-13.463-3.762c-3.22-0.265-6.751,0.049-9.375-2.154c-3.663-3.076,0.124-8.384,2.631-10.524
					c9.395-8.021,25.89-1.059,32.86,7.054c0.505,0.588,3.216-0.3,2.835-0.931c-1.819-3.018-4.567-10.615,2.604-7.722
					c4.373,1.764,7.642,6.943,10.211,10.646c0.913-0.359,1.827-0.718,2.74-1.077c-2.636-3.044-3.113-9.056,1.786-10.502
					c1.713-0.506,1.406-1.712-0.322-1.202c-5.863,1.731-8.48,7.844-4.204,12.782c0.545,0.629,3.314-0.249,2.74-1.077
					c-3.78-5.449-9.271-13.174-16.93-11.8c-5.592,1.003-3.586,7.371-1.555,10.738c0.944-0.31,1.89-0.621,2.835-0.931
					c-8.016-9.328-22.804-13.564-34.235-8.512c-4.077,1.802-11.15,8.023-7.501,13.077c2.028,2.81,4.881,3.126,8.157,3.325
					c5.352,0.325,10.898,0.484,15.445,3.651c0.852-0.394,1.703-0.787,2.554-1.181c-7.348-2.201-17.506-0.201-21.993,6.396
					c-4.816,7.081,9.06,7.648,12.769,7.672c0.4-0.478,0.801-0.956,1.201-1.434c-9.807,0.495-17.571,6.072-22.473,14.346
					c-4.472,7.548-7.27,21.711,1.246,27.768c3.722,2.647,7.458-1.659,9.069-4.532c1.845-3.286,3.037-6.962,4.388-10.467
					c0.904-2.348,2.307-7.886,4.893-8.979c-0.631-0.146-1.261-0.293-1.892-0.439c-3.723,4.573-5.126,11.481-4.673,17.249
					c0.292,3.72,3.203,7.893,7.154,5.609c3.807-2.2,3.271-10.232,4.651-13.944c4.334-11.644,19.136-13.762,27.302-4.85
					c5.433,5.931,5.596,15.773,4.409,23.192c-1.444,9.036-5.585,18.063-11.66,24.892c-6.868,7.721-19.251,12.283-29.111,14.158
					c-0.895,0.17-5.586,1.324-5.353-0.244c0.321-2.151,1.44-4.265,2.275-6.249c1.706-4.055,2.551-7.745,0.12-11.656
					c-0.482-0.777-2.064-0.143-2.615,0.245c-3.752,2.646-6.482,5.888-9.072,9.647c-4.438,6.444-9.469,10.104-17.387,11.646
					c-7.377,1.437-14.114,0.519-21.235-1.604c-4.82-1.437-8.68-4.921-13.084-7.227C46.977,158.208,44.262,159.311,45.332,159.871
					L45.332,159.871z"/>
			</g>
		</g>
		<g>
			<g>
				<path fill="#FFFFFF" d="M137.773,80.553c0.534-2.563,2.565,1.348,2.518,1.237c0.601,2.358-0.857,3.425-4.372,3.203
					c-0.689-0.618-1.172-1.379-1.448-2.283c-1.32-3.241,2.078-6.102,5.506-6.29c2.336-0.128,4.732,0.719,6.844,1.596
					c7.514,3.119,11.069,11.678,14.193,18.566c0.452,0.998,3.321,0.076,2.93-0.785c-4.077-8.992-8.483-17.7-18.661-20.498
					c-5.709-1.57-16.615,1.144-13.367,9.117c2.227,5.464,11.104,2.79,11.45-2.426c0.32-4.824-7.533-5.789-8.52-1.057
					C134.62,82.016,137.569,81.53,137.773,80.553L137.773,80.553z"/>
			</g>
		</g>
		<g>
			<g>
				<path fill="#FFFFFF" d="M161.724,75.212c-3.035,0.543-2.993-3.978-2.199-5.599c2.252-4.597,8.342,4.667,8.97,6.211
					c2.451,6.027,2.271,13.118,2.268,19.511c-0.001,0.485,2.93,0.062,2.93-0.785c0.006-7.424,0.636-27.279-11.007-27.036
					c-3.022,0.063-6.073,1.075-6.623,4.419c-0.559,3.392,2.247,4.883,5.119,4.369C162.35,76.095,163.781,74.844,161.724,75.212
					L161.724,75.212z"/>
			</g>
		</g>
		<g>
			<g>
				<path fill="#FFFFFF" d="M166.144,103.559c0.955,5.223-0.219,10.623-1.556,15.677c-0.36,1.361,2.635,0.995,2.963-0.244
					c1.39-5.255,2.515-10.794,1.522-16.218C168.834,101.465,165.896,102.211,166.144,103.559L166.144,103.559z"/>
			</g>
		</g>
		<g>
			<g>
				<path fill="#FFFFFF" d="M167.698,126.582c-1.847,6.614-4.785,12.679-9.119,18.029c-0.639,0.789,2.205,0.403,2.668-0.168
					c4.413-5.449,7.465-11.602,9.35-18.35C170.793,125.39,167.917,125.802,167.698,126.582L167.698,126.582z"/>
			</g>
		</g>
	</g>
</g>
</svg>
