<?xml version="1.0" encoding="utf-8"?>
<!-- Generator: Adobe Illustrator 15.0.0, SVG Export Plug-In . SVG Version: 6.00 Build 0)  -->
<!DOCTYPE svg PUBLIC "-//W3C//DTD SVG 1.1//EN" "http://www.w3.org/Graphics/SVG/1.1/DTD/svg11.dtd">
<svg version="1.1" id="Layer_1" xmlns="http://www.w3.org/2000/svg" xmlns:xlink="http://www.w3.org/1999/xlink" x="0px" y="0px"
	 width="198.43px" height="198.43px" viewBox="0 0 198.43 198.43" enable-background="new 0 0 198.43 198.43" xml:space="preserve">
<g>
	<circle fill="#FFFFFF" cx="101.674" cy="97.756" r="80.125"/>
	<g>
		<g>
			<g>
				<path fill="#80D0DE" d="M89.857,124.104c2.551-7.872,6.075-15.329,9.532-22.832c2.898-6.29,5.099-12.924,8.183-19.112
					c2.512-5.042,6.156-9.203,10.863-12.29c4.814-3.157,10.463-4.311,15.639-6.671c2.637-1.202,0.348-5.08-2.271-3.885
					c-5.219,2.379-10.678,3.664-15.639,6.67c-4.73,2.865-8.414,7.045-11.275,11.723c-4.014,6.562-6.2,14.323-9.385,21.294
					c-3.596,7.869-7.313,15.661-9.986,23.908C84.621,125.676,88.966,126.853,89.857,124.104L89.857,124.104z"/>
			</g>
		</g>
		<g>
			<g>
				<path fill="#80D0DE" d="M134.438,65.256c-0.18,14.902-5.363,28.479-13.645,40.732c-4.293,6.354-9.473,12.079-14.904,17.471
					c-2.684,2.665-4.305,5.372-8.012,3.308c-3.114-1.733-6.585-2.727-9.554-4.703c-2.424-1.613-4.674,2.286-2.271,3.885
					c3.298,2.195,7.168,3.376,10.632,5.305c1.814,1.01,3.921,1.909,5.936,0.854c3.365-1.763,6.062-5.047,8.693-7.715
					c3.318-3.365,6.41-6.946,9.338-10.655c11.023-13.971,18.072-30.545,18.287-48.48C138.973,62.353,134.473,62.356,134.438,65.256
					L134.438,65.256z"/>
			</g>
		</g>
		<g>
			<g>
				<path fill="#80D0DE" d="M96.535,99.086c-7.061-1.029-11.837,2.667-15.503,8.434c-3.89,6.119-7.989,13.85-8.095,21.236
					c-0.023,1.617,1.963,2.923,3.386,1.942c3.643-2.51,8.078-3.293,11.75-5.75c2.398-1.604,0.148-5.504-2.271-3.885
					c-3.667,2.453-8.099,3.233-11.75,5.75c1.129,0.647,2.257,1.295,3.386,1.942c0.08-5.605,3.011-10.654,5.588-15.476
					c2.613-4.89,5.776-10.809,12.314-9.854C98.176,103.839,99.398,99.504,96.535,99.086L96.535,99.086z"/>
			</g>
		</g>
		<g>
			<g>
				<path fill="#80D0DE" d="M100.018,129.408c-0.53,1.28,0.186,3.37,0.396,4.646c0.322,1.94,0.684,3.878,1.104,5.799
					c0.619,2.835,4.957,1.633,4.34-1.195c-0.359-1.64-0.664-3.291-0.957-4.943c-0.143-0.804-0.273-1.609-0.395-2.417
					c-0.029-0.199-0.051-0.398-0.072-0.599c-0.051-0.484,0.178-0.709-0.076-0.096C105.465,127.922,101.109,126.766,100.018,129.408
					L100.018,129.408z"/>
			</g>
		</g>
		<g>
			<g>
				<path fill="#80D0DE" d="M118.223,112.803c2.973,3.724-0.061,10.298-1.717,13.975c-1.834,4.07-4.205,8.13-7.033,11.594
					c-1.82,2.227,1.344,5.431,3.182,3.182c5.977-7.315,16.029-22.815,8.75-31.932C119.594,107.354,116.43,110.56,118.223,112.803
					L118.223,112.803z"/>
			</g>
		</g>
	</g>
	<g>
		<g>
			<path fill="#FAEF5A" d="M77.625,58.161c-0.16-0.08-0.308-0.179-0.443-0.295c-1.098-0.844-3.076,0.015-3.306,1.345
				c-0.019,0.107-0.037,0.216-0.056,0.324c-0.173,1.004,0.098,1.999,1.034,2.54c5.588,3.231,7.207,8.944,7.306,15.059
				c0.096,5.924-4.25,11.162-7.136,15.98c-1.099,1.834,1.193,4.448,3.078,3.078c8.564-6.223,16.937-11.406,20.567-21.902
				c2.948-8.521,1.458-18.416-7.171-22.708c-2.59-1.289-4.87,2.593-2.271,3.885c8.306,4.133,7.099,13.833,3.72,21.021
				C89.541,83.732,82.034,87.8,75.831,92.308c1.026,1.025,2.053,2.052,3.078,3.078c3.839-6.409,7.851-12.088,7.726-19.854
				c-0.115-7.111-3.295-13.749-9.509-17.341c0.345,0.847,0.689,1.693,1.034,2.54c0.019-0.107,0.037-0.216,0.056-0.324
				c-1.102,0.448-2.204,0.896-3.306,1.345c0.136,0.117,0.283,0.216,0.443,0.295C77.863,63.516,80.126,59.625,77.625,58.161
				L77.625,58.161z"/>
		</g>
	</g>
	<g>
		<g>
			<circle fill="#FFFFFF" cx="122.421" cy="79.84" r="6.493"/>
			<g>
				<path fill="#EEBC40" d="M127.789,79.84c-0.371,6.918-10.363,6.918-10.736,0C116.68,72.917,127.418,72.952,127.789,79.84
					c0.078,1.443,2.328,1.45,2.25,0c-0.232-4.311-3.305-7.387-7.617-7.619c-4.301-0.231-7.404,3.657-7.619,7.619
					c-0.23,4.302,3.658,7.404,7.619,7.617c4.303,0.231,7.404-3.655,7.617-7.617C130.117,78.39,127.867,78.396,127.789,79.84z"/>
			</g>
		</g>
		<g>
			<circle fill="#FFFFFF" cx="113.179" cy="97.596" r="8.208"/>
			<g>
				<path fill="#EEBC40" d="M120.262,97.596c-0.49,9.128-13.674,9.127-14.166,0c-0.215-4.008,3.393-6.885,7.084-7.084
					C117.188,90.296,120.062,93.903,120.262,97.596c0.078,1.443,2.328,1.45,2.25,0c-0.646-12.022-18.018-12.021-18.666,0
					c-0.283,5.272,4.48,9.07,9.334,9.332c5.271,0.284,9.07-4.478,9.332-9.332C122.59,96.146,120.34,96.152,120.262,97.596z"/>
			</g>
		</g>
	</g>
	<g>
		<g>
			<path fill="#80D0DE" d="M116.742,150.857c-0.588,2.494-0.787,5.092-0.805,7.648c-0.012,1.936,2.988,1.934,3,0
				c0.016-2.296,0.17-4.611,0.697-6.852C120.076,149.772,117.184,148.975,116.742,150.857L116.742,150.857z"/>
		</g>
	</g>
	<g>
		<g>
			<g>
				<path fill="#80D0DE" d="M75.437,44.006c3.82,0.114,7.4,1.647,11.102,2.446c1.886,0.407,2.688-2.484,0.797-2.893
					c-3.979-0.858-7.786-2.431-11.898-2.554C73.501,40.948,73.507,43.948,75.437,44.006L75.437,44.006z"/>
			</g>
		</g>
		<g>
			<g>
				<path fill="#80D0DE" d="M83.93,35.711c-2.165,1.398-3.887,3.293-5.554,5.234c-1.253,1.459,0.859,3.592,2.121,2.121
					c1.489-1.734,3.011-3.515,4.946-4.766C87.062,37.255,85.56,34.657,83.93,35.711L83.93,35.711z"/>
			</g>
		</g>
		<g>
			<g>
				<path fill="#80D0DE" d="M100.194,42.551c1.458-0.712,2.323-1.992,3.208-3.304c1.994-2.956,4.615-1.039,7.029,0.304
					c-0.18-0.684-0.359-1.368-0.539-2.052c-0.539,0.771-1.045,1.357-1.766,1.946c-1.498,1.226,0.639,3.335,2.121,2.121
					c0.898-0.735,1.574-1.607,2.234-2.554c0.463-0.66,0.135-1.679-0.537-2.052c-2.693-1.499-5.295-3.149-8.406-1.901
					c-2.295,0.92-2.72,3.857-4.859,4.901C96.941,40.809,98.462,43.396,100.194,42.551L100.194,42.551z"/>
			</g>
		</g>
		<g>
			<g>
				<path fill="#80D0DE" d="M71.687,47.506c0.146,2.075-1.857,3.717-2.446,5.602c-0.579,1.852,2.317,2.637,2.893,0.797
					c0.237-0.757,1.059-1.836,1.508-2.676c0.604-1.13,1.138-2.418,1.046-3.723C74.552,45.587,71.552,45.574,71.687,47.506
					L71.687,47.506z"/>
			</g>
		</g>
		<g>
			<g>
				<path fill="#80D0DE" d="M70.085,47.452c1.081-0.174,2.248,0.523,3.164,1.001c1.008,0.524,1.983,1.073,3.039,1.499
					c1.795,0.725,2.567-2.179,0.797-2.893c-2.634-1.062-4.776-2.986-7.797-2.5C67.382,44.866,68.194,47.757,70.085,47.452
					L70.085,47.452z"/>
			</g>
		</g>
		<g>
			<g>
				<path fill="#80D0DE" d="M67.585,54.952c1.689-0.472,3.146,0.938,4.595,1.599c1.746,0.798,3.271-1.787,1.514-2.59
					c-2.314-1.058-4.203-2.656-6.905-1.901C64.928,52.579,65.719,55.474,67.585,54.952L67.585,54.952z"/>
			</g>
		</g>
		<g>
			<g>
				<path fill="#80D0DE" d="M133.586,37.56c-2.816-0.696-5.633-1.097-8.348,0.148c-2.545,1.167-3.984,4.16-5.096,6.541
					c-0.361,0.774-0.143,2.055,0.896,2.203c3.168,0.451,6.41,0.583,9.393,1.849c1.758,0.747,3.289-1.836,1.514-2.59
					c-3.279-1.393-6.621-1.655-10.109-2.151c0.299,0.734,0.598,1.469,0.896,2.203c0.889-1.902,1.84-4.073,3.658-5.265
					c1.84-1.204,4.449-0.527,6.398-0.046C134.668,40.916,135.465,38.023,133.586,37.56L133.586,37.56z"/>
			</g>
		</g>
		<g>
			<g>
				<path fill="#80D0DE" d="M136.877,41.195c-1.41,1.177-2.803,2.351-4,3.75c-0.863,1.011-0.291,2.478,1.061,2.561
					c1.062,0.065,2.031,0.353,2.994,0.795c-0.18-0.684-0.359-1.368-0.539-2.052c-1.541,2.055-3.064,4.119-4.5,6.25
					c-1.084,1.609,1.516,3.108,2.59,1.514c1.438-2.13,2.961-4.194,4.5-6.25c0.459-0.61,0.146-1.737-0.537-2.052
					c-1.459-0.672-2.898-1.106-4.508-1.205c0.354,0.854,0.707,1.707,1.061,2.561c1.197-1.399,2.592-2.572,4-3.75
					C140.484,42.075,138.352,39.964,136.877,41.195L136.877,41.195z"/>
			</g>
		</g>
		<g>
			<g>
				<path fill="#80D0DE" d="M64.93,129.961c-3.142,1.865-5.289,4.899-7.038,8.038c-0.396,0.708-0.183,1.641,0.538,2.052
					c1.332,0.762,2.247,1.837,3.196,3.016c1.213,1.508,3.322-0.63,2.121-2.121c-1.115-1.386-2.247-2.596-3.804-3.484
					c0.18,0.684,0.359,1.368,0.538,2.052c1.499-2.688,3.262-5.357,5.962-6.962C68.105,131.564,66.597,128.971,64.93,129.961
					L64.93,129.961z"/>
			</g>
		</g>
		<g>
			<g>
				<path fill="#80D0DE" d="M111.492,146.857c-0.791,2.651-2.348,4.948-3.6,7.392c-0.508,0.991,0.109,2.264,1.295,2.257
					c2.523-0.014,5.152-0.284,7.602,0.446c1.859,0.555,2.646-2.341,0.797-2.893c-2.717-0.811-5.602-0.569-8.398-0.554
					c0.432,0.752,0.863,1.505,1.295,2.257c1.373-2.679,3.035-5.199,3.902-8.108C114.938,145.796,112.043,145.008,111.492,146.857
					L111.492,146.857z"/>
			</g>
		</g>
		<g>
			<g>
				<path fill="#80D0DE" d="M111.127,164.566c0.889,1.139,1.531,2.46,2.266,3.696c0.986,1.662,3.58,0.153,2.59-1.514
					c-0.873-1.472-1.678-2.95-2.734-4.304c-0.504-0.646-1.596-0.524-2.121,0C110.496,163.076,110.625,163.922,111.127,164.566
					L111.127,164.566z"/>
			</g>
		</g>
		<g>
			<g>
				<path fill="#80D0DE" d="M120.182,160.961c-4.184,2.634-7.225,6.703-10.305,10.484c-1.211,1.486,0.898,3.622,2.121,2.121
					c2.896-3.557,5.762-7.537,9.697-10.016C123.328,162.523,121.822,159.927,120.182,160.961L120.182,160.961z"/>
			</g>
		</g>
		<g>
			<g>
				<path fill="#80D0DE" d="M103.688,173.756c0.861,0.114,1.381,1.451,1.717,2.1c0.584,1.129,1.172,2.245,2.277,2.945
					c1.639,1.04,3.143-1.557,1.514-2.59c-0.771-0.49-1.24-2.008-1.738-2.855c-0.865-1.472-2.072-2.375-3.77-2.6
					c-0.812-0.107-1.5,0.764-1.5,1.5C102.188,173.155,102.877,173.648,103.688,173.756L103.688,173.756z"/>
			</g>
		</g>
	</g>
	<g>
		<g>
			<g>
				<path fill="#7F7F7F" d="M159.387,63.934c3.162-3.399,4.096-14.599-1.658-16.327c-5.959-1.791-8.469,8.05-8.611,12.151
					c-0.229,6.6,1.586,15.303,9.908,14.806c7.863-0.47,12.824-11.579,11.691-18.277c-0.322-1.911-3.223-1.098-2.902,0.801
					c0.877,5.186-2.492,10.956-6.814,13.712c-6.037,3.852-8.602-4.011-8.857-8.38c-0.219-3.746,0.299-7.058,2.318-10.276
					c2.102-3.35,4.064,0.313,4.312,2.789c0.209,2.058-0.027,5.273-1.516,6.873C155.938,63.224,158.062,65.357,159.387,63.934
					L159.387,63.934z"/>
			</g>
		</g>
		<g>
			<g>
				<path fill="#7F7F7F" d="M150.492,61.607c-0.324,1.686,1.217,2.145,2.531,2.325c1.543,0.211,3.107,0.315,4.664,0.323
					c1.936,0.01,1.934-2.99,0-3c-0.916-0.005-1.83-0.055-2.744-0.12c-0.449-0.032-0.902-0.066-1.348-0.127
					c-0.199-0.027-0.396-0.063-0.592-0.103c-0.598-0.118,0.037-0.032,0.221,0.392c0.049,0.386,0.1,0.771,0.15,1.156
					c0.004-0.017,0.006-0.033,0.01-0.05C153.748,60.515,150.857,59.709,150.492,61.607L150.492,61.607z"/>
			</g>
		</g>
		<g>
			<g>
				<path fill="#7F7F7F" d="M141.885,59.607c-2.51-7.351,5.762-19.095,13.553-18.852c1.936,0.061,1.93-2.939,0-3
					c-9.713-0.304-19.578,13.471-16.445,22.648C139.613,62.225,142.512,61.443,141.885,59.607L141.885,59.607z"/>
			</g>
		</g>
		<g>
			<g>
				<path fill="#7F7F7F" d="M142.688,51.006c4.008-0.019,8.004-0.251,12-0.5c1.922-0.12,1.934-3.12,0-3
					c-3.996,0.249-7.992,0.481-12,0.5C140.754,48.015,140.754,51.015,142.688,51.006L142.688,51.006z"/>
			</g>
		</g>
		<g>
			<g>
				<path fill="#7F7F7F" d="M149.438,73.256c1.555,0.001,3.102-0.014,4.602,0.446c1.855,0.568,2.643-2.327,0.797-2.893
					c-1.746-0.536-3.586-0.553-5.398-0.554C147.504,70.255,147.504,73.255,149.438,73.256L149.438,73.256z"/>
			</g>
		</g>
		<g>
			<g>
				<path fill="#7F7F7F" d="M80.789,26.31c-2.952,1.049-4.979,3.753-6.959,6.052c-3.445,4.002-7.312,7.587-10.7,11.648
					c-7.159,8.584-11.775,18.786-14.815,29.474c-3.342,11.747-4.012,24.382-3.086,36.506c0.387,5.064,1.296,10.038,2.404,14.987
					c1.299,5.792,2.846,12.142,0.608,17.881c-0.704,1.805,2.198,2.579,2.893,0.797c3.088-7.921-0.194-16.888-1.75-24.797
					c-2.407-12.24-2-25.409,0.211-37.637c2.038-11.27,6.417-22.188,12.972-31.578c3.013-4.317,6.667-8.166,10.432-11.826
					c2.63-2.557,4.988-7.334,8.588-8.614C83.395,28.559,82.616,25.66,80.789,26.31L80.789,26.31z"/>
			</g>
		</g>
		<g>
			<g>
				<path fill="#7F7F7F" d="M81.437,28.756c10.623-0.126,21.254,2.142,31.721,3.73c11.732,1.78,23.146,3.02,35.029,3.02
					c1.936,0,1.936-3,0-3c-12.246,0-24.004-1.361-36.102-3.196c-10.113-1.535-20.381-3.676-30.649-3.554
					C79.503,25.779,79.501,28.779,81.437,28.756L81.437,28.756z"/>
			</g>
		</g>
		<g>
			<g>
				<path fill="#7F7F7F" d="M94.18,159.711c-4.367,2.403-5.161,12.97,1.6,12.482c6.234-0.45,11.074-8.461,10.654-14.255
					c-0.527-7.278-10.116-8.691-15.503-6.228c-9.539,4.361-12.469,13.754-12.493,23.545c-0.003,1.087,1.295,1.937,2.257,1.295
					c0.25-0.166,0.5-0.333,0.75-0.5c1.602-1.067,0.101-3.667-1.514-2.59c-0.25,0.166-0.5,0.333-0.75,0.5
					c0.752,0.432,1.505,0.863,2.257,1.295c0.025-9.922,4.071-21.688,15.945-21.64c6.245,0.024,6.995,5.795,4.528,10.217
					c-0.828,1.487-1.924,2.761-3.136,3.94c-4.333,4.217-6.954-3.34-3.08-5.473C97.389,161.368,95.875,158.777,94.18,159.711
					L94.18,159.711z"/>
			</g>
		</g>
		<g>
			<g>
				<path fill="#7F7F7F" d="M34.585,142.452c2.455-0.564,6.899,2.073,9.453,2.5c5.277,0.884,10.84,0.896,16.173,1.579
					c6.762,0.867,13.475,2.271,20.137,3.696c4.765,1.019,10.496,3.528,15.339,3.528c1.935,0,1.935-3,0-3
					c-2.781,0-6.24-1.531-8.962-2.17c-3.1-0.727-6.213-1.394-9.329-2.043c-6.264-1.305-12.564-2.419-18.911-3.233
					c-5.263-0.675-11.022-0.456-16.13-1.816c-2.491-0.664-5.935-2.539-8.566-1.934C31.903,139.993,32.703,142.885,34.585,142.452
					L34.585,142.452z"/>
			</g>
		</g>
		<g>
			<g>
				<path fill="#7F7F7F" d="M81.883,170.404c-0.101,0.593-0.048,0.277,0.843,0.266c0.696-0.01,1.396,0.064,2.089,0.129
					c1.739,0.161,3.467,0.461,5.192,0.728c2.141,0.331,5.109,1.243,7.187,0.274c1.753-0.816,0.228-3.402-1.514-2.59
					c-2.411,1.123-15.799-4.833-16.689,0.396C78.668,171.499,81.559,172.309,81.883,170.404L81.883,170.404z"/>
			</g>
		</g>
		<g>
			<g>
				<path fill="#7F7F7F" d="M84.437,160.506c3.571,0.02,6.994,0.427,10.352,1.696c1.812,0.686,2.589-2.215,0.797-2.893
					c-3.591-1.358-7.33-1.782-11.148-1.804C82.501,157.495,82.503,160.495,84.437,160.506L84.437,160.506z"/>
			</g>
		</g>
		<g>
			<g>
				<path fill="#7F7F7F" d="M122.93,143.756c0.084,5.427,0.857,10.711,1.754,16.052c0.584,3.477,1.213,6.83,0.551,10.344
					c-0.148,0.78-1.285,3.902-2.037,4.244c0.756,0.435,1.514,0.869,2.27,1.303c-0.008-0.114-0.014-0.229-0.02-0.343
					c-0.115-1.934-3.133-1.944-3.018,0c0.006,0.114,0.014,0.229,0.02,0.343c0.072,1.212,1.211,1.785,2.27,1.303
					c2.777-1.265,3.688-6.904,3.857-9.491c0.51-7.812-2.508-15.874-2.629-23.754C125.916,141.812,122.898,141.81,122.93,143.756
					L122.93,143.756z"/>
			</g>
		</g>
	</g>
	<g>
		<g>
			<g>
				<g>
					<path fill="#A55E94" d="M153.051,95.346c-0.338,25.056-18.984,46.156-43.943,49.201c-24.612,3.002-47.468-13.726-53.628-37.344
						c-6.344-24.321,7.975-49.65,31.091-58.373c23.293-8.79,49.467,2.288,60.993,23.836
						C151.285,79.622,152.945,87.506,153.051,95.346c0.027,1.933,3.027,1.936,3,0c-0.281-20.866-12.689-40.466-32.25-48.438
						c-20.17-8.222-43.114-3.312-58.285,12.25c-14.939,15.325-18.189,38.695-9.722,58.01c8.623,19.668,29.432,31.459,50.553,30.604
						c27.789-1.127,49.336-25.145,49.703-52.425C156.078,93.41,153.078,93.413,153.051,95.346z"/>
				</g>
			</g>
			<g>
				<g>
					<path fill="#A55E94" d="M148.041,95.346c-0.367,24.524-19.967,44.124-44.49,44.492c-24.527,0.368-44.133-20.522-44.493-44.492
						c-0.368-24.526,20.522-44.132,44.493-44.491C128.076,50.486,147.682,71.376,148.041,95.346c0.029,1.933,3.029,1.936,3,0
						c-0.32-21.381-14.318-39.816-34.865-45.795c-20.62-5.999-42.718,3.789-53.633,21.825c-11.141,18.409-7.299,42.405,7.426,57.552
						c14.985,15.415,39.155,17.852,57.553,7.426c14.652-8.304,23.271-24.398,23.52-41.008
						C151.07,93.41,148.07,93.413,148.041,95.346z"/>
				</g>
			</g>
		</g>
		<g>
			<g>
				<path fill="#A55E94" d="M124.557,142.398c6.279,7.72,12.557,15.44,18.834,23.16c1.221,1.502,3.33-0.635,2.121-2.121
					c-6.277-7.72-12.555-15.44-18.834-23.16C125.457,138.775,123.348,140.912,124.557,142.398L124.557,142.398z"/>
			</g>
		</g>
		<g>
			<g>
				<path fill="#A55E94" d="M136.994,133.957c6.184,7.314,12.367,14.628,18.551,21.942c1.252,1.479,3.363-0.653,2.121-2.121
					c-6.184-7.314-12.367-14.628-18.551-21.942C137.865,130.356,135.754,132.489,136.994,133.957L136.994,133.957z"/>
			</g>
		</g>
	</g>
	<circle fill="none" stroke="#7F7F7F" stroke-width="3" stroke-miterlimit="10" cx="101.682" cy="98.672" r="80.124"/>
</g>
</svg>
