<?xml version="1.0" encoding="utf-8"?>
<!-- Generator: Adobe Illustrator 15.0.0, SVG Export Plug-In . SVG Version: 6.00 Build 0)  -->
<!DOCTYPE svg PUBLIC "-//W3C//DTD SVG 1.1//EN" "http://www.w3.org/Graphics/SVG/1.1/DTD/svg11.dtd">
<svg version="1.1" id="Layer_1" xmlns="http://www.w3.org/2000/svg" xmlns:xlink="http://www.w3.org/1999/xlink" x="0px" y="0px"
	 width="198.43px" height="198.43px" viewBox="0 0 198.43 198.43" enable-background="new 0 0 198.43 198.43" xml:space="preserve">
<circle fill="#FFFFFF" cx="100.7" cy="99.214" r="80.125"/>
<g>
	<g>
		<g>
			<g>
				<path fill="#80CFDD" d="M72.035,86.677c-4.241,2.238-7.563,4.189-9.5,8.734c-2.112,4.959-5.212,10.831-2.079,15.9
					c2.545,4.118,0.229,7.528-1.894,11.228c-0.925,1.611-3.373,4.433-2.77,6.551c1.122,3.941,5.833,5.145,9.485,5.1
					c-0.298-0.227-0.597-0.453-0.896-0.679c-0.185,1.827-0.456,3.608-0.854,5.402c-0.052,0.235,0.09,0.45,0.303,0.546
					c1.581,0.925,2.097,2.069,1.546,3.434c-0.06,0.273,0.108,0.403,0.303,0.546c4.087,2.976-1.274,10.68,5.622,12.287
					c4.556,1.062,7.674-2.137,10.91-4.924c1.284-1.106-1.597-1.162-2.337-0.525c-1.285,1.107-2.542,2.223-3.908,3.236
					c-4.447,3.296-6.059-2.764-5.798-5.026c0.212-1.834,0.732-3.917-0.719-5.489c-1.177-1.275-0.471-1.898-1.178-3.477
					c-0.191-0.426-0.625-0.82-1.048-1.01c-1.149-0.513-0.03-4.442,0.061-5.346c0.05-0.495-0.478-0.684-0.896-0.679
					c-2.343,0.029-4.461-0.524-6.369-1.932c-2.969-2.191-0.045-5.717,1.249-7.92c2.033-3.46,4.415-7.037,2.772-11.049
					c-0.938-2.289-2.206-3.37-2.057-6.074c0.128-2.343,1.181-4.716,2.017-6.872c1.015-2.618,1.923-5.333,3.896-7.403
					c1.558-1.635,3.987-2.604,5.951-3.641C75.576,86.684,73.013,86.16,72.035,86.677L72.035,86.677z"/>
			</g>
		</g>
		<g>
			<g>
				<path fill="#80CFDD" d="M83.658,153.545c4.729,0.184,6.242,7.589,6.377,11.242c0.2,5.385-7.85,5.478-10.704,9.036
					c-0.185,0.229,2.32,0.159,2.857-0.512c3.558-4.436,10.988-2.739,10.716-10.062c-0.157-4.237-2.361-10.689-7.367-10.885
					C84.928,152.342,82.222,153.489,83.658,153.545L83.658,153.545z"/>
			</g>
		</g>
	</g>
	<g>
		<g>
			<g>
				<path fill="#807F7F" d="M87.303,71.516c-9.413,1.655-13.41,10.399-15.659,18.827c-0.605,2.267-1.373,4.745-1.362,7.102
					c0.017,3.498,2.943,7.004,2.172,10.301c-0.75,3.205-8.669,9.365-7.129,12.889c0.718,1.645,2.08,2.731,3.444,3.851
					c2.605,2.137,3.26,2.656,2.772,6.222c-0.322,2.355,3.231,4.308,2.798,6.057c-0.396,1.599,1.422,2.38,2.543,2.935
					c5.055,2.499-0.992,11.746,5.131,13.953c5.33,1.921,7.632-1.448,12.139-3.547c2.449-1.141,0.177-2.177-1.478-1.406
					c-1.399,0.651-2.602,1.412-3.842,2.329c-4.802,3.554-5.948-1.77-6.032-4.617c-0.053-1.819,0.729-4.742-0.382-6.41
					c-1.012-1.52-2.261-1.844-3.762-2.805c-0.484-0.311-0.302-3.116-1.25-3.932c-2.689-2.313-1.798-3.482-1.609-6.448
					c0.136-2.136-3.77-4.033-5.135-5.254c-3.5-3.131,1.571-7.74,3.463-10.569c2.619-3.914,2.693-5.608,0.746-9.873
					c-1.998-4.375,0.22-10.279,1.583-14.628c1.534-4.896,4.514-12.006,10.271-13.018C88.48,73.164,89.981,71.045,87.303,71.516
					L87.303,71.516z"/>
			</g>
		</g>
		<g>
			<g>
				<path fill="#807F7F" d="M98.276,151.925c3.387-0.19,6.144,10.238,6.687,12.691c1.116,5.049-2.304,6.707-6.351,8.409
					c-1.435,0.604-2.466,2.25-3.306,3.47c-1.031,1.497,2.872,1.183,3.606,0.115c2.047-2.973,6.266-3.258,8.698-6.039
					c1.982-2.267,1.519-5.957,0.822-8.612c-1.176-4.484-3.9-12.562-9.646-12.239C96.846,149.829,95.604,152.074,98.276,151.925
					L98.276,151.925z"/>
			</g>
		</g>
	</g>
	<g>
		<g>
			<g>
				<path fill="#80CFDD" d="M108.548,50.977c-6.883,1.157-13.89,5.127-17.083,11.604c-2.455,4.981-5.2,10.542-5.605,16.151
					c-0.138,1.912,0.63,3.707,1.395,5.401c1.509,3.345,1.672,5.371-0.505,8.58c-3.168,4.667-6.715,9.053-9.561,13.948
					c-1.729,2.974,3.493,6.383,5.351,7.614c2.674,1.773,3.574,3.122,2.278,5.964c-0.564,1.237,0.322,2.402,1.082,3.234
					c0.842,0.923,2.554,1.323,3.699,1.647c-0.411-0.116-1.427,4.31-1.469,4.571c-0.061,0.376,0.254,0.479,0.551,0.564
					c9.22,2.669-0.554,12.966,3.976,18.562c3.889,4.803,9.95,2.018,14.587,0.839c1.741-0.442,1.367-1.806-0.365-1.365
					c-4.104,1.043-7.932,2.496-11.524-0.586c-3.425-2.938-0.005-8.146,0.5-11.577c0.307-2.087-0.524-4.047-1.802-5.614
					c-0.488-0.6-1.429-1.006-2.084-1.339c-1.855-0.942,0.304-3.685,0.941-4.501c0.327-0.418-0.087-0.665-0.448-0.767
					c-1.868-0.528-5.026-1.106-4.751-4.056c0.097-1.038,0.993-2.099,1.179-3.198c0.362-2.147-3.952-3.69-4.983-4.375
					c-1.613-1.069-2.973-2.574-3.935-4.244c-0.906-1.571,2.641-5.633,3.383-6.77c2.171-3.324,4.646-6.416,6.873-9.696
					c1.503-2.215,1.567-4.372,0.656-6.812c-1.56-4.179-2.58-6.574-1.195-11.177c2.86-9.509,7.643-19.264,18.445-21.08
					C109.473,52.274,110.554,50.64,108.548,50.977L108.548,50.977z"/>
			</g>
		</g>
		<g>
			<g>
				<path fill="#80CFDD" d="M120.289,152.439c2.847-0.283,4.654,4.96,5.394,6.984c1.647,4.51,1.151,9.099,0.077,13.664
					c0.97-0.106,1.94-0.212,2.91-0.318c0-0.25,0-0.5,0-0.75c0-1.319-2.91-0.742-2.91,0.318c0,0.25,0,0.5,0,0.75
					c0,1.349,2.671,0.699,2.91-0.318c1.365-5.805,1.384-11.088-1.102-16.592c-1.336-2.958-3.391-5.86-6.928-5.51
					C119.157,150.815,118.29,152.637,120.289,152.439L120.289,152.439z"/>
			</g>
		</g>
	</g>
	<g>
		<g>
			<g>
				<path fill="#807F7F" d="M147.207,29.845c-7.013,0.613-13.98,2.061-20.831,3.652c-8.426,1.957-13.528,8.622-17.498,15.846
					c-2.202,4.01-4.158,8.163-6.312,12.202c-1.856,3.481-3.913,7.742-2.084,11.618c0.891,1.889,1.977,1.787,1.321,4.318
					c-0.772,2.988-3.175,5.712-4.617,8.426c-3.119,5.872-6.986,11.185-9.598,17.337c-0.052,0.174-0.012,0.323,0.12,0.448
					c4.684,3.651,9.393,7.834,15.681,7.595c-0.381-0.238-0.762-0.476-1.143-0.714c-0.253,2.553-1.686,5.015-0.708,7.51
					c0.756,1.928,4.197,2.194,5.865,2.506c-0.106-0.397-0.213-0.794-0.319-1.191c-1.64,1.307-4.13,3.42-4.163,5.734
					c-0.048,3.33,3.369,3.993,4.646,6.785c1.366,2.988-1.708,7.681-2.578,10.504c-1.08,3.507,0.752,6.008,3.35,8.163
					c10.285,8.534,25.193-5.518,33.379-10.677c4.068-2.564,8.218-4.995,12.261-7.599c2.342-1.509,5.427-2.78,7.174-5.045
					c3.768-4.885,4.322-12.05,4.044-18.021c-0.305-6.532-6.26-8.818-11.95-8.973c-5.23-0.143-8.733,2.888-10.8,7.417
					c-0.461,1.011,3.319,0.603,3.846-0.551c3.211-7.038,12.577-5.808,14.801,1.238c1.236,3.921,0.04,9.153-0.849,13.039
					c-1.34,5.865-5.425,7.914-10.138,10.949c-4.871,3.137-9.877,6.059-14.758,9.182c-3.708,2.373-7.164,5.086-11.005,7.258
					c-5.329,3.014-16.167,2.756-15.741-5.765c0.191-3.822,2.959-7.013,3.033-10.963c0.032-1.715-1.148-2.924-2.31-3.981
					c-1.008-0.917-1.965-1.44-2.56-2.765c-0.87-1.938,2.139-4.491,3.368-5.471c0.634-0.505,0.44-1.051-0.319-1.192
					c-2.516-0.47-5.23-1.014-4.645-4.231c0.271-1.494,0.771-2.89,0.921-4.411c0.062-0.621-0.654-0.731-1.143-0.713
					c-3.665,0.139-6.482-1.703-9.342-3.732c-2.633-1.867-4.284-2.81-2.695-6.188c2.685-5.708,6.365-11.116,9.596-16.536
					c1.226-2.056,4.882-6.658,3.09-9.143c-3.171-4.398-1.46-8.242,0.813-12.715c4.269-8.399,8.18-19.107,16.489-24.3
					c2.664-1.665,6.476-2.1,9.508-2.722c4.694-0.963,9.429-1.81,14.206-2.228C148.409,31.589,149.902,29.609,147.207,29.845
					L147.207,29.845z"/>
			</g>
		</g>
		<g>
			<g>
				<path fill="#807F7F" d="M134.615,144.451c2.973-0.672,5.585,4.938,6.492,6.902c1.998,4.327,1.318,9.332,1.048,13.927
					c0.729-0.451,1.456-0.901,2.185-1.352c-0.052,0.005-0.104,0.01-0.156,0.016c0.562,0.299,1.124,0.598,1.687,0.896
					c0.011-0.088,0.021-0.177,0.031-0.266c0.191-1.623-3.709-0.921-3.871,0.455c-0.011,0.088-0.021,0.177-0.031,0.266
					c-0.105,0.892,1.072,0.958,1.687,0.896c0.052-0.005,0.104-0.01,0.156-0.016c0.631-0.062,2.136-0.511,2.185-1.352
					c0.355-6.038,0.836-11.909-2.483-17.283c-2.264-3.666-5.024-6.144-9.477-5.138C131.698,142.94,132.281,144.979,134.615,144.451
					L134.615,144.451z"/>
			</g>
		</g>
	</g>
	<g>
		<g>
			<g>
				<path fill="#E84344" d="M83.796,61.532c6.66-13.411-4.868-27.708-19.205-24.036c0.475,0.474,0.95,0.947,1.425,1.42
					c13.484-7.613,31.575-6.844,46.018-3.366c-0.113-0.425-0.228-0.851-0.342-1.276c-4.939,4.399-9.892,8.783-14.854,13.156
					c-3.439,3.03-6.886,6.053-10.353,9.052c-1.332,1.151-2.668,2.297-4.018,3.428c-1.796,1.506-2.412,0.937,0.157,0.882
					c0.387,0.261,0.774,0.521,1.161,0.781C83.788,61.559,83.792,61.545,83.796,61.532c0.343-1.325-3.531-0.73-3.854,0.519
					c-0.003,0.014-0.007,0.027-0.01,0.041c-0.164,0.634,0.733,0.79,1.161,0.781c2.14-0.045,3.77-1.843,5.296-3.13
					c3.575-3.016,7.084-6.112,10.6-9.197c5.947-5.219,11.87-10.465,17.778-15.726c0.62-0.552,0.433-1.089-0.342-1.276
					c-16.104-3.878-35.854-4.086-50.775,4.339c-1.877,1.06,0.271,1.715,1.425,1.42c13.138-3.365,19.908,12.601,14.867,22.75
					C79.421,63.098,83.21,62.711,83.796,61.532z"/>
			</g>
		</g>
		<path fill="none" stroke="#E84344" stroke-width="2" stroke-miterlimit="10" d="M43.53,152.015
			c-26.598-58.5,18.824-93.038,39.026-104.556l-2.501-3.712c-16.932,7.939-50.678,29.647-55.314,75.049"/>
	</g>
	<circle fill="none" stroke="#807F7F" stroke-width="3" stroke-miterlimit="10" cx="101.899" cy="97.125" r="80.125"/>
</g>
</svg>
