<?xml version="1.0" encoding="utf-8"?>
<!-- Generator: Adobe Illustrator 15.0.0, SVG Export Plug-In . SVG Version: 6.00 Build 0)  -->
<!DOCTYPE svg PUBLIC "-//W3C//DTD SVG 1.1//EN" "http://www.w3.org/Graphics/SVG/1.1/DTD/svg11.dtd">
<svg version="1.1" id="Layer_1" xmlns="http://www.w3.org/2000/svg" xmlns:xlink="http://www.w3.org/1999/xlink" x="0px" y="0px"
	 width="198.43px" height="198.43px" viewBox="0 0 198.43 198.43" enable-background="new 0 0 198.43 198.43" xml:space="preserve">
<g>
	<circle fill="#A55E94" cx="365.301" cy="183.405" r="80.125"/>
	<g>
		<g>
			<path fill="#FFFFFF" d="M367.189,242.013c0.236-0.849,0.473-1.697,0.709-2.546c0.085-0.307-0.155-0.717-0.424-0.854
				c-3.446-1.757-6.893-3.514-10.339-5.271c-1.985-1.013-3.971-2.024-5.956-3.037c-2.433-1.239-1.288-2.668-1.475-5.425
				c-0.21-3.111-2.11-3.208,0.01-5.041c1.89-1.635,3.78-3.27,5.67-4.903c2.864-2.477,5.729-4.953,8.592-7.43
				c0.501-0.433,0.834-0.905,0.474-1.544c-1.728-3.063-3.455-6.127-5.183-9.189c-0.33-0.584-1.44-0.565-1.967-0.395
				c-6.424,2.085-12.848,4.17-19.271,6.255c0.655,0.132,1.311,0.263,1.967,0.395c-1.07-1.118-7.613-6.086-7.592-6.374
				c0.168-2.32,0.336-4.641,0.504-6.962c0.319-4.409,0.639-8.818,0.959-13.228c0.035-0.498-0.296-0.883-0.769-1.015
				c-1.588-0.442-3.176-0.885-4.763-1.327c-0.965-0.269-2.261,0.062-2.765,0.995c-11.495,21.252-22.989,42.505-34.483,63.758
				c-0.762,1.407-2.977,3.926-0.612,4.87c3.64,1.453,8.474,1.026,12.294,1.106c15.332,0.322,30.698-0.245,46.021-0.782
				c5.468-0.192,10.937-0.4,16.403-0.646c1.996-0.089,2.813-2.625,0.352-2.514c-10.406,0.468-20.819,0.826-31.232,1.109
				c-13.254,0.361-27.416,1.716-40.588-0.304c-1.36-0.208-0.94,0.707-0.611,0.099c0.784-1.449,1.567-2.897,2.351-4.347
				c3.065-5.668,6.132-11.336,9.197-17.005c7.053-13.04,14.105-26.08,21.158-39.121c1.06-1.958,2.119-3.917,3.178-5.876
				c-0.921,0.332-1.843,0.664-2.765,0.995c0.794,0.222,1.588,0.442,2.382,0.664c0.546,0.151,1.091,0.304,1.637,0.456
				c1.327,0.369-0.024-0.801-0.041-0.575c-0.152,2.105-0.305,4.212-0.458,6.317c-0.342,4.717-0.684,9.434-1.025,14.151
				c-0.025,0.361,0.117,0.654,0.424,0.854c2.785,1.812,5.235,3.846,7.539,6.253c0.491,0.513,1.307,0.608,1.967,0.395
				c6.424-2.085,12.848-4.17,19.271-6.255c-0.655-0.132-1.311-0.263-1.967-0.395c1.728,3.063,3.455,6.127,5.183,9.189
				c0.158-0.515,0.315-1.029,0.474-1.544c-5.237,4.529-10.475,9.058-15.712,13.587c-0.381,0.329-0.737,0.702-0.621,1.25
				c0.688,3.254,0.99,6.422,0.91,9.758c-0.008,0.335,0.096,0.687,0.424,0.854c3.446,1.757,6.893,3.514,10.339,5.271
				c1.985,1.013,3.971,2.024,5.956,3.037c0.518,0.264,1.035,0.527,1.553,0.791c-0.544-0.277-0.562,0.531-0.917,1.803
				C363.092,243.964,366.771,243.515,367.189,242.013z"/>
			<path fill="#FFFFFF" d="M318.565,241.478c-3.997,1.051-8.015,1.028-12.036,0.103c-1.897-0.438-3.677-1.246-5.361-2.204
				c-0.846-0.48-4.756-3.139-4.537-4.513c0.715-4.492,4.539-9.609,6.68-13.534c1.154-2.115,2.336-4.221,3.628-6.255
				c2.011-3.167,9.663,0.271,11.988,1.789c9.27,6.045,7.417,19.647-1.228,25.018c-2.073,1.288,0.941,2.416,2.359,1.535
				c9.897-6.148,11.669-19.42,2.987-27.502c-3.76-3.499-9.025-4.61-13.996-4.138c-3.763,0.358-4.776,1.64-6.552,4.597
				c-2.286,3.808-4.351,7.76-6.362,11.717c-0.946,1.862-3.481,5.383-3.16,7.628c0.562,3.931,7.082,6.763,10.239,7.854
				c5.07,1.752,10.848,1.596,15.978,0.247C321.409,243.236,320.778,240.896,318.565,241.478L318.565,241.478z"/>
		</g>
	</g>
	<g>
		<g>
			<path fill="#FFFFFF" d="M393.478,179.367c-12.781-23.604-25.562-47.209-38.344-70.812c-0.59-1.09-2.393-0.326-2.825,0.473
				c-22.026,40.675-44.046,81.354-66.046,122.043c-3.552,6.569-7.104,13.138-10.655,19.707c-0.487,0.901,0.654,1.388,1.337,1.388
				c46.369,0,92.738,0,139.108,0c4.763,0,9.526,0,14.289,0c0.936,0,2.008-0.9,1.488-1.86
				C419.046,226.658,406.262,203.013,393.478,179.367c-0.691-1.279-3.539-0.095-2.748,1.367
				c12.784,23.646,25.568,47.292,38.353,70.938c0.496-0.62,0.992-1.24,1.488-1.86c-46.369,0-92.738,0-139.107,0
				c-4.764,0-9.526,0-14.29,0c0.445,0.463,0.892,0.925,1.337,1.388c22.005-40.698,44.017-81.394,66.048-122.078
				c3.551-6.557,7.103-13.114,10.653-19.672c-0.941,0.157-1.884,0.315-2.825,0.473c12.781,23.604,25.562,47.209,38.344,70.812
				C391.422,182.013,394.27,180.829,393.478,179.367z"/>
			<path fill="#FFFFFF" d="M292.566,242.378c20.873-38.595,41.751-77.187,62.645-115.771c-0.941,0.157-1.884,0.315-2.825,0.473
				c20.893,38.584,41.772,77.174,62.641,115.771c0.496-0.62,0.992-1.24,1.488-1.86c-41.762,0-83.523,0-125.285,0
				c-1.775,0-2.267,2.354-0.229,2.354c41.762,0,83.523,0,125.285,0c0.936,0,2.008-0.9,1.488-1.86
				c-20.868-38.598-41.748-77.188-62.641-115.771c-0.59-1.09-2.393-0.326-2.825,0.473c-20.894,38.584-41.771,77.176-62.645,115.771
				C288.826,243.505,291.889,243.63,292.566,242.378z"/>
		</g>
	</g>
	<g>
		<polygon fill="#A55E94" points="397.113,221.879 378.539,187.58 359.962,153.221 397.113,153.221 434.267,153.221 415.688,187.58 
					"/>
		<g>
			<path fill="#FFFFFF" d="M398.879,221.406c-12.392-22.883-24.775-45.769-37.151-68.658c-0.833,0.433-1.666,0.865-2.499,1.298
				c24.768,0,49.536,0,74.305,0c-0.34-0.184-0.679-0.366-1.018-0.55c-12.377,22.891-24.761,45.776-37.153,68.658
				c-0.379,0.7,2.979,0.415,3.502-0.551c12.392-22.882,24.776-45.769,37.153-68.658c0.279-0.517-0.81-0.55-1.018-0.55
				c-24.768,0-49.536,0-74.305,0c-0.346,0-2.908,0.541-2.499,1.298c12.376,22.891,24.76,45.776,37.151,68.658
				C395.895,223.361,399.267,222.121,398.879,221.406z"/>
		</g>
	</g>
</g>
<g>
	<g>
		<g>
			<path fill="#E84444" d="M103.406,157.029c0.236-0.849,0.473-1.697,0.709-2.546c0.068-0.247-0.125-0.576-0.34-0.687
				c-3.447-1.757-6.893-3.515-10.339-5.271c-1.985-1.013-3.972-2.024-5.957-3.037c-2.447-1.248-1.368-2.797-1.553-5.528
				c-0.202-2.993-1.971-3.468,0.131-5.285c1.89-1.634,3.78-3.269,5.67-4.902c2.864-2.477,5.728-4.953,8.591-7.43
				c0.402-0.348,0.672-0.728,0.381-1.242c-1.727-3.062-3.455-6.126-5.182-9.189c-0.265-0.47-1.159-0.454-1.582-0.317
				c-6.424,2.085-12.848,4.17-19.271,6.255c0.527,0.106,1.055,0.212,1.582,0.317c-1.097-1.146-7.659-6.025-7.625-6.496
				c0.169-2.32,0.337-4.642,0.505-6.962c0.319-4.409,0.639-8.818,0.958-13.228c0.029-0.4-0.237-0.711-0.618-0.816
				c-1.587-0.442-3.175-0.885-4.763-1.326c-1.183-0.33-3.431,1.397-1.691,1.881c0.794,0.222,1.587,0.442,2.381,0.663
				c0.546,0.152,1.092,0.304,1.638,0.456c1.226,0.341,0.121-0.552,0.108-0.377c-0.152,2.105-0.305,4.212-0.457,6.317
				c-0.342,4.717-0.684,9.435-1.025,14.151c-0.021,0.291,0.094,0.526,0.34,0.687c2.804,1.825,5.271,3.876,7.59,6.3
				c0.395,0.412,1.051,0.489,1.582,0.317c6.424-2.085,12.848-4.17,19.271-6.255c-0.527-0.106-1.055-0.212-1.582-0.317
				c1.728,3.062,3.455,6.126,5.183,9.189c0.127-0.414,0.254-0.828,0.381-1.242c-5.237,4.528-10.475,9.057-15.712,13.586
				c-0.306,0.265-0.593,0.564-0.5,1.006c0.693,3.273,0.994,6.465,0.915,9.821c-0.007,0.27,0.076,0.552,0.34,0.687
				c3.446,1.757,6.893,3.515,10.339,5.271c1.985,1.013,3.972,2.024,5.957,3.037c2.2,1.122,1.383,0.375,0.719,2.761
				C100.109,158.6,103.07,158.238,103.406,157.029L103.406,157.029z"/>
			<path fill="#E84444" d="M60.164,136.591c3.813,7.347,1.735,15.593-5.385,19.945c-1.675,1.023,0.756,1.934,1.898,1.234
				c8.011-4.896,10.45-14.138,6.146-22.43C62.26,134.256,59.484,135.281,60.164,136.591L60.164,136.591z"/>
			<path fill="#E84444" d="M43.428,129.457c6.868-1.97,13.138,1.199,16.735,7.134c0.643,1.06,3.42,0.003,2.66-1.25
				c-4.252-7.013-12.035-10.023-19.899-7.769C41.158,128.079,41.653,129.966,43.428,129.457L43.428,129.457z"/>
			<path fill="#E84444" d="M43.035,129.526c1.619,0,2.254-2.023,0.283-2.023C41.699,127.503,41.064,129.526,43.035,129.526
				L43.035,129.526z"/>
			<path fill="#E84444" d="M55.211,158.165c1.619,0,2.254-2.023,0.283-2.023C53.875,156.142,53.241,158.165,55.211,158.165
				L55.211,158.165z"/>
		</g>
	</g>
	<g>
		<g>
			<path fill="#80D0DE" d="M159.787,152.99c-22.209-41.079-44.434-82.149-66.67-123.214c-1.021-1.886-2.042-3.772-3.063-5.658
				c-0.567-1.047-2.301-0.313-2.717,0.455C67.499,61.206,47.663,97.84,27.848,134.486c-0.806,1.49,2.14,1.61,2.791,0.406
				C50.453,98.246,70.29,61.611,90.127,24.978c-0.905,0.152-1.812,0.303-2.717,0.455c22.066,40.75,44.125,81.502,66.164,122.267
				c1.189,2.202,2.381,4.404,3.57,6.606C157.811,155.535,160.549,154.397,159.787,152.99L159.787,152.99z"/>
			<path fill="#80D0DE" d="M57.581,167.655c28.458,0,56.916,0,85.375,0c1.705,0,2.18-2.262,0.219-2.262c-28.459,0-56.917,0-85.375,0
				C56.093,165.394,55.62,167.655,57.581,167.655L57.581,167.655z"/>
			<path fill="#80D0DE" d="M33.535,144.862c1.706,0,2.18-2.262,0.219-2.262C32.047,142.601,31.574,144.862,33.535,144.862
				L33.535,144.862z"/>
			<path fill="#80D0DE" d="M45.403,158.835c1.706,0,2.18-2.262,0.219-2.262C43.916,156.573,43.442,158.835,45.403,158.835
				L45.403,158.835z"/>
			<path fill="#80D0DE" d="M35.04,143.935c18.354-33.938,36.716-67.871,55.088-101.799c-0.905,0.151-1.812,0.303-2.717,0.455
				c20.892,38.583,41.773,77.174,62.64,115.771c0.479-0.597,0.955-1.193,1.432-1.789c-35.287,0-70.574,0-105.861,0
				c-1.706,0-2.18,2.262-0.219,2.262c35.286,0,70.574,0,105.861,0c0.898,0,1.93-0.865,1.43-1.789
				c-20.867-38.597-41.748-77.188-62.64-115.771c-0.567-1.047-2.301-0.312-2.717,0.455c-18.371,33.929-36.733,67.861-55.088,101.799
				C31.443,145.019,34.388,145.139,35.04,143.935L35.04,143.935z"/>
		</g>
	</g>
	<g>
		<polygon fill="#FFFFFF" points="132.086,137.688 113.512,103.389 94.934,69.029 132.086,69.029 169.238,69.029 150.66,103.389 		
			"/>
		<g>
			<path fill="#A55E94" d="M133.852,137.215c-12.393-22.883-24.775-45.769-37.152-68.658c-0.833,0.433-1.666,0.865-2.5,1.298
				c24.769,0,49.537,0,74.304,0c-0.338-0.184-0.678-0.366-1.016-0.55c-12.377,22.891-24.762,45.776-37.154,68.658
				c-0.379,0.7,2.979,0.415,3.502-0.551c12.393-22.882,24.777-45.769,37.154-68.658c0.279-0.517-0.811-0.55-1.018-0.55
				c-24.768,0-49.537,0-74.304,0c-0.347,0-2.909,0.541-2.5,1.298c12.376,22.891,24.759,45.776,37.152,68.658
				C130.867,139.17,134.238,137.93,133.852,137.215z"/>
		</g>
	</g>
	<circle fill="none" stroke="#7F7F7F" stroke-width="3" stroke-miterlimit="10" cx="100.273" cy="99.215" r="80.125"/>
</g>
</svg>
