<?xml version="1.0" encoding="utf-8"?>
<!-- Generator: Adobe Illustrator 21.0.0, SVG Export Plug-In . SVG Version: 6.00 Build 0)  -->
<svg version="1.1" id="Слой_1" xmlns="http://www.w3.org/2000/svg" xmlns:xlink="http://www.w3.org/1999/xlink" x="0px" y="0px"
	 viewBox="0 0 1933 445" style="enable-background:new 0 0 1933 445;" xml:space="preserve">
<g>
	<path style="fill:#7F7E7E;" d="M273.6,334.3l-69.8-94l-69.8,94h-13.3L197,232.4l-68.8-92.5h13.3l62.3,84.2l63-84.2h13L211,232.1
		l76,102.2H273.6z"/>
	<path style="fill:#7F7E7E;" d="M453.8,136.3c14.4,0,27.6,2.6,39.7,7.7c12.1,5.2,22.5,12.2,31.1,21.2c8.6,9,15.4,19.6,20.3,32
		c4.9,12.3,7.4,25.7,7.4,40.1c0,14.4-2.5,27.7-7.4,39.9c-4.9,12.2-11.7,22.8-20.3,31.8c-8.6,9-19,16.1-31.1,21.2
		c-12.1,5.1-25.3,7.7-39.7,7.7c-19.9,0-37.6-4.9-53-14.6c-15.5-9.7-27.2-22.8-35.4-39.4v119.1h-11.9V140.3h9.3l2.2,50.7
		c8.1-16.5,19.9-29.8,35.4-39.7C415.9,141.3,433.7,136.3,453.8,136.3z M453.1,326.7c12.7,0,24.4-2.2,35-6.7
		c10.7-4.4,19.9-10.7,27.7-18.7c7.8-8,13.9-17.5,18.3-28.4c4.4-10.9,6.6-22.9,6.6-35.8c0-13-2.2-24.9-6.6-35.8
		c-4.4-10.9-10.5-20.4-18.3-28.4c-7.8-8-17-14.3-27.7-18.7c-10.7-4.4-22.3-6.7-35-6.7c-12.5,0-24.1,2.3-34.8,6.8
		c-10.8,4.6-20.1,10.9-28,18.9c-7.9,8-14.1,17.5-18.5,28.4c-4.4,10.9-6.6,22.7-6.6,35.5c0,12.7,2.2,24.5,6.6,35.5
		c4.4,10.9,10.6,20.4,18.5,28.4c7.9,8,17.2,14.3,28,18.9C429,324.5,440.6,326.7,453.1,326.7z"/>
	<path style="fill:#7F7E7E;" d="M1138.4,139.5v194.8h-11.5v-95.4H995.1v95.4h-11.5V139.5h11.5v88.2h131.8v-88.2H1138.4z"/>
	<path style="fill:#7F7E7E;" d="M1387.9,139.9v194.4h-11.5V161.5l-133.2,172.8h-7.2V139.9h11.5v172.4L1381,139.9H1387.9z"/>
	<path style="fill:#7F7E7E;" d="M1567.5,337.9c-14.2,0-27.3-2.6-39.4-7.7c-12.1-5.2-22.7-12.2-31.7-21.2c-9-9-16-19.6-21.1-31.8
		c-5-12.2-7.6-25.5-7.6-39.9c0-14.4,2.5-27.7,7.4-40.1c4.9-12.3,11.9-23,20.9-32c9-9,19.6-16,31.9-21.2c12.2-5.2,25.4-7.7,39.6-7.7
		c21.6,0,40.3,5.5,56.2,16.6c15.8,11,27.2,25.8,34.2,44.3H1646c-6.7-15.6-17-27.8-31-36.5c-13.9-8.8-29.8-13.1-47.5-13.1
		c-12.5,0-24.1,2.3-34.9,6.8c-10.8,4.6-20.2,10.9-28.1,18.9c-7.9,8-14.1,17.5-18.5,28.4c-4.4,10.9-6.7,22.7-6.7,35.5
		c0,12.7,2.2,24.5,6.7,35.5c4.4,10.9,10.6,20.4,18.5,28.4c7.9,8,17.3,14.3,28.1,18.9c10.8,4.6,22.4,6.8,34.9,6.8
		c17.8,0,33.5-4.4,47.3-13.1c13.8-8.8,24.4-21.2,31.9-37.3h11.9c-7.4,19-19.2,34-35.3,45C1607.2,332.4,1588.6,337.9,1567.5,337.9z"
		/>
	<path style="fill:#7F7E7E;" d="M1872.8,150.7h-79.9v183.6h-11.5V150.7h-79.9v-11.2h171.4V150.7z"/>
	<g>
		<path style="fill:none;stroke:#262424;stroke-width:0.2265;stroke-miterlimit:10;" d="M713.7,258.5"/>
		<g>
			<g>
				<path style="fill:#324165;" d="M765.4,374.6c-57.3-0.3-109.8-36.6-129.3-90.7c-19.4-53.9-2.7-115.8,41.3-152.4
					c44.5-37.1,109.5-42.1,159.1-12.1c49.2,29.8,75,88.7,63.6,145.1c-11.2,55.4-56.9,99.4-112.8,108.4
					C780.2,374,772.8,374.6,765.4,374.6c-0.7,0-0.7,1,0,1c57.3-0.3,109.9-36.2,129.9-90.2c20.4-54.9,3.2-118.4-42.1-155.5
					c-44.8-36.7-109.9-41.5-159.5-11.5c-49.5,29.9-75.4,88.9-64.3,145.6c11,56.2,57.3,100.7,113.8,109.8c7.3,1.2,14.7,1.7,22.1,1.8
					C766.2,375.6,766.1,374.6,765.4,374.6z"/>
			</g>
		</g>
		<g>
			<g>
				<path style="fill:#495B81;" d="M881,237.2c-0.4-46.1-27.7-87.7-69.9-106.2c-0.6-0.3-1.1,0.4-0.4,0.7
					c41.8,18.3,68.9,59.7,69.2,105.3C879.9,237.6,881,237.7,881,237.2L881,237.2z"/>
			</g>
		</g>
		<g>
			<g>
				<path style="fill:#495B81;" d="M728.5,346.5c46.6,15.4,98.7,0,128.7-39.1c7.8-10.1,13.7-21.5,17.8-33.5c0.1-0.4-0.7-1.1-0.9-0.6
					c-9.2,26.8-28,49.7-52.7,63.6c-28.3,15.9-62.3,18.8-93,8.6C727.8,345.4,728,346.4,728.5,346.5L728.5,346.5z"/>
			</g>
		</g>
		<g>
			<g>
				<path style="fill:#495B81;" d="M649.9,237.3c0.3,40.8,21.9,78.5,56.9,99.4c0.3,0.2,1.2-0.4,0.9-0.6
					c-35-20.8-56.5-58.4-56.8-99.2C650.9,236.6,649.9,236.9,649.9,237.3L649.9,237.3z"/>
			</g>
		</g>
		<g>
			<g>
				<path style="fill:#495B81;" d="M755.2,122c-40.8,3.8-76.6,28.9-94.3,65.8c-0.2,0.5,0.6,1.2,0.9,0.6
					c17.6-36.7,53.2-61.6,93.8-65.4C756.2,123,755.8,121.9,755.2,122L755.2,122z"/>
			</g>
		</g>
		<g>
			<g>
				<path style="fill:#576E89;" d="M785.3,326.5c-26.9,5.6-55.2-0.5-76.8-17.7c-19.8-15.8-32.4-39.5-34.2-64.7
					c-1.4-18.5,2.9-36.9,12.1-53.1c0.3-0.6-0.7-0.9-1-0.3c-14.9,26.1-16.6,58.2-3.9,85.5c10.7,23.1,31.1,41.1,55.4,48.9
					c15.7,5.1,32.4,5.7,48.5,2.3C786.1,327.3,786,326.3,785.3,326.5L785.3,326.5z"/>
			</g>
		</g>
		<g>
			<g>
				<path style="fill:#576E89;" d="M713.2,162c31-21.2,72.6-21.9,103.8-0.8c30.2,20.4,45.4,57.9,38.2,93.6
					c-4.1,20.7-15.5,39.3-31.7,52.8c-0.3,0.2,0.4,1.1,0.7,0.9c29.9-25.1,41.4-66.8,27.7-103.5c-11.6-31.2-40-54.4-72.9-59.4
					c-23.3-3.5-47.1,2.1-66.6,15.4C712.3,161.3,712.9,162.2,713.2,162L713.2,162z"/>
			</g>
		</g>
		<g>
			<g>
				<path style="fill:#65829F;" d="M727.1,295c20.1,13,45.8,15.2,67.6,5.1c19.2-8.9,33.7-26.5,38.5-47.1c3.2-13.7,2-28-2.9-41.1
					c-0.2-0.5-1.3-0.5-1.1,0.1c10.2,27.1,2.9,58.1-19.2,77.1c-23.1,19.9-56.9,21.7-82.4,5.2C727.1,294,726.5,294.6,727.1,295
					L727.1,295z"/>
			</g>
		</g>
		<g>
			<g>
				<path style="fill:#65829F;" d="M801.6,177.8c-24.8-14.8-56.8-13.2-79.5,4.9c-22.3,17.8-31.2,47.5-23.2,74.8c0.2,0.6,1.2,0.7,1,0
					c-7.9-26.9,0.8-56.3,22.9-73.9c22.5-17.9,53.9-19.5,78.5-4.8C801.9,179,802.2,178.1,801.6,177.8L801.6,177.8z"/>
			</g>
		</g>
		<g>
			<g>
				<path style="fill:#7CA2B7;" d="M767.6,282.7c-17.6,0.7-34.2-8.4-42.4-24c-7.6-14.2-6.9-31.9,1.7-45.6
					c18.6-29.8,64.5-27.9,79.7,4.2c8.5,17.8,4.2,38.9-9.7,52.7c-0.2,0.2,0.7,0.9,0.9,0.6c14-13.9,18.2-35.1,9.7-53.1
					c-6.6-13.9-20.1-24-35.4-26.3c-17.2-2.6-34.7,4.8-44.8,19c-10.1,14.3-11.1,33.5-2.8,48.9c8.6,15.8,25.8,25.1,43.7,24.3
					C768.7,283.4,767.9,282.7,767.6,282.7L767.6,282.7z"/>
			</g>
		</g>
		<g>
			<path style="fill:#9ACFDC;" d="M788.4,237.1c0-12.7-10.2-23-23-23c-12.7,0-23,10.2-23,23c0,12.7,10.2,23,23,23
				C778.2,260.1,788.4,249.8,788.4,237.1z"/>
		</g>
		<g>
			<ellipse style="fill:#9ACFDC;" cx="818.1" cy="194.1" rx="3.4" ry="3.4"/>
		</g>
		<g>
			<circle style="fill:#9ACFDC;" cx="807.5" cy="318.8" r="3.4"/>
		</g>
		<g>
			<circle style="fill:#9ACFDC;" cx="654.4" cy="212" r="4"/>
		</g>
		<g>
			<circle style="fill:#9ACFDC;" cx="784.3" cy="124.1" r="3.4"/>
		</g>
	</g>
</g>
</svg>
