<?xml version="1.0" encoding="utf-8"?>
<!-- Generator: Adobe Illustrator 21.0.0, SVG Export Plug-In . SVG Version: 6.00 Build 0)  -->
<svg version="1.1" id="Слой_1" xmlns="http://www.w3.org/2000/svg" xmlns:xlink="http://www.w3.org/1999/xlink" x="0px" y="0px"
	 viewBox="0 0 1933 445" style="enable-background:new 0 0 1933 445;" xml:space="preserve">
<g>
	<g>
		<path style="fill:none;stroke:#262424;stroke-width:0.2265;stroke-miterlimit:10;" d="M873.8,258.2"/>
		<g>
			<g>
				<path style="fill:#324165;" d="M925.6,374.3c-57.3-0.3-109.8-36.6-129.3-90.7c-19.4-53.9-2.7-115.8,41.3-152.4
					C882,94,947.1,89,996.7,119c49.2,29.8,75,88.7,63.6,145.1c-11.2,55.4-56.9,99.4-112.8,108.4
					C940.3,373.7,932.9,374.2,925.6,374.3c-0.7,0-0.7,1,0,1c57.3-0.3,109.9-36.2,129.9-90.2c20.4-54.9,3.2-118.4-42.1-155.5
					c-44.8-36.7-109.9-41.5-159.5-11.5c-49.5,29.9-75.4,88.9-64.3,145.6c11,56.2,57.3,100.7,113.8,109.8c7.3,1.2,14.7,1.7,22.1,1.8
					C926.3,375.3,926.3,374.3,925.6,374.3z"/>
			</g>
		</g>
		<g>
			<g>
				<path style="fill:#495B81;" d="M1041.2,236.7c-0.4-45.9-27.7-87.5-69.8-105.9c-0.4-0.2-1.4,0.2-0.8,0.5
					c41.9,18.4,69,59.8,69.4,105.5C1040,237.2,1041.2,237.2,1041.2,236.7L1041.2,236.7z"/>
			</g>
		</g>
		<g>
			<g>
				<path style="fill:#495B81;" d="M888.5,346.2c46.6,15.4,98.8,0,128.8-39.1c7.8-10.1,13.7-21.5,17.9-33.5c0.2-0.6-0.8-1.1-1-0.5
					c-9.2,26.8-27.9,49.7-52.6,63.6c-28.3,15.9-62.2,18.7-92.9,8.6C887.9,345.1,887.9,346,888.5,346.2L888.5,346.2z"/>
			</g>
		</g>
		<g>
			<g>
				<path style="fill:#495B81;" d="M810,236.8c0.3,40.9,21.9,78.7,57.1,99.6c0.5,0.3,1.4-0.4,0.7-0.8
					c-34.9-20.8-56.4-58.3-56.7-98.9C811.1,236.1,810,236.2,810,236.8L810,236.8z"/>
			</g>
		</g>
		<g>
			<g>
				<path style="fill:#495B81;" d="M915.3,121.6c-40.8,3.8-76.6,28.9-94.3,65.8c-0.2,0.5,0.6,1.2,0.9,0.6
					c17.6-36.7,53.3-61.6,93.8-65.4C916.3,122.6,915.9,121.6,915.3,121.6L915.3,121.6z"/>
			</g>
		</g>
		<g>
			<g>
				<path style="fill:#576E89;" d="M945,326.3c-29.1,6.1-59.8-1.5-81.7-21.9c-17.8-16.6-28.4-40.1-29.2-64.5
					c-0.5-17.3,3.9-34.2,12.4-49.1c0.1-0.1-0.9-0.7-0.9-0.6c-15.6,27.4-16.6,61.4-1.8,89.3c11,20.9,30.2,37.1,52.6,44.7
					c16,5.4,33.1,6.2,49.6,2.7C945.8,327,945.3,326.2,945,326.3L945,326.3z"/>
			</g>
		</g>
		<g>
			<g>
				<path style="fill:#576E89;" d="M873.3,161.7c31-21.2,72.6-21.9,103.8-0.8c30.2,20.4,45.4,57.9,38.2,93.6
					c-4.1,20.7-15.5,39.3-31.7,52.8c-0.3,0.2,0.4,1.1,0.7,0.9c29.9-25.1,41.4-66.8,27.7-103.5c-11.6-31.2-40-54.4-72.9-59.4
					c-23.3-3.5-47.1,2.1-66.6,15.4C872.4,160.9,873.1,161.9,873.3,161.7L873.3,161.7z"/>
			</g>
		</g>
		<g>
			<g>
				<path style="fill:#65829F;" d="M887.2,294.6c19.7,12.7,44.8,15.3,66.5,5.8c19.4-8.5,34.1-25.8,39.3-46.3
					c3.6-14,2.5-28.8-2.6-42.3c-0.1-0.4-1.2-0.7-1-0.2c10.1,26.7,3.1,57.3-18.3,76.4c-23,20.5-57.4,22.9-83.3,6.2
					C887.3,293.9,886.6,294.1,887.2,294.6L887.2,294.6z"/>
			</g>
		</g>
		<g>
			<g>
				<path style="fill:#65829F;" d="M961.8,177.4c-24.8-14.8-56.8-13.2-79.5,4.9c-22.3,17.8-31.2,47.5-23.2,74.8c0.2,0.6,1.2,0.7,1,0
					c-7.9-26.9,0.8-56.3,22.9-73.9c22.5-17.9,53.9-19.5,78.5-4.8C962.1,178.7,962.3,177.8,961.8,177.4L961.8,177.4z"/>
			</g>
		</g>
		<g>
			<g>
				<path style="fill:#7CA2B7;" d="M927.7,282.4c-17.6,0.7-34.2-8.4-42.4-24c-7.6-14.2-6.9-31.9,1.7-45.6
					c18.6-29.8,64.5-27.9,79.7,4.2c8.5,17.8,4.2,38.9-9.7,52.7c-0.2,0.2,0.7,0.9,0.9,0.6c14-13.9,18.2-35.1,9.7-53.1
					c-6.6-13.9-20.1-24-35.4-26.3c-17.2-2.6-34.7,4.8-44.8,19c-10.1,14.3-11.1,33.5-2.8,48.9c8.6,15.8,25.8,25.1,43.7,24.3
					C928.9,283.1,928.1,282.3,927.7,282.4L927.7,282.4z"/>
			</g>
		</g>
		<g>
			<path style="fill:#9ACFDC;" d="M948.6,236.8c0-12.7-10.2-23-23-23c-12.7,0-23,10.2-23,23c0,12.7,10.2,23,23,23
				C938.3,259.8,948.6,249.5,948.6,236.8z"/>
		</g>
		<g>
			<ellipse style="fill:#9ACFDC;" cx="978.2" cy="193.8" rx="3.4" ry="3.4"/>
		</g>
		<g>
			<path style="fill:#9ACFDC;" d="M971,318.4c0,1.9-1.5,3.4-3.4,3.4c-1.9,0-3.4-1.5-3.4-3.4c0-1.9,1.5-3.4,3.4-3.4
				C969.5,315.1,971,316.6,971,318.4z"/>
		</g>
		<g>
			<circle style="fill:#9ACFDC;" cx="814.5" cy="211.6" r="4"/>
		</g>
		<g>
			<path style="fill:#9ACFDC;" d="M947.8,123.7c0,1.9-1.5,3.4-3.4,3.4c-1.9,0-3.4-1.5-3.4-3.4c0-1.9,1.5-3.4,3.4-3.4
				C946.3,120.3,947.8,121.9,947.8,123.7z"/>
		</g>
	</g>
	<path style="fill:#7F7E7E;" d="M207.6,337.6c-14.2,0-27.3-2.6-39.4-7.7c-12.1-5.2-22.7-12.2-31.7-21.2c-9-9-16-19.6-21.1-31.8
		c-5-12.2-7.6-25.5-7.6-39.9c0-14.4,2.5-27.7,7.4-40.1c4.9-12.3,11.9-23,20.9-32c9-9,19.6-16,31.9-21.2c12.2-5.2,25.4-7.7,39.6-7.7
		c21.6,0,40.3,5.5,56.2,16.6c15.8,11,27.2,25.8,34.2,44.3H286c-6.7-15.6-17-27.8-31-36.5c-13.9-8.8-29.8-13.1-47.5-13.1
		c-12.5,0-24.1,2.3-34.9,6.8c-10.8,4.6-20.2,10.9-28.1,18.9c-7.9,8-14.1,17.5-18.5,28.4c-4.4,10.9-6.7,22.7-6.7,35.5
		c0,12.7,2.2,24.5,6.7,35.5c4.4,10.9,10.6,20.4,18.5,28.4c7.9,8,17.3,14.3,28.1,18.9c10.8,4.6,22.4,6.8,34.9,6.8
		c17.8,0,33.5-4.4,47.3-13.1c13.8-8.8,24.4-21.2,31.9-37.3h11.9c-7.4,19-19.2,34-35.3,45C247.3,332.1,228.7,337.6,207.6,337.6z"/>
	<path style="fill:#7F7E7E;" d="M462.4,135.3c11.8,0,22.3,2,31.7,6.1c9.4,4.1,17.3,9.7,23.9,16.9c6.6,7.2,11.7,15.9,15.3,26.1
		c3.6,10.2,5.4,21.7,5.4,34.4V334h-11.5v-113c0-23.3-5.9-41.5-17.6-54.7c-11.8-13.2-28.2-19.8-49.3-19.8c-9.8,0-19.3,2-28.3,5.9
		c-9,4-16.9,9.4-23.6,16.2c-6.7,6.8-12.1,14.7-16,23.6c-4,8.9-5.9,18.4-5.9,28.4V334H375V70.5h11.5v113c7-14.2,17.2-25.7,30.8-34.7
		C430.8,139.8,445.9,135.3,462.4,135.3z"/>
	<path style="fill:#7F7E7E;" d="M729.6,138.9V150h-17.3c-10.1,0-19.3,1.9-27.7,5.6c-8.4,3.7-15.6,8.9-21.6,15.5
		c-6,6.6-10.6,14.5-13.9,23.6c-3.2,9.1-4.9,19.1-4.9,29.9V334h-11.5V139.6h9.4l1.8,43.9c6-13.7,14.9-24.5,26.6-32.6
		c11.8-8,25.9-12.1,42.5-12.1H729.6z"/>
	<path style="fill:#7F7E7E;" d="M1240.7,135.3c11.8,0,22.3,2,31.7,6.1s17.3,9.8,23.9,17.1c6.6,7.3,11.7,16.1,15.3,26.3
		c3.6,10.2,5.4,21.5,5.4,34V334h-11.5v-113c0-23.3-5.9-41.5-17.6-54.7c-11.8-13.2-28.2-19.8-49.3-19.8c-9.8,0-19.3,2-28.3,5.9
		c-9,4-16.9,9.4-23.6,16.2c-6.7,6.8-12.1,14.7-16,23.6c-4,8.9-5.9,18.4-5.9,28.4V334h-11.5V139.3h9.4l1.8,45.2
		c6.7-14.4,16.9-26.2,30.6-35.5C1208.6,139.9,1223.9,135.3,1240.7,135.3z"/>
	<path style="fill:#7F7E7E;" d="M1408.4,76.2h16.9v20.2h-16.9V76.2z M1411,139.6h11.5V334H1411V139.6z"/>
	<path style="fill:#7F7E7E;" d="M1576.2,337.6c-21.8,0-39.2-5-52.2-15.1c-13-10.1-20.2-24-21.6-41.8h11.2c1.7,14.6,8,25.9,18.9,33.8
		c10.9,7.9,25.6,11.9,44.1,11.9c18.7,0,33.7-4,44.8-11.9c11.2-7.9,16.7-18.7,16.7-32.4c0-8.4-1.8-15.2-5.4-20.5
		c-3.6-5.3-8.4-9.5-14.4-12.6c-6-3.1-12.8-5.5-20.5-7.2c-7.7-1.7-15.5-3.2-23.4-4.7c-8.4-1.4-16.7-3.1-24.8-4.9
		c-8.2-1.8-15.5-4.4-22-7.9c-6.5-3.5-11.7-8.2-15.7-14c-4-5.9-5.9-13.6-5.9-23.2c0-7.7,1.7-14.7,5-21.1c3.4-6.4,8.1-11.8,14.2-16.4
		c6.1-4.6,13.4-8.1,21.8-10.6c8.4-2.5,17.8-3.8,28.1-3.8c20.9,0,37.4,4.9,49.7,14.8c12.2,9.8,18.8,23.2,19.8,40h-11.5
		c-1-13.7-6.5-24.4-16.7-32c-10.2-7.7-24.1-11.5-41.8-11.5c-17.2,0-31,3.7-41.5,11.2c-10.4,7.4-15.6,17.3-15.6,29.5
		c0,7.2,1.6,13.1,4.9,17.6c3.2,4.6,7.6,8.2,13.1,11c5.5,2.8,11.9,4.9,19.1,6.3c7.2,1.4,14.8,2.9,22.7,4.3c8.4,1.4,16.9,3.1,25.6,5
		c8.6,1.9,16.4,4.9,23.4,8.8c7,4,12.6,9.2,16.9,15.8c4.3,6.6,6.5,15.3,6.5,26.1c0,8.4-1.7,16-5.2,22.9c-3.5,6.8-8.5,12.7-14.9,17.5
		c-6.5,4.8-14.2,8.5-23.2,11.2C1597.3,336.3,1587.2,337.6,1576.2,337.6z"/>
	<path style="fill:#7F7E7E;" d="M1824.9,322.8V334h-25.6c-18,0-32.2-5.2-42.5-15.7c-10.3-10.4-15.5-24.9-15.5-43.4V150h-45v-10.1h45
		V82.3h11.5v57.6h70.6V150h-70.6v124.3c0,15.3,4.1,27.2,12.4,35.7c8.3,8.5,20,12.7,35.1,12.7H1824.9z"/>
</g>
</svg>
