<?xml version="1.0" encoding="utf-8"?>
<!-- Generator: Adobe Illustrator 15.0.0, SVG Export Plug-In . SVG Version: 6.00 Build 0)  -->
<!DOCTYPE svg PUBLIC "-//W3C//DTD SVG 1.1//EN" "http://www.w3.org/Graphics/SVG/1.1/DTD/svg11.dtd">
<svg version="1.1" id="Layer_1" xmlns="http://www.w3.org/2000/svg" xmlns:xlink="http://www.w3.org/1999/xlink" x="0px" y="0px"
	 width="283.46px" height="85.04px" viewBox="0 0 283.46 85.04" enable-background="new 0 0 283.46 85.04" xml:space="preserve">
<circle opacity="0.65" fill="#E8E8E8" cx="136.525" cy="41.292" r="22.988"/>
<g>
	<g>
		<path fill="none" stroke="#000000" stroke-width="0.1788" stroke-miterlimit="10" d="M128.469,44.733"/>
		<g>
			<g>
				<path fill="#273F66" d="M136.635,62.739c-11.927-0.37-20.967-9.443-21.337-21.356c-0.369-11.892,9.97-21.054,21.34-21.407
					c11.923-0.371,20.983,9.994,21.336,21.356C158.344,53.225,148.005,62.387,136.635,62.739c-0.575,0.018-0.548,0.817,0.003,0.801
					c12.373-0.385,21.837-9.752,22.223-22.157c0.384-12.381-10.425-21.841-22.226-22.208c-12.369-0.384-21.855,10.334-22.223,22.157
					c-0.385,12.381,10.425,21.841,22.226,22.208C137.216,63.558,137.184,62.757,136.635,62.739z"/>
			</g>
		</g>
		<g>
			<g>
				<path fill="#3E5B84" d="M155.221,41.48c-0.191-7.424-4.367-13.664-11.09-16.772c-0.121-0.056-0.977-0.223-0.639-0.066
					c6.651,3.075,10.681,9.287,10.869,16.594C154.366,41.424,155.222,41.514,155.221,41.48L155.221,41.48z"/>
			</g>
		</g>
		<g>
			<g>
				<path fill="#3E5B84" d="M130.538,58.866c10.054,2.963,20.043-2.053,23.707-11.848c0.141-0.378-0.676-0.059-0.779,0.219
					c-3.491,9.334-12.933,13.798-22.414,11.004C130.763,58.156,130.121,58.743,130.538,58.866L130.538,58.866z"/>
			</g>
		</g>
		<g>
			<g>
				<path fill="#3E5B84" d="M118.046,41.418c0.17,6.644,3.454,12.39,9.103,15.896c0.355,0.22,1.052-0.304,0.614-0.576
					c-5.497-3.411-8.68-8.975-8.846-15.441C118.905,40.819,118.035,40.993,118.046,41.418L118.046,41.418z"/>
			</g>
		</g>
		<g>
			<g>
				<path fill="#3E5B84" d="M134.923,22.848c-6.607,0.729-12.089,4.58-15.057,10.52c-0.198,0.396,0.444,0.98,0.681,0.507
					c2.889-5.781,8.208-9.472,14.626-10.181C135.66,23.64,135.367,22.799,134.923,22.848L134.923,22.848z"/>
			</g>
		</g>
		<g>
			<g>
				<path fill="#4B6E8C" d="M139.449,55.253c-12.308,2.015-20.648-10.22-14.997-20.95c0.126-0.239-0.628-0.71-0.735-0.508
					c-6.169,11.714,3.86,24.076,16.389,22.024C140.292,55.789,139.718,55.209,139.449,55.253L139.449,55.253z"/>
			</g>
		</g>
		<g>
			<g>
				<path fill="#4B6E8C" d="M128.611,29.791c5.627-3.517,12.098-3.358,17.395,0.734c7.29,5.632,5.673,16.172-0.406,21.688
					c-0.202,0.183,0.36,0.875,0.541,0.711c13.67-12.405-2.438-33.616-18.07-23.845C127.865,29.208,128.38,29.935,128.611,29.791
					L128.611,29.791z"/>
			</g>
		</g>
		<g>
			<g>
				<path fill="#5584A3" d="M130.358,50.646c9.198,5.479,20.407-2.78,16.862-13.246c-0.119-0.353-1.006-0.409-0.875-0.022
					c3.188,9.415-6.441,18.232-15.445,12.87C130.554,50.041,129.854,50.346,130.358,50.646L130.358,50.646z"/>
			</g>
		</g>
		<g>
			<g>
				<path fill="#5584A3" d="M142.448,31.715c-9.015-4.984-19.154,2.902-16.634,12.849c0.115,0.454,0.955,0.536,0.816-0.012
					c-2.357-9.302,7.012-16.867,15.566-12.138C142.708,32.697,142.906,31.968,142.448,31.715L142.448,31.715z"/>
			</g>
		</g>
		<g>
			<g>
				<path fill="#68A5BA" d="M136.766,48.312c-7.752,0.211-8.975-9.323-3.466-12.944c3.616-2.376,8.354-0.251,9.852,3.565
					c1.03,2.625-0.049,5.473-1.859,7.417c-0.177,0.189,0.535,0.72,0.744,0.494c5.812-6.243-1.121-15.376-8.729-12.39
					c-8.123,3.188-3.667,14.663,3.987,14.454C137.655,48.9,137.025,48.305,136.766,48.312L136.766,48.312z"/>
			</g>
		</g>
		<g>
			<path fill="#80D0DE" d="M140.264,41.358c0-2.011-1.617-3.628-3.627-3.628c-2.011,0-3.626,1.617-3.626,3.628
				c0,2.011,1.616,3.626,3.626,3.626C138.646,44.984,140.264,43.369,140.264,41.358z"/>
		</g>
		<g>
			<circle fill="#80D0DE" cx="144.943" cy="34.572" r="0.532"/>
		</g>
		<g>
			<circle fill="#80D0DE" cx="143.279" cy="54.244" r="0.533"/>
		</g>
		<g>
			<circle fill="#80D0DE" cx="119.111" cy="37.389" r="0.629"/>
		</g>
		<g>
			<circle fill="#80D0DE" cx="139.611" cy="23.517" r="0.532"/>
		</g>
	</g>
	<path fill="#7F7F7F" d="M23.321,57.266c-2.235,0-4.309-0.406-6.221-1.219c-1.914-0.813-3.58-1.929-5-3.347
		c-1.42-1.418-2.528-3.091-3.323-5.02c-0.796-1.928-1.194-4.025-1.194-6.295c0-2.268,0.388-4.375,1.165-6.323
		c0.776-1.947,1.875-3.629,3.295-5.048c1.42-1.417,3.096-2.532,5.028-3.346c1.932-0.813,4.014-1.219,6.25-1.219
		c3.409,0,6.364,0.872,8.864,2.613c2.5,1.742,4.298,4.072,5.397,6.988h-1.875c-1.061-2.462-2.69-4.384-4.887-5.767
		c-2.197-1.381-4.697-2.074-7.5-2.074c-1.969,0-3.807,0.361-5.511,1.08c-1.704,0.72-3.181,1.715-4.431,2.983
		c-1.25,1.269-2.226,2.765-2.926,4.488c-0.701,1.724-1.051,3.589-1.051,5.596c0,2.008,0.35,3.874,1.051,5.597
		c0.701,1.724,1.676,3.22,2.926,4.488c1.25,1.27,2.727,2.264,4.431,2.982c1.705,0.72,3.542,1.08,5.511,1.08
		c2.803,0,5.293-0.691,7.471-2.074c2.178-1.382,3.854-3.343,5.028-5.88h1.875c-1.175,2.992-3.031,5.36-5.568,7.102
		C29.59,56.395,26.654,57.266,23.321,57.266z"/>
	<path fill="#7F7F7F" d="M63.546,25.336c1.855,0,3.522,0.322,5,0.966c1.477,0.644,2.736,1.533,3.778,2.67
		c1.042,1.136,1.846,2.509,2.415,4.119c0.568,1.61,0.852,3.418,0.852,5.426v18.18h-1.818v-17.84c0-3.673-0.929-6.552-2.784-8.635
		c-1.856-2.083-4.452-3.125-7.784-3.125c-1.554,0-3.04,0.312-4.46,0.937c-1.42,0.625-2.661,1.478-3.721,2.557
		c-1.061,1.08-1.903,2.32-2.528,3.721c-0.625,1.402-0.937,2.897-0.937,4.489v17.896H49.74V15.109h1.818v17.84
		c1.098-2.235,2.717-4.062,4.857-5.483C58.556,26.046,60.933,25.336,63.546,25.336z"/>
	<path fill="#7F7F7F" d="M105.702,25.904v1.761h-2.728c-1.59,0-3.049,0.294-4.375,0.881c-1.326,0.587-2.462,1.402-3.409,2.443
		c-0.947,1.043-1.675,2.283-2.187,3.721c-0.512,1.44-0.767,3.012-0.767,4.716v17.271h-1.819v-30.68h1.478l0.284,6.932
		c0.946-2.159,2.348-3.872,4.205-5.142c1.854-1.269,4.09-1.903,6.704-1.903H105.702z"/>
	<path fill="#7F7F7F" d="M186.365,25.336c1.855,0,3.522,0.322,5,0.966c1.478,0.644,2.736,1.543,3.778,2.698
		c1.042,1.156,1.847,2.538,2.415,4.147c0.567,1.61,0.853,3.4,0.853,5.369v18.18h-1.819v-17.84c0-3.673-0.929-6.552-2.783-8.635
		c-1.856-2.083-4.451-3.125-7.784-3.125c-1.553,0-3.04,0.312-4.46,0.937c-1.42,0.625-2.661,1.478-3.721,2.557
		c-1.062,1.08-1.903,2.32-2.528,3.721c-0.625,1.402-0.938,2.897-0.938,4.489v17.896h-1.818V25.981h1.477l0.285,7.138
		c1.06-2.272,2.67-4.138,4.829-5.596C181.309,26.065,183.714,25.336,186.365,25.336z"/>
	<path fill="#7F7F7F" d="M212.841,16.019h2.67V19.2h-2.67V16.019z M213.238,26.018h1.819v30.68h-1.819V26.018z"/>
	<path fill="#7F7F7F" d="M239.316,57.266c-3.446,0-6.192-0.795-8.237-2.386c-2.046-1.592-3.182-3.787-3.409-6.591h1.762
		c0.264,2.311,1.258,4.091,2.981,5.341s4.043,1.875,6.961,1.875c2.954,0,5.312-0.625,7.073-1.875s2.642-2.954,2.642-5.113
		c0-1.326-0.284-2.405-0.853-3.238s-1.326-1.496-2.272-1.989c-0.947-0.492-2.026-0.871-3.238-1.136
		c-1.213-0.265-2.442-0.512-3.692-0.739c-1.327-0.228-2.634-0.483-3.921-0.767c-1.288-0.284-2.443-0.7-3.466-1.25
		c-1.022-0.548-1.846-1.288-2.471-2.216c-0.625-0.927-0.938-2.149-0.938-3.665c0-1.212,0.266-2.319,0.796-3.323
		c0.53-1.003,1.278-1.865,2.244-2.585c0.966-0.719,2.111-1.279,3.438-1.676c1.325-0.397,2.803-0.596,4.432-0.596
		c3.295,0,5.909,0.776,7.84,2.329c1.932,1.554,2.974,3.656,3.126,6.307h-1.819c-0.15-2.159-1.028-3.844-2.634-5.057
		c-1.604-1.211-3.804-1.818-6.599-1.818c-2.718,0-4.898,0.587-6.541,1.761c-1.643,1.174-2.463,2.727-2.463,4.659
		c0,1.137,0.255,2.065,0.767,2.784c0.511,0.72,1.202,1.298,2.073,1.732c0.871,0.436,1.875,0.768,3.012,0.995
		c1.136,0.227,2.329,0.454,3.579,0.681c1.325,0.227,2.671,0.493,4.033,0.796c1.364,0.304,2.595,0.767,3.693,1.392
		c1.098,0.625,1.989,1.459,2.671,2.5c0.681,1.042,1.022,2.414,1.022,4.119c0,1.326-0.275,2.528-0.824,3.607
		c-0.549,1.08-1.335,1.998-2.357,2.756s-2.244,1.345-3.665,1.761C242.641,57.058,241.059,57.266,239.316,57.266z"/>
	<path fill="#7F7F7F" d="M278.575,54.937v1.761h-4.033c-2.841,0-5.076-0.823-6.705-2.471s-2.442-3.93-2.442-6.847V27.665h-7.102
		v-1.59h7.102v-9.091h1.817v9.091h11.137v1.59h-11.137v19.617c0,2.419,0.654,4.3,1.961,5.642c1.307,1.343,3.153,2.013,5.539,2.013
		H278.575z"/>
</g>
</svg>
