<?xml version="1.0" encoding="utf-8"?>
<!-- Generator: Adobe Illustrator 15.0.0, SVG Export Plug-In . SVG Version: 6.00 Build 0)  -->
<!DOCTYPE svg PUBLIC "-//W3C//DTD SVG 1.1//EN" "http://www.w3.org/Graphics/SVG/1.1/DTD/svg11.dtd">
<svg version="1.1" id="Layer_1" xmlns="http://www.w3.org/2000/svg" xmlns:xlink="http://www.w3.org/1999/xlink" x="0px" y="0px"
	 width="283.46px" height="85.04px" viewBox="0 0 283.46 85.04" enable-background="new 0 0 283.46 85.04" xml:space="preserve">
<circle opacity="0.65" fill="#E8E8E8" cx="106.099" cy="40.336" r="22.988"/>
<g>
	<path fill="#7F7F7F" d="M29.175,55.541L18.251,40.843L7.327,55.541H5.244l11.938-15.936L6.427,25.133H8.51l9.741,13.175
		l9.854-13.175h2.027L19.377,39.547l11.881,15.994H29.175z"/>
	<path fill="#7F7F7F" d="M57.358,24.57c2.248,0,4.318,0.402,6.21,1.208c1.893,0.807,3.513,1.911,4.862,3.316
		c1.349,1.407,2.407,3.074,3.175,5.003c0.768,1.931,1.152,4.019,1.152,6.267c0,2.249-0.384,4.328-1.152,6.239
		c-0.768,1.912-1.826,3.568-3.175,4.973c-1.349,1.407-2.969,2.512-4.862,3.32c-1.892,0.805-3.962,1.206-6.21,1.206
		c-3.109,0-5.873-0.759-8.288-2.275c-2.418-1.52-4.263-3.57-5.536-6.155v18.622h-1.859V25.189h1.454l0.349,7.924
		c1.273-2.584,3.119-4.654,5.536-6.211C51.43,25.347,54.211,24.57,57.358,24.57z M57.244,54.357c1.985,0,3.811-0.347,5.479-1.041
		c1.666-0.695,3.109-1.671,4.326-2.93c1.218-1.258,2.173-2.739,2.866-4.446c0.694-1.709,1.041-3.576,1.041-5.604
		c0-2.027-0.347-3.895-1.041-5.602c-0.692-1.708-1.648-3.191-2.866-4.449c-1.217-1.257-2.66-2.233-4.326-2.929
		c-1.668-0.693-3.494-1.041-5.479-1.041c-1.947,0-3.765,0.357-5.449,1.07c-1.687,0.713-3.148,1.698-4.385,2.955
		c-1.237,1.259-2.2,2.741-2.894,4.449c-0.693,1.708-1.039,3.558-1.039,5.546c0,1.99,0.346,3.839,1.039,5.546
		c0.694,1.709,1.657,3.191,2.894,4.449c1.236,1.259,2.698,2.243,4.385,2.957C53.479,54,55.297,54.357,57.244,54.357z"/>
	<path fill="#7F7F7F" d="M164.434,25.077v30.464h-1.801V40.618h-20.611v14.923h-1.801V25.077h1.801v13.795h20.611V25.077H164.434z"
		/>
	<path fill="#7F7F7F" d="M203.454,25.133v30.408h-1.802v-27.03l-20.835,27.03h-1.123V25.133h1.8v26.972l20.892-26.972H203.454z"/>
	<path fill="#7F7F7F" d="M231.551,56.103c-2.214,0-4.27-0.401-6.164-1.206c-1.896-0.809-3.547-1.913-4.953-3.32
		c-1.409-1.404-2.508-3.061-3.296-4.973c-0.789-1.911-1.183-3.99-1.183-6.239c0-2.248,0.383-4.336,1.155-6.267
		c0.768-1.929,1.858-3.596,3.265-5.003c1.408-1.405,3.07-2.509,4.983-3.316c1.915-0.806,3.979-1.208,6.192-1.208
		c3.38,0,6.308,0.863,8.785,2.59s4.26,4.036,5.351,6.926h-1.858c-1.051-2.44-2.666-4.345-4.843-5.716
		c-2.178-1.37-4.655-2.055-7.435-2.055c-1.951,0-3.771,0.357-5.461,1.07c-1.69,0.713-3.155,1.698-4.391,2.955
		c-1.239,1.259-2.208,2.741-2.899,4.449c-0.695,1.708-1.043,3.558-1.043,5.546c0,1.99,0.348,3.839,1.043,5.546
		c0.691,1.709,1.66,3.191,2.899,4.449c1.235,1.259,2.7,2.243,4.391,2.957c1.689,0.712,3.51,1.069,5.461,1.069
		c2.779,0,5.249-0.684,7.406-2.056c2.158-1.37,3.82-3.313,4.983-5.827h1.858c-1.163,2.964-3.004,5.312-5.52,7.039
		C237.766,55.239,234.856,56.103,231.551,56.103z"/>
	<path fill="#7F7F7F" d="M279.301,26.822h-12.498v28.719H265V26.822h-12.5v-1.746h26.801V26.822z"/>
	<g>
		<path fill="none" stroke="#000000" stroke-width="0.1772" stroke-miterlimit="10" d="M98.004,43.682"/>
		<g>
			<g>
				<path fill="#273F66" d="M106.098,61.527c-11.82-0.367-20.781-9.359-21.147-21.166c-0.366-11.787,9.882-20.867,21.15-21.217
					c11.816-0.367,20.796,9.905,21.146,21.166C127.613,52.097,117.367,61.177,106.098,61.527c-0.569,0.018-0.543,0.811,0.003,0.793
					c12.263-0.381,21.642-9.666,22.024-21.959c0.381-12.271-10.332-21.646-22.027-22.01c-12.259-0.381-21.662,10.241-22.025,21.959
					c-0.381,12.271,10.333,21.646,22.028,22.01C106.675,62.338,106.643,61.544,106.098,61.527z"/>
			</g>
		</g>
		<g>
			<g>
				<path fill="#3E5B84" d="M124.505,40.199c-0.19-7.392-4.343-13.631-11.045-16.73c-0.373-0.172-0.964,0.451-0.501,0.666
					c6.55,3.028,10.534,9.13,10.718,16.337C123.688,40.926,124.515,40.613,124.505,40.199L124.505,40.199z"/>
			</g>
		</g>
		<g>
			<g>
				<path fill="#3E5B84" d="M100.304,57.663c9.803,2.89,19.644-1.75,23.259-11.415c0.131-0.351-0.672-0.721-0.797-0.387
					c-3.476,9.292-12.842,14.066-22.448,11.235C99.751,56.93,99.867,57.535,100.304,57.663L100.304,57.663z"/>
			</g>
		</g>
		<g>
			<g>
				<path fill="#3E5B84" d="M87.671,40.302c0.17,6.643,3.486,12.354,9.122,15.851c0.44,0.273,0.908-0.271,0.418-0.574
					c-5.413-3.359-8.505-8.857-8.668-15.208C88.531,39.926,87.658,39.812,87.671,40.302L87.671,40.302z"/>
			</g>
		</g>
		<g>
			<g>
				<path fill="#3E5B84" d="M104.4,21.991c-6.547,0.723-11.98,4.539-14.921,10.426c-0.196,0.393,0.44,0.972,0.675,0.503
					c2.862-5.729,8.133-9.389,14.495-10.091C105.131,22.776,104.84,21.942,104.4,21.991L104.4,21.991z"/>
			</g>
		</g>
		<g>
			<g>
				<path fill="#4B6E8C" d="M108.931,54.064c-12.068,1.968-20.596-9.949-14.946-20.671c0.137-0.259-0.553-0.786-0.65-0.601
					c-6.081,11.541,3.688,23.956,16.158,21.922C109.725,54.677,109.198,54.021,108.931,54.064L108.931,54.064z"/>
			</g>
		</g>
		<g>
			<g>
				<path fill="#4B6E8C" d="M98.146,28.872c6.455-4.036,14.252-3.152,19.27,2.861c5.011,6.005,2.834,14.581-2.434,19.361
					c-0.2,0.182,0.357,0.867,0.536,0.705c13.536-12.282-2.406-33.327-17.909-23.633C97.406,28.294,97.917,29.016,98.146,28.872
					L98.146,28.872z"/>
			</g>
		</g>
		<g>
			<g>
				<path fill="#5584A3" d="M99.969,49.695c9.278,5.526,20.022-3.131,16.559-13.362c-0.169-0.5-0.931-0.408-0.745,0.14
					c3.222,9.521-6.759,17.705-15.462,12.52C99.827,48.698,99.534,49.436,99.969,49.695L99.969,49.695z"/>
			</g>
		</g>
		<g>
			<g>
				<path fill="#5584A3" d="M111.858,30.779c-8.935-4.941-18.982,2.878-16.485,12.734c0.114,0.45,0.946,0.531,0.809-0.012
					c-2.335-9.217,6.949-16.718,15.427-12.029C112.115,31.753,112.312,31.031,111.858,30.779L111.858,30.779z"/>
			</g>
		</g>
		<g>
			<g>
				<path fill="#68A5BA" d="M106.228,47.227c-7.691,0.231-8.884-9.245-3.435-12.826c3.583-2.355,8.279-0.249,9.763,3.534
					c1.021,2.601-0.048,5.425-1.842,7.351c-0.176,0.188,0.53,0.713,0.737,0.49c5.764-6.186-1.113-15.238-8.65-12.279
					c-8.037,3.155-3.645,14.552,3.951,14.324C107.109,47.81,106.484,47.22,106.228,47.227L106.228,47.227z"/>
			</g>
		</g>
		<g>
			<path fill="#80D0DE" d="M109.693,40.336c0-1.993-1.602-3.595-3.594-3.595c-1.993,0-3.594,1.602-3.594,3.595
				s1.601,3.595,3.594,3.595C108.091,43.931,109.693,42.329,109.693,40.336z"/>
		</g>
		<g>
			<circle fill="#80D0DE" cx="114.332" cy="33.612" r="0.528"/>
		</g>
		<g>
			<circle fill="#80D0DE" cx="112.682" cy="53.108" r="0.527"/>
		</g>
		<g>
			<circle fill="#80D0DE" cx="88.73" cy="36.403" r="0.624"/>
		</g>
		<g>
			<circle fill="#80D0DE" cx="109.046" cy="22.654" r="0.528"/>
		</g>
	</g>
</g>
</svg>
