<svg xmlns="http://www.w3.org/2000/svg" viewBox="0 0 73.45 13.39"><title>Asset 3</title><g id="Layer_2" data-name="Layer 2"><g id="Layer_2-2" data-name="Layer 2"><path d="M72.53,8.81l.06,0h0l.47.34-.34.47A9.51,9.51,0,0,1,68,13.21h0l-.63.18-.09-.65c-.17-1.26-.45-2.6-.59-3.93h0C55.76,9,45.24,10.06,35.16,9.88h0l-.57,0h0c-5.5-.24-9.06-2.34-12.94-2.48h0A11.88,11.88,0,0,0,17,8.11h0c-3.5,1.25-7.48,2.95-10.84,2.82h0a5.55,5.55,0,0,1-4.69-2.5h0C.4,6.73-.13,4.15,0,.33H0C0,.22,0,.11,0,0H0L1.18.06c0,.11,0,.21,0,.31h0C.94,7.82,3.1,9.6,6.24,9.79h0c2.93.14,6.89-1.48,10.4-2.75h0a13,13,0,0,1,5-.79h0c4.27.2,7.73,2.28,12.94,2.48h.54c10,.18,20.47-.9,31.42-1.07h0q0-.41,0-.81h0l.72,0c-.65-.4-1.28-.79-1.85-1.18h0L64,4.73l1.71-.08a8.19,8.19,0,0,1,.84,0h0a7.9,7.9,0,0,1,6.24,3.28h0l.61.91-.92,0Zm-1.23.53-.86-.56H68.07c.09.31.19.64.27,1h0a22.18,22.18,0,0,0,3-.41Zm-.17-1.69a6.87,6.87,0,0,0-3-1.65h0c.87.53,1.79,1.08,2.69,1.65h.34Zm-.93,3.05c-.72.1-1.43.16-2.05.21h0c.05.33.11.66.16,1h0a7.41,7.41,0,0,0,1.9-1.19ZM68.6,7.65l-.88-.54h0a4.25,4.25,0,0,0,.07.54h.81Z"/></g></g></svg>