<svg xmlns="http://www.w3.org/2000/svg" viewBox="0 0 51.84 20.71"><title>Asset 5</title><g id="Layer_2" data-name="Layer 2"><g id="Layer_2-2" data-name="Layer 2"><path d="M37.2,0l-.64.63L37,1l0,0a44.77,44.77,0,0,0-2.23,6.26c-1.43.1-2.71.21-3.46.23-10.39.18-20.8-.06-31.23.35l0,.89H0c10.4-.41,20.79-.16,31.21-.35.74,0,1.9-.11,3.18-.21-.23.84-.45,1.7-.65,2.56q-.07.3-.13.6c-10-.07-20,.45-30-.18l-.06.89c9.92.63,19.92.11,29.82.18-.68,3.37-1,6.48-.27,8.16l.14.31.33-.05c5-.82,14-5.6,17.75-8.56l.42-.33-.41-.35c-1.06-.9-2.16-1.76-3.26-2.6C46.45,7.51,44.7,6.26,43,5A51.42,51.42,0,0,1,37.2,0ZM47.63,9.52c1,.72,1.89,1.45,2.8,2.21-3.71,2.79-12,7.11-16.55,8-.44-1.4-.17-4.34.48-7.46,2.79,0,5.57.1,8.34.26l.2.48a4.9,4.9,0,0,1,1.55-.37v-.89c-3.29-.25-6.58-.35-9.89-.39,0-.14.06-.27.09-.4.22-.95.46-1.9.73-2.83L37,8c2.17-.12,4.32,0,4.76.41l.07.07.66-.6a1.33,1.33,0,0,0-.2-.18c-1-.71-3.08-.66-5.33-.59l-1.28.07a45.3,45.3,0,0,1,2-5.55,58.3,58.3,0,0,0,4.84,4C44.18,7,45.93,8.23,47.63,9.52Z"/></g></g></svg>