<?xml version="1.0" encoding="utf-8"?>
<!-- Generator: Adobe Illustrator 15.0.0, SVG Export Plug-In . SVG Version: 6.00 Build 0)  -->
<!DOCTYPE svg PUBLIC "-//W3C//DTD SVG 1.1//EN" "http://www.w3.org/Graphics/SVG/1.1/DTD/svg11.dtd">
<svg version="1.1" id="Layer_1" xmlns="http://www.w3.org/2000/svg" xmlns:xlink="http://www.w3.org/1999/xlink" x="0px" y="0px"
	 width="198.43px" height="198.43px" viewBox="0 0 198.43 198.43" enable-background="new 0 0 198.43 198.43" xml:space="preserve">
<g>
	<circle fill="#FFFFFF" cx="100.7" cy="99.214" r="80.125"/>
	<g>
		<circle fill="none" stroke="#807F7F" stroke-width="3" stroke-miterlimit="10" cx="100.701" cy="99.808" r="80.125"/>
		<g>
			<g>
				<g>
					<path fill="#E84344" d="M101.225,111.703c2.951,12.487,7.879,24.311,12.326,36.31c1.056,2.848,2.046,5.719,2.997,8.604
						c1.092,3.313,3.029,7.482,2.332,10.992c-1.559,1.58-2.651,1.462-3.277-0.353c-0.727-1.296-0.884-3.249-1.291-4.67
						c-0.984-3.433-2.388-6.753-3.661-10.084c-0.053-0.139-0.227-0.153-0.349-0.17c-6.694-0.886-13.387-1.747-20.101-2.471
						c-0.402-0.043-1.412,0.12-1.573,0.586c-1.865,5.395-2.873,11.026-4.438,16.508c-2.251,2.188-3.842,2.078-4.772-0.329
						c-0.964-1.683,0.131-3.982,0.619-5.667c1.002-3.453,2.152-6.863,3.321-10.264c4.572-13.298,9.977-26.281,13.883-39.807
						c-0.524,0.195-1.049,0.391-1.573,0.586c1.969,0.133,3.937,0.266,5.905,0.398c0.457,0.031,2.233-0.79,1.234-0.857
						c-1.969-0.133-3.937-0.266-5.905-0.398c-0.387-0.026-1.436,0.109-1.573,0.586c-2.729,9.451-6.134,18.666-9.56,27.882
						c-1.682,4.527-3.339,9.062-4.909,13.63c-1.173,3.411-3.811,8.493-3.725,12.109c0.099,4.157,3.562,6.214,7.175,4.382
						c2.294-1.163,2.434-4.845,2.981-7.028c1.013-4.041,1.885-8.102,3.248-12.045c-0.524,0.195-1.049,0.391-1.573,0.586
						c4.485,0.483,8.964,1.011,13.438,1.591c1.92,0.249,6.048,0.012,6.926,2.311c1.075,2.812,2.131,5.616,3.049,8.483
						c1.171,3.658,2.508,9.296,7.327,5.892c2.405-1.699,0.946-5.575,0.369-7.662c-1.619-5.854-3.733-11.57-5.866-17.254
						c-4.072-10.851-8.38-21.587-11.053-32.894C103.04,110.694,101.103,111.188,101.225,111.703z"/>
					<path fill="#E84344" d="M89.898,146.971c6.158,0.042,12.315-0.165,18.457,0.396c0.222,0.021,1.798-0.226,1.583-0.688
						c-4.183-9.011-8.067-18.204-9.97-27.998c-0.094-0.484-1.843-0.011-1.922,0.416c-1.771,9.497-5.239,18.611-8.697,27.6
						c-0.166,0.431,1.709,0.214,1.912-0.314c3.459-8.988,6.927-18.103,8.697-27.6c-0.641,0.139-1.281,0.277-1.922,0.416
						c1.902,9.794,5.786,18.988,9.97,27.998c0.527-0.229,1.056-0.458,1.583-0.688c-6.283-0.575-12.576-0.357-18.877-0.4
						C90.142,146.106,88.608,146.962,89.898,146.971z"/>
				</g>
			</g>
		</g>
		<g>
			<g>
				<path fill="#A55F94" d="M177.543,95.326c-0.223-0.525-0.888-0.604-1.361-0.521c-1.062,0.188,0.169,0.289,0.323-0.067
					c0.169-0.393-0.513-1.182-0.71-1.376c-4.499-4.442-10.275-6.986-14.287-12.058c-4.971-6.282-9.127-12.985-14.794-18.703
					c-2.811-2.837-5.915-5.381-9.021-7.882c-2.02-1.626-2.095-5.006-2.957-7.318c-2.439-6.541-13.272-8.757-18.401-3.729
					c-2.763,2.709-6.091,7.439-5.133,11.496c0.783,3.318,3.688,0.012,4.001-1.315c-0.526,0.188-1.053,0.378-1.579,0.566
					c1.271,0.067,5.634,4.46,5.186,6.23c-0.735,2.903-0.534,6.033-0.058,8.945c1.366,8.35,9.276,14.217,7.09,23.395
					c-0.312,1.313-0.808,2.591-1.174,3.891c0.392,1.09-0.097,1.438-1.467,1.049c-1.012,0.03-2.023,0.058-3.036,0.081
					c-2.2,0.077-4.64,0.298-6.67,1.264c-0.786,0.374-3.19,1.15-3.191,2.36c-0.001,1.28,0.233,2.227,1.594,2.118
					c2.138-0.171,4.108-1.197,6.37-1.018c2.966,0.236,5.931-0.253,8.871,0.16c3.337,0.468,6.964,0.207,10.339,0.312
					c2.854,0.09,6.021-0.474,8.62,1.17c0.401,0.254,0.911,0.451,1.397,0.412c3.251-0.26,3.216-3.036,1.101-5.161
					c-1.545-1.551-3.763-1.715-5.842-1.965c-1.671-0.202-3.411-0.064-5.09,0.001c-1.612,0.062,0.391-6.501,0.533-7.134
					c-0.526,0.188-1.053,0.378-1.579,0.566c2.21,0.12,5.023,0.598,7.155-0.415c0.478-0.228,0.929-0.688,1.154-1.142
					c1.204-2.42-0.23-2.082,1.927-0.606c3.366,2.304,6.455,5.249,9.335,8.126c1.845,1.843,3.225,4.121,4.572,6.335
					c0.706,1.162,1.1,2.282,2.562,2.626c3.539,0.831,6.803-0.688,9.812-1.494c0.829-0.222,2.052-1.224,1.257-2.179
					c-3.129-3.76-10.244-6.803-11.843-11.558c-0.625,0.196-1.25,0.393-1.876,0.589c4.083,3.612,8.1,5.739,13.556,5.973
					C175.673,97.414,177.643,97.029,177.543,95.326c-0.021-0.354-1.963-0.021-1.932,0.518c0.098,1.675-8.182-1.312-6.464-0.566
					c-2.503-1.087-4.629-2.766-6.654-4.558c-0.284-0.251-2.021,0.158-1.876,0.589c0.742,2.21,2.855,3.488,4.554,5.022
					c1.301,1.175,2.633,2.31,3.996,3.413c0.105,0.085,4.647,4.019,3.19,4.269c-3.446,0.591-7.491,2.605-9.665-1.135
					c-2.737-4.71-6.421-8.001-10.333-11.707c-1.937-1.835-4.608-4.614-7.43-4.221c-0.233,0.032-1.077,0.214-1.132,0.53
					c-0.583,3.377-3.256,2.968-5.929,2.822c-0.333-0.019-1.481,0.132-1.579,0.566c-0.558,2.479-1.13,4.951-1.619,7.445
					c-0.054,0.272,0.37,0.232,0.536,0.224c3.562-0.192,7.8-0.671,11.033,1.214c0.812,0.474,1.452,2.141,1.9,2.934
					c0.558,0.987-3.57-0.355-3.023-0.206c-2.473-0.677-5.599-0.042-8.104-0.12c-3.572-0.111-7.265,0.031-10.785-0.608
					c-2.17-0.394-4.497,0.368-6.71,0.189c-1.541-0.125-3.346-0.368-4.872,0.074c-1.67,0.482-1.88,1.196-2.411-0.249
					c-1.059-2.879,10.69-3.082,12.766-3.319c0.272-0.031,1.312-0.176,1.37-0.562c0.373-2.463,1.288-4.797,1.842-7.227
					c0.3-1.314-0.591-8.45-1.445-9.405c-5.457-6.1-7.701-14.43-5.688-22.38c0.031-0.066,0.017-0.12-0.043-0.161
					c-2.064-1.063-2.909-2.741-3.478-4.866c-0.033-0.123-0.25-0.138-0.34-0.139c-0.782,0-1.563-0.027-2.344-0.082
					c-0.337-0.018-1.477,0.131-1.579,0.566c-0.565,2.396,0.294-5.009-0.123-3.171c0.476-2.095,2.674-2.851,3.449-4.427
					c0.084-0.606,0.219-1.203,0.404-1.79c2.223-2.065,4.725-3.004,7.505-2.815c2.125,0.007,3.935,0.741,5.619,2.02
					c2.928,2.22,3.686,6.771,4.197,10.133c0.224,1.469,5.769,4.744,6.794,5.633c7.108,6.161,11.843,13.804,17.645,21.063
					c2.894,3.621,5.68,6.051,9.447,8.781c1.322,0.958,6.991,4.005,6.168,5.915c-0.031,0.066-0.017,0.12,0.043,0.161
					c0.002,0.002,0.004,0.004,0.006,0.006c0.249,0.249,0.987-0.024,1.245-0.106c-0.028,0.084-0.056,0.167-0.084,0.25
					C175.813,96.319,177.696,95.685,177.543,95.326L177.543,95.326z"/>
				<path fill="#A55F94" d="M129.935,98.117c1.378-2.665,2.27-5.761,2.875-8.689c-0.64,0.143-1.279,0.285-1.919,0.428
					c0.229,2.896,0.023,5.781-0.104,8.676c0.53-0.219,1.061-0.438,1.592-0.656c-0.925-0.002-1.848-0.001-2.771,0.014
					c-0.406,0.006-2.198,0.81-1.252,0.795c0.925-0.015,1.848-0.016,2.771-0.014c0.363,0.001,1.569-0.137,1.592-0.656
					c0.127-2.895,0.332-5.78,0.104-8.676c-0.03-0.389-1.836,0.026-1.919,0.428c-0.605,2.929-1.497,6.023-2.875,8.689
					C127.88,98.742,129.68,98.61,129.935,98.117L129.935,98.117z"/>
			</g>
		</g>
		<polyline fill="none" stroke="#807F7F" stroke-width="2.8029" stroke-miterlimit="10" points="31.576,137.825 100.7,99.81 
			169.839,140.323 		"/>
		
			<line fill="none" stroke="#807F7F" stroke-width="2.8029" stroke-miterlimit="10" x1="100.7" y1="18.495" x2="100.7" y2="100.226"/>
		<g>
			<g>
				<g>
					<path fill="#80CFDD" d="M44.239,65.661c-1.541,0.125-6.953-2.723-3.837-2.373c0.74,0.084,1.634,0.097,2.397,0.042
						c2.206-0.158,4.412-0.317,6.618-0.476c1.942-0.14,3.924-0.412,5.873-0.412c5.433,0-0.962,11.202-1.979,13.215
						c-2.169,4.289-5.066,8.144-8.346,11.639c-1.643,1.75-3.487,3.301-5.363,4.792c-0.583,0.817-1.337,1.123-2.263,0.916
						c1.059-1.314,2.478-2.482,3.637-3.72c6.339-6.765,11.002-14.819,13.655-23.692c0.141-0.471-0.587-0.591-0.876-0.571
						C50.583,65.234,47.41,65.448,44.239,65.661c-1.053,0.07-1.521,1.405-0.197,1.316c3.132-0.211,6.264-0.422,9.396-0.632
						c-1.61,0.108-4.553,9.038-5.517,10.812c-2.307,4.24-5.331,8.045-8.542,11.628c-0.156,0.174-7.664,7.146-3.064,6.734
						c4.348-0.39,9.547-6.866,12.209-9.878c4.302-4.865,7.358-10.703,9.684-16.726c1.279-3.312,3.433-7.791-2.225-7.791
						c-3.372,0-6.781,0.441-10.144,0.683c-2.449,0.177-5.972-0.724-8.011,0.535c-0.195,0.121-0.421,0.408-0.337,0.656
						c1.204,3.583,3.193,4.25,6.551,3.978C45.089,66.893,45.563,65.554,44.239,65.661z"/>
					<path fill="#80CFDD" d="M64.2,49.645c0.002,0.014-1.012-3.376-0.222-3.194c1.404,0.322,2.756,0.941,2.749,2.453
						c-0.011,2.208-0.021,4.417-0.031,6.625c-0.01,2.019-0.02,4.036-0.029,6.054c-0.01,2.2,3.113,5.264,4.365,7.001
						c0.317,0.44,1.16,0.257,1.517-0.015c4.263-3.248,10.424-7.487,11.906-12.939c-0.388,1.428,3.359,2.058,1.203,4.535
						c-0.903,1.038-1.941,1.97-2.944,2.908c-2.937,2.751-6.069,5.325-9.316,7.701c-0.249,0.183-0.482,0.513-0.259,0.81
						c3.263,4.339,6.816,8.353,10.83,12.013c1.594,1.453,3.298,2.774,5.024,4.063c0.995,0.742,7.003,3.491,4.849,5.146
						c-3.279,2.521-13.04-9.066-15.061-11.235c-3.834-4.115-7.169-8.671-10.253-13.364c-0.36-0.548-1.861-0.187-1.862,0.499
						c-0.02,8.167-0.038,16.335-0.057,24.502c-0.002,0.901-0.004,1.802-0.006,2.703c-0.005,1.898-0.055,5.884-3.285,4.801
						c-1.473-0.494-2.863-1.326-4.211-2.086c-2.455-1.385-4.941-3.006-6.952-4.992c-1.327-1.311,2.854,1.021,2.938,1.057
						c2.441,1.03,4.987,1.714,7.573,2.259c0.442,0.094,1.542-0.041,1.542-0.702c0-15.477,0-30.953,0-46.43
						c0-0.962-1.949-0.627-1.949,0.174c0,15.477,0,30.953,0,46.43c0.514-0.234,1.027-0.468,1.542-0.702
						c-3.787-0.798-7.061-2.667-10.729-3.641c-1.562-0.415-1.879-0.542-3.112,0.474c-0.193,0.159-0.412,0.377-0.337,0.656
						c0.999,3.718,8.623,7.15,11.778,8.42c5.132,2.065,7.14-1.04,7.15-5.938c0.021-9.053,0.042-18.104,0.062-27.157
						c-0.62,0.166-1.241,0.333-1.862,0.499c4.005,6.095,8.498,11.737,13.66,16.894c2.354,2.35,4.896,4.505,7.485,6.585
						c1.055,0.846,2.813,2.784,4.43,2.393c1.66-0.401,5.469-2.137,4.364-4.258c-0.903-1.734-5.785-3.742-7.45-4.984
						c-3.35-2.501-6.33-5.459-9.15-8.531c-1.331-1.449-5.801-5.261-3.725-6.836c2.096-1.591,4.093-3.31,6.076-5.037
						c1.738-1.516,6.703-4.692,5.972-7.485c-0.498-1.899-3.306-4.576-5.334-3.138c-1.26,0.894-1.898,3.838-2.979,5.165
						c-2.494,3.06-5.69,5.599-8.811,7.977c0.506-0.005,1.011-0.01,1.517-0.015c-2.136-2.966-4.196-5.091-4.179-8.734
						c0.014-3.028,0.028-6.058,0.043-9.086c0.008-1.714,0.152-2.572-1.227-3.732c-1.711-1.438-4.394-1.737-6.244-0.657
						c-0.193,0.113-0.425,0.415-0.337,0.656c0.494,1.364,1.218,2.485,1.404,3.957C62.373,50.987,64.312,50.518,64.2,49.645z"/>
				</g>
			</g>
		</g>
	</g>
</g>
</svg>
