<?xml version="1.0" encoding="utf-8"?>
<!-- Generator: Adobe Illustrator 15.0.0, SVG Export Plug-In . SVG Version: 6.00 Build 0)  -->
<!DOCTYPE svg PUBLIC "-//W3C//DTD SVG 1.1//EN" "http://www.w3.org/Graphics/SVG/1.1/DTD/svg11.dtd">
<svg version="1.1" id="Layer_1" xmlns="http://www.w3.org/2000/svg" xmlns:xlink="http://www.w3.org/1999/xlink" x="0px" y="0px"
	 width="198.43px" height="198.43px" viewBox="0 0 198.43 198.43" enable-background="new 0 0 198.43 198.43" xml:space="preserve">
<g>
	<circle fill="#FFFFFF" cx="101.248" cy="100.561" r="80.125"/>
	<g>
		<g>
			<g>
				<path fill="#7F7F7F" d="M110.643,155.594c0.906,0.568,1.59,1.426,2.5,2c0.51,0.32,2.303-0.434,1.545-0.91
					c-0.906-0.57-1.592-1.428-2.5-2C111.678,154.363,109.885,155.115,110.643,155.594L110.643,155.594z"/>
			</g>
		</g>
		<g>
			<g>
				<path fill="#7F7F7F" d="M126.322,164.252c-0.285,0.064,0.309,0.092,0.35,0.102c0.23,0.053,0.443,0.16,0.656,0.26
					c0.408,0.193,0.789,0.449,1.176,0.684c0.32,0.193,0.928-0.014,1.24-0.123c0.072-0.027,0.871-0.35,0.582-0.525
					c-0.596-0.361-1.191-0.76-1.863-0.965c-0.777-0.234-1.508-0.17-2.291,0.01c-0.152,0.033-0.965,0.26-0.891,0.537
					C125.357,164.516,126.168,164.287,126.322,164.252L126.322,164.252z"/>
			</g>
		</g>
		<g>
			<g>
				<g>
					<path d="M83.086,177.316c0.11-9.064-0.007-18.131,0.006-27.199c0.01-6.541,0.029-13.084,0.051-19.625
						c0.006-1.705-1.328-13.391,4.244-8.916c2.234,1.795,0.979,8.109,0.979,10.564c0,6.861,0,13.721,0,20.582
						c0,8.787,0,17.574,0,26.361c0,0.34,1.932,0.055,1.932-0.518c0-10.424,0-20.848,0-31.271c0-6.852,0-13.703,0-20.555
						c0-3.021,0.121-8.342-4.895-7.045c-3.67,0.947-4.16,2.85-4.172,6.098c-0.025,6.627-0.046,13.254-0.061,19.881
						c-0.023,10.721,0.114,21.443-0.016,32.16C81.15,178.166,83.078,177.891,83.086,177.316L83.086,177.316z"/>
				</g>
			</g>
			<g>
				<g>
					<path d="M65.224,53.507c3.51,6.8,12.929,12.26,20.417,12.974c4.941,0.472,15.152-4.16,16.883,2.786
						c1.578,6.327-5.818,9.411-9.688,12.475c-1.029,0.814,0.52,1.529,1.291,0.918c3.641-2.883,7.5-4.514,9.656-8.838
						c1.33-2.667,1.191-7.339-1.801-8.874c-5.191-2.663-11.838,0.459-17.398-0.071c-6.211-0.592-14.791-6.8-17.594-12.232
						C66.582,51.854,64.748,52.583,65.224,53.507L65.224,53.507z"/>
				</g>
			</g>
			<g>
				<g>
					<path d="M64.641,53.209c-0.032,7.168,6.983,13.657,13.022,16.442c1.97,0.908-0.505,1.015-1.68,1.604
						c-1.262,0.633-2.606,1.562-3.567,2.582c-1.227,1.301-4.62,5.377-3.65,7.497c0.272,0.595,2.154-0.031,1.932-0.518
						c-0.539-1.178,1.371-4.253,1.72-4.847c1.802-3.057,5.127-4.612,8.301-5.819c0.179-0.067,0.998-0.604,0.417-0.756
						c-6.771-1.773-14.596-9.348-14.563-16.704C66.575,52.205,64.644,52.534,64.641,53.209L64.641,53.209z"/>
				</g>
			</g>
			<g>
				<g>
					<path d="M102.086,102.33c2.389,2.408,5.865,2.947,9.057,3.65c5.059,1.117,9.885,2.154,15.09,2.15
						c0.477,0,1.156-0.174,1.342-0.674c1.355-3.67,11.133-12.646,6.68-17.137c-0.484-0.487-2.314,0.234-1.793,0.762
						c4.07,4.105-5.486,13.004-6.82,16.614c0.447-0.225,0.893-0.449,1.34-0.674c-4.436,0.002-8.672-0.697-12.977-1.695
						c-3.418-0.791-7.545-1.156-10.125-3.756C103.395,101.082,101.562,101.805,102.086,102.33L102.086,102.33z"/>
				</g>
			</g>
			<g>
				<g>
					<path d="M126.738,58.401c0.459-0.583,0.555-0.757,0.98-1.468c2.871-4.789,8.295-4.091,12.307-1.741
						c2.062,1.208,4.021,3.023,6.465,3.436c4.76,0.803,8.488-0.226,11.998-3.477c-0.613,0.069-1.225,0.138-1.838,0.207
						c-2.209,4.726-4.289,9.454-7.799,13.392c-0.066,0.056-0.094,0.126-0.086,0.209c6.861,11.687,9.867,24.36,14.25,37
						c0.113,0.326,0.848,0.143,1.059,0.088c8.598-2.264,13.773-8.506,16.863-16.629c0.164-0.43-1.711-0.211-1.912,0.316
						c-2.775,7.297-7.18,13.528-15.137,15.622c0.354,0.029,0.707,0.057,1.059,0.086c-2.957-8.53-4.973-17.409-8.479-25.75
						c-1.553-3.695-6.707-9.758-3.896-13.403c2.58-3.348,4.213-7.445,5.99-11.245c0.244-0.521-1.621,0.007-1.836,0.207
						c-8.918,8.262-13.598-3.733-22.086-2.876c-4.957,0.5-6.744,2.416-9.664,6.126C124.549,59.043,126.432,58.791,126.738,58.401
						L126.738,58.401z"/>
				</g>
			</g>
			<g>
				<g>
					<path d="M118.113,178.473c0-2.238,0-4.479,0-6.719c0-0.277-1.932-0.01-1.932,0.518c0,0.084,0,0.168,0,0.25
						c0,0.277,1.932,0.012,1.932-0.518c0-10.838,0-21.678,0-32.518c0-5.436,0-10.871,0-16.307c0-3.588-4.562-4.924-7.186-2.809
						c-2.713,2.189-1.879,4.863-1.891,8.131c-0.025,6.945-0.045,13.891-0.059,20.834c-0.018,10.023,0.09,20.041-0.008,30.061
						c-0.002,0.271,1.928,0.014,1.932-0.518c0.184-18.887,0.012-37.785,0.088-56.678c0.01-2.549,5.191-2.438,5.191,0.508
						c0,1.246,0,2.492,0,3.738c0,5.816,0,11.635,0,17.451c0,9.541,0,19.082,0,28.623c0,0.277,1.932,0.012,1.932-0.518
						c0-0.082,0-0.166,0-0.25c0-0.277-1.932-0.01-1.932,0.518c0,2.24,0,4.48,0,6.719
						C116.182,179.268,118.113,179.002,118.113,178.473L118.113,178.473z"/>
				</g>
			</g>
			<g>
				<g>
					<path d="M104.375,178.664c0-2.24,0-4.479,0-6.719c0-1.037-1.961-0.762-1.961,0.137c0,0.082,0,0.166,0,0.25
						c0,1.037,1.961,0.76,1.961-0.137c0-10.84,0-21.678,0-32.518c0-5.436,0-10.871,0-16.307c0-4.086-4.645-5.424-7.582-3.053
						c-2.387,1.924-1.516,5.271-1.525,7.992c-0.023,6.945-0.044,13.891-0.057,20.836c-0.018,10.062,0.089,20.064-0.008,30.061
						c-0.01,1.035,1.951,0.762,1.96-0.137c0.182-18.748,0.011-37.508,0.085-56.262c0.01-2.346,5.166-2.418,5.166-0.113
						c0,1.383,0,2.766,0,4.148c0,5.951,0,11.902,0,17.854c0,9.211,0,18.422,0,27.635c0,1.037,1.961,0.76,1.961-0.137
						c0-0.084,0-0.166,0-0.25c0-1.037-1.961-0.762-1.961,0.137c0,2.238,0,4.479,0,6.719
						C102.414,179.838,104.375,179.561,104.375,178.664L104.375,178.664z"/>
				</g>
			</g>
			<g>
				<g>
					<path d="M137.449,170.062c0.055,0.279,0.109,0.557,0.166,0.834c0.643-0.172,1.287-0.344,1.932-0.518
						c-2.6-4.055-5.129-8.135-7.371-12.4c-0.52-0.99-5.529-11.957-5.449-12.035c-0.611,0.117-1.223,0.232-1.836,0.348
						c0,9.654,0,19.309,0,28.961c0,0.264,1.932,0.002,1.932-0.518c0-9.652,0-19.307,0-28.961c0-0.393-1.674,0.191-1.836,0.348
						c-0.035,0.035-0.072,0.07-0.109,0.105c-0.064,0.041-0.096,0.098-0.096,0.17c2.088,3.238,3.166,6.977,4.668,10.5
						c2.098,4.928,5.287,9.51,8.166,14c0.23,0.359,2.014-0.107,1.932-0.518c-0.057-0.277-0.111-0.555-0.166-0.834
						C139.309,169.182,137.363,169.635,137.449,170.062L137.449,170.062z"/>
				</g>
			</g>
		</g>
		<g>
			<g>
				<g>
					<path fill="#80D0DE" d="M81.559,103.084c3.599,7.451,14.828-1.77,10.738-8.03c-2.865-4.385-9.018-5.438-13.388-2.406
						c-5.184,3.598-7.446,10.413-4.295,16.264c5.681,10.551,21.362,7.99,27.171-0.932c3.404-5.229,3.277-12.628,0.818-18.165
						c-2.654-5.979-7.689-8.761-13.898-8.761c-0.797,0-2.029,1.209-0.721,1.209c0.104,0,0.209,0,0.314,0
						c0.797,0,2.028-1.209,0.721-1.209c-1.387,0-2.773,0-4.16,0c-0.797,0-2.029,1.209-0.721,1.209c0.344,0,0.689,0,1.033,0
						c0.797,0,2.029-1.209,0.721-1.209c-20.613,0-41.227,0-61.841,0c-0.797,0-2.028,1.209-0.721,1.209c20.614,0,41.228,0,61.841,0
						c0.797,0,2.029-1.209,0.721-1.209c-0.344,0-0.689,0-1.033,0c-0.797,0-2.029,1.209-0.721,1.209c1.387,0,2.773,0,4.16,0
						c0.797,0,2.028-1.209,0.721-1.209c-0.105,0-0.21,0-0.314,0c-0.797,0-2.029,1.209-0.721,1.209
						c17.9,0,19.545,29.033,2.139,32.111c-8.922,1.58-15.677-5.023-14.777-13.844c0.772-7.559,11.98-11.81,15.502-3.903
						c1.843,4.139-4.771,11.297-7.358,5.938C83.135,101.834,81.242,102.43,81.559,103.084L81.559,103.084z"/>
				</g>
			</g>
			<g>
				<g>
					<path fill="#80D0DE" d="M73.883,106.877c0,23.223,0,46.443,0,69.664c0,0.945,1.948,0.6,1.948-0.182c0-0.172,0-0.342,0-0.514
						c0-0.945-1.948-0.598-1.948,0.182c0,0.172,0,0.344,0,0.514c0,0.945,1.948,0.6,1.948-0.182c0-23.221,0-46.443,0-69.664
						C75.831,105.75,73.883,106.098,73.883,106.877L73.883,106.877z"/>
				</g>
			</g>
			<g>
				<g>
					<path fill="#80D0DE" d="M61.2,169.857c-0.609-2.404-0.068-5.639-0.073-8.096c-0.011-5.889,0.002-11.777,0.015-17.666
						c0.012-5.289,0.028-10.578,0.047-15.865c0.006-1.588,0.012-3.174,0.018-4.76c0.001-0.387,0.003-0.771,0.005-1.158
						c0.007-1.707,5.167-1.916,5.167,0.146c0,16.648,0,33.295,0,49.943c0,1.006,1.956,0.703,1.956-0.152c0-9.979,0-19.955,0-29.934
						c0-5.588,0-11.176,0-16.764c0-3.07-0.352-6.836-4.734-6.494c-2.777,0.219-4.341,2.463-4.351,4.936
						c-0.021,5.441-0.039,10.883-0.053,16.326c-0.018,6.664-0.032,13.328-0.027,19.994c0.002,3.064-0.664,7.055,0.099,10.061
						C59.492,171.26,61.425,170.746,61.2,169.857L61.2,169.857z"/>
				</g>
			</g>
			<g>
				<g>
					<path fill="#80D0DE" d="M47.204,159.213c-0.003-10.762,0.03-21.521,0.069-32.283c0.006-1.664-0.898-8.111,3.234-6.414
						c2.7,1.109,1.975,3.811,1.975,6.01c0,12.652,0,25.303,0,37.955c0,0.268,1.932,0.004,1.932-0.518c0-13.889,0-27.775,0-41.664
						c0-4.623-9.04-3.178-9.057,1.098c-0.048,12.111-0.089,24.223-0.084,36.334C45.272,159.998,47.204,159.734,47.204,159.213
						L47.204,159.213z"/>
				</g>
			</g>
			<g>
				<g>
					<path fill="#80D0DE" d="M33.327,142.643c0.016-6.684,0.038-13.367,0.064-20.051c0.01-2.461,5.171-1.713,5.171,0.789
						c0,1.666,0,3.33,0,4.996c0,7.914,0,15.828,0,23.744c0,0.99,1.954,0.676,1.954-0.16c0-9.795,0-19.588,0-29.381
						c0-4.66-6.163-3.656-8.229-1.494c-1.241,1.297-0.854,2.828-0.86,4.529c-0.022,5.73-0.04,11.459-0.054,17.188
						C31.371,143.791,33.325,143.479,33.327,142.643L33.327,142.643z"/>
				</g>
			</g>
			<g>
				<g>
					<path fill="#80D0DE" d="M22.084,91.654c-1.173,0.798,1.346,0.229,2.3,0.211c2.043-0.035,4.087-0.04,6.13-0.047
						c5.603-0.018,11.206,0.011,16.808,0.041c5.288,0.029,10.576,0.07,15.863,0.115c1.649,0.014,3.299,0.029,4.949,0.045
						c0.392,0.004,0.783,0.008,1.174,0.012c0.103,0.001,0.205,0.002,0.307,0.003c0.026,0.001,0.052,0.001,0.078,0.001
						c-1.138,0.284-0.88,1.255,0.775,2.912c-16.369,0-32.737,0-49.105,0c-0.665,0-2.077,1.008-0.775,1.008
						c9.838,0,19.677,0,29.516,0c5.561,0,11.122,0,16.682,0c2.367,0,6.756,0.074,5.043-3.879c-0.837-1.933-5.005-1.084-6.53-1.098
						c-6.063-0.055-12.126-0.1-18.189-0.133c-6.279-0.033-12.559-0.061-18.838-0.021c-2.046,0.013-5.874-0.671-7.718,0.584
						C19.68,92.002,21.632,91.96,22.084,91.654L22.084,91.654z"/>
				</g>
			</g>
			<g>
				<g>
					<path fill="#80D0DE" d="M21.952,99.943c-0.801,0.545,1.437,0.117,2.205,0.102c1.952-0.041,3.905-0.047,5.857-0.055
						c5.538-0.021,11.076,0.006,16.614,0.033c5.534,0.029,11.068,0.072,16.603,0.119c1.649,0.016,3.299,0.029,4.949,0.045
						c0.391,0.004,0.782,0.008,1.174,0.012c1.059,0.012,1.835,2.578,0.743,2.578c-16.342,0-32.684,0-49.026,0
						c-1.08,0-1.503,1.348-0.189,1.348c9.838,0,19.677,0,29.515,0c5.561,0,11.122,0,16.683,0c2.476,0,6.423-0.191,4.75-4.049
						c-0.917-2.118-4.854-1.251-6.575-1.267c-5.817-0.052-11.633-0.095-17.45-0.128c-6.37-0.037-12.74-0.064-19.11-0.031
						c-2.003,0.01-6.203-0.759-8.007,0.469C19.601,99.857,21.203,100.453,21.952,99.943L21.952,99.943z"/>
				</g>
			</g>
			<g>
				<g>
					<path fill="#80D0DE" d="M21.03,110.82c17.821,0,35.643,0,53.464,0c0.782,0,2.034-1.188,0.727-1.188
						c-17.821,0-35.643,0-53.464,0C20.974,109.633,19.722,110.82,21.03,110.82L21.03,110.82z"/>
				</g>
			</g>
		</g>
		<g>
			<g>
				<path fill="#E84444" d="M115.73,82.025c2.438,0.131,4.904,0.066,7.33-0.213c2.006-0.23,5.141-0.641,6.291-2.577
					c-0.639,0.144-1.279,0.286-1.918,0.43c0.264,1.126,0.525,2.252,0.789,3.378c0.186,0.795,0.527,1.156,0.215,1.303
					c-3.166,1.494-8.6-1.648-11.17-3.041c-0.494-0.268-2.057,0.529-1.82,0.656c3.742,2.027,10.811,5.47,14.941,2.139
					c0.064-0.047,0.096-0.107,0.092-0.185c-0.373-1.589-0.744-3.179-1.115-4.768c-0.115-0.487-1.746,0.139-1.918,0.43
					c-1.482,2.493-7.898,1.8-10.463,1.663C116.576,81.218,114.771,81.974,115.73,82.025z"/>
			</g>
		</g>
		<g>
			<g>
				<path fill="#7F7F7F" d="M102.781,21.063c0.512,2.19-0.871,4.99-1.816,6.92c-0.117,0.236,1.668,0.116,1.9-0.357
					c0.963-1.963,2.373-4.835,1.848-7.08C104.625,20.167,102.686,20.653,102.781,21.063L102.781,21.063z"/>
			</g>
		</g>
		<g>
			<g>
				<path fill="#7F7F7F" d="M99.266,31.032c-0.463,1.958-1.963,3.728-3.169,5.285c-0.763,0.985,1.056,1.392,1.636,0.642
					c1.397-1.805,2.963-3.784,3.498-6.047C101.465,29.914,99.48,30.121,99.266,31.032L99.266,31.032z"/>
			</g>
		</g>
		<g>
			<g>
				<path fill="#7F7F7F" d="M93.119,40.439c-0.16,0.753-0.694,1.429-1.139,2.038c-0.382,0.524-0.801,1.151-1.33,1.54
					c-0.326,0.239-0.213,0.548,0.162,0.607c0.469,0.074,0.99-0.09,1.366-0.366c0.63-0.461,1.126-1.177,1.587-1.794
					c0.496-0.668,1.101-1.464,1.277-2.295C95.184,39.515,93.248,39.837,93.119,40.439L93.119,40.439z"/>
			</g>
		</g>
		<g>
			<g>
				<path fill="#7F7F7F" d="M87.035,48.024c-1.258,1.625-2.638,3.353-3.409,5.273c-0.164,0.409,1.701,0.204,1.911-0.318
					c0.741-1.846,2.051-3.499,3.258-5.059C89.215,47.377,87.334,47.637,87.035,48.024L87.035,48.024z"/>
			</g>
		</g>
		<g>
			<g>
				<path fill="#7F7F7F" d="M81.006,56.583c-0.791,1.005-1.46,2.102-2.167,3.166c-0.264,0.397,0.223,0.644,0.549,0.664
					c0.46,0.028,1.004-0.156,1.268-0.553c0.707-1.064,1.377-2.161,2.167-3.166c0.302-0.383-0.255-0.646-0.55-0.664
					C81.783,56,81.307,56.199,81.006,56.583L81.006,56.583z"/>
			</g>
		</g>
		<g>
			<g>
				<path fill="#7F7F7F" d="M55.858,33.878c0.649,1.102,1.515,2.026,2.334,3c0.51,0.606,2.358-0.125,1.779-0.812
					c-0.819-0.974-1.685-1.898-2.334-3C57.245,32.401,55.384,33.073,55.858,33.878L55.858,33.878z"/>
			</g>
		</g>
		<g>
			<g>
				<path fill="#7F7F7F" d="M61.672,39.636c0.863,1.024,1.809,1.971,2.833,2.834c0.406,0.342,2.124-0.406,1.819-0.663
					c-1.024-0.863-1.971-1.809-2.833-2.834C63.18,38.603,61.364,39.27,61.672,39.636L61.672,39.636z"/>
			</g>
		</g>
		<g>
			<g>
				<path fill="#7F7F7F" d="M68.507,44.979c1.162,0.973,2.492,1.712,3.667,2.666c0.437,0.354,2.167-0.396,1.814-0.682
					c-1.175-0.954-2.505-1.693-3.667-2.666C69.893,43.938,68.153,44.683,68.507,44.979L68.507,44.979z"/>
			</g>
		</g>
		<g>
			<g>
				<path fill="#7F7F7F" d="M76.166,49.515c1.338,0.819,2.763,1.47,4.167,2.166c0.445,0.221,0.977,0.167,1.382-0.127
					c0.28-0.203,0.557-0.738,0.115-0.958c-1.404-0.696-2.829-1.347-4.167-2.166C76.97,48.006,75.255,48.958,76.166,49.515
					L76.166,49.515z"/>
			</g>
		</g>
		<g>
			<g>
				<path fill="#7F7F7F" d="M87.296,54.376c1.435,0.646,3.382,0.66,4.882,0.286c0.198-0.049,0.959-0.283,0.869-0.617
					c-0.09-0.338-0.862-0.149-1.061-0.099c-0.926,0.231-2.256,0.011-3.119-0.378C88.408,53.361,86.635,54.079,87.296,54.376
					L87.296,54.376z"/>
			</g>
		</g>
		<g>
			<g>
				<path fill="#7F7F7F" d="M98.193,52.312c0.773-0.751,1.831-1.61,2.928-1.785c0.371-0.059,0.994-0.232,1.094-0.67
					c0.098-0.431-0.576-0.482-0.841-0.44c-1.792,0.286-3.448,1.294-4.738,2.547c-0.292,0.284-0.22,0.622,0.191,0.713
					C97.271,52.777,97.863,52.632,98.193,52.312L98.193,52.312z"/>
			</g>
		</g>
		<g>
			<g>
				<path fill="#7F7F7F" d="M106.467,48.897c0.787,0.264,1.559,0.569,2.309,0.924c0.498,0.235,1.984,0.878,1.846,1.627
					c-0.115,0.62,1.814,0.28,1.92-0.287c0.164-0.885-0.852-1.459-1.502-1.822c-0.955-0.533-1.977-0.944-3.012-1.292
					c-0.43-0.144-0.977,0.002-1.359,0.211C106.463,48.371,106.031,48.75,106.467,48.897L106.467,48.897z"/>
			</g>
		</g>
		<g>
			<g>
				<path fill="#7F7F7F" d="M111.41,53.83c-1.473,0.513-1.9,2.23-2.416,3.542c-0.404,1.022,1.537,0.975,1.842,0.201
					c0.184-0.466,0.355-0.936,0.551-1.397c0.117-0.278,0.248-0.55,0.391-0.816c0.145-0.266,0.426-0.401-0.023-0.245
					c0.357-0.125,0.922-0.419,0.793-0.901C112.428,53.77,111.768,53.705,111.41,53.83L111.41,53.83z"/>
			</g>
		</g>
		<g>
			<g>
				<path fill="#7F7F7F" d="M106.406,60.65c-0.773,0.275-1.471,0.679-2.141,1.153c-0.439,0.311-1.023,0.695-1.162,1.245
					c-0.121,0.479,0.562,0.649,0.891,0.624c0.469-0.037,0.945-0.297,1.066-0.775c-0.082,0.323-0.191,0.338-0.049,0.189
					c-0.148,0.154,0.066-0.056,0.082-0.069c0.178-0.149,0.365-0.285,0.555-0.418c0.322-0.229,0.855-0.549,1.109-0.64
					c0.363-0.13,0.92-0.426,0.789-0.913C107.428,60.601,106.771,60.52,106.406,60.65L106.406,60.65z"/>
			</g>
		</g>
		<g>
			<g>
				<path fill="#7F7F7F" d="M103.281,76.897c0.383,1.109,0.977,2.026,1.883,2.776c0.613,0.507,2.334-0.382,1.502-1.07
					c-0.709-0.584-1.156-1.367-1.453-2.224C104.926,75.547,103.002,76.089,103.281,76.897L103.281,76.897z"/>
			</g>
		</g>
		<g>
			<g>
				<path fill="#7F7F7F" d="M107.643,82.425c0.93,0.461,1.943,0.86,2.705,1.584c0.475,0.449,2.289-0.277,1.799-0.742
					c-0.836-0.792-1.941-1.243-2.959-1.748c-0.4-0.199-1.01-0.02-1.365,0.19C107.561,81.863,107.236,82.224,107.643,82.425
					L107.643,82.425z"/>
			</g>
		</g>
		<g>
			<g>
				<path fill="#7F7F7F" d="M114.24,85.646c0.885,0.029,1.631,0.494,2.443,0.785c0.447,0.161,1.053-0.017,1.365-0.365
					c0.305-0.338,0.178-0.741-0.238-0.889c-0.963-0.346-1.836-0.844-2.887-0.879c-0.463-0.016-1.031,0.129-1.262,0.58
					C113.455,85.287,113.842,85.632,114.24,85.646L114.24,85.646z"/>
			</g>
		</g>
		<g>
			<g>
				<path fill="#7F7F7F" d="M124.615,93.397c0.486,0.981,0.926,1.984,1.334,3c0.238,0.595,2.139-0.002,1.932-0.518
					c-0.408-1.016-0.848-2.019-1.334-3C126.254,92.287,124.385,92.93,124.615,93.397L124.615,93.397z"/>
			</g>
		</g>
		<g>
			<g>
				<path fill="#7F7F7F" d="M126.27,99.881c-0.008,0.906-0.102,1.812-0.166,2.717c-0.033,0.486-0.252,1.424,0.232,1.758
					c0.689,0.477,2.393-0.48,1.492-1.102c0.311,0.215,0.188,0.285,0.184,0.211c-0.002-0.123,0.004-0.244,0.01-0.367
					c0.012-0.342,0.041-0.686,0.064-1.027c0.057-0.779,0.131-1.561,0.139-2.344C128.234,98.726,126.277,99.029,126.27,99.881
					L126.27,99.881z"/>
			</g>
		</g>
		<g>
			<g>
				<path fill="#7F7F7F" d="M31.616,65.731c0.703,1.035,1.569,1.887,2.722,2.402c0.374,0.167,0.882,0.022,1.245-0.109
					c0.051-0.018,0.898-0.405,0.576-0.549c-1.094-0.49-1.941-1.276-2.61-2.262C33.223,64.735,31.461,65.503,31.616,65.731
					L31.616,65.731z"/>
			</g>
		</g>
		<g>
			<g>
				<path fill="#7F7F7F" d="M37.119,69.504c1.431,0.359,2.593,1.291,3.885,1.958c0.346,0.179,0.906-0.003,1.241-0.122
					c0.058-0.021,0.884-0.371,0.582-0.527c-1.372-0.709-2.594-1.659-4.115-2.042c-0.417-0.104-0.975,0.082-1.349,0.253
					C37.203,69.099,36.699,69.398,37.119,69.504L37.119,69.504z"/>
			</g>
		</g>
		<g>
			<g>
				<path fill="#7F7F7F" d="M44.651,72.96c1.07,0.556,2.005,1.327,3,2c0.562,0.381,2.335-0.428,1.526-0.976
					c-0.995-0.674-1.93-1.445-3-2c-0.414-0.215-1.001-0.071-1.372,0.166C44.531,72.327,44.237,72.745,44.651,72.96L44.651,72.96z"/>
			</g>
		</g>
		<g>
			<g>
				<path fill="#7F7F7F" d="M51.954,75.677c1.11,0.217,2.106,0.797,3.167,1.168c0.39,0.137,1.001-0.084,1.35-0.248
					c0.194-0.092,0.635-0.359,0.238-0.498c-1.062-0.371-2.054-0.949-3.167-1.168c-0.438-0.085-0.956,0.063-1.35,0.248
					C52.048,75.247,51.514,75.591,51.954,75.677L51.954,75.677z"/>
			</g>
		</g>
		<g>
			<g>
				<path fill="#7F7F7F" d="M59.337,78.299c1.217,0.505,2.48,0.846,3.783,1.044c0.449,0.068,0.944-0.061,1.35-0.25
					c0.128-0.06,0.688-0.424,0.239-0.492c-1.217-0.185-2.412-0.483-3.551-0.956c-0.379-0.157-0.876-0.017-1.243,0.114
					C59.871,77.775,59.017,78.167,59.337,78.299L59.337,78.299z"/>
			</g>
		</g>
		<g>
			<g>
				<path fill="#7F7F7F" d="M97.502,129.189c0.937,0.496,1.445,1.342,1.613,2.373c0.145,0.879,2.081,0.393,1.932-0.518
					c-0.203-1.246-0.926-2.359-2.053-2.957c-0.44-0.234-0.982-0.178-1.385,0.121C97.32,128.422,97.065,128.959,97.502,129.189
					L97.502,129.189z"/>
			</g>
		</g>
		<g>
			<g>
				<path fill="#7F7F7F" d="M99.443,135.238c0.012,1.027,0.139,2.027,0.506,2.992c0.292,0.771,2.209,0.211,1.932-0.518
					c-0.326-0.855-0.484-1.758-0.494-2.674C101.375,134.127,99.434,134.5,99.443,135.238L99.443,135.238z"/>
			</g>
		</g>
		<g>
			<g>
				<path fill="#7F7F7F" d="M132.359,166.367c0.027,0.018,0.053,0.033,0.08,0.049c0.021,0.074,0.041,0.15,0.061,0.225
					c0-0.002,0-0.004,0.002-0.006c-0.451,0.211-0.902,0.422-1.352,0.631c-0.186-0.018-0.23-0.02-0.135-0.004
					c0.17,0.031-0.162-0.045,0.072,0.018c0.18,0.049,0.359,0.104,0.537,0.16c0.283,0.088,0.576,0.174,0.846,0.301
					c0.396,0.186,1.008-0.004,1.361-0.203c0.248-0.139,0.598-0.48,0.193-0.67c-0.33-0.152-0.689-0.254-1.037-0.359
					c-0.328-0.1-0.709-0.258-1.059-0.23c-0.344,0.027-1.281,0.158-1.352,0.633c0,0.002,0,0.004,0,0.006
					c-0.027,0.086-0.006,0.16,0.059,0.223c0.053,0.041,0.111,0.07,0.168,0.102C131.299,167.51,133.09,166.766,132.359,166.367
					L132.359,166.367z"/>
			</g>
		</g>
		<g>
			<g>
				<path fill="#7F7F7F" d="M171.486,65.845c-0.83,1.643-1.77,3.238-2.332,5c-0.348,1.09,1.58,1.114,1.855,0.254
					c0.562-1.762,1.502-3.357,2.332-5C173.85,65.097,171.891,65.046,171.486,65.845L171.486,65.845z"/>
			</g>
		</g>
		<g>
			<g>
				<path fill="#7F7F7F" d="M166.627,74.305c-0.467,1.459-1.639,2.572-2.166,4c-0.141,0.381,1.721,0.17,1.908-0.332
					c0.527-1.43,1.697-2.541,2.166-4C168.666,73.566,166.789,73.804,166.627,74.305L166.627,74.305z"/>
			</g>
		</g>
		<g>
			<g>
				<path fill="#7F7F7F" d="M162.365,81.351c-1.168,1.041-1.941,2.401-2.832,3.668c-0.412,0.586,1.477,0.312,1.764-0.094
					c0.891-1.266,1.664-2.627,2.832-3.668c0.348-0.309-0.301-0.396-0.475-0.387C163.199,80.894,162.711,81.044,162.365,81.351
					L162.365,81.351z"/>
			</g>
		</g>
		<g>
			<g>
				<path fill="#E84444" d="M127,58.231c-3.543-1.582-7.852-2.683-11.682-1.662c-9.709,2.589-1.51,18.089,0.863,22.89
					c0.332,0.671,1.713,0.182,1.932-0.379c0.467-1.193,1.057-2.325,1.697-3.433c2.088-3.61,5.516-2.94,6.705,0.874
					c0.883,2.827,1.66,5.692,2.146,8.616c0.369,2.227-9.816,3.695-11.139,3.762c-0.434,0.021-2.109,0.809-0.967,1.078
					c6.262,1.477,14.168,2.779,20.184-0.126c0.303-0.147,0.734-0.399,0.514-0.78c-5.357-9.219-8.117-20.268-10.057-30.63
					c-0.125-0.67-2.064-0.196-1.932,0.518c1.871,9.999,4.66,19.937,9.225,29.063c0.279,0.559,0.57,1.109,0.881,1.651
					c0.021,0.039-6.334,0.667-7.396,0.648c-3.42-0.06-6.906-0.614-10.236-1.399c-0.322,0.359-0.643,0.719-0.965,1.078
					c4.762-0.235,9.326-1.721,13.559-3.886c0.203-0.104,0.393-0.31,0.365-0.549c-0.438-3.989-1.549-14.06-7.143-14.292
					c-3.811-0.159-6.252,5.173-7.373,8.046c0.645-0.126,1.289-0.253,1.932-0.379c-1.855-3.753-10.203-19.353-2.111-21.51
					c2.938-0.784,6.771,0.537,9.461,1.738C126.041,59.428,127.809,58.593,127,58.231z"/>
			</g>
		</g>
		<circle fill="none" stroke="#7F7F7F" stroke-width="3" stroke-miterlimit="10" cx="100.939" cy="100.561" r="80.125"/>
	</g>
</g>
</svg>
