<?xml version="1.0" encoding="utf-8"?>
<!-- Generator: Adobe Illustrator 15.0.0, SVG Export Plug-In . SVG Version: 6.00 Build 0)  -->
<!DOCTYPE svg PUBLIC "-//W3C//DTD SVG 1.1//EN" "http://www.w3.org/Graphics/SVG/1.1/DTD/svg11.dtd">
<svg version="1.1" id="Layer_1" xmlns="http://www.w3.org/2000/svg" xmlns:xlink="http://www.w3.org/1999/xlink" x="0px" y="0px"
	 width="198.43px" height="198.43px" viewBox="0 0 198.43 198.43" enable-background="new 0 0 198.43 198.43" xml:space="preserve">
<g>
	<circle fill="#FAAB54" cx="100.165" cy="99.639" r="80.125"/>
	<g>
		<path fill="#FFFFFF" d="M100.138,36.136c-19.568,0-35.431,15.863-35.431,35.431c0,13.131,7.146,24.588,17.759,30.707l-0.299-0.004
			c5.167,1.5,1.5,11.666,5.333,14c5.5,3.334,16.335,3.334,22.501,2.334c1.666-0.168,4-0.5,5.166-1.834
			c1.334-1.666,0.5-2.5,0.334-4.5c-0.318-2.709-0.172-6.475,0.717-9.131c0.152-0.074,0.303-0.148,0.445-0.223
			c11.242-5.939,18.906-17.748,18.906-31.35C135.569,51.999,119.706,36.136,100.138,36.136z"/>
	</g>
	<g>
		<g>
			<path fill="#FFFFFF" d="M83.76,114.217c-2.523,3.969-0.962,8.682,2.542,11.492c4.89,3.924,15.164,2.111,20.855,2.059
				c4.806-0.043,7.77-1.908,10.166-6.027c1.688-2.902,3.714-7.348-0.699-8.396c-0.877-0.209-3.412,1.135-1.789,1.52
				c3.316,0.789,0.694,5.152-0.199,6.854c-2.715,5.172-8.574,4.518-13.553,4.598c-4.188,0.066-9.545,0.318-12.981-2.439
				c-2.771-2.223-3.521-6.697-1.654-9.635C87.15,113.135,84.245,113.455,83.76,114.217L83.76,114.217z"/>
		</g>
	</g>
	<g>
		<g>
			<path fill="#FFFFFF" d="M88.473,132.398c-7.461,2.461-12.241,12.053-12.209,19.451c0.006,1.412,2.039,0.885,2.67,0.279
				c2.586-2.475,5.191-4.406,8.676-5.445c-0.402-0.527-0.806-1.055-1.208-1.584c-3.351,2.598-4.621,8.018-2.684,11.885
				c1.538,3.068,4.01,4.396,7.018,5.855c5.724,2.773,6.144,6.689,7.169,12.277c0.099,0.537,0.874,0.688,1.311,0.637
				c11.777-1.371,19.269-15.797,16.589-26.414c-0.857,0.402-1.714,0.805-2.571,1.207c3.001,1.887,5.726,4.023,8.375,6.375
				c0.646,0.572,2.188,0.078,2.502-0.672c3.42-8.16-0.628-22.641-10.869-23.916c-1.381-0.172-2.978,1.797-1.021,2.041
				c3.719,0.463,6.284,4.252,8.117,7.16c2.682,4.256,2.928,9.852,1.014,14.422c0.834-0.223,1.668-0.447,2.502-0.67
				c-2.65-2.352-5.375-4.488-8.375-6.375c-0.771-0.484-2.879-0.016-2.571,1.205c1.339,5.303,0.605,10.74-2.537,15.305
				c-2.356,3.424-6.552,7.781-10.876,8.283c0.437,0.211,0.873,0.424,1.311,0.635c-1.044-5.682-1.298-8.947-6.462-12.373
				c-2.64-1.75-5.419-2.395-7.386-5.084c-2.057-2.812-1.377-8.41,1.351-10.525c1.216-0.943-0.077-1.92-1.208-1.584
				c-4.194,1.252-7.434,3.549-10.574,6.555c0.89,0.094,1.78,0.188,2.67,0.281c-0.025-5.871,3.535-15.238,9.791-17.301
				C90.718,133.736,90.238,131.816,88.473,132.398L88.473,132.398z"/>
		</g>
	</g>
	<g>
		<g>
			<path fill="#FFFFFF" d="M153.131,95.426c1.334,3.38,6.694-2.2,7.051-3.892c1.088-5.169-7.28-4.102-9.728-2.814
				c-5.431,2.856-7.421,10.674-3.573,15.625c3.854,4.963,11.472,2.5,15.837-0.201c5.717-3.537,8.812-11.019,7.429-17.505
				c-1.623-7.615-10.022-9.403-16.556-8.471c-14.717,2.103-24.721,21.906-17.335,34.839c0.408,0.715,3.173-0.393,2.947-0.789
				c-3.985-6.979-2.589-14.97,0.849-21.887c1.864-3.752,4.695-7.117,8.237-9.363c6.258-3.969,14.398-1.955,18.037,4.199
				c4.737,8.012-4.13,24.366-14.432,20.018c-4.125-1.74-4.431-6.907-3.618-10.573c0.641-2.887,3.271-6.982,7.258-5.492
				c0.8,0.397,1.322,1.051,1.568,1.961c0.646,1.533-1.335,2.768-1.024,3.556C155.807,93.95,152.92,94.893,153.131,95.426
				L153.131,95.426z"/>
		</g>
	</g>
	<g>
		<g>
			<path fill="#FFFFFF" d="M56.952,140.744c3.677,3.664,8.538,0.598,10.463-3.316c2.597-5.279-2.413-11.871-8.267-9.932
				c-5.396,1.787-10.82,8.492-10.063,14.479c0.878,6.943,8.001,9.965,14.378,8.49c7.258-1.68,13.35-7.846,15.944-14.674
				c3.335-8.777-1.662-15.568-9.895-18.033c-19.627-5.877-35.272,14.66-33.027,32.857c0.14,1.133,3.194,0.426,3.041-0.814
				c-1.494-12.111,4.975-26.273,17.041-30.471c5.22-1.816,11.715-0.348,16.327,2.471c4.97,3.037,4.905,9.402,3.461,14.328
				c-1.567,5.344-7.034,10.721-12.278,12.404c-5.071,1.629-10.486-1.111-11.803-6.201c-1.069-4.129,2.056-8.996,4.836-11.705
				c3.862-3.762,7.377,0.123,7.968,3.447c0.413,2.324-2.161,8.578-5.313,5.436C58.945,138.695,56.061,139.855,56.952,140.744
				L56.952,140.744z"/>
		</g>
	</g>
	<g>
		<g>
			<path fill="#FFFFFF" d="M44.033,104.289c5.269-0.393,6.535,4.549,5.368,8.443c-1.437,4.793-7.791,4.387-10.416,1.023
				c-1.214-1.555-1.612-3.738-1.877-5.633c-0.886-6.332,3.569-11.951,9.094-14.334c14.083-6.079,25.095,12.29,16.801,23.655
				c-0.784,1.076,2.14,0.84,2.701,0.07c5.728-7.85,2.756-22.385-7.028-25.569c-7.69-2.503-16.48,0.276-21.524,6.53
				c-5.388,6.681-3.251,22.007,7.801,19.583c9.626-2.111,10.638-16.225-0.528-15.391C42.99,102.775,42.025,104.439,44.033,104.289
				L44.033,104.289z"/>
		</g>
	</g>
	<g>
		<path fill="#FFFFFF" d="M94.979,118.479c0-10.5-0.375-20.875-0.625-31.375c-0.125-4-0.875-17.125-8.125-12
			c-2.875,2-3.375,6.75-0.25,8.625c2.25,1.375,5.875,1,8.375,1c5.25,0,13.501,1.25,18.251-1.25c3.25-1.625,4.5-6.75,1.125-8.875
			c-3.875-2.625-7-0.125-7.75,4c-1.75,10.75-0.625,22.625-0.375,33.5c0.125,1.125,0.25,6.625,0.125,6.75"/>
		<g>
			<path fill="#FAAB54" d="M96.431,118.309c-0.023-10.719-0.268-21.452-0.648-32.164c-0.142-3.975-0.279-10.865-4.539-12.799
				c-4.233-1.922-8.637,3.115-8.845,6.844c-0.414,7.426,12.743,5.404,16.91,5.605c5.645,0.272,13.307,0.705,16.965-4.497
				c3.601-5.121-2.589-9.521-7.329-8.23c-7.182,1.954-5.399,16.235-5.366,21.515c0.029,4.816,0.294,9.632,0.474,14.445
				c0.119,3.188,0.682,6.834,0.226,9.998c-0.173,1.199,2.755,0.691,2.904-0.342c0.319-2.219,0.047-4.748-0.128-6.969
				c-0.503-6.363-0.544-12.881-0.584-19.263c-0.019-2.955,0.115-5.904,0.333-8.851c0.097-1.157,0.222-2.311,0.375-3.461
				c0.244-2.018,1.061-8.371,6.086-4.237c4.402,3.622-2.793,7.729-5.661,8.123c-2.836,0.389-5.813,0.121-8.661-0.016
				c-4.783-0.23-16.772,1.008-12.909-7.176c2.538-5.375,5.043,0.017,5.621,1.651c0.509,1.438,0.717,2.994,0.922,4.499
				c1.578,11.598,0.926,23.988,0.951,35.666C93.529,119.914,96.433,119.309,96.431,118.309L96.431,118.309z"/>
		</g>
	</g>
	<g>
		<g>
			<path fill="#FFFFFF" d="M77.622,139.09c0.136-0.082,0.131-0.092-0.016-0.031c0.315-0.037,0.631,0.004,0.944,0.035
				c0.549,0.055,1.1,0.256,1.613,0.445c0.709,0.264,1.81-0.121,2.441-0.43c0.369-0.182,1.137-0.695,0.412-0.965
				c-2.642-0.98-5.684-0.717-8.083,0.783c-0.579,0.363-0.437,0.783,0.221,0.822C75.991,139.801,76.916,139.531,77.622,139.09
				L77.622,139.09z"/>
		</g>
	</g>
	<g>
		<g>
			<path fill="#FFFFFF" d="M83.993,123.781c-1.743,3.822,0.939,9.309,4.678,10.889c2.074,0.875,4.644,0.631,6.835,0.771
				c3.084,0.197,6.134,0.508,9.229,0.482c3.17-0.027,7.833-0.508,9.881-3.357c1.641-2.281,4.384-7.297,1.13-9.33
				c-0.886-0.553-3.534,0.703-2.283,1.484c2.248,1.404-0.173,5.521-1.079,7.021c-1.898,3.146-7.571,2.459-10.706,2.303
				c-2.492-0.125-4.97-0.416-7.464-0.506c-2.424-0.088-4.367-0.359-5.896-2.398c-1.312-1.75-2.578-5.08-1.604-7.215
				C87.334,122.566,84.427,122.832,83.993,123.781L83.993,123.781z"/>
		</g>
	</g>
	<g>
		<path fill="#FFFFFF" d="M97.979,134.979c-3.25,2.625-6.5,7.625-3.5,11.5c1.625,2.125,4.25,3.5,5.625,5.875c1,1.625,1,3.5,1,5.375
			c3.501-3.125,6.126-6.375,7.001-11.125c0.5-3.5,0.25-8.875-2.75-11.125"/>
		<g>
			<path fill="#FFFFFF" d="M96.843,134.838c-2.909,2.57-5.173,5.557-4.913,9.598c0.145,2.25,2.591,4.096,4.1,5.418
				c2.698,2.365,3.586,4.764,3.625,8.264c0.009,0.805,2.319-0.002,2.585-0.248c5.66-5.215,11.761-16.252,4.471-22.92
				c-0.657-0.602-3.338,0.486-2.711,1.061c6.746,6.17,1.261,16.703-4.031,21.578c0.861-0.082,1.723-0.164,2.585-0.248
				c-0.043-3.83-1.006-5.979-3.812-8.547c-1.686-1.543-3.214-2.861-3.913-5.135c-0.977-3.176,2.183-6.682,4.287-8.539
				C100.308,134.066,97.427,134.322,96.843,134.838L96.843,134.838z"/>
		</g>
	</g>
	<g>
		<g>
			<path fill="#FFFFFF" d="M137.271,133.295c2.351-0.061,1.266,3.645,0.877,4.539c-1.709,3.934-4.58-0.934-4.985-1.877
				c-0.409-0.951-0.43-2.053-0.469-3.066c-0.289-7.43,8.325-9.381,13.176-4.977c4.124,3.746,3.315,10.643,1.441,15.203
				c-3.17,7.717-15.357,12.158-21.914,6.051c-0.589-0.549-3.246,0.547-2.746,1.014c6.657,6.201,20.555,2.613,25.478-4.166
				c6.126-8.436,4.097-23.352-8.728-22.055c-3.064,0.309-6.514,2.037-8.099,4.762c-1.777,3.053-2.75,9.5,1.557,11.189
				c2.436,0.955,6.138,0.568,7.71-1.855c1.658-2.559,1.594-6.096-2.05-6.002C137.705,132.076,135.33,133.344,137.271,133.295
				L137.271,133.295z"/>
		</g>
	</g>
	<g>
		<g>
			<path fill="#FFFFFF" d="M119.548,134.85c2.072-6.094,3.41-10.975,8.127-15.693c6.868-6.873,16.256-7.844,23.538-1.207
				c4.305,3.922,6.689,8.854,7.263,14.613c0.753,7.561-3.077,14.174-6.578,20.535c-0.712,1.295,2.215,1.074,2.723,0.152
				c4.359-7.92,7.896-15.193,6.358-24.461c-1.104-6.652-7.186-14.42-13.733-16.432c-6.852-2.105-13.766-0.25-19.406,3.975
				c-6.689,5.012-8.654,11.344-11.201,18.834C116.259,136.279,119.188,135.906,119.548,134.85L119.548,134.85z"/>
		</g>
	</g>
	<g>
		<g>
			<path fill="#FFFFFF" d="M24.528,77.132c10.536-8.011,21.087,1.384,17.516,12.674c-1.419,4.482-5,6.393-9.318,4.334
				c-2.587-1.234-4.507-3.462-4.331-6.434c0.157-2.66,3.244-3.612,5.456-2.669c1.161,0.495,0.703,2.659,0.052,2.092
				c-0.823-0.718-3.622,0.445-2.77,1.188c1.991,1.736,5.065,0.869,6.249-1.42c1.973-3.812-4.458-4.195-6.538-3.877
				c-3.758,0.574-6.036,3.752-5.278,7.44c0.857,4.17,6.359,6.51,10.181,6.463c7.899-0.099,11.052-9.077,9.721-15.676
				c-2.321-11.502-16.039-10.212-23.349-4.654C20.748,77.635,23.742,77.73,24.528,77.132L24.528,77.132z"/>
		</g>
	</g>
	<g>
		<g>
			<path fill="#FFFFFF" d="M165.771,101.76c5.476,1.156,9.853,5.99,12.005,10.961c0.598,1.381,3.607,0.514,3.033-0.812
				c-2.564-5.924-7.54-11.041-14.001-12.405C165.284,99.181,163.76,101.334,165.771,101.76L165.771,101.76z"/>
		</g>
	</g>
</g>
</svg>
