<?xml version="1.0" encoding="utf-8"?>
<!-- Generator: Adobe Illustrator 15.0.0, SVG Export Plug-In . SVG Version: 6.00 Build 0)  -->
<!DOCTYPE svg PUBLIC "-//W3C//DTD SVG 1.1//EN" "http://www.w3.org/Graphics/SVG/1.1/DTD/svg11.dtd">
<svg version="1.1" id="Layer_1" xmlns="http://www.w3.org/2000/svg" xmlns:xlink="http://www.w3.org/1999/xlink" x="0px" y="0px"
	 width="198.43px" height="198.43px" viewBox="0 0 198.43 198.43" enable-background="new 0 0 198.43 198.43" xml:space="preserve">
<g>
	<circle fill="#FFFFFF" cx="100.534" cy="99.023" r="80.125"/>
	<g>
		<g>
			<path fill="#80D0DE" d="M23.872,88.542c-1.841-7.523,4.086-14.78,11.005-17.041c6.457-2.109,11.951,2.42,13.004,8.579
				c0.724,4.238-1.004,11.2-6.056,11.868c-3.415,0.452-7.285-2.43-8.222-5.563c-0.948-3.173,2.173-5.137,5.089-4.449
				c1.587,0.373,1.295,2.961,0.101,1.92c-0.948-0.826-3.492,0.559-2.24,1.65c2.299,2.004,6.006,0.236,6.221-2.726
				c0.343-4.735-8.118-3.008-10.189-1.461c-4.718,3.525-0.688,9.313,3.052,11.373c3.711,2.045,8.153,1.754,11.336-1.082
				c7.137-6.361,4.36-18.633-4.1-21.995c-11.043-4.389-24.59,8.702-21.898,19.704C21.296,90.637,24.196,89.871,23.872,88.542
				L23.872,88.542z"/>
		</g>
	</g>
	<g>
		<g>
			<path fill="#80D0DE" d="M100.534,18.155c-32.607,0.296-62.03,19.761-74.903,49.757c-0.562,1.309,1.338,2.465,1.943,1.135
				c0.497-1.092,1.012-2.178,1.478-3.284c0.494-1.174-1.522-2.017-2.056-0.866c-13.144,28.36-8.837,61.537,10.603,85.875
				c0.586,0.732,2.044,0.152,1.921-0.795c-1.533-11.826,4.375-24.252,15.137-29.736c5.344-2.725,11.857-1.893,17.188,0.375
				c7.223,3.074,7.199,11.207,4.18,17.395c-0.396,0.812,0.261,2.004,1.271,1.652c1.457-0.625,2.912-0.615,4.366,0.029
				c1.393,0.42,1.983-1.752,0.598-2.17c-5.682-1.711-6.081,1.139-9.521,4.922c-4.318,4.752-10.712,7.83-16.873,4.787
				c-6.604-3.262-3.165-11.527,0.389-15.584c2.844-3.244,7.82-3.561,9.464,1.152c1.039,2.98-2.652,9.828-6.194,6.297
				c-1.029-1.023-2.62,0.566-1.592,1.592c4.972,4.955,10.305-2.189,10.161-7.256c-0.095-3.391-3.062-5.918-6.165-6.551
				c-3.172-0.646-6.409,1.91-8.183,4.25c-4.546,5.998-5.931,14.627,1.91,18.5c8.72,4.307,18.108-3.391,22.312-10.486
				c0.584-0.986-0.566-2.084-1.539-1.539c-0.116,0.066-0.232,0.131-0.349,0.195c-1.266,0.709-0.132,2.654,1.135,1.943
				c3.33-1.865,3.232-9.18,2.836-12.326c-0.519-4.113-3.563-6.961-7.071-8.746c-9.199-4.68-19.495-2.098-26.633,4.822
				c-3.787,3.672-6.415,8.564-8.049,13.527c-1.397,4.246-2.791,11.23,0.249,14.893c7.677,9.246,17.628,16.496,28.496,21.527
				c42.168,19.523,92.493-2.367,109.331-44.871c1.344-3.395,2.364-6.908,3.23-10.451c0.458-1.875,2.005-5.854,1.181-7.688
				c-2.616-5.818-7.362-10.728-13.693-12.244c-1.41-0.338-2.009,1.832-0.598,2.169c5.816,1.393,9.96,5.898,12.348,11.209
				c0.521,1.158,1.97,0.389,2.097-0.566c3.215-24.125-4.034-48.038-20.244-66.204C145.488,27.755,123.227,18.351,100.534,18.155
				c-1.451-0.013-1.45,2.237,0,2.25c22.406,0.193,43.385,9.511,58.569,25.982c16.03,17.388,22.682,41.375,19.585,64.613
				c0.699-0.189,1.397-0.379,2.097-0.568c-2.616-5.818-7.362-10.728-13.693-12.244c-1.41-0.338-2.009,1.832-0.598,2.169
				c4.091,0.98,12.839,6.414,12.022,11.723c-0.769,4.99-2.138,9.871-3.834,14.619c-3.401,9.527-8.911,18.246-15.629,25.768
				c-13.815,15.469-33.634,24.557-54.228,25.826c-23.155,1.426-45.739-8.055-61.721-24.652c-2.11-2.191-3.735-3.885-3.883-7.068
				c-0.14-3.018,0.458-6.059,1.245-8.953c1.742-6.406,6.282-12.314,11.711-16.014c5.374-3.662,11.688-3.551,17.674-1.76
				c2.756,0.826,5.158,2.371,6.817,4.742c1.223,1.748,1.293,3.939,1.352,5.973c0.031,1.102-0.617,6.498-1.941,7.24
				c-1.266,0.709-0.132,2.654,1.135,1.943c0.116-0.064,0.232-0.131,0.349-0.195c-0.513-0.514-1.025-1.025-1.539-1.539
				c-2.783,4.697-7.27,9.033-12.717,10.293c-5.366,1.242-11.177-1.984-11.213-7.811c-0.028-4.418,3.821-9.936,7.947-11.305
				c4.141-1.371,6.297,3.578,5.551,6.746c-0.582,2.469-3.483,5.74-6.069,3.162c-1.029-1.023-2.62,0.566-1.592,1.592
				c4.972,4.955,10.305-2.189,10.161-7.256c-0.095-3.391-3.062-5.918-6.165-6.551c-3.172-0.646-6.409,1.91-8.183,4.25
				c-4.312,5.689-6.25,15.438,2.179,18.613c3.572,1.346,7.899,1.451,11.354-0.385c2.196-1.168,4.127-2.658,5.993-4.291
				c2.778-2.428,4.027-6.691,8.391-5.377c1.393,0.42,1.983-1.752,0.598-2.17c-1.953-0.588-3.619-0.705-5.562-0.029
				c0.423,0.551,0.847,1.102,1.271,1.652c2.809-5.756,3.56-12.648-0.941-17.705c-3.977-4.469-12.012-5.582-17.564-4.945
				c-15.064,1.729-23.962,19.832-22.192,33.482c0.641-0.266,1.28-0.531,1.921-0.797c-18.756-23.479-22.93-55.792-10.252-83.147
				c-0.686-0.289-1.371-0.578-2.057-0.867c-0.389,0.924-0.836,1.835-1.251,2.747c0.647,0.378,1.296,0.757,1.943,1.135
				c12.569-29.289,41.071-48.352,72.96-48.642C101.984,20.392,101.985,18.142,100.534,18.155z"/>
			<path fill="#80D0DE" d="M65.694,117.812c5.783-7.926,2.829-21.745-6.162-25.961c-7.136-3.347-17.102-0.52-21.633,5.858
				c-4.961,6.982-3.953,21.47,7.226,20.507c10.05-0.867,10.216-16.898-0.527-16.096c-1.438,0.107-1.448,2.357,0,2.25
				c6.29-0.471,7.943,6.99,3.309,10.527c-5.894,4.498-10.555-2.516-10.809-7.777c-0.278-5.787,3.728-10.427,8.638-12.841
				c4.703-2.312,10.543-2.047,14.933,0.767c6.435,4.124,7.269,15.895,3.083,21.631C62.895,117.852,64.848,118.973,65.694,117.812
				c5.783-7.926,2.829-21.745-6.162-25.961c-7.136-3.347-17.102-0.52-21.633,5.858c-4.961,6.982-3.953,21.47,7.226,20.507
				c10.05-0.867,10.216-16.898-0.527-16.096c-1.438,0.107-1.448,2.357,0,2.25c6.29-0.471,7.943,6.99,3.309,10.527
				c-5.894,4.498-10.555-2.516-10.809-7.777c-0.278-5.787,3.728-10.427,8.638-12.841c4.703-2.312,10.543-2.047,14.933,0.767
				c6.435,4.124,7.269,15.895,3.083,21.631C62.895,117.852,64.848,118.973,65.694,117.812z"/>
			<path fill="#80D0DE" d="M141.688,149.021c-5.054,1.982-11.934,3.873-16.5-0.377c-1.061-0.986-2.655,0.602-1.592,1.592
				c8.114,7.549,22.101,1.674,26.498-7.033c4.356-8.623,0.007-21.088-10.947-19.982c-7.736,0.781-12.159,12.094-5.293,16.844
				c6.444,4.461,11.309-8.928,4.41-8.748c-1.448,0.037-1.452,2.287,0,2.25c2.567-0.066-0.985,8.953-4.826,2.9
				c-1.19-1.875-0.828-4.73,0.046-6.627c1.993-4.326,6.982-5.357,11.03-3.545c9.942,4.451,3.978,19.086-3.095,22.84
				c-1.282,0.682-0.146,2.623,1.135,1.943c7.113-3.775,12.129-14.088,7.915-21.781c-3.6-6.57-12.11-8.316-17.465-2.764
				c-4.128,4.281-3.239,14.99,4.354,14.084c4.543-0.541,6.475-9.445,0.906-9.301c-1.448,0.037-1.452,2.287,0,2.25
				c1.356,0.82,1.598,1.893,0.724,3.219c-1.989,4.582-5.562,0.002-6.105-1.957c-0.775-2.807,0.586-5.535,2.474-7.492
				c4.371-4.535,11.491-0.996,13.497,3.904c5.107,12.477-13.489,26.873-23.665,17.404c-1.061-0.986-2.655,0.602-1.592,1.592
				c5.256,4.889,12.759,3.281,18.689,0.955C143.621,150.668,143.041,148.492,141.688,149.021z"/>
			<path fill="#80D0DE" d="M154.599,153.508c4.012-7.289,8.061-14.764,6.627-23.4c-1.229-7.41-5.963-13.926-12.575-17.541
				c-6.46-3.531-14.608-1.039-20.091,3.068c-6.679,5.006-8.639,11.361-11.184,18.84c-0.469,1.377,1.705,1.963,2.17,0.598
				c2.071-6.09,3.399-10.939,8.114-15.656c5.612-5.615,13.888-8.17,21.152-4.197c5.949,3.252,9.709,10.215,10.356,16.723
				c0.753,7.559-3.012,14.068-6.514,20.432C151.956,153.645,153.898,154.779,154.599,153.508c4.012-7.289,8.061-14.764,6.627-23.4
				c-1.229-7.41-5.963-13.926-12.575-17.541c-6.46-3.531-14.608-1.039-20.091,3.068c-6.679,5.006-8.639,11.361-11.184,18.84
				c-0.469,1.377,1.705,1.963,2.17,0.598c2.071-6.09,3.399-10.939,8.114-15.656c5.612-5.615,13.888-8.17,21.152-4.197
				c5.949,3.252,9.709,10.215,10.356,16.723c0.753,7.559-3.012,14.068-6.514,20.432
				C151.956,153.645,153.898,154.779,154.599,153.508z"/>
			<path fill="#80D0DE" d="M160.405,103.521c-7.066,3.623-13.962-0.311-12.128-8.58c0.559-2.518,2.202-4.625,4.615-5.547
				c1.068-0.375,2.157-0.452,3.265-0.232c4.448,0.721-0.486,4.356-0.1,5.335c-0.526-1.333-2.703-0.753-2.17,0.598
				c1.508,3.817,6.335-0.912,6.335-3.531c0-5.896-7.254-5.36-10.692-2.911c-4.067,2.897-5.37,11.011-2.301,14.962
				c4.659,6,12.319,3.957,17.386-0.426c4.939-4.274,7.146-11.657,5.138-17.836c-2.257-6.948-9.948-8.894-16.371-7.977
				c-14.827,2.117-23.327,23.188-16.256,35.571c0.72,1.26,2.664,0.127,1.943-1.135c-6.225-10.9,0.824-27.413,12.332-31.617
				c6.568-2.399,14.278-0.106,16.556,6.903C169.969,93.292,165.476,100.385,160.405,103.521c-1.231,0.762-0.103,2.709,1.135,1.943
				c5.957-3.686,9.664-10.44,8.877-17.49c-0.862-7.722-8.44-11.308-15.418-10.827c-15.684,1.079-25.29,22.812-17.873,35.799
				c0.72,1.26,2.664,0.127,1.943-1.135c-4.512-7.9-1.79-17.299,3.02-24.383c5.237-7.712,17.936-12.053,24.475-3.395
				c5.821,7.71-2.004,18.598-9.631,20.883c-7.844,2.354-10.399-6.299-7.898-11.994c1.032-2.351,3.09-3.548,5.527-3.872
				c1.448-0.237,2.548,0.329,3.298,1.699c-0.182,1.472-0.783,2.721-1.802,3.746c-0.526-1.333-2.703-0.753-2.17,0.598
				c1.538,3.895,5.81-0.928,6.295-3.232c1.073-5.1-5.995-5.793-9.083-4.17c-5.026,2.641-6.495,9.344-4.7,14.417
				c2.322,6.562,10.181,5.898,15.141,3.355C162.832,104.803,161.693,102.861,160.405,103.521z"/>
		</g>
	</g>
	<g>
		<g>
			<path fill="#7F7F7F" d="M84.049,114.27c-2.666,4.191-0.482,9.371,3.595,11.689c5.385,3.062,15.022,1.502,20.866,1.277
				c3.146-0.121,5.863-1.391,7.868-3.789c2.019-2.416,5.749-8.955,0.92-10.104c-0.635-0.15-3.127,0.881-2.4,1.053
				c3.806,0.906,1.089,5.348,0.026,7.373c-2.683,5.109-8.172,4.479-13.092,4.559c-4.374,0.07-9.763,0.266-13.34-2.604
				c-2.905-2.332-3.51-6.99-1.596-10.002C87.036,113.502,84.484,113.584,84.049,114.27L84.049,114.27z"/>
		</g>
	</g>
	<g>
		<g>
			<path fill="#FAAB54" d="M100.507,34.401C84.282,34.714,70.454,44.866,65.272,60.24c-5.536,16.425,2.35,34.37,16.806,43.096
				c0.252-0.932,0.505-1.863,0.757-2.795c-0.1-0.002-0.199-0.004-0.299-0.004c-1.828-0.023-1.861,2.334-0.398,2.945
				c4.623,1.936,0.125,11.209,4.975,13.85c5.951,3.24,13.226,3.396,19.831,2.943c3.553-0.244,11.764-0.703,10.769-6.264
				c-0.396-2.209-0.519-4.326-0.437-6.561c0.123-3.354,0.435-3.361,2.951-4.889c3.306-2.008,6.169-4.708,8.677-7.627
				c9.516-11.074,10.794-26.969,4.729-39.94C127.683,42.272,114.262,34.667,100.507,34.401c-1.936-0.037-1.932,2.963,0,3
				c13.627,0.263,25.327,7.972,31.09,20.294c6.272,13.416,1.899,29.397-8.706,39.141c-2.08,1.911-4.537,3.509-7.062,4.773
				c-1.566,0.783-1.405,4.352-1.554,5.842c-0.385,3.855,1.867,8.732-3.906,9.418c-2.923,0.346-5.776,0.586-8.724,0.576
				c-3.468-0.012-6.905-0.475-10.229-1.455c-3.985-1.178-3.979-3.684-4.213-7.266c-0.229-3.482-0.794-6.68-4.269-8.135
				c-0.133,0.982-0.266,1.965-0.398,2.947c0.1,0,0.199,0.002,0.299,0.004c1.516,0.02,2.017-2.035,0.757-2.795
				c-13.749-8.3-19.982-24.293-15.427-39.708c4.188-14.17,17.921-23.358,32.342-23.636
				C102.438,37.364,102.442,34.364,100.507,34.401z"/>
		</g>
	</g>
	<g>
		<g>
			<path fill="#E94444" d="M88.873,132.283c-7.464,2.461-12.265,11.945-12.232,19.363c0.006,1.297,2.083,0.701,2.641,0.168
				c2.582-2.473,5.194-4.445,8.666-5.48c-0.383-0.455-0.767-0.91-1.149-1.365c-3.882,3.008-4.374,8.461-2.252,12.697
				c1.245,2.484,4.202,3.746,6.543,4.881c2.838,1.375,4.903,3.293,6.329,6.102c0.864,1.701,0.514,4.373,0.855,6.236
				c0.095,0.512,0.896,0.566,1.28,0.521c11.735-1.363,19.298-15.68,16.618-26.299c-0.862,0.383-1.725,0.764-2.587,1.146
				c2.928,1.842,5.585,3.916,8.175,6.215c0.655,0.58,2.333,0.371,2.702-0.51c3.427-8.18-0.6-22.484-10.827-23.758
				c-1.246-0.156-3.029,1.596-1.074,1.84c3.67,0.457,6.326,4.357,8.135,7.229c2.688,4.266,2.959,9.928,1.038,14.514
				c0.9-0.17,1.801-0.34,2.702-0.51c-2.713-2.406-5.501-4.602-8.575-6.535c-0.683-0.43-2.865,0.043-2.587,1.146
				c1.298,5.141,0.628,10.213-2.125,14.787c-2.198,3.652-6.862,8.4-11.257,8.912c0.427,0.174,0.854,0.35,1.28,0.523
				c-1.049-5.709-1.297-8.9-6.445-12.314c-2.995-1.986-6.102-2.547-7.861-6.059c-1.407-2.809-0.784-7.721,1.782-9.711
				c1.208-0.936-0.071-1.688-1.149-1.365c-4.189,1.248-7.447,3.518-10.584,6.52c0.88,0.055,1.761,0.111,2.641,0.166
				c-0.025-5.814,3.508-15.32,9.768-17.385C91.033,133.395,90.618,131.707,88.873,132.283L88.873,132.283z"/>
		</g>
	</g>
	<g>
		<g>
			<path fill="#FAAB54" d="M96.315,118.131c-0.023-10.693-0.267-21.402-0.647-32.09c-0.139-3.9-0.248-10.785-4.438-12.688
				c-3.957-1.797-7.792,3.223-7.978,6.547c-0.402,7.203,12.619,5.185,16.61,5.377c5.396,0.26,12.82,0.76,16.327-4.229
				c3.355-4.771-2.246-9.198-6.809-7.958c-1.932,0.526-2.944,2.406-3.665,4.085c-2.062,4.805-1.318,12.003-1.286,17.118
				c0.03,4.792,0.295,9.584,0.474,14.372c0.12,3.211,0.686,6.885,0.227,10.07c-0.115,0.801,1.836,0.461,1.936-0.229
				c0.316-2.193,0.047-4.697-0.127-6.895c-0.504-6.387-0.544-12.93-0.584-19.335c-0.019-2.956,0.115-5.905,0.332-8.852
				c0.17-2.304,0.678-13.472,7.393-7.947c4.675,3.846-3.181,8.186-6.171,8.596c-2.876,0.395-5.895,0.129-8.782-0.011
				c-4.979-0.239-17.154,0.947-13.177-7.479c2.942-6.231,5.879-0.376,6.557,1.54c0.509,1.438,0.717,2.994,0.921,4.498
				c1.582,11.621,0.928,24.039,0.953,35.738C94.382,119.203,96.317,118.799,96.315,118.131L96.315,118.131z"/>
		</g>
	</g>
	<g>
		<g>
			<path fill="#FAEF5A" d="M97.212,134.605c-2.909,2.568-5.173,5.555-4.913,9.596c0.145,2.252,2.591,4.096,4.1,5.418
				c2.698,2.365,3.586,4.764,3.625,8.266c0.011,0.932,2.501-0.172,2.779-0.428c5.614-5.174,11.443-16.186,4.275-22.742
				c-0.657-0.602-3.338,0.488-2.711,1.061c6.867,6.281,1.114,16.84-4.225,21.76c0.926-0.143,1.853-0.285,2.779-0.428
				c-0.043-3.83-1.006-5.979-3.812-8.549c-1.686-1.543-3.214-2.859-3.913-5.133c-0.977-3.178,2.183-6.682,4.287-8.539
				C100.677,133.832,97.796,134.09,97.212,134.605L97.212,134.605z"/>
		</g>
	</g>
	<g>
		<g>
			<path fill="#7F7F7F" d="M84.341,123.467c-1.445,3.168,0.482,9.279,3.883,10.715c4.503,1.902,11.072,1.705,15.911,1.664
				c4.005-0.033,8.656-0.334,11.186-3.854c1.612-2.242,3.862-7.141,0.772-9.07c-1.058-0.662-3.616,0.789-2.24,1.648
				c2.309,1.441-0.426,5.873-1.437,7.279c-1.913,2.66-7.65,1.959-10.407,1.822c-2.492-0.125-4.969-0.416-7.463-0.506
				c-4.199-0.152-9.73-4.371-7.441-9.391C87.786,122.281,84.86,122.326,84.341,123.467L84.341,123.467z"/>
		</g>
	</g>
	<circle fill="none" stroke="#7F7F7F" stroke-width="3" stroke-miterlimit="10" cx="100.507" cy="99.404" r="80.125"/>
</g>
</svg>
