<?xml version="1.0" encoding="utf-8"?>
<!-- Generator: Adobe Illustrator 15.0.0, SVG Export Plug-In . SVG Version: 6.00 Build 0)  -->
<!DOCTYPE svg PUBLIC "-//W3C//DTD SVG 1.1//EN" "http://www.w3.org/Graphics/SVG/1.1/DTD/svg11.dtd">
<svg version="1.1" id="Layer_1" xmlns="http://www.w3.org/2000/svg" xmlns:xlink="http://www.w3.org/1999/xlink" x="0px" y="0px"
	 width="198.43px" height="198.43px" viewBox="0 0 198.43 198.43" enable-background="new 0 0 198.43 198.43" xml:space="preserve">
<g>
	<g>
		<g>
			<path fill="#7F7F7F" d="M140.107,144.184c-0.195,0-0.391,0-0.588,0c-1.225,0-1.826,1.51-0.982,2.374
				c2.809,2.883,5.744,5.64,8.545,8.53c1.689,1.744,3.812,4.301,6.312,4.842c1.748,0.378,2.492-2.304,0.74-2.684
				c-2.133-0.461-4.094-3.101-5.549-4.602c-2.645-2.732-5.428-5.33-8.082-8.054c-0.328,0.791-0.656,1.583-0.984,2.374
				c0.197,0,0.393,0,0.588,0C141.902,146.965,141.902,144.184,140.107,144.184L140.107,144.184z"/>
		</g>
	</g>
	<g>
		<g>
			<path fill="#7F7F7F" d="M42.659,154.296c6.191-5.449,16.834-7.946,20.9-15.638c0.903-1.709-1.686-3.225-2.59-1.514
				c-1.9,3.594-6.181,5.806-9.489,7.966c-3.666,2.396-7.627,4.146-10.942,7.064C39.083,153.455,41.212,155.568,42.659,154.296
				L42.659,154.296z"/>
		</g>
	</g>
	<g>
		<g>
			<path fill="#7F7F7F" d="M144.693,94.478c2.645-0.185,5.312-1.5,7.969-0.938c2.654,0.562,4.902,3.418,7.299,4.64
				c0.252-0.932,0.504-1.863,0.756-2.795c-2.51,0.153-4.848-1.073-7.477-0.894c-2.115,0.145-6.16,1.683-7.771,0.012
				c-1.344-1.396-3.463,0.729-2.121,2.121c1.926,1.998,3.785,1.924,6.352,1.313c1.811-0.431,3.814-0.524,5.666-0.513
				c1.875,0.012,3.434,1.077,5.352,0.96c1.391-0.085,2.174-2.072,0.758-2.795c-2.539-1.296-4.539-3.661-7.225-4.651
				c-3.324-1.226-6.225,0.307-9.557,0.539C142.773,91.611,142.762,94.612,144.693,94.478L144.693,94.478z"/>
		</g>
	</g>
	<circle fill="#FFFFFF" cx="100.85" cy="99.068" r="80.125"/>
	<g>
		<g>
			<path d="M144.906,94.828c2.949-0.185,5.998-1.635,8.943-1.011c2.654,0.562,4.904,3.418,7.299,4.64
				c0.252-0.932,0.506-1.863,0.758-2.795c-2.51,0.153-4.848-1.073-7.477-0.894c-2.791,0.19-6.424,1.45-8.629-0.833
				c-1.346-1.394-3.465,0.729-2.121,2.121c2.189,2.269,4.627,2.311,7.623,2.014c1.748-0.173,3.494-0.379,5.252-0.368
				c1.875,0.012,3.434,1.077,5.352,0.96c1.391-0.085,2.174-2.072,0.756-2.795c-2.832-1.445-4.998-3.83-8.014-4.943
				c-3.039-1.12-6.697,0.714-9.742,0.904C142.984,91.948,142.973,94.949,144.906,94.828L144.906,94.828z"/>
		</g>
	</g>
	<g>
		<g>
			<g>
				<path d="M73.7,25.848c6.389,2.433,8.354,12.516,10.108,18.313c3.058,10.109,3.931,20.048,3.956,30.575
					c0.052,21.236-1.644,42.466-2.334,63.666c-0.063,1.936,2.938,1.93,3,0c0.77-23.647,2.871-47.374,2.232-71.062
					c-0.273-10.121-2.44-19.529-5.558-29.104c-1.879-5.771-4.468-12.941-10.608-15.279C72.686,22.265,71.91,25.167,73.7,25.848
					L73.7,25.848z"/>
			</g>
		</g>
		<g>
			<g>
				<path d="M24.342,78.234c3.233-0.955,7.7-0.193,11.027-0.153c3.521,0.042,7.041,0.114,10.561,0.207
					c0.647,0.017,1.295-0.468,1.446-1.102c1.915-7.995,3.504-16.728,7.017-24.194c-0.932-0.252-1.863-0.504-2.795-0.757
					c-0.878,7.974-2.765,16.966-1.614,24.951c0.094,0.649,0.843,1.102,1.446,1.102c4.333,0,8.667,0,13,0
					c-0.482-0.633-0.964-1.266-1.446-1.898c-0.623,4.292-0.279,8.475-0.638,12.816c-0.703,8.538,0.082,17.244-0.227,25.813
					c-0.332,9.213-0.552,18.431-0.65,27.649c-0.092,8.534-0.771,17.216-0.205,25.732c0.081,1.226,1.616,2.089,2.561,1.061
					c5.159-5.618,12.295-9.266,17.749-14.634c4.936-4.857,6.715-11.356,6.856-18.093c0.041-1.936-2.959-1.932-3,0
					c-0.171,8.099-3.259,13.965-9.456,19.106c-4.667,3.871-10.157,7.02-14.271,11.499c0.854,0.354,1.707,0.707,2.561,1.061
					c-0.523-7.88,0.14-15.862,0.188-23.758c0.057-9.219,0.294-18.436,0.6-27.649c0.294-8.87,0.056-17.723,0.213-26.593
					c0.077-4.356-0.007-8.944,0.612-13.215c0.138-0.946-0.38-1.898-1.446-1.898c-4.333,0-8.667,0-13,0
					c0.482,0.367,0.964,0.734,1.446,1.102c-1.101-7.646,0.881-16.514,1.722-24.154c0.162-1.47-2.177-2.072-2.795-0.757
					c-3.637,7.729-5.338,16.638-7.319,24.911c0.482-0.367,0.964-0.734,1.446-1.102c-3.52-0.093-7.04-0.159-10.561-0.207
					c-3.63-0.05-8.283-0.785-11.824,0.261C21.694,75.889,22.483,78.784,24.342,78.234L24.342,78.234z"/>
			</g>
		</g>
	</g>
	<g>
		<g>
			<path fill="#7F7F7F" d="M37.71,94.003c0.243,1.368-0.577,1.627,0.582,0.38c0.673-0.725,1.349-1.447,2.021-2.172
				c1.516-1.635,3.018-3.284,4.436-5.005c2.916-3.54,9.225-1.235,13.271-3.676c0.981-0.591-0.942-2.182-1.795-0.71
				c-0.454,0.785-0.993,1.522-1.52,2.259c-1.024,1.434-2.209,3.139-3.627,4.229c-1.027,0.789-5.049,0.175-6.349,0.311
				c-3.383,0.354-6.411,1.623-9.224,3.488c-1.604,1.063-0.104,3.662,1.514,2.59c4.142-2.745,8.285-3.271,13.114-3.289
				c2.172-0.009,3.24-1.026,4.627-2.596c1.003-1.134,7.625-8.392,3.778-9.45c-0.579-0.159-1.12,0.066-1.633,0.312
				c-2.198,1.055-3.927,1.507-6.397,1.626c-2.212,0.106-5.782-0.354-7.207,1.845c-1.554,2.396-3.742,4.469-5.677,6.555
				c-0.93,1.003-3.089,2.523-2.809,4.101C35.156,96.703,38.046,95.894,37.71,94.003z"/>
		</g>
	</g>
	<g>
		<g>
			<path d="M30.341,112.696c0.123,0.066,0.238,0.138,0.354,0.217c-0.251-0.173,0.097,0.107,0.119,0.128
				c0.21,0.199,0.399,0.421,0.594,0.636c0.472,0.521,0.995,0.989,1.6,1.354c0.548,0.331,1.381,0.264,1.817-0.234
				c0.829-0.944,1.441-1.961,1.546-3.232c0.085-1.03-0.487-1.999-1.304-2.576c-0.776-0.549-1.76-0.603-2.661-0.425
				c-1.103,0.219-1.975,1.035-2.603,1.916c-0.477,0.666-0.119,1.667,0.538,2.052c0.754,0.442,1.578,0.126,2.052-0.538
				c0.252-0.353-0.188,0.208,0.088-0.1c0.053-0.059,0.446-0.39,0.138-0.157c0.088-0.065,0.184-0.122,0.278-0.177
				c0.062-0.034,0.125-0.066,0.189-0.095c-0.201,0.082-0.226,0.097-0.073,0.042c0.093-0.03,0.188-0.05,0.284-0.068
				c-0.445,0.088-0.062,0.02,0.063,0.022c0.271,0.006-0.37-0.089,0.032,0.016c0.25,0.064-0.326-0.183,0.024,0.012
				c0.262,0.146-0.268-0.238-0.045-0.04c0.29,0.258-0.111-0.193,0.016,0.013c0.124,0.203-0.1-0.354,0,0.036
				c0.06,0.23-0.005-0.359-0.018,0.067c-0.011,0.352,0.072-0.345-0.013,0.021c-0.017,0.071-0.206,0.518-0.067,0.221
				c-0.185,0.395-0.352,0.602-0.587,0.87c0.605-0.078,1.212-0.156,1.817-0.234c-0.289-0.175-0.293-0.177-0.575-0.447
				c-0.217-0.207-0.414-0.435-0.615-0.656c-0.43-0.476-0.906-0.925-1.476-1.23c-0.72-0.388-1.628-0.186-2.052,0.538
				C29.401,111.331,29.622,112.31,30.341,112.696L30.341,112.696z"/>
		</g>
	</g>
	<g>
		<path fill="#E94444" d="M26.598,126.901c0,0,0.332-0.332,0.832-0.5c0.834-0.166,1.334,0.668,2.168,0.5
			c1.166-0.166,2-1,3.166-1.332c2.166-0.334,4.166,1,6.166,1.666s4,0.666,6,1.166c-1.332,1.168-3.166,2-4.5,3.334
			c-1.166,1.334-1.832,3.166-3.332,4.166c-1.334,1.168-5.5,2.334-6.668,0.668"/>
	</g>
	<g>
		<g>
			<g>
				<path fill="#543927" d="M123.244,22.215c-1.365,0.756-2.379,2.115-3.416,3.25c-2.059,2.252-4.641,4.071-6.777,6.278
					c-3.797,3.921-7.355,9.874-6.721,15.569c0.537,4.826,4.955,7.161,6.135,11.673c1.213,4.64-8.402,7.009-11.104,9.554
					c-2.272,2.141-5.886,6.178-5.283,9.624c0.314,1.797,1.09,2.946,2.64,3.979c5.014,3.339,6.118,7.576,2.053,12.336
					c-2.875,3.365-4.471,6.449-1.462,10.23c2.443,3.069,5.753,4.598,1.779,8.537c-1.514,1.5-2.927,2.969-4.183,4.698
					c-1.461,2.013-2.998,6.062,0.176,7.457c1.575,0.691,3.037,1.09,4.785,0.973c3.393-0.228,6.357,0.259,7.885,3.441
					c1.65,3.441-0.857,6.055-3.953,7.45c-3.883,1.751-7.263,3.521-9.592,7.245c-1.861,2.976-1.931,7.924,1.073,10.099
					c2.943,2.129,9.464-0.928,8.568,5.16c-0.58,3.946-4.375,6.946-1.064,10.699c1.49,1.688,4.305,1.303,6.006,0.233
					c7.521-4.729,2.6,4.512,6.357,6.632c0.305,0.172,0.607,0.344,0.912,0.516c0.771,0.436,2.236-0.036,2.541-0.875
					c0.076-0.209,0.074-0.335-0.002-0.544c-0.387-1.052-3.195-0.228-2.834,0.76c-0.002,0.038-0.002,0.076-0.004,0.114
					c0.848-0.292,1.693-0.584,2.541-0.875c-3.32-1.874,0.166-7.73-4.049-9.184c-2.539-0.876-4.557,0.669-6.545,2.091
					c-3.721,2.661-3.51-3.07-3.289-4.09c0.275-1.281,0.988-2.483,1.518-3.675c0.623-1.401,0.922-2.657,0.834-4.172
					c-0.168-2.91-3.793-3.511-5.986-3.65c-8.447-0.537-4.439-10.088,0.174-13.307c2.596-1.812,8.381-2.54,9.578-6.051
					c1.137-3.33-0.02-8.664-4.105-9.535c-2.902-0.619-7.344,0.467-9.712-1.345c-2.513-1.921,1.482-6.412,2.748-7.841
					c2.018-2.277,5.143-4,4.291-7.47c-0.447-1.812-2.592-3.396-3.82-4.628c-3.499-3.509-0.117-7.022,2.219-9.841
					c3.07-3.701,2.816-8.403-1.021-11.551c-2.529-2.073-4.784-2.967-3.908-6.701c0.646-2.752,3.371-5.783,5.591-7.394
					c5.291-3.836,14.359-5.838,8.467-13.952c-1.551-2.136-3.236-3.686-3.979-6.335c-1.074-3.833,1.139-8.526,3.002-11.662
					c1.988-3.347,5.115-6.022,8.031-8.537c1.525-1.314,2.936-3.491,4.689-4.462C126.699,22.213,124.213,21.679,123.244,22.215
					L123.244,22.215z"/>
			</g>
		</g>
		<g>
			<g>
				<path fill="#543927" d="M161.279,46.284c-6.691,1.281-13.525,9.348-8.557,15.693c2.143,2.735,4.236,4.092,5.57,7.544
					c1.316,3.408,1.42,8.893-2.762,10.296c-4.055,1.361-8.826-1.193-13.123-0.477c-2.076,0.347-5.975,1.867-6.059,4.528
					c-0.039,1.196,0.102,2.362,1.254,3.054c2.764,1.661,5.385,2.649,5.367,6.587c-0.025,5.275-17.998,5.135-9.996,12.623
					c0.725-0.553,1.451-1.105,2.178-1.658c-3.922-2.436-6.105-8.121-0.174-9.274c1.152-0.225,3.533-0.853,3.756-2.328
					c0.332-2.198-1.504-3.216-3.18-4.26c-4.289-2.674-5.836-10.118,0.51-11.946c3.561-1.024,9.295-0.541,11.865-3.788
					c1.18-1.488,1.268-2.76,0.521-4.512c-0.367-0.863-1.352-1.567-2.039-2.152c-3.547-3.021-2.752-6.158,0.004-9.298
					c0.867-0.989-0.586-1.719-1.457-1.428c-5.461,1.831-14.623,7.075-13.705,14.035c0.281,2.131,0.82,4.111,0.736,6.289
					c-0.094,2.417-3.434,4.047-5.141,5.262c-1.965,1.399-4.305,3.7-4.068,6.355c0.137,1.528,0.625,2.72,1.287,4.094
					c1.436,2.982,0.164,5.181-1.936,7.392c-2.094,2.206-2.529,5.264-0.477,7.551c2.887,3.217,6.229,5.532,8.529,9.334
					c1.83,3.024,1.818,6.396-0.279,9.21c-0.76,1.02-1.543,1.935-2.055,3.107c-0.732,1.675,0.961,2.561,2.215,3.037
					c4.607,1.749,10.859,2.121,10.971,8.641c0.119,7.058-11.061,5.731-11.775,12.429c-0.312,2.912,3.154,4.401,4.82,6.027
					c4.102,4.006-1.373,7.754-5.277,7.207c-1.135-0.159-2.654-0.362-3.785,0.006c-2.691,0.874-4.062,2.548-3.984,5.451
					c0.09,3.369-3.293,3.29-3.293,6.184c0,1.513,2.873,1.102,2.873-0.203c0-0.062,0-0.123,0-0.185c0-1.513-2.873-1.102-2.873,0.203
					c0,0.062,0,0.123,0,0.185c0,1.513,2.873,1.102,2.873-0.203c0-1.521,2.482-1.751,3.152-3.197c0.832-1.792-0.99-6.394,3.014-6.26
					c1.539,0.052,3.062,0.567,4.613,0.465c5.572-0.367,8.318-6.17,5.277-10.912c-0.604-0.943-1.945-1.69-2.816-2.313
					c-3.656-2.621-0.566-5.129,1.938-6.455c1.947-1.033,4.719-1.924,6.113-3.758c3.922-5.158,1.33-11.144-4.291-13.596
					c-1.201-0.524-2.42-1.023-3.719-1.258c-4.008-0.721-2.662-2.322-1.006-4.544c1.758-2.358,1.781-4.814,1.146-7.604
					c-0.785-3.449-3.621-6.604-6.084-8.972c-1.432-1.376-3.082-2.592-4.408-4.068c-2.594-2.891,3.062-5.934,3.799-7.989
					c1.059-2.95-0.176-4.9-1.336-7.648c-1.986-4.709,4.039-6.753,6.605-9.281c2.086-2.056,2.449-4.006,2.141-6.883
					c-0.402-3.773-1.059-6.087,1.779-9.392c2.293-2.669,5.656-4.647,8.959-5.754c-0.486-0.476-0.973-0.952-1.457-1.428
					c-2.336,2.663-3.615,5.323-2.654,8.867c0.906,3.346,8.721,6.177,1.316,8.371c-5.436,1.611-10.896,0.96-13.434,7.139
					c-1.066,2.597,0.025,5.387,1.467,7.555c0.875,1.318,2.314,2.085,3.613,2.896c3.207,1.998-2.814,2.962-3.334,3.214
					c-5.561,2.702-1.814,9.697,1.965,12.045c1.039,0.646,3.434-0.481,2.178-1.658c-3.963-3.709,4.189-4.967,6.006-5.874
					c2.795-1.396,4.676-3.183,4.691-6.464c0.014-2.92-2.277-5.03-4.68-6.13c-1.535-3.172-0.846-4.748,2.072-4.728
					c1.203-0.2,2.436-0.094,3.635,0.073c1.82,0.254,3.529,0.737,5.385,0.837c6.436,0.345,9.871-3.843,9.58-10.023
					c-0.18-3.821-2.236-7.312-4.939-9.87c-2.646-2.505-3.848-4.884-2.309-8.406c1.234-2.822,4.266-5.053,7.219-5.618
					C163.609,47.927,163.039,45.947,161.279,46.284L161.279,46.284z"/>
			</g>
		</g>
	</g>
	<g>
		<g>
			<path fill="#543927" d="M139.807,87.491c4.137-0.011,7.361-1.855,11.551-0.754c4.029,1.06,7.549,2.353,11.783,1.92
				c-0.723-0.949-1.445-1.898-2.17-2.848c-0.965,2.686-6.328-1.255-7.885-2.104c-2.199-1.2-4.498-2.307-7.045-1.801
				c-2.846,0.566-1.637,4.903,1.195,4.34c2.785-0.554,7.764,3.757,10.467,4.703c3.592,1.256,6.398-0.576,7.607-3.943
				c0.465-1.293-0.768-2.991-2.17-2.848c-4.25,0.435-7.941-1.063-11.977-2.124c-4.121-1.084-7.311,0.947-11.357,0.958
				C136.906,82.999,136.904,87.499,139.807,87.491L139.807,87.491z"/>
		</g>
	</g>
	<g>
		<g>
			<path fill="#7F7F7F" d="M160.977,113.484c-1.299,2.342-1.531,5.907,0.822,7.674c1.203,0.901,2.652,0.986,4.096,0.797
				c1.369-0.179,2.943-0.82,4.311-0.434c1.865,0.528,2.656-2.367,0.797-2.893c-1.863-0.527-3.672,0.139-5.521,0.381
				c-0.822,0.107-1.943,0.147-2.314-0.782c-0.396-0.991-0.096-2.333,0.4-3.229C164.506,113.306,161.916,111.793,160.977,113.484
				L160.977,113.484z"/>
		</g>
	</g>
	<g>
		<path fill="#A55E94" d="M154.695,132.61c3.73,1.106,5.861-1.937,9.326-3.319c3.73-1.383,1.865,0,4.795,1.106
			c2.398,1.106,3.73,1.66,5.863-0.276c-1.332,4.426-4.264,11.895-8.793,12.171c-3.996,0.276-10.393-5.532-11.457-9.682
			c0.533,0,0.799,0,1.332,0"/>
	</g>
	<circle fill="none" stroke="#7F7F7F" stroke-width="3" stroke-miterlimit="10" cx="100.842" cy="99.36" r="80.125"/>
</g>
</svg>
