<?xml version="1.0" encoding="utf-8"?>
<!-- Generator: Adobe Illustrator 15.0.0, SVG Export Plug-In . SVG Version: 6.00 Build 0)  -->
<!DOCTYPE svg PUBLIC "-//W3C//DTD SVG 1.1//EN" "http://www.w3.org/Graphics/SVG/1.1/DTD/svg11.dtd">
<svg version="1.1" id="Layer_1" xmlns="http://www.w3.org/2000/svg" xmlns:xlink="http://www.w3.org/1999/xlink" x="0px" y="0px"
	 width="198.43px" height="198.43px" viewBox="0 0 198.43 198.43" enable-background="new 0 0 198.43 198.43" xml:space="preserve">
<g>
	<circle fill="#A55E94" cx="100.215" cy="100.406" r="80.125"/>
	<g>
		<g>
			
				<ellipse fill="none" stroke="#FACF56" stroke-width="0.25" stroke-miterlimit="10" cx="149.685" cy="177.303" rx="0" ry="0.238"/>
			<ellipse fill="none" stroke="#FACF56" stroke-width="0.25" stroke-miterlimit="10" cx="149.685" cy="177.303" rx="0" ry="0.23"/>
			
				<ellipse fill="none" stroke="#FACF56" stroke-width="0.25" stroke-miterlimit="10" cx="149.685" cy="177.303" rx="0" ry="0.223"/>
			
				<ellipse fill="none" stroke="#FACF56" stroke-width="0.25" stroke-miterlimit="10" cx="149.685" cy="177.304" rx="0.001" ry="0.216"/>
			
				<ellipse fill="none" stroke="#FACF56" stroke-width="0.25" stroke-miterlimit="10" cx="149.685" cy="177.303" rx="0" ry="0.209"/>
			
				<ellipse fill="none" stroke="#FACF56" stroke-width="0.25" stroke-miterlimit="10" cx="149.685" cy="177.304" rx="0.001" ry="0.2"/>
			
				<ellipse fill="none" stroke="#FACF56" stroke-width="0.25" stroke-miterlimit="10" cx="149.685" cy="177.303" rx="0" ry="0.193"/>
			
				<ellipse fill="none" stroke="#FACF56" stroke-width="0.25" stroke-miterlimit="10" cx="149.685" cy="177.303" rx="0" ry="0.186"/>
			
				<ellipse fill="none" stroke="#FACF56" stroke-width="0.25" stroke-miterlimit="10" cx="149.685" cy="177.303" rx="0" ry="0.178"/>
			<ellipse fill="none" stroke="#FACF56" stroke-width="0.25" stroke-miterlimit="10" cx="149.685" cy="177.303" rx="0" ry="0.17"/>
			
				<ellipse fill="none" stroke="#FACF56" stroke-width="0.25" stroke-miterlimit="10" cx="149.685" cy="177.303" rx="0" ry="0.162"/>
			
				<ellipse fill="none" stroke="#FACF56" stroke-width="0.25" stroke-miterlimit="10" cx="149.685" cy="177.303" rx="0" ry="0.154"/>
			
				<ellipse fill="none" stroke="#FACF56" stroke-width="0.25" stroke-miterlimit="10" cx="149.685" cy="177.303" rx="0" ry="0.146"/>
			
				<ellipse fill="none" stroke="#FACF56" stroke-width="0.25" stroke-miterlimit="10" cx="149.685" cy="177.303" rx="0" ry="0.139"/>
			
				<ellipse fill="none" stroke="#FACF56" stroke-width="0.25" stroke-miterlimit="10" cx="149.685" cy="177.303" rx="0" ry="0.131"/>
			
				<ellipse fill="none" stroke="#FACF56" stroke-width="0.25" stroke-miterlimit="10" cx="149.685" cy="177.303" rx="0" ry="0.123"/>
			
				<ellipse fill="none" stroke="#FACF56" stroke-width="0.25" stroke-miterlimit="10" cx="149.685" cy="177.303" rx="0" ry="0.115"/>
			
				<ellipse fill="none" stroke="#FACF56" stroke-width="0.25" stroke-miterlimit="10" cx="149.685" cy="177.303" rx="0" ry="0.107"/>
			<ellipse fill="none" stroke="#FACF56" stroke-width="0.25" stroke-miterlimit="10" cx="149.685" cy="177.303" rx="0" ry="0.1"/>
			
				<ellipse fill="none" stroke="#FACF56" stroke-width="0.25" stroke-miterlimit="10" cx="149.685" cy="177.303" rx="0" ry="0.092"/>
			
				<ellipse fill="none" stroke="#FACF56" stroke-width="0.25" stroke-miterlimit="10" cx="149.685" cy="177.303" rx="0" ry="0.086"/>
			
				<ellipse fill="none" stroke="#FACF56" stroke-width="0.25" stroke-miterlimit="10" cx="149.685" cy="177.304" rx="0.001" ry="0.077"/>
			<ellipse fill="none" stroke="#FACF56" stroke-width="0.25" stroke-miterlimit="10" cx="149.685" cy="177.303" rx="0" ry="0.07"/>
			
				<ellipse fill="none" stroke="#FACF56" stroke-width="0.25" stroke-miterlimit="10" cx="149.685" cy="177.304" rx="0.001" ry="0.062"/>
			
				<ellipse fill="none" stroke="#FACF56" stroke-width="0.25" stroke-miterlimit="10" cx="149.685" cy="177.303" rx="0" ry="0.055"/>
			
				<ellipse fill="none" stroke="#FACF56" stroke-width="0.25" stroke-miterlimit="10" cx="149.685" cy="177.303" rx="0" ry="0.047"/>
			
				<ellipse fill="none" stroke="#FACF56" stroke-width="0.25" stroke-miterlimit="10" cx="149.685" cy="177.303" rx="0" ry="0.039"/>
			
				<ellipse fill="none" stroke="#FACF56" stroke-width="0.25" stroke-miterlimit="10" cx="149.685" cy="177.303" rx="0" ry="0.031"/>
			
				<ellipse fill="none" stroke="#FACF56" stroke-width="0.25" stroke-miterlimit="10" cx="149.685" cy="177.303" rx="0" ry="0.023"/>
			
				<ellipse fill="none" stroke="#FACF56" stroke-width="0.25" stroke-miterlimit="10" cx="149.685" cy="177.303" rx="0" ry="0.016"/>
			
				<ellipse fill="none" stroke="#FACF56" stroke-width="0.25" stroke-miterlimit="10" cx="149.685" cy="177.303" rx="0" ry="0.008"/>
		</g>
	</g>
	<g>
		<g>
			<path fill="#FFFFFF" d="M103.593,125.926c7.322-17.527,14.645-35.053,21.967-52.58c0.559-1.339-1.619-1.917-2.17-0.599
				c-7.322,17.526-14.645,35.053-21.967,52.581C100.864,126.666,103.042,127.244,103.593,125.926L103.593,125.926z"/>
		</g>
	</g>
	<g>
		<g>
			<path fill="#FFFFFF" d="M103.479,126.193c13.089-19.172,26.178-38.346,39.268-57.52c0.82-1.202-1.131-2.326-1.943-1.136
				c-13.089,19.174-26.178,38.347-39.268,57.521C100.716,126.26,102.667,127.385,103.479,126.193L103.479,126.193z"/>
		</g>
	</g>
	<g>
		<g>
			<path fill="#FFFFFF" d="M103.304,126.422c13.812-13.252,27.623-26.502,41.435-39.754c1.048-1.006-0.545-2.595-1.592-1.591
				c-13.812,13.251-27.623,26.503-41.435,39.753C100.664,125.838,102.257,127.426,103.304,126.422L103.304,126.422z"/>
		</g>
	</g>
	<g>
		<g>
			<path fill="#FFFFFF" d="M103.075,126.598c19.251-11.844,38.502-23.689,57.752-35.533c1.233-0.759,0.104-2.706-1.135-1.943
				c-19.251,11.845-38.502,23.688-57.752,35.532C100.707,125.414,101.836,127.361,103.075,126.598L103.075,126.598z"/>
		</g>
	</g>
	<g>
		<g>
			<path fill="#FFFFFF" d="M102.807,126.711c17.102-5.922,34.203-11.846,51.305-17.768c1.362-0.473,0.777-2.646-0.598-2.17
				c-17.102,5.922-34.203,11.846-51.305,17.768C100.847,125.014,101.432,127.188,102.807,126.711L102.807,126.711z"/>
		</g>
	</g>
	<g>
		<g>
			<path fill="#FFFFFF" d="M98.807,124.541c-16.028-5.574-32.058-11.146-48.087-16.721c-1.374-0.479-1.959,1.695-0.598,2.17
				c16.028,5.574,32.058,11.146,48.087,16.721C99.583,127.189,100.168,125.016,98.807,124.541L98.807,124.541z"/>
		</g>
	</g>
	<g>
		<g>
			<path fill="#FFFFFF" d="M99.075,124.654c-19.209-11.844-38.419-23.688-57.629-35.532c-1.238-0.764-2.367,1.183-1.135,1.943
				c19.209,11.843,38.419,23.689,57.629,35.533C99.179,127.361,100.308,125.414,99.075,124.654L99.075,124.654z"/>
		</g>
	</g>
	<g>
		<g>
			<path fill="#FFFFFF" d="M95.442,121.115c-12.37-11.898-24.739-23.799-37.108-35.699c-1.046-1.006-2.639,0.583-1.592,1.591
				c12.37,11.9,24.739,23.799,37.108,35.7C94.896,123.713,96.489,122.123,95.442,121.115L95.442,121.115z"/>
		</g>
	</g>
	<g>
		<g>
			<path fill="#FFFFFF" d="M99.479,125.059c-13.045-19.174-26.089-38.347-39.133-57.521c-0.812-1.192-2.762-0.068-1.943,1.136
				c13.045,19.174,26.089,38.348,39.133,57.52C98.348,127.387,100.298,126.262,99.479,125.059L99.479,125.059z"/>
		</g>
	</g>
	<g>
		<g>
			<path fill="#FFFFFF" d="M94.426,112.9C88.863,99.516,83.3,86.132,77.737,72.748c-0.549-1.319-2.727-0.741-2.17,0.599
				c5.562,13.384,11.126,26.767,16.688,40.152C92.805,114.818,94.982,114.24,94.426,112.9L94.426,112.9z"/>
		</g>
	</g>
	<ellipse fill="#A55E94" cx="101.211" cy="124.092" rx="42.838" ry="32.969"/>
	<g>
		<g>
			<g>
				<path fill="#A55E94" d="M126.408,100.803c-0.198,0.418-0.558,0.965-0.899,1.367c-5.843,5.789-13.839,9.85-18.513,16.957
					c-3.926,6.08-4.709,13.457-4.515,20.377c0.314,0.82,0.381,1.898,0.741,2.748c1.864-0.811,3.104-2.578,4.713-3.715
					c2.077-1.373,4.343-1.842,6.498-2.617C130.747,130.047,128.291,114.727,126.408,100.803z"/>
				<g>
					<path fill="#FFFFFF" d="M124.982,100.732c-2.362,3.59-6.513,6.035-9.815,8.656c-3.217,2.551-6.19,5.215-8.738,8.443
						c-5.059,6.41-6.897,17.072-4.727,24.826c0.269,0.959,1.951,0.422,2.481,0.109c3.207-1.887,4.935-4.184,8.842-5.469
						c2.148-0.707,4.318-1.447,6.263-2.631c3.645-2.219,6.366-5.039,8.133-8.951c3.487-7.719,1.597-17.293,0.508-25.322
						c-0.153-1.129-3.208-0.414-3.041,0.814c1.057,7.787,2.424,15.92-0.024,23.578c-1.507,4.713-5.282,7.9-9.659,9.893
						c-2.138,0.973-4.574,1.318-6.641,2.461c-2.329,1.289-4.01,3.246-6.302,4.594c0.827,0.037,1.654,0.074,2.481,0.109
						c-2.429-8.676,0.4-19.248,6.241-25.918c4.918-5.617,12.732-8.795,16.85-15.053C128.655,99.625,125.574,99.833,124.982,100.732z
						"/>
				</g>
			</g>
		</g>
		<g>
			<path fill="#A55E94" d="M96.756,122.166c0.546-2.104,0.487-3.568,0.009-5.654c-1.095-4.016-3.223-7.277-6.271-10.162
				c-1.369-1.348-3.388-1.754-4.685-3.107c-1.058-1.152-1.486-2.656-1.907-4.088c-0.447-0.059-4.812,4.42-5.387,5.475
				c-1.526,2.635-2.577,5.666-2.966,8.713c-0.676,4.76,0.329,10.252,3.463,14.084c2.564,3.223,5.429,5.684,8.93,7.867
				c1.873,1.229,3.659,2.318,5.579,3.248c1.541,0.816,3.13,1.336,4.208,2.707c-0.398-4.443-1.372-8.764-1.624-13.221
				C96.002,126.053,96.19,124.055,96.756,122.166z"/>
			<g>
				<path fill="#FFFFFF" d="M98.295,122.045c0.865-4.279-0.396-7.986-2.539-11.701c-2.721-4.719-8.733-6.436-10.334-11.597
					c-0.274-0.886-1.539-0.76-2.188-0.466c-6.721,3.045-10.092,13.225-9.349,19.885c0.61,5.467,2.926,9.74,6.979,13.455
					c2.269,2.078,4.709,3.771,7.293,5.432c2.605,1.676,5.958,2.662,8.177,4.859c0.864,0.855,3.064,0.338,2.914-1.07
					C98.586,134.619,96.76,128.248,98.295,122.045c0.357-1.447-2.753-1.068-3.078,0.244c-1.583,6.402,0.308,12.953,0.991,19.367
					c0.972-0.357,1.942-0.715,2.914-1.07c-2.746-2.721-6.76-4.072-10.005-6.158c-4.42-2.84-8.589-6.395-10.843-11.242
					c-2.281-4.906-1.518-10.762,0.33-15.643c0.908-2.398,3.483-6.393,5.964-7.516c-0.729-0.156-1.458-0.311-2.188-0.466
					c1.508,4.861,4.436,5.167,7.818,8.552c3.707,3.707,6.076,8.943,5.018,14.176C94.918,123.77,98.026,123.371,98.295,122.045z"/>
			</g>
		</g>
		<g>
			<path fill="#A55E94" d="M133.993,136.686c-4.975,0.219-9.583,0.219-14.411,1.242c-3.438,0.732-6.656,2.195-9.583,4.17
				c-2.634,1.83-6.437,4.17-7.607,7.316c0,0,4.097-0.221,5.998,0.072c1.756,0.293,3.365,1.025,4.975,1.609
				c2.048,0.805,3.657,2.121,5.633,3.072c3.511,1.684,6.729,1.756,10.314,0.146c5.12-2.414,8.778-6.072,11.631-10.9
				c1.097-1.754,2.194-3.656,2.927-5.631c0.73-1.902,1.975-4.023,2.268-6C143.723,135.295,137.943,136.465,133.993,136.686z"/>
			<g>
				<path fill="#FFFFFF" d="M134.583,135.814c-7.039,0.283-13.968,0.439-20.587,3.1c-4.744,1.904-10.724,5.732-13.021,10.463
					c-0.29,0.596,0.244,0.936,0.827,0.906c5.421-0.264,9.91,1.051,14.561,3.857c4.418,2.666,8.86,2.574,13.552,0.807
					c9.103-3.428,15.51-14.4,17.744-23.352c0.329-1.32-2.541-0.334-2.938,0.152c-2.585,3.154-6.708,3.799-10.521,4.086
					c-1.504,0.115-2.518,1.861-0.41,1.701c5.082-0.385,10.405-1.615,13.766-5.715c-0.979,0.051-1.959,0.102-2.938,0.152
					c-2.394,9.592-11.94,26.539-24.409,21.455c-3.762-1.535-6.838-3.787-10.887-4.773c-1.98-0.484-4.319-0.209-6.338-0.111
					c0.275,0.303,0.552,0.605,0.827,0.906c5.121-10.543,19.521-11.49,29.595-11.895C134.532,137.51,136.63,135.732,134.583,135.814z
					"/>
			</g>
		</g>
		<g>
			<path fill="#A55E94" d="M90.103,142.098c-2.966-1.975-6.229-3.438-9.713-4.17c-4.894-1.023-9.564-1.023-14.606-1.242
				c-4.002-0.221-9.86-1.391-12.307-4.902c0.297,1.977,1.557,4.098,2.298,6c0.742,1.975,1.854,3.877,2.966,5.631
				c2.892,4.828,6.599,8.486,11.788,10.9c3.634,1.609,6.896,1.537,10.454-0.146c2.002-0.951,3.634-2.268,5.709-3.072
				c1.631-0.584,3.263-1.316,5.042-1.609c1.928-0.293,6.079-0.072,6.079-0.072C96.627,146.268,92.771,143.928,90.103,142.098z"/>
			<g>
				<path fill="#FFFFFF" d="M91.268,141.195c-4.952-3.129-9.996-4.59-15.806-5.201c-6.614-0.697-15.788,0.896-20.597-4.893
					c-0.788-0.949-3.271-0.344-2.909,1.09c2.443,9.664,8.738,18.701,17.704,23.184c3.915,1.955,8.138,1.334,12.009-0.264
					c2.971-1.225,5.524-3.041,8.621-4.115c2.169-0.754,4.75-0.543,7.008-0.434c0.997,0.047,2.502-0.615,1.903-1.832
					C97.508,145.289,94.359,143.289,91.268,141.195c-1.168-0.791-3.799,0.811-2.33,1.805c2.915,1.977,5.885,3.84,7.486,7.096
					c0.635-0.609,1.27-1.221,1.903-1.83c-2.222-0.107-4.71-0.395-6.887,0.129c-5.201,1.252-9.594,5.09-14.8,5.883
					c-5.807,0.885-11.69-4.916-14.85-9.029c-3.046-3.965-5.57-9.033-6.794-13.871c-0.97,0.363-1.939,0.727-2.909,1.09
					c3.008,3.621,7.538,4.764,12.047,5.281C73.023,138.77,81,137.984,88.938,143C90.125,143.752,92.758,142.137,91.268,141.195z"/>
			</g>
		</g>
		<g>
			<path fill="#A55E94" d="M98.714,152.504c-1.171,0.146-2.269,0.586-3.512,0.732c-1.609,0.219-3.292,0.512-4.827,1.17
				c-3.658,1.463-6.365,4.316-9.876,5.852c-0.585,0.293-2.122,0.439-2.269,1.025c-0.146,0.73,1.464,2.193,1.902,2.633
				c1.756,1.684,3.877,2.268,6.219,2.342c4.242,0.219,9.289-3.146,11.119-6.949C98.348,157.406,98.714,152.504,98.714,152.504z"/>
			<g>
				<path fill="#FFFFFF" d="M98.95,151.768c-2.619,0.504-5.458,0.77-7.972,1.689c-3.402,1.242-6.134,3.312-9.157,5.256
					c-1.062,0.682-4.604,1.227-5.104,2.789c-0.49,1.537,3.038,3.994,4.062,4.434c4.327,1.852,9.367,1.221,13.234-1.473
					c4.513-3.145,5.787-6.875,6.212-12.178c0.087-1.084-2.954-0.453-3.025,0.439c-0.166,2.074-0.438,4.143-0.995,6.15
					c-1.675,6.027-10.048,8.295-14.653,4.475c-0.511-0.424-2.247-1.961-1.062-2.371c1.521-0.525,2.885-1.371,4.233-2.238
					c2.064-1.326,3.968-2.797,6.223-3.814c2.138-0.965,5.188-1.234,7.53-1.686C99.819,152.982,101.058,151.363,98.95,151.768z"/>
			</g>
		</g>
		<g>
			<path fill="#A55E94" d="M104.203,153.436c1.171,0.145,2.268,0.584,3.512,0.73c1.609,0.219,3.292,0.512,4.828,1.17
				c3.658,1.463,6.364,4.316,9.875,5.854c0.586,0.291,2.121,0.438,2.268,1.023c0.146,0.732-1.463,2.195-1.901,2.633
				c-1.756,1.684-3.877,2.268-6.218,2.342c-4.243,0.219-9.291-3.146-11.119-6.949c-0.878-1.902-1.316-4.609-1.536-6.365"/>
			<g>
				<path fill="#FFFFFF" d="M103.244,154.156c3.991,0.766,7.769,1.385,11.282,3.562c2.466,1.527,4.68,3.486,7.478,4.396
					c0.857,0.947,0.819,1.707-0.112,2.281c-2.264,1.975-4.719,2.533-7.365,1.672c-1.857-0.48-3.452-1.648-4.904-2.846
					c-2.975-2.453-3.699-6.146-4.19-9.756c-0.111-0.816-3.172-0.15-3.041,0.814c0.851,6.248,4.07,12.455,11.047,13.451
					c4.245,0.607,11.451-0.791,12.758-5.75c0.043-0.129,0.015-0.236-0.087-0.326c-1.211-1.066-3.104-1.404-4.509-2.213
					c-1.836-1.059-3.515-2.395-5.317-3.512c-3.349-2.074-7.331-2.49-11.12-3.217C104.365,152.561,101.608,153.842,103.244,154.156
					L103.244,154.156z"/>
			</g>
		</g>
		<g>
			<path fill="#A55E94" d="M75.213,131.164c-0.715-0.756-1.367-1.662-1.946-2.574c-0.825-1.26-1.67-2.812-2.218-4.312
				c-0.351-0.781-0.564-1.721-0.706-2.664c-0.157-1.162,0.056-1.25-0.935-1.766c-3.885-1.992-8.455-2.322-12.334-4.242l-0.062,0.15
				c0.068,0.949,0.096,2.34,0.326,3.496c0.82,4.268,4.176,9.086,7.936,11.383c2.227,1.379,5.041,1.764,7.564,2.168
				c1.631,0.248,3.659,0.908,5.384,0.418C77.215,132.486,76.084,132.055,75.213,131.164z"/>
			<g>
				<path fill="#FFFFFF" d="M76.608,130.508c-1.456-1.682-2.604-3.506-3.577-5.51c-0.76-1.561-0.57-4.08-1.58-5.379
					c-1.052-1.352-3.72-1.844-5.218-2.32c-2.788-0.887-5.585-1.488-8.271-2.684c-0.705-0.312-2.027,0.1-2.335,0.842
					c-1.916,4.609,3.25,11.506,6.253,14.35c3.764,3.564,11.183,5.139,16.193,4.479c0.705-0.094,2.559-1.129,1.327-1.918
					c-1.04-0.664-2.049-1.277-3.009-2.057c-0.996-0.809-3.69,0.623-2.357,1.705c0.96,0.779,1.968,1.391,3.009,2.057
					c0.442-0.639,0.885-1.277,1.327-1.916c-4.901,0.645-11.1-1.199-14.644-4.557c-1.856-1.76-3.188-4.064-4.182-6.391
					c-0.488-1.143-1.527-4.242-1.023-5.455c-0.778,0.279-1.557,0.561-2.335,0.84c2.547,1.133,12.319,2.473,12.636,5.428
					c0.378,3.529,2.726,7.178,4.995,9.799C74.685,132.82,77.581,131.631,76.608,130.508z"/>
			</g>
		</g>
		<g>
			<path fill="#A55E94" d="M127.649,131.551c0.714-0.756,1.367-1.662,1.946-2.574c0.824-1.26,1.67-2.812,2.219-4.314
				c0.35-0.781,0.563-1.719,0.705-2.662c0.157-1.162-0.057-1.25,0.934-1.766c3.885-1.994,8.455-2.324,12.335-4.244l0.062,0.152
				c-0.069,0.947-0.096,2.34-0.325,3.496c-0.822,4.268-4.178,9.086-7.937,11.383c-2.227,1.379-5.041,1.762-7.564,2.166
				c-1.631,0.25-3.659,0.91-5.384,0.418C125.646,132.873,126.778,132.439,127.649,131.551z"/>
			<g>
				<path fill="#FFFFFF" d="M128.901,131.922c2.224-2.568,3.788-5.465,4.876-8.676c1.54-4.543,8.511-4.621,12.656-6.465
					c-0.723-0.127-1.444-0.256-2.166-0.383c1.34,3.244-2.256,8.594-4.093,10.893c-3.181,3.98-9.942,5.969-14.982,5.305
					c0.144,0.537,0.288,1.072,0.432,1.609c1.04-0.664,2.049-1.275,3.009-2.055c1.604-1.303-0.887-2.076-1.967-1.199
					c-0.96,0.777-1.969,1.389-3.009,2.055c-0.921,0.59-0.535,1.482,0.432,1.611c5.341,0.705,12.287-1.08,16.48-4.48
					c2.244-1.82,3.892-4.287,5.2-6.828c0.952-1.848,2.369-5.715,1.539-7.725c-0.339-0.822-1.511-0.676-2.166-0.385
					c-4.289,1.908-9.355,2.238-13.32,4.863c-0.993,0.658-0.919,2.504-1.11,3.475c-0.532,2.701-2.555,5.609-4.314,7.643
					C125.163,132.605,128.095,132.854,128.901,131.922z"/>
			</g>
		</g>
		<g>
			<path fill="#A55E94" d="M56.05,147.971c-3.115,0.441-6.982,2.553-9.389,4.543c0,0,3.652,2.672,5.321,3.328
				c1.671,0.754,3.438,1.406,5.299,1.963c3.332,0.92,6.836,0.475,10.141-0.359C63.478,154.875,57.016,153.418,56.05,147.971z"/>
			<g>
				<path fill="#FFFFFF" d="M55.836,147.17c-3.886,0.779-7.289,2.656-10.401,5.066c-0.419,0.324-0.366,0.75,0.021,1.031
					c6.827,4.953,13.875,6.902,22.18,4.977c0.572-0.133,1.951-0.967,0.991-1.555c-4.125-2.527-9.74-3.852-11.057-9.127
					c-0.277-1.111-3.322-0.311-3.041,0.814c1.41,5.65,7.264,7.111,11.688,9.822c0.33-0.518,0.661-1.035,0.991-1.555
					c-7.303,1.693-13.515-0.658-19.342-4.887c0.007,0.344,0.015,0.688,0.021,1.033c2.51-1.943,5.245-3.395,8.376-4.021
					C58.142,148.393,57.67,146.803,55.836,147.17z"/>
			</g>
		</g>
		<g>
			<path fill="#A55E94" d="M144.008,147.49l-0.093-0.006c-1.685,1.998-3.118,4.553-5.528,6.15c-2.123,1.434-6.295,2.854-7.154,3.262
				c-0.859,0.41,8.99,0.998,11.633,0.314c4.34-1.047,7.154-3.26,10.633-5.711C151.168,149.66,146.713,147.445,144.008,147.49z"/>
			<g>
				<path fill="#FFFFFF" d="M144.55,146.443c-2.904-0.184-5.107,4.975-7.156,6.557c-1.936,1.494-6.376,1.695-7.649,3.83
					c-0.192,0.322-0.09,0.812,0.263,0.982c2.739,1.33,6.919,0.799,9.877,0.736c5.624-0.121,10.18-3.275,14.607-6.414
					c0.525-0.373,0.784-1.041,0.188-1.479C151.732,148.496,148.248,146.693,144.55,146.443c-1.404-0.096-3.146,1.953-1.084,2.094
					c3.263,0.221,6.26,1.906,8.851,3.807c0.063-0.494,0.126-0.986,0.188-1.479c-3.234,2.293-6.63,4.982-10.689,5.49
					c-2.777,0.346-5.697,0.113-8.476-0.135c-0.837-0.305-1.165,0.131-0.984,1.307c0.538-0.211,1.076-0.424,1.614-0.635
					c1.433-0.562,2.824-1.188,4.191-1.893c3.077-1.59,4.919-4.486,7.014-7.115c-0.601,0.215-1.201,0.43-1.802,0.646
					c0.031,0.002,0.062,0.004,0.093,0.006C144.868,148.625,146.612,146.574,144.55,146.443z"/>
			</g>
		</g>
	</g>
	<g>
		<path fill="#FFFFFF" d="M136.074,68.663V55.945h-28.783c0.034-17.019,0.073-30.746,0.073-30.746H93.419c0,0,0,13.728,0,30.746
			h-28.71v12.718h28.71c0,11.689,0,33.204,0,33.204s9.211,14.912,8.254,18.391c-0.957,3.48,2.598-7.314,5.592-7.596
			c-0.036-9.686-0.022-27.185,0.003-43.999H136.074z"/>
	</g>
</g>
</svg>
