<?xml version="1.0" encoding="utf-8"?>
<!-- Generator: Adobe Illustrator 15.0.0, SVG Export Plug-In . SVG Version: 6.00 Build 0)  -->
<!DOCTYPE svg PUBLIC "-//W3C//DTD SVG 1.1//EN" "http://www.w3.org/Graphics/SVG/1.1/DTD/svg11.dtd">
<svg version="1.1" id="Layer_1" xmlns="http://www.w3.org/2000/svg" xmlns:xlink="http://www.w3.org/1999/xlink" x="0px" y="0px"
	 width="198.43px" height="198.43px" viewBox="0 0 198.43 198.43" enable-background="new 0 0 198.43 198.43" xml:space="preserve">
<g>
	<circle fill="#E94344" cx="102.782" cy="99.009" r="80.125"/>
	<polyline fill="none" stroke="#FFFFFF" stroke-width="2.8029" stroke-miterlimit="10" points="33.658,137.026 102.781,99.01 
		171.92,139.524 	"/>
	
		<line fill="none" stroke="#FFFFFF" stroke-width="2.8029" stroke-miterlimit="10" x1="102.781" y1="17.696" x2="102.781" y2="99.427"/>
	<g>
		<g>
			<path fill="#FFFFFF" d="M104.272,110.647c4.229,18.584,13.236,35.334,17.867,53.678c0.396,5.504-4.787,5.904-5.742,1.357
				c-1.117-4.945-3.033-9.492-4.631-13.721c-8.455-1.115-11.885-1.594-20.1-2.471c-1.909,5.184-3.111,12.6-4.865,17.867
				c-2.793,3.348-7.021,0.078-6.617-3.592c4.864-17.867,12.918-34.936,18.184-53.52L104.272,110.647z M92.385,145.74
				c6.541,0.08,12.685-0.24,18.667,0.398c-3.988-8.533-8.301-18.664-9.971-27.998C99.64,126.52,95.497,137.684,92.385,145.74z"/>
		</g>
	</g>
	<g>
		<path fill="#FFFFFF" d="M178.912,92.329c-0.008-0.018-0.016-0.033-0.023-0.051c-0.219-0.471-0.854-0.453-1.195-0.164
			c0-0.002-0.002-0.004-0.004-0.006c1.248-1.166-3.805-4.344-4.824-5.078c-2.801-2.016-5.449-3.893-8.057-6.133
			c-0.842-1.326-1.951-2.572-2.779-3.646c-2.801-3.633-5.27-7.5-8.096-11.109c-4.379-5.592-9.416-10.037-14.818-14.348
			c-0.002-0.004-0.006-0.008-0.008-0.012c-0.115-0.107-0.234-0.199-0.359-0.281c-0.365-0.291-0.73-0.584-1.102-0.875
			c-0.688-5.053-2.328-10.559-7.52-11.945c-3.562-0.951-12.189-0.205-12.125,4.826c-0.953,0.594-1.787,1.395-2.373,2.217
			c-1.277,1.793-2.209,5.207-0.473,6.908c0.342,0.334,0.918,0.178,1.051-0.275c0.162-0.549,0.287-1.043,0.377-1.59
			c0.775,0.09,1.561,0.047,2.344,0.082c0.299,1.764,1.328,3.621,2.641,4.479c0.287,0.188,0.586,0.336,0.893,0.459
			c-0.578,1.865-0.77,4.035-0.82,5.48c-0.178,4.826,1.531,9.713,4.021,13.785c0.75,1.225,1.6,2.305,2.527,3.275
			c0.307,3.037,1.143,6.182,1.402,9.244c-0.146,0.662-0.301,1.324-0.463,1.994c-0.373,1.543-1.283,3.477-1.377,5.232
			c-0.369,0.029-0.74,0.082-1.094,0.125c-1.582,0.186-3.01,0.236-4.578,0.225c-2.713-0.021-6.02,0.658-8.158,2.414
			c-0.357,0.295-0.387,0.793-0.318,1.207c0.07,0.42,0.244,0.721,0.408,1.115c0.008,0.047,0.023,0.084,0.061,0.111
			c0.123,0.221,0.365,0.275,0.576,0.109c2.932-2.298,7.152-0.408,10.9-0.97c0.412-0.062,0.846-0.141,1.275-0.244
			c0.314-0.008,0.633-0.02,0.943-0.018c0.129,0.033,0.42,0.088,0.979,0.178c1.121,0.178,1.887,0.297,3.117,0.279
			c3.436-0.049,6.852,0.246,10.291,0.248c2.434,0,5.209-0.553,7.186,1.214c1.094,0.979,2.924-0.268,2.102-1.621
			c-1.336-2.195-1.18-3.105-3.836-3.836c-3.059-0.842-6.424-0.625-9.648-0.445c0.447-2.477,1.076-4.959,1.621-7.445
			c1.209,0.121,2.428,0.102,3.641,0.123c1.268,0.023,2.547,0.117,3.088-1.113c0.529-0.67,0.699-1.512,0.777-2.398
			c0.266-0.018,0.535-0.049,0.812-0.113c0.02-0.004,0.035-0.01,0.053-0.014c1.438,0.873,3.092,2.096,3.598,2.453
			c1.965,1.391,3.605,3.311,5.467,4.834c3.557,2.91,5.652,6.209,7.879,10.095c0.467,0.814,1.596,1.334,2.516,1.023
			c1.826-0.611,3.822,0.273,5.535-0.281c0.627-0.203,1.781-0.887,1.57-0.936c0.908,0.215,1.904-0.822,1.303-1.695
			c-1.197-1.738-3.045-2.906-4.629-4.254c-2.324-1.98-4.617-4.072-6.873-6.189c-0.125-0.422-0.268-0.824-0.396-1.186
			c1.254,1.176,2.693,2.32,4.006,3.131c1.188,0.732,2.699,1.502,3.998,2.014c1.35,0.529,2.639,0.395,3.984,0.496
			c0.861,0.291,1.719,0.385,2.52,0.09C178.951,93.331,179.147,92.833,178.912,92.329 M131.317,95.03
			c0.92-1.684,1.518-3.891,1.947-5.152c0.396-1.162,0.691-2.344,0.928-3.537c0.273,3.016-0.025,6.668-0.104,8.676
			C133.242,95.014,132.293,95.01,131.317,95.03"/>
	</g>
	<g>
		<g>
			<path fill="#FFFFFF" d="M46.22,66.778c-0.767,0.062-1.403,0.125-1.979,0.125c-0.832,0-2.108-0.125-3.513-3.131
				c-0.127-0.254-0.192-0.441-0.192-0.572c0-0.191,0.192-0.316,0.513-0.316c0.127,0,0.316,0.062,0.51,0.062
				c0.894,0.125,1.66,0.191,2.49,0.191h0.829l12.454-0.895H58.1c1.531,0,3.127,1.213,3.127,2.361c0,0.895-0.764,1.471-0.829,1.727
				c-3.896,12.068-10.345,21.393-20.563,28.418c-0.574,0.385-1.021,0.572-1.342,0.572c-0.447,0-0.701-0.256-0.701-0.635
				c0-0.385,0.254-0.963,0.829-1.473c8.494-8.174,14.243-16.92,17.116-27.076L46.22,66.778z M65.315,50.362
				c0-1.342-0.51-2.299-1.15-3.256c-0.189-0.254-0.254-0.51-0.254-0.701c0-0.318,0.254-0.447,0.767-0.447
				c1.404,0,5.109,1.086,5.109,2.553l-0.065,13.795c1.404,2.236,2.873,4.404,4.279,6.324c5.236-3.895,11.114-9.518,11.562-12.455
				c0.062-0.639,0.316-0.895,0.701-0.895c1.084,0,3.447,2.746,3.447,3.895c0,1.279-8.875,9.07-13.604,12.455
				c5.941,8.049,12.838,14.689,20.949,19.35c0.766,0.385,1.084,0.701,1.084,1.023c0,0.764-2.936,2.746-3.895,2.746
				c-0.32,0-0.576-0.131-0.895-0.322c-9.324-6.834-16.987-15.07-23.63-25.35l-0.062,27.205c0,0.895,0.062,1.66,0.062,2.424
				c0,1.085-0.192,1.98-1.214,2.812c-0.638,0.51-1.212,0.703-1.851,0.703c-3.001,0-13.986-7.087-13.986-8.814
				c0-0.385,0.256-0.578,0.702-0.578c0.319,0,0.702,0.068,1.214,0.322c3.833,1.789,7.025,2.939,10.729,3.641V50.362z"/>
		</g>
	</g>
</g>
</svg>
