<?xml version="1.0" encoding="utf-8"?>
<!-- Generator: Adobe Illustrator 15.0.0, SVG Export Plug-In . SVG Version: 6.00 Build 0)  -->
<!DOCTYPE svg PUBLIC "-//W3C//DTD SVG 1.1//EN" "http://www.w3.org/Graphics/SVG/1.1/DTD/svg11.dtd">
<svg version="1.1" id="Layer_1" xmlns="http://www.w3.org/2000/svg" xmlns:xlink="http://www.w3.org/1999/xlink" x="0px" y="0px"
	 width="198.43px" height="198.43px" viewBox="0 0 198.43 198.43" enable-background="new 0 0 198.43 198.43" xml:space="preserve">
<g>
	<g>
		<g>
			<path fill="#FFFFFF" d="M160.05,91.32c6.104,1.292,11.171,7.234,12.701,13.112c0.375,1.441,3.409,0.631,3.033-0.812
				c-1.791-6.881-7.68-13.071-14.697-14.555C159.562,88.742,158.038,90.894,160.05,91.32L160.05,91.32z"/>
		</g>
	</g>
	<circle fill="#F9E257" cx="99.215" cy="96.948" r="80.125"/>
	<g>
		<g>
			<path fill="#FFFFFF" d="M72.072,23.435c6.389,2.433,8.354,12.516,10.108,18.313c3.058,10.109,3.931,20.048,3.956,30.575
				c0.052,21.236-1.644,42.466-2.334,63.666c-0.063,1.936,2.938,1.93,3,0c0.77-23.646,2.871-47.374,2.232-71.062
				c-0.273-10.121-2.44-19.529-5.558-29.104c-1.879-5.771-4.468-12.941-10.608-15.279C71.059,19.853,70.282,22.754,72.072,23.435
				L72.072,23.435z"/>
		</g>
	</g>
	<g>
		<g>
			<path fill="#FFFFFF" d="M22.715,75.822c3.233-0.955,7.7-0.193,11.028-0.153c3.521,0.042,7.041,0.114,10.561,0.207
				c0.647,0.017,1.295-0.468,1.446-1.102c1.914-7.995,3.504-16.728,7.016-24.194c-0.932-0.252-1.863-0.504-2.795-0.757
				c-0.878,7.973-2.765,16.966-1.613,24.951c0.094,0.649,0.843,1.102,1.446,1.102c4.333,0,8.666,0,12.999,0
				c-0.482-0.633-0.964-1.266-1.446-1.898c-0.623,4.292-0.279,8.475-0.638,12.816c-0.703,8.538,0.082,17.244-0.227,25.814
				c-0.332,9.213-0.552,18.43-0.65,27.648c-0.092,8.535-0.771,17.217-0.205,25.732c0.081,1.227,1.616,2.09,2.561,1.061
				c5.159-5.617,12.295-9.266,17.749-14.633c4.936-4.857,6.715-11.357,6.856-18.094c0.041-1.936-2.959-1.932-3,0
				c-0.171,8.1-3.259,13.965-9.456,19.107c-4.667,3.871-10.157,7.02-14.271,11.498c0.854,0.354,1.707,0.707,2.561,1.061
				c-0.523-7.879,0.14-15.861,0.188-23.758c0.057-9.219,0.294-18.436,0.6-27.648c0.294-8.871,0.056-17.723,0.213-26.593
				c0.077-4.356-0.007-8.944,0.612-13.215c0.138-0.946-0.38-1.898-1.446-1.898c-4.333,0-8.666,0-12.999,0
				c0.482,0.367,0.964,0.734,1.446,1.102c-1.103-7.646,0.88-16.515,1.721-24.154c0.162-1.47-2.177-2.073-2.795-0.757
				c-3.637,7.729-5.338,16.638-7.318,24.911c0.482-0.367,0.964-0.734,1.446-1.102c-3.52-0.093-7.04-0.159-10.561-0.207
				c-3.631-0.05-8.284-0.785-11.825,0.261C20.066,73.476,20.855,76.372,22.715,75.822L22.715,75.822z"/>
		</g>
	</g>
	<g>
		<g>
			<path fill="#FFFFFF" d="M36.083,91.59c0.242,1.369-0.576,1.626,0.582,0.38c0.673-0.725,1.349-1.447,2.021-2.173
				c1.516-1.634,3.019-3.282,4.436-5.004c2.916-3.54,9.225-1.235,13.271-3.676c0.981-0.591-0.941-2.182-1.794-0.71
				c-0.454,0.785-0.994,1.522-1.521,2.259c-1.024,1.434-2.209,3.14-3.627,4.229c-1.027,0.789-5.048,0.175-6.349,0.311
				c-3.383,0.354-6.411,1.624-9.224,3.488c-1.604,1.063-0.104,3.662,1.514,2.59c4.142-2.745,8.285-3.271,13.114-3.289
				c2.172-0.009,3.24-1.026,4.628-2.596c1.003-1.134,7.624-8.392,3.777-9.45c-0.579-0.159-1.12,0.066-1.633,0.312
				c-2.198,1.055-3.927,1.507-6.397,1.626c-2.212,0.106-5.783-0.354-7.207,1.845c-1.553,2.397-3.742,4.469-5.677,6.555
				c-0.931,1.003-3.088,2.522-2.809,4.101C33.527,94.291,36.418,93.481,36.083,91.59z"/>
		</g>
	</g>
	<g>
		<g>
			<path fill="#FFFFFF" d="M28.714,110.283c0.123,0.066,0.238,0.139,0.354,0.217c-0.251-0.172,0.097,0.107,0.119,0.129
				c0.21,0.199,0.399,0.42,0.594,0.635c0.472,0.521,0.995,0.99,1.6,1.354c0.548,0.332,1.381,0.264,1.817-0.234
				c0.829-0.943,1.441-1.961,1.546-3.232c0.085-1.029-0.487-1.998-1.304-2.576c-0.775-0.549-1.759-0.602-2.661-0.424
				c-1.102,0.219-1.974,1.035-2.603,1.916c-0.477,0.666-0.119,1.666,0.538,2.051c0.754,0.443,1.578,0.127,2.052-0.537
				c0.253-0.354-0.188,0.207,0.088-0.1c0.053-0.059,0.446-0.391,0.138-0.158c0.089-0.066,0.184-0.121,0.279-0.176
				c0.062-0.035,0.124-0.066,0.188-0.096c-0.201,0.082-0.226,0.098-0.073,0.043c0.093-0.031,0.189-0.051,0.285-0.068
				c-0.446,0.088-0.062,0.02,0.062,0.021c0.271,0.006-0.37-0.088,0.032,0.016c0.25,0.064-0.325-0.182,0.024,0.012
				c0.263,0.146-0.268-0.238-0.045-0.039c0.29,0.258-0.111-0.193,0.016,0.012c0.124,0.203-0.099-0.354,0.001,0.037
				c0.059,0.23-0.005-0.359-0.019,0.066c-0.011,0.352,0.072-0.344-0.013,0.021c-0.017,0.07-0.206,0.516-0.067,0.221
				c-0.185,0.395-0.352,0.602-0.587,0.869c0.605-0.078,1.212-0.156,1.817-0.234c-0.289-0.174-0.293-0.176-0.575-0.447
				c-0.217-0.207-0.414-0.434-0.615-0.656c-0.43-0.475-0.906-0.924-1.476-1.23c-0.72-0.387-1.628-0.186-2.052,0.539
				C27.773,108.918,27.994,109.896,28.714,110.283L28.714,110.283z"/>
		</g>
	</g>
	<g>
		<g>
			<path fill="#FFFFFF" d="M41.031,151.883c6.191-5.449,16.834-7.945,20.9-15.637c0.903-1.709-1.686-3.225-2.59-1.514
				c-1.9,3.594-6.181,5.805-9.489,7.965c-3.666,2.396-7.627,4.146-10.942,7.064C37.455,151.043,39.585,153.156,41.031,151.883
				L41.031,151.883z"/>
		</g>
	</g>
	<g>
		<g>
			<path fill="#FFFFFF" d="M26.031,125.549c-0.028,0.023,1.921,0.438,1.939,0.439c1.797,0.221,2.86-1.586,4.885-1.25
				c1.389,0.232,2.729,1.033,4.05,1.531c1.883,0.711,4.039,0.758,6,1.166c-0.221-0.836-0.441-1.672-0.662-2.508
				c-1.927,1.51-3.884,2.527-5.386,4.488c-1.04,1.357-4.524,6.055-6.993,3.68c-1.394-1.34-3.518,0.779-2.121,2.121
				c1.945,1.871,5.158,1.445,7.391,0.244c1.231-0.662,2.33-1.557,3.117-2.729c1.657-2.469,3.828-3.893,6.113-5.684
				c0.88-0.688,0.368-2.293-0.662-2.506c-2.618-0.545-5.156-0.766-7.647-1.818c-1.647-0.693-3.132-1.133-4.918-1.068
				c-1.6,0.059-2.878,1.139-4.586,0.926c-1.115-0.139-1.77,0.135-2.641,0.846C22.411,124.652,24.547,126.762,26.031,125.549
				L26.031,125.549z"/>
		</g>
	</g>
	<g>
		<g>
			<path fill="#FFFFFF" d="M117.88,18.527c-4.411,1.998-8.767,7.043-11.719,10.771c-2.985,3.771-5.904,10.076-4.493,15.021
				c1.112,3.899,8.431,9.422,5.063,13.177c-2.883,3.216-7.878,3.925-11.008,7.067c-2.315,2.324-5.399,6.225-4.767,9.771
				c0.353,1.971,1.236,3.112,2.806,4.359c0.953,0.757,2.026,1.321,2.979,2.09c3.837,3.09,0.53,7.648-1.752,10.388
				c-2.081,2.498-3.825,6.333-1.455,9.259c2.389,2.949,6.679,5.078,2.16,9.158c-1.597,1.443-2.96,3.117-4.168,4.891
				c-1.661,2.439-2.068,5.188-0.18,7.535c0.846,1.049,3.048,1.752,4.34,1.791c1.457,0.047,2.864-0.051,4.316-0.152
				c5.267-0.369,7.449,6.076,3.141,8.818c-3.886,2.473-8.614,3.117-11.299,7.34c-1.922,3.021-3.263,8.008-0.789,11.16
				c1.987,2.533,4.898,2.066,7.77,2.467c4.409,0.617-0.779,9.488-0.174,12.555c0.552,2.793,3.787,4.064,6.235,3.459
				c1.443-0.359,2.709-1.604,3.928-2.395c2.796-1.816,2.567,6.115,2.975,7.334c0.34,1.018,1.205,1.574,2.09,2.059
				c0.799,0.439,2.008,0.084,2.203-0.896c0.056-0.277,0.11-0.555,0.166-0.834c0.376-1.889-2.516-2.693-2.893-0.797
				c-0.056,0.277-0.11,0.557-0.166,0.834c0.734-0.299,1.469-0.598,2.203-0.896c-2.611-1.432-0.112-7.037-3-9.168
				c-2.656-1.961-4.845-0.43-7.203,1.229c-2.534,1.783-3.798-2.41-2.967-4.363c0.335-0.785,0.737-1.543,1.054-2.336
				c0.524-1.314,1.252-3.135,0.766-4.588c-0.889-2.654-2.785-4.035-5.592-4.25c-2.866-0.219-5.197,0.213-5.648-3.562
				c-0.504-4.219,2.831-7.188,6.059-9.115c3.594-2.148,7.848-2.508,9.44-6.875c1.041-2.854-0.693-7.562-3.408-8.971
				c-2.167-1.123-3.895-1.277-6.335-1.105c-5.048,0.355-6.527-1.697-3.839-5.645c2.151-3.158,6.198-4.926,6.474-9.066
				c0.086-1.293-0.979-2.807-1.783-3.684c-0.877-0.953-1.79-1.857-2.713-2.765c-2.798-2.755-0.383-5.346,1.333-7.405
				c2.802-3.362,4.863-6.538,2.567-10.959c-0.982-1.893-2.208-3.058-3.982-4.217c-4.68-3.058-1.527-7.315,1.229-10.33
				c3.741-4.089,16.007-6.062,12.457-14.064c-0.826-1.864-2.037-3.324-3.354-4.859c-2.955-3.442-2.799-7.06-1.472-11.237
				c1.724-5.425,8.611-13.004,13.918-15.406C121.154,20.321,119.628,17.736,117.88,18.527L117.88,18.527z"/>
		</g>
	</g>
	<g>
		<g>
			<path fill="#FFFFFF" d="M158.072,41.542c-7.45,1.402-13.729,10.118-8.423,16.773c2.434,3.051,4.788,4.735,5.928,8.81
				c1.019,3.643,0.05,7.446-3.802,8.505c-4.074,1.12-8.275-1.372-12.451-0.686c-2.571,0.423-6.706,1.771-6.854,5.044
				c-0.213,4.73,8.795,5.47,6.753,10.306c-1.802,4.266-18.374,5.024-10.147,12.588c0.605-0.785,1.212-1.57,1.817-2.355
				c-1.54-0.94-6.804-6.363-2.15-8.008c1.241-0.439,2.64-0.517,3.911-0.887c1.407-0.409,2.458-1.533,2.458-3.036
				c0-1.779-1.895-2.937-3.185-3.773c-4.392-2.846-6.285-9.664,0.322-11.577c4.09-1.185,8.757-0.753,12.116-3.783
				c0.957-0.863,1.545-2.811,1.051-4.038c-0.419-1.041-0.694-1.506-1.388-2.391c-0.521-0.508-1.077-0.975-1.667-1.401
				c-2.938-2.294-1.695-5.971,0.335-8.249c0.939-1.053,0.055-3.006-1.459-2.507c-5.854,1.931-14.982,7.351-13.994,14.686
				c0.312,2.318,1.408,4.979,0.327,7.248c-0.843,1.768-3.458,2.969-5.003,4.079c-1.909,1.371-4.355,3.794-4.114,6.43
				c0.096,1.045,0.19,1.924,0.611,2.902c1.477,3.436,2.062,5.263-1.071,8.507c-2.056,2.129-2.663,5.005-1.34,7.602
				c0.744,1.459,2.757,2.572,3.945,3.635c2.175,1.947,4.049,4.131,5.582,6.617c2.091,3.393,1.532,6.469-0.786,9.387
				c-0.657,0.828-1.418,1.717-1.705,2.76c-0.397,1.447,0.4,2.881,1.793,3.398c4.571,1.703,12.887,2.203,11.692,9.375
				c-0.997,5.984-12.93,5.197-11.942,12.184c0.541,3.824,4.619,4.229,5.847,7.609c2.617,7.211-8.109,4.355-11.299,5.375
				c-4.479,1.432-1.509,6.23-3.847,8.771c-1.393,1.512-3.087,3.268-1.76,5.408c0.42,0.678,1.347,0.982,2.053,0.539
				c0.056-0.035,0.11-0.07,0.166-0.105c1.634-1.025,0.129-3.623-1.514-2.59c-0.056,0.035-0.111,0.07-0.167,0.105
				c0.685,0.178,1.369,0.357,2.053,0.537c-0.35-0.564,1.957-2.383,2.225-2.838c0.826-1.406,0.858-2.66,0.709-4.258
				c-0.423-4.535,7.855-2.295,10.265-2.895c5.37-1.34,5.263-9.756,1.479-12.568c-5.55-4.125-0.61-6.393,3.361-8.385
				c2.119-1.062,4.006-2.504,4.818-4.824c2.326-6.641-2.665-11.17-8.572-13.182c-0.402-0.137-4.461-0.857-4.331-1.15
				c0.614-1.381,1.999-2.633,2.843-3.908c1.694-2.562,1.017-5.898,0.027-8.564c-1.298-3.502-4.217-6.416-6.869-8.92
				c-2.646-2.498-5.091-4.419-1.636-7.999c1.182-1.224,1.988-2.309,2.572-3.907c1.177-3.225-2.581-6.155-2.074-9.383
				c0.483-3.076,5.737-5.057,7.792-7.171c1.717-1.766,1.892-4.415,1.451-6.708c-0.795-4.135-0.276-6.965,2.778-9.968
				c2.313-2.274,5.38-3.933,8.431-4.939c-0.486-0.835-0.973-1.671-1.459-2.507c-2.581,2.896-3.949,5.781-2.886,9.625
				c0.776,2.806,8.303,5.365,2.519,7.638c-6.023,2.367-12.094,0.708-15.076,7.853c-1.086,2.602,0.02,6.306,1.836,8.304
				c1.079,1.187,2.08,1.907,3.444,2.731c3.075,1.855-1.689,1.938-3.175,2.463c-6.654,2.354-1.645,10.932,2.142,13.241
				c1.447,0.885,3.081-1.193,1.817-2.355c-3.185-2.928,5.945-5.104,7.544-5.891c2.633-1.296,4.022-4.203,3.812-7.008
				c-0.22-2.952-2.9-4.709-5.317-5.773c-1.841-0.542-1.604-1.806,0.71-3.791c1.25-0.482,2.649-0.497,3.969-0.512
				c2.04-0.022,4.119,0.709,6.148,0.956c6.305,0.77,10.535-2.722,10.812-8.993c0.174-3.951-1.716-8.032-4.333-10.882
				c-2.423-2.638-5.186-4.454-3.346-8.592c1.34-3.015,4.508-5.244,7.673-5.84C160.77,44.078,159.962,41.187,158.072,41.542
				L158.072,41.542z"/>
		</g>
	</g>
	<g>
		<g>
			<path fill="#FFFFFF" d="M137.803,139.656c-0.222,0-0.444,0-0.666,0c-1.271,0-2.036,1.658-1.061,2.561
				c3.241,3.004,6.607,5.865,9.843,8.873c1.927,1.793,4.296,4.303,6.985,4.846c1.889,0.381,2.692-2.51,0.797-2.893
				c-2.583-0.523-4.903-3.361-6.757-5.096c-2.858-2.678-5.873-5.189-8.747-7.852c-0.354,0.854-0.707,1.707-1.061,2.561
				c0.222,0,0.444,0,0.666,0C139.737,142.656,139.737,139.656,137.803,139.656L137.803,139.656z"/>
		</g>
	</g>
	<g>
		<g>
			<path fill="#FFFFFF" d="M137.471,84.323c4.211-0.011,7.451-1.857,11.75-0.728c3.975,1.045,7.409,2.32,11.583,1.894
				c-0.482-0.633-0.964-1.266-1.446-1.898c-1.549,4.313-11.648-4.137-15.453-3.38c-1.896,0.377-1.092,3.269,0.797,2.893
				c3.132-0.622,7.893,3.663,10.864,4.703c3.189,1.115,5.606-0.416,6.685-3.419c0.31-0.862-0.512-1.994-1.446-1.898
				c-4.317,0.441-8.078-1.074-12.175-2.151c-4.021-1.057-7.188,0.975-11.158,0.985C135.536,81.328,135.536,84.328,137.471,84.323
				L137.471,84.323z"/>
		</g>
	</g>
	<g>
		<g>
			<path fill="#FFFFFF" d="M140.803,92.489c2.949-0.185,5.998-1.635,8.944-1.011c2.654,0.562,4.903,3.418,7.299,4.64
				c0.252-0.932,0.505-1.863,0.757-2.795c-2.51,0.153-4.848-1.073-7.477-0.894c-2.791,0.19-6.424,1.45-8.629-0.833
				c-1.346-1.394-3.465,0.729-2.121,2.121c2.189,2.269,4.627,2.311,7.623,2.014c1.748-0.173,3.494-0.379,5.252-0.368
				c1.875,0.012,3.434,1.077,5.352,0.96c1.391-0.085,2.174-2.072,0.757-2.795c-2.833-1.445-4.999-3.83-8.015-4.943
				c-3.038-1.12-6.697,0.714-9.742,0.904C138.882,89.609,138.87,92.61,140.803,92.489L140.803,92.489z"/>
		</g>
	</g>
	<g>
		<g>
			<path fill="#FFFFFF" d="M159.342,111.066c-1.3,2.342-1.532,5.906,0.822,7.674c1.202,0.9,2.652,0.986,4.096,0.797
				c1.369-0.18,2.942-0.82,4.312-0.434c1.865,0.527,2.655-2.367,0.797-2.893c-1.863-0.527-3.674,0.139-5.523,0.381
				c-0.822,0.107-1.943,0.146-2.314-0.783c-0.396-0.99-0.096-2.332,0.401-3.229C162.871,110.887,160.28,109.373,159.342,111.066
				L159.342,111.066z"/>
		</g>
	</g>
	<g>
		<g>
			<path fill="#FFFFFF" d="M153.894,133.117c1.71-0.875,3.385-1.795,5.042-2.764c2.039-1.195,4.614-3.988,7.082-2.848
				c2.519,1.162,4.189,1.16,6.851,0.764c1.908-0.285,1.095-3.176-0.797-2.893c-2.31,0.344-3.549-0.221-5.629-0.951
				c-1.031-0.361-1.843-0.373-2.915-0.219c-1.709,0.244-3.468,1.914-4.853,2.791c-2.034,1.289-4.153,2.434-6.295,3.529
				C150.657,131.41,152.176,133.998,153.894,133.117L153.894,133.117z"/>
		</g>
	</g>
	<g>
		<g>
			<path fill="#FFFFFF" d="M150.842,133.246c2.645,5.678,9.84,8.863,15.86,7.523c1.889-0.42,1.088-3.312-0.797-2.893
				c-4.796,1.066-10.406-1.707-12.474-6.145C152.616,129.979,150.03,131.504,150.842,133.246L150.842,133.246z"/>
		</g>
	</g>
</g>
</svg>
