<?xml version="1.0" encoding="utf-8"?>
<!-- Generator: Adobe Illustrator 15.0.0, SVG Export Plug-In . SVG Version: 6.00 Build 0)  -->
<!DOCTYPE svg PUBLIC "-//W3C//DTD SVG 1.1//EN" "http://www.w3.org/Graphics/SVG/1.1/DTD/svg11.dtd">
<svg version="1.1" id="Layer_1" xmlns="http://www.w3.org/2000/svg" xmlns:xlink="http://www.w3.org/1999/xlink" x="0px" y="0px"
	 width="198.43px" height="198.43px" viewBox="0 0 198.43 198.43" enable-background="new 0 0 198.43 198.43" xml:space="preserve">
<g>
	<g>
		<circle fill="#7F7F7F" cx="101.196" cy="99.414" r="80.125"/>
		<g>
			<g>
				<path fill="#FFFFFF" d="M81.814,101.938c3.521,7.285,14.815-1.776,10.746-8.003c-3.163-4.84-8.678-4.713-13.371-2.347
					c-6.277,3.165-6.816,11.538-3.834,17.076c5.486,10.188,21.506,6.055,26.674-1.882c3.4-5.223,3.287-12.581,0.831-18.114
					c-2.654-5.98-7.695-8.673-13.876-8.673c-0.683,0-2.071,1.035-0.768,1.035c0.104,0,0.21,0,0.314,0
					c0.683,0,2.071-1.035,0.768-1.035c-1.387,0-2.773,0-4.16,0c-0.683,0-2.071,1.035-0.768,1.035c0.345,0,0.69,0,1.035,0
					c0.683,0,2.071-1.035,0.768-1.035c-20.614,0-41.228,0-61.842,0c-0.683,0-2.071,1.035-0.768,1.035c20.614,0,41.228,0,61.842,0
					c0.683,0,2.071-1.035,0.768-1.035c-0.345,0-0.69,0-1.035,0c-0.683,0-2.071,1.035-0.768,1.035c1.387,0,2.773,0,4.16,0
					c0.683,0,2.071-1.035,0.768-1.035c-0.104,0-0.21,0-0.314,0c-0.683,0-2.071,1.035-0.768,1.035
					c18.933,0,19.294,31.537,0.123,32.465c-8.754,0.423-14.253-7.208-12.46-15.44c1.537-7.053,12.084-9.623,15.226-2.573
					c1.854,4.161-4.769,11.301-7.359,5.938C83.44,100.787,81.561,101.414,81.814,101.938L81.814,101.938z"/>
			</g>
		</g>
		<g>
			<g>
				<path fill="#FFFFFF" d="M74.135,105.903c0,23.221,0,46.442,0,69.664c0,0.47,1.959,0.141,1.959-0.525c0-0.171,0-0.342,0-0.514
					c0-0.47-1.959-0.141-1.959,0.525c0,0.171,0,0.342,0,0.514c0,0.47,1.959,0.141,1.959-0.525c0-23.221,0-46.442,0-69.664
					C76.094,104.908,74.135,105.237,74.135,105.903L74.135,105.903z"/>
			</g>
		</g>
		<g>
			<g>
				<path fill="#FFFFFF" d="M61.485,171.654c-0.64-2.548-0.072-5.949-0.077-8.55c-0.011-6.211,0.002-12.423,0.015-18.634
					c0.013-5.835,0.029-11.671,0.049-17.507c0.006-1.627,0.012-3.254,0.018-4.881c0.01-2.7,5.123-3.107,5.123-0.68
					c0,17.65,0,35.302,0,52.952c0,0.964,2.004,0.603,2.004-0.191c0-10.477,0-20.952,0-31.429c0-5.936,0-11.87,0-17.806
					c0-3.114-0.126-7.415-4.739-6.974c-3.056,0.293-4.385,2.748-4.395,5.381c-0.021,5.794-0.039,11.587-0.054,17.381
					c-0.018,6.992-0.03,13.985-0.025,20.979c0.002,3.196-0.692,7.354,0.094,10.491C59.706,173.019,61.695,172.492,61.485,171.654
					L61.485,171.654z"/>
			</g>
		</g>
		<g>
			<g>
				<path fill="#FFFFFF" d="M47.489,160.446c-0.003-11.275,0.03-22.552,0.068-33.828c0.004-1.271-0.899-10.657,4.182-6.33
					c1.646,1.401,0.971,4.368,0.971,6.278c0,13.149,0,26.299,0,39.448c0,0.483,1.988,0.147,1.988-0.533c0-14.668,0-29.336,0-44.004
					c0-5.417-9.097-3.5-9.114,1.333c-0.048,12.723-0.088,25.446-0.083,38.169C45.501,161.463,47.49,161.127,47.489,160.446
					L47.489,160.446z"/>
			</g>
		</g>
		<g>
			<g>
				<path fill="#FFFFFF" d="M33.604,142.851c0.017-7.239,0.038-14.479,0.065-21.719c0.012-2.955,5.128-1.797,5.128,1.065
					c0,1.7,0,3.4,0,5.102c0,8.677,0,17.354,0,26.03c0,0.354,1.996,0.058,1.996-0.535c0-10.377,0-20.755,0-31.132
					c0-4.937-6.312-3.556-8.352-1.28c-1.142,1.272-0.773,2.669-0.779,4.31c-0.022,6.231-0.04,12.463-0.055,18.694
					C31.607,143.738,33.603,143.443,33.604,142.851L33.604,142.851z"/>
			</g>
		</g>
		<g>
			<g>
				<path fill="#FFFFFF" d="M83.354,177.623c0.106-9.005-0.007-18.01,0.005-27.018c0.009-6.874,0.028-13.749,0.051-20.624
					c0.01-2.98-1.061-7.752,1.108-10.076c2.51-2.69,4.09,2.068,4.09,3.745c0,2.216,0,4.432,0,6.647c0,6.852,0,13.704,0,20.557
					c0,9.524,0,19.049,0,28.573c0,0.344,1.957,0.055,1.957-0.523c0-10.854,0-21.709,0-32.562c0-6.895,0-13.789,0-20.683
					c0-3.784-0.364-8.317-5.705-6.903c-3.548,0.939-3.377,3.555-3.388,6.399c-0.025,7.013-0.046,14.025-0.061,21.039
					c-0.022,10.651,0.112,21.305-0.015,31.952C81.394,178.483,83.347,178.204,83.354,177.623L83.354,177.623z"/>
			</g>
		</g>
		<g>
			<g>
				<path fill="#FFFFFF" d="M22.193,90.74c-0.785,0.533,1.688,0.105,2.478,0.092c2.043-0.035,4.087-0.041,6.13-0.047
					c5.603-0.018,11.206,0.011,16.809,0.041c5.288,0.029,10.575,0.069,15.863,0.115c1.649,0.014,3.299,0.029,4.949,0.045
					c0.391,0.004,0.782,0.008,1.174,0.011c0.102,0.001,0.204,0.003,0.307,0.004c0.026,0,0.052,0,0.078,0
					c-1.151-0.087-0.914,0.809,0.714,2.687c-16.368,0-32.737,0-49.105,0c-0.812,0-2.022,1.234-0.715,1.234
					c9.839,0,19.678,0,29.516,0c5.562,0,11.122,0,16.684,0c1.472,0,6.838,0.22,5.391-3.12c-1.236-2.854-3.584-2.053-6.315-2.077
					c-5.941-0.054-11.883-0.098-17.825-0.132c-6.37-0.037-12.74-0.064-19.11-0.032c-2.017,0.011-6.428-0.773-8.256,0.469
					C19.871,90.768,21.505,91.208,22.193,90.74L22.193,90.74z"/>
			</g>
		</g>
		<g>
			<g>
				<path fill="#FFFFFF" d="M22.312,98.403c-0.898,0.611-1.155,0.306-0.236,0.257c0.773-0.041,1.549-0.046,2.323-0.06
					c2.043-0.036,4.087-0.041,6.13-0.048c5.603-0.017,11.206,0.011,16.809,0.042c5.287,0.028,10.575,0.069,15.863,0.114
					c1.649,0.015,3.299,0.029,4.948,0.045c0.451,0.005,0.901,0.009,1.353,0.014c0.906,0.009,1.196,3.152,1.465,3.152
					c-16.369,0-32.737,0-49.106,0c-0.393,0-2.197,0.77-1.258,0.77c9.839,0,19.677,0,29.516,0c5.562,0,11.122,0,16.683,0
					c2.526,0,5.27,0.451,5.663-2.888c0.326-2.759-5.539-1.841-6.666-1.851c-6.393-0.058-12.785-0.104-19.178-0.138
					c-6.179-0.032-12.357-0.058-18.536-0.012c-1.877,0.015-5.527-0.604-7.246,0.564C20.047,98.903,21.981,98.629,22.312,98.403
					L22.312,98.403z"/>
			</g>
		</g>
		<g>
			<g>
				<path fill="#FFFFFF" d="M21.263,109.588c17.821,0,35.644,0,53.465,0c0.669,0,2.076-1.016,0.773-1.016
					c-17.821,0-35.644,0-53.465,0C21.367,108.572,19.96,109.588,21.263,109.588L21.263,109.588z"/>
			</g>
		</g>
		<g>
			<g>
				<path fill="#FFFFFF" d="M127.258,57.085c-3.543-1.582-7.852-2.683-11.682-1.661c-9.71,2.588-1.511,18.089,0.863,22.89
					c0.332,0.671,1.713,0.182,1.932-0.379c0.466-1.193,1.056-2.324,1.696-3.433c2.088-3.61,5.516-2.94,6.706,0.874
					c0.882,2.827,1.659,5.692,2.146,8.616c0.37,2.226-9.815,3.695-11.139,3.761c-0.433,0.021-2.108,0.81-0.966,1.079
					c6.262,1.477,14.168,2.78,20.183-0.126c0.304-0.146,0.735-0.398,0.514-0.78c-5.357-9.219-8.117-20.268-10.056-30.63
					c-0.125-0.67-2.065-0.195-1.932,0.518c1.87,9.998,4.659,19.936,9.224,29.063c0.279,0.558,0.571,1.11,0.881,1.651
					c0.022,0.039-6.333,0.667-7.396,0.648c-3.419-0.059-6.906-0.614-10.235-1.399c-0.322,0.359-0.644,0.719-0.966,1.079
					c4.762-0.236,9.327-1.721,13.56-3.887c0.203-0.104,0.392-0.309,0.365-0.549c-0.438-3.988-1.549-14.06-7.144-14.293
					c-3.81-0.158-6.252,5.174-7.372,8.047c0.644-0.126,1.288-0.253,1.932-0.379c-1.855-3.753-10.203-19.353-2.112-21.51
					c2.938-0.783,6.771,0.537,9.462,1.738C126.299,58.282,128.066,57.446,127.258,57.085z"/>
			</g>
		</g>
		<g>
			<g>
				<path fill="#FFFFFF" d="M115.987,80.879c2.438,0.131,4.905,0.066,7.33-0.213c2.005-0.23,5.141-0.641,6.29-2.577
					c-0.639,0.144-1.278,0.286-1.918,0.43c0.264,1.126,0.526,2.252,0.79,3.378c0.186,0.795,0.526,1.156,0.215,1.303
					c-3.165,1.493-8.6-1.649-11.17-3.041c-0.493-0.268-2.057,0.528-1.82,0.656c3.743,2.027,10.811,5.47,14.94,2.139
					c0.064-0.046,0.096-0.107,0.092-0.185c-0.372-1.589-0.743-3.179-1.115-4.768c-0.114-0.488-1.745,0.139-1.918,0.43
					c-1.481,2.492-7.897,1.8-10.462,1.663C116.834,80.072,115.028,80.828,115.987,80.879z"/>
			</g>
		</g>
		<g>
			<g>
				<path fill="#FFFFFF" d="M65.481,52.361c3.51,6.8,12.929,12.26,20.416,12.974c4.942,0.471,15.153-4.16,16.884,2.786
					c1.577,6.327-5.819,9.411-9.688,12.475c-1.029,0.815,0.52,1.529,1.291,0.918c3.64-2.883,7.499-4.514,9.656-8.838
					c1.33-2.667,1.19-7.339-1.802-8.874c-5.19-2.663-11.838,0.459-17.398-0.071c-6.21-0.593-14.79-6.8-17.594-12.232
					C66.839,50.708,65.005,51.438,65.481,52.361L65.481,52.361z"/>
			</g>
		</g>
		<g>
			<g>
				<path fill="#FFFFFF" d="M64.898,52.063c-0.032,7.168,6.982,13.657,13.022,16.442c1.97,0.908-0.505,1.015-1.681,1.604
					c-1.262,0.633-2.605,1.562-3.567,2.581c-1.227,1.301-4.619,5.377-3.649,7.497c0.271,0.595,2.154-0.031,1.932-0.518
					c-0.538-1.178,1.37-4.253,1.72-4.846c1.802-3.058,5.128-4.613,8.302-5.819c0.179-0.068,0.997-0.604,0.416-0.756
					c-6.771-1.774-14.596-9.349-14.562-16.704C66.832,51.059,64.901,51.388,64.898,52.063L64.898,52.063z"/>
			</g>
		</g>
		<g>
			<g>
				<path fill="#FFFFFF" d="M102.343,101.185c2.39,2.407,5.866,2.946,9.057,3.65c5.06,1.117,9.886,2.153,15.091,2.149
					c0.476,0,1.155-0.174,1.341-0.674c1.356-3.67,11.133-12.646,6.68-17.136c-0.484-0.488-2.314,0.233-1.793,0.76
					c4.071,4.105-5.485,13.005-6.82,16.614c0.447-0.225,0.894-0.449,1.341-0.674c-4.436,0.003-8.672-0.697-12.977-1.694
					c-3.418-0.792-7.545-1.156-10.126-3.756C103.651,99.937,101.82,100.659,102.343,101.185L102.343,101.185z"/>
			</g>
		</g>
		<g>
			<g>
				<path fill="#FFFFFF" d="M126.995,57.256c0.46-0.584,0.555-0.758,0.981-1.469c2.871-4.788,8.295-4.091,12.307-1.74
					c2.062,1.208,4.021,3.023,6.464,3.436c4.76,0.803,8.489-0.227,11.998-3.477c-0.612,0.068-1.225,0.138-1.837,0.207
					c-2.21,4.726-4.29,9.453-7.8,13.391c-0.065,0.057-0.094,0.127-0.085,0.21c6.861,11.686,9.866,24.36,14.25,37
					c0.113,0.326,0.848,0.143,1.059,0.087c8.597-2.263,13.773-8.506,16.863-16.629c0.163-0.43-1.712-0.212-1.912,0.316
					c-2.776,7.297-7.181,13.528-15.137,15.621c0.353,0.029,0.706,0.058,1.059,0.087c-2.958-8.529-4.974-17.41-8.479-25.751
					c-1.553-3.694-6.707-9.759-3.897-13.403c2.58-3.348,4.214-7.444,5.991-11.245c0.243-0.521-1.621,0.008-1.837,0.207
					c-8.918,8.262-13.597-3.733-22.086-2.875c-4.957,0.5-6.743,2.416-9.664,6.125C124.806,57.897,126.689,57.645,126.995,57.256
					L126.995,57.256z"/>
			</g>
		</g>
		<g>
			<g>
				<path fill="#FFFFFF" d="M118.388,179.332c0-2.315,0-4.631,0-6.947c0-0.281-1.965-0.011-1.965,0.527c0,0.086,0,0.172,0,0.258
					c0,0.282,1.965,0.012,1.965-0.525c0-11.271,0-22.543,0-33.814c0-5.588,0-11.176,0-16.765c0-4.438-5.179-4.519-7.824-2.312
					c-2.323,1.938-1.28,6.203-1.289,8.834c-0.025,7.318-0.045,14.636-0.056,21.953c-0.016,9.915,0.086,19.825-0.007,29.738
					c-0.002,0.276,1.96,0.014,1.965-0.527c0.182-19.478,0.011-38.967,0.086-58.45c0.01-2.573,5.16-2.947,5.16,0.221
					c0,1.237,0,2.476,0,3.714c0,5.995,0,11.989,0,17.983c0,9.983,0,19.967,0,29.95c0,0.282,1.965,0.012,1.965-0.525
					c0-0.087,0-0.173,0-0.26c0-0.281-1.965-0.011-1.965,0.527c0,2.315,0,4.631,0,6.947
					C116.423,180.141,118.388,179.87,118.388,179.332L118.388,179.332z"/>
			</g>
		</g>
		<g>
			<g>
				<path fill="#FFFFFF" d="M104.645,179.073c0-2.299,0-4.598,0-6.896c0-1.05-1.986-0.771-1.986,0.139c0,0.086,0,0.172,0,0.258
					c0,1.05,1.986,0.771,1.986-0.139c0-11.061,0-22.122,0-33.183c0-5.547,0-11.094,0-16.641c0-4.141-4.379-6.087-7.604-3.416
					c-2.353,1.948-1.518,5.166-1.527,7.896c-0.025,7.201-0.045,14.402-0.058,21.604c-0.018,10.353,0.089,20.649-0.009,30.936
					c-0.01,1.05,1.978,0.772,1.986-0.139c0.182-19.255,0.011-38.521,0.085-57.779c0.009-2.342,5.14-2.401,5.14-0.104
					c0,1.554,0,3.108,0,4.663c0,6.001,0,12.003,0,18.005c0,9.432,0,18.864,0,28.297c0,1.05,1.986,0.771,1.986-0.139
					c0-0.086,0-0.172,0-0.258c0-1.05-1.986-0.771-1.986,0.139c0,2.299,0,4.598,0,6.896
					C102.658,180.262,104.645,179.982,104.645,179.073L104.645,179.073z"/>
			</g>
		</g>
		<g>
			<g>
				<path fill="#FFFFFF" d="M137.648,171.8c0.056,0.311,0.11,0.622,0.166,0.934c0.682-0.183,1.363-0.366,2.045-0.549
					c-2.64-4.613-5.206-9.251-7.451-14.073c-0.549-1.178-5.631-13.043-5.373-13.318c-0.647,0.122-1.296,0.245-1.943,0.368
					c0,10.818,0,21.637,0,32.455c0,0.278,2.045,0,2.045-0.549c0-10.818,0-21.637,0-32.455c0-0.403-1.772,0.186-1.943,0.368
					c-0.037,0.039-0.073,0.078-0.109,0.117c-0.068,0.043-0.102,0.104-0.102,0.181c2.132,3.66,3.163,7.832,4.666,11.768
					c2.088,5.467,5.269,10.624,8.166,15.688c0.225,0.393,2.122-0.115,2.045-0.549c-0.056-0.311-0.11-0.622-0.166-0.934
					C139.627,170.875,137.565,171.335,137.648,171.8L137.648,171.8z"/>
			</g>
		</g>
		<g>
			<g>
				<path fill="#FFFFFF" d="M103.039,19.917c0.512,2.19-0.871,4.991-1.818,6.92c-0.116,0.235,1.668,0.116,1.9-0.357
					c0.965-1.962,2.374-4.835,1.85-7.08C104.883,19.021,102.943,19.507,103.039,19.917L103.039,19.917z"/>
			</g>
		</g>
		<g>
			<g>
				<path fill="#FFFFFF" d="M99.522,29.886c-0.464,1.958-1.963,3.728-3.17,5.285c-0.763,0.985,1.056,1.392,1.637,0.642
					c1.398-1.805,2.962-3.784,3.498-6.047C101.724,28.769,99.738,28.975,99.522,29.886L99.522,29.886z"/>
			</g>
		</g>
		<g>
			<g>
				<path fill="#FFFFFF" d="M93.377,39.293c-0.161,0.753-0.695,1.429-1.14,2.038c-0.382,0.524-0.801,1.151-1.331,1.54
					c-0.326,0.239-0.212,0.548,0.163,0.607c0.469,0.074,0.989-0.09,1.366-0.366c0.629-0.461,1.126-1.177,1.586-1.794
					c0.498-0.668,1.102-1.464,1.279-2.295C95.441,38.369,93.506,38.691,93.377,39.293L93.377,39.293z"/>
			</g>
		</g>
		<g>
			<g>
				<path fill="#FFFFFF" d="M87.291,46.878c-1.256,1.626-2.637,3.353-3.408,5.273c-0.164,0.409,1.702,0.204,1.912-0.318
					c0.741-1.846,2.05-3.498,3.256-5.059C89.471,46.23,87.59,46.491,87.291,46.878L87.291,46.878z"/>
			</g>
		</g>
		<g>
			<g>
				<path fill="#FFFFFF" d="M81.262,55.437c-0.79,1.006-1.459,2.102-2.166,3.166c-0.264,0.396,0.224,0.644,0.55,0.664
					c0.46,0.028,1.005-0.155,1.269-0.553c0.706-1.064,1.376-2.16,2.166-3.166c0.301-0.383-0.255-0.646-0.55-0.664
					C82.04,54.854,81.563,55.053,81.262,55.437L81.262,55.437z"/>
			</g>
		</g>
		<g>
			<g>
				<path fill="#FFFFFF" d="M56.115,32.732c0.648,1.102,1.516,2.026,2.334,3c0.51,0.606,2.357-0.125,1.779-0.812
					c-0.819-0.974-1.686-1.897-2.334-3C57.503,31.254,55.642,31.926,56.115,32.732L56.115,32.732z"/>
			</g>
		</g>
		<g>
			<g>
				<path fill="#FFFFFF" d="M61.93,38.49c0.861,1.025,1.808,1.971,2.832,2.834c0.405,0.342,2.123-0.406,1.818-0.663
					c-1.023-0.863-1.97-1.809-2.832-2.834C63.438,37.457,61.622,38.124,61.93,38.49L61.93,38.49z"/>
			</g>
		</g>
		<g>
			<g>
				<path fill="#FFFFFF" d="M68.764,43.833c1.162,0.973,2.493,1.712,3.668,2.666c0.437,0.354,2.167-0.396,1.814-0.682
					c-1.176-0.954-2.506-1.693-3.668-2.666C70.148,42.792,68.41,43.537,68.764,43.833L68.764,43.833z"/>
			</g>
		</g>
		<g>
			<g>
				<path fill="#FFFFFF" d="M76.422,48.369c1.339,0.819,2.765,1.47,4.168,2.166c0.445,0.221,0.977,0.167,1.383-0.127
					c0.279-0.203,0.557-0.738,0.115-0.958c-1.404-0.696-2.83-1.347-4.168-2.166C77.227,46.86,75.512,47.812,76.422,48.369
					L76.422,48.369z"/>
			</g>
		</g>
		<g>
			<g>
				<path fill="#FFFFFF" d="M87.554,53.23c1.434,0.646,3.381,0.66,4.881,0.286c0.198-0.049,0.96-0.284,0.87-0.617
					c-0.091-0.338-0.863-0.149-1.062-0.099c-0.926,0.231-2.255,0.011-3.119-0.378C88.665,52.215,86.893,52.933,87.554,53.23
					L87.554,53.23z"/>
			</g>
		</g>
		<g>
			<g>
				<path fill="#FFFFFF" d="M98.449,51.166c0.774-0.751,1.832-1.61,2.93-1.785c0.37-0.059,0.994-0.232,1.094-0.67
					c0.098-0.431-0.576-0.482-0.842-0.44c-1.792,0.286-3.448,1.294-4.738,2.547c-0.293,0.284-0.221,0.622,0.19,0.713
					C97.526,51.631,98.12,51.486,98.449,51.166L98.449,51.166z"/>
			</g>
		</g>
		<g>
			<g>
				<path fill="#FFFFFF" d="M106.725,47.751c0.786,0.264,1.558,0.569,2.309,0.924c0.498,0.235,1.984,0.878,1.846,1.627
					c-0.114,0.621,1.814,0.28,1.92-0.287c0.163-0.885-0.853-1.459-1.503-1.822c-0.955-0.533-1.976-0.944-3.011-1.292
					c-0.43-0.144-0.977,0.002-1.36,0.211C106.72,47.225,106.289,47.604,106.725,47.751L106.725,47.751z"/>
			</g>
		</g>
		<g>
			<g>
				<path fill="#FFFFFF" d="M111.667,52.684c-1.474,0.513-1.898,2.23-2.417,3.542c-0.404,1.022,1.536,0.975,1.842,0.201
					c0.184-0.466,0.356-0.936,0.551-1.397c0.118-0.278,0.249-0.55,0.393-0.815c0.145-0.267,0.424-0.401-0.024-0.245
					c0.358-0.125,0.923-0.42,0.794-0.901C112.686,52.624,112.025,52.559,111.667,52.684L111.667,52.684z"/>
			</g>
		</g>
		<g>
			<g>
				<path fill="#FFFFFF" d="M106.663,59.504c-0.773,0.275-1.471,0.679-2.14,1.152c-0.439,0.312-1.023,0.695-1.163,1.245
					c-0.12,0.479,0.564,0.65,0.891,0.625c0.471-0.037,0.945-0.298,1.066-0.775c-0.082,0.322-0.191,0.337-0.048,0.188
					c-0.149,0.154,0.066-0.056,0.082-0.069c0.177-0.148,0.365-0.284,0.554-0.418c0.323-0.229,0.856-0.55,1.109-0.64
					c0.364-0.13,0.921-0.426,0.79-0.913C107.686,59.454,107.028,59.374,106.663,59.504L106.663,59.504z"/>
			</g>
		</g>
		<g>
			<g>
				<path fill="#FFFFFF" d="M103.539,75.751c0.383,1.109,0.975,2.026,1.881,2.775c0.614,0.508,2.334-0.381,1.502-1.068
					c-0.707-0.585-1.155-1.368-1.451-2.225C105.184,74.401,103.26,74.942,103.539,75.751L103.539,75.751z"/>
			</g>
		</g>
		<g>
			<g>
				<path fill="#FFFFFF" d="M107.898,81.279c0.93,0.461,1.944,0.86,2.707,1.584c0.475,0.449,2.289-0.277,1.799-0.742
					c-0.837-0.792-1.942-1.243-2.961-1.748c-0.4-0.198-1.009-0.019-1.365,0.19C107.817,80.717,107.493,81.078,107.898,81.279
					L107.898,81.279z"/>
			</g>
		</g>
		<g>
			<g>
				<path fill="#FFFFFF" d="M114.497,84.5c0.885,0.029,1.631,0.495,2.444,0.786c0.447,0.16,1.053-0.018,1.365-0.366
					c0.304-0.338,0.177-0.741-0.238-0.89c-0.963-0.345-1.837-0.842-2.888-0.878c-0.462-0.016-1.031,0.129-1.261,0.58
					C113.712,84.142,114.1,84.486,114.497,84.5L114.497,84.5z"/>
			</g>
		</g>
		<g>
			<g>
				<path fill="#FFFFFF" d="M124.873,92.251c0.485,0.981,0.925,1.984,1.332,3c0.238,0.595,2.139-0.002,1.932-0.518
					c-0.407-1.016-0.847-2.019-1.332-3C126.512,91.141,124.642,91.784,124.873,92.251L124.873,92.251z"/>
			</g>
		</g>
		<g>
			<g>
				<path fill="#FFFFFF" d="M126.527,98.735c-0.009,0.906-0.102,1.812-0.166,2.716c-0.034,0.485-0.252,1.426,0.231,1.758
					c0.691,0.476,2.394-0.482,1.492-1.102c0.312,0.214,0.187,0.285,0.185,0.211c-0.004-0.122,0.004-0.244,0.008-0.366
					c0.014-0.343,0.041-0.686,0.066-1.028c0.057-0.779,0.131-1.561,0.139-2.343C128.492,97.58,126.535,97.882,126.527,98.735
					L126.527,98.735z"/>
			</g>
		</g>
		<g>
			<g>
				<path fill="#FFFFFF" d="M31.873,64.585c0.703,1.035,1.569,1.887,2.722,2.402c0.374,0.167,0.882,0.022,1.244-0.108
					c0.051-0.019,0.899-0.405,0.576-0.55c-1.094-0.489-1.94-1.275-2.61-2.262C33.48,63.589,31.719,64.357,31.873,64.585
					L31.873,64.585z"/>
			</g>
		</g>
		<g>
			<g>
				<path fill="#FFFFFF" d="M37.375,68.357c1.432,0.359,2.593,1.291,3.885,1.959c0.346,0.179,0.906-0.003,1.24-0.122
					c0.059-0.021,0.884-0.37,0.582-0.526c-1.372-0.71-2.594-1.659-4.115-2.041c-0.417-0.104-0.976,0.081-1.349,0.253
					C37.459,67.953,36.955,68.252,37.375,68.357L37.375,68.357z"/>
			</g>
		</g>
		<g>
			<g>
				<path fill="#FFFFFF" d="M44.907,71.814c1.071,0.555,2.006,1.326,3,2c0.562,0.381,2.336-0.429,1.527-0.977
					c-0.996-0.674-1.93-1.444-3-2c-0.414-0.214-1.002-0.071-1.372,0.166C44.787,71.181,44.493,71.599,44.907,71.814L44.907,71.814z"
					/>
			</g>
		</g>
		<g>
			<g>
				<path fill="#FFFFFF" d="M52.211,74.531c1.109,0.218,2.105,0.796,3.166,1.168c0.39,0.137,1.002-0.085,1.35-0.248
					c0.194-0.092,0.636-0.358,0.238-0.498c-1.062-0.372-2.053-0.949-3.166-1.168c-0.438-0.086-0.956,0.063-1.35,0.248
					C52.306,74.101,51.771,74.445,52.211,74.531L52.211,74.531z"/>
			</g>
		</g>
		<g>
			<g>
				<path fill="#FFFFFF" d="M59.595,77.153c1.217,0.506,2.479,0.846,3.781,1.044c0.449,0.068,0.944-0.061,1.35-0.25
					c0.129-0.06,0.688-0.424,0.24-0.492c-1.217-0.185-2.412-0.483-3.551-0.956c-0.379-0.157-0.876-0.018-1.242,0.114
					C60.128,76.63,59.274,77.021,59.595,77.153L59.595,77.153z"/>
			</g>
		</g>
		<g>
			<g>
				<path fill="#FFFFFF" d="M97.759,128.043c0.937,0.498,1.444,1.342,1.614,2.374c0.145,0.879,2.081,0.392,1.932-0.518
					c-0.205-1.246-0.927-2.36-2.054-2.958c-0.439-0.233-0.982-0.177-1.384,0.121C97.577,127.276,97.323,127.812,97.759,128.043
					L97.759,128.043z"/>
			</g>
		</g>
		<g>
			<g>
				<path fill="#FFFFFF" d="M99.699,134.092c0.013,1.027,0.14,2.028,0.506,2.993c0.292,0.771,2.208,0.212,1.932-0.518
					c-0.324-0.857-0.483-1.759-0.494-2.675C101.632,132.981,99.69,133.354,99.699,134.092L99.699,134.092z"/>
			</g>
		</g>
		<g>
			<g>
				<path fill="#FFFFFF" d="M110.898,154.447c0.906,0.569,1.591,1.427,2.5,2c0.51,0.32,2.303-0.433,1.545-0.91
					c-0.906-0.57-1.59-1.428-2.5-2C111.934,153.217,110.14,153.97,110.898,154.447L110.898,154.447z"/>
			</g>
		</g>
		<g>
			<g>
				<path fill="#FFFFFF" d="M126.58,163.105c-0.286,0.066,0.308,0.093,0.349,0.103c0.229,0.053,0.444,0.159,0.655,0.26
					c0.409,0.192,0.79,0.447,1.176,0.683c0.319,0.194,0.929-0.013,1.24-0.123c0.072-0.026,0.871-0.35,0.582-0.525
					c-0.595-0.362-1.189-0.76-1.863-0.964c-0.776-0.235-1.507-0.171-2.289,0.009c-0.152,0.034-0.965,0.26-0.891,0.538
					C125.615,163.37,126.426,163.142,126.58,163.105L126.58,163.105z"/>
			</g>
		</g>
		<g>
			<g>
				<path fill="#FFFFFF" d="M132.616,165.222c0.027,0.017,0.055,0.032,0.081,0.049c0.021,0.074,0.04,0.149,0.061,0.224
					c0-0.002,0-0.004,0.001-0.006c-0.37,0.204-0.74,0.408-1.109,0.613c-0.426-0.021-0.551-0.016-0.377,0.015
					c0.171,0.031-0.161-0.046,0.072,0.017c0.18,0.049,0.358,0.104,0.537,0.16c0.284,0.088,0.575,0.176,0.846,0.302
					c0.398,0.185,1.008-0.005,1.362-0.203c0.248-0.14,0.597-0.48,0.192-0.67c-0.684-0.318-1.58-0.631-2.337-0.57
					c-0.291,0.023-1.056,0.238-1.109,0.612c-0.001,0.002-0.001,0.004-0.001,0.006c-0.026,0.087-0.006,0.161,0.06,0.224
					c0.052,0.04,0.11,0.07,0.167,0.102C131.557,166.363,133.349,165.619,132.616,165.222L132.616,165.222z"/>
			</g>
		</g>
	</g>
	<g>
		<g>
			<path fill="#FFFFFF" d="M171.805,66.365c-0.831,1.643-1.771,3.238-2.333,5c-0.349,1.09,1.581,1.113,1.855,0.254
				c0.562-1.762,1.502-3.357,2.333-5C174.167,65.616,172.209,65.566,171.805,66.365L171.805,66.365z"/>
		</g>
	</g>
	<g>
		<g>
			<path fill="#FFFFFF" d="M167.218,75.96c-0.468,1.46-1.639,2.571-2.167,4c-0.14,0.38,1.722,0.171,1.908-0.332
				c0.527-1.43,1.698-2.541,2.167-4C169.256,75.222,167.379,75.459,167.218,75.96L167.218,75.96z"/>
		</g>
	</g>
	<g>
		<g>
			<path fill="#FFFFFF" d="M163.85,82.866c-1.168,1.041-1.94,2.4-2.833,3.667c-0.413,0.586,1.478,0.312,1.764-0.094
				c0.892-1.266,1.665-2.626,2.833-3.667c0.347-0.309-0.301-0.396-0.476-0.387C164.683,82.41,164.194,82.56,163.85,82.866
				L163.85,82.866z"/>
		</g>
	</g>
</g>
</svg>
