<?xml version="1.0" encoding="utf-8"?>
<!-- Generator: Adobe Illustrator 15.0.0, SVG Export Plug-In . SVG Version: 6.00 Build 0)  -->
<!DOCTYPE svg PUBLIC "-//W3C//DTD SVG 1.1//EN" "http://www.w3.org/Graphics/SVG/1.1/DTD/svg11.dtd">
<svg version="1.1" id="Layer_1" xmlns="http://www.w3.org/2000/svg" xmlns:xlink="http://www.w3.org/1999/xlink" x="0px" y="0px"
	 width="198.43px" height="198.43px" viewBox="0 0 198.43 198.43" enable-background="new 0 0 198.43 198.43" xml:space="preserve">
<circle fill="#A55E94" cx="100.273" cy="99.519" r="80.125"/>
<g>
	<g>
		<path fill="#FFFFFF" d="M103.726,157.306c0.236-0.848,0.473-1.696,0.709-2.545c0.084-0.301-0.152-0.702-0.415-0.837
			c-3.446-1.757-6.892-3.514-10.338-5.271c-1.985-1.013-3.971-2.025-5.957-3.037c-2.434-1.241-1.296-2.682-1.482-5.436
			c-0.209-3.098-2.096-3.235,0.021-5.065c1.89-1.635,3.78-3.27,5.67-4.903c2.864-2.477,5.728-4.953,8.592-7.43
			c0.49-0.424,0.817-0.887,0.464-1.514c-1.728-3.062-3.455-6.126-5.183-9.189c-0.323-0.572-1.412-0.554-1.928-0.386
			c-6.424,2.085-12.848,4.17-19.271,6.256c0.643,0.129,1.286,0.257,1.928,0.386c-1.072-1.12-7.618-6.08-7.595-6.388
			c0.168-2.32,0.336-4.641,0.504-6.961c0.319-4.409,0.639-8.818,0.958-13.228c0.035-0.488-0.29-0.866-0.753-0.995
			c-1.587-0.442-3.175-0.884-4.763-1.326c-1.441-0.401-4.18,1.702-2.062,2.292c0.793,0.221,1.587,0.442,2.381,0.663
			c0.545,0.152,1.091,0.304,1.637,0.456c1.317,0.367-0.01-0.775-0.026-0.556c-0.153,2.106-0.305,4.212-0.458,6.317
			c-0.342,4.717-0.684,9.434-1.025,14.151c-0.026,0.354,0.115,0.641,0.415,0.837c2.787,1.813,5.238,3.851,7.544,6.26
			c0.481,0.502,1.281,0.597,1.928,0.386c6.424-2.085,12.848-4.17,19.271-6.256c-0.643-0.129-1.286-0.257-1.928-0.386
			c1.728,3.062,3.455,6.126,5.183,9.189c0.155-0.505,0.309-1.01,0.464-1.514c-5.237,4.528-10.475,9.057-15.712,13.586
			c-0.373,0.322-0.723,0.688-0.609,1.225c0.689,3.257,0.991,6.427,0.911,9.765c-0.008,0.328,0.093,0.673,0.415,0.837
			c3.446,1.757,6.892,3.514,10.338,5.271c1.985,1.013,3.971,2.025,5.957,3.037c0.517,0.264,1.035,0.528,1.552,0.792
			c-0.526-0.269-0.562,0.576-0.908,1.818C99.708,159.219,103.315,158.778,103.726,157.306L103.726,157.306z"/>
		<path fill="#FFFFFF" d="M59.873,137.031c3.76,7.245,1.716,15.385-5.302,19.674c-2.041,1.247,0.92,2.355,2.313,1.504
			c8.113-4.958,10.585-14.308,6.229-22.701C62.428,134.187,59.045,135.436,59.873,137.031L59.873,137.031z"/>
		<path fill="#FFFFFF" d="M43.484,129.966c6.751-1.936,12.862,1.248,16.389,7.065c0.783,1.291,4.167,0.004,3.241-1.523
			c-4.32-7.124-12.272-10.124-20.246-7.837C40.717,128.288,41.319,130.587,43.484,129.966L43.484,129.966z"/>
		<path fill="#FFFFFF" d="M43.003,130.051c1.974,0,2.747-2.465,0.346-2.465C41.375,127.586,40.603,130.051,43.003,130.051
			L43.003,130.051z"/>
		<path fill="#FFFFFF" d="M55.18,158.689c1.974,0,2.747-2.465,0.346-2.465C53.552,156.225,52.779,158.689,55.18,158.689
			L55.18,158.689z"/>
	</g>
</g>
<g>
	<g>
		<path fill="#FFFFFF" d="M160.077,153.151c-22.21-41.079-44.435-82.15-66.671-123.215c-1.021-1.886-2.042-3.772-3.064-5.658
			c-0.691-1.276-2.803-0.382-3.31,0.554C67.194,61.466,47.357,98.1,27.543,134.747c-0.981,1.815,2.607,1.962,3.4,0.494
			C50.757,98.595,70.594,61.96,90.432,25.327c-1.104,0.185-2.207,0.37-3.31,0.554c22.065,40.75,44.124,81.503,66.163,122.268
			c1.19,2.202,2.381,4.404,3.571,6.606C157.667,156.253,161.003,154.865,160.077,153.151L160.077,153.151z"/>
		<path fill="#FFFFFF" d="M57.556,168.206c28.458,0,56.917,0,85.375,0c2.08,0,2.656-2.756,0.268-2.756c-28.458,0-56.917,0-85.375,0
			C55.744,165.45,55.167,168.206,57.556,168.206L57.556,168.206z"/>
		<path fill="#FFFFFF" d="M33.51,145.413c2.08,0,2.656-2.756,0.268-2.756C31.698,142.657,31.122,145.413,33.51,145.413
			L33.51,145.413z"/>
		<path fill="#FFFFFF" d="M45.378,159.386c2.08,0,2.656-2.756,0.268-2.756C43.566,156.63,42.99,159.386,45.378,159.386
			L45.378,159.386z"/>
		<path fill="#FFFFFF" d="M35.344,144.282c18.354-33.938,36.716-67.87,55.088-101.798c-1.104,0.185-2.207,0.37-3.31,0.554
			c20.893,38.584,41.772,77.174,62.641,115.771c0.582-0.727,1.163-1.453,1.744-2.18c-35.287,0-70.574,0-105.861,0
			c-2.08,0-2.656,2.756-0.268,2.756c35.287,0,70.574,0,105.861,0c1.096,0,2.352-1.054,1.744-2.18
			c-20.869-38.597-41.749-77.187-62.642-115.771c-0.691-1.276-2.803-0.382-3.31,0.554C68.66,75.917,50.298,109.851,31.944,143.788
			C30.962,145.604,34.551,145.749,35.344,144.282L35.344,144.282z"/>
	</g>
</g>
<g>
	<polygon fill="#A55E94" points="132.086,137.992 113.512,103.693 94.934,69.333 132.086,69.333 169.238,69.333 150.66,103.693 	"/>
	<g>
		<path fill="#FFFFFF" d="M133.852,137.52C121.46,114.637,109.076,91.751,96.7,68.86c-0.833,0.433-1.667,0.866-2.5,1.298
			c24.768,0,49.536,0,74.304,0c-0.339-0.183-0.678-0.366-1.017-0.55c-12.376,22.891-24.761,45.777-37.152,68.659
			c-0.379,0.7,2.979,0.415,3.502-0.551c12.392-22.883,24.775-45.769,37.152-68.659c0.279-0.517-0.81-0.55-1.017-0.55
			c-24.769,0-49.536,0-74.305,0c-0.347,0-2.909,0.541-2.5,1.298c12.376,22.89,24.76,45.776,37.152,68.658
			C130.867,139.475,134.239,138.234,133.852,137.52z"/>
	</g>
</g>
</svg>
