<svg>
 <g>
    <path
       style="fill:#173645;fill-opacity:1;stroke-width:0.32737815"
       id="path14"
       d="m 7.5253732,89.042651 c 0.5976858,0.02677 1.1950328,0.08703 1.7930565,0.08029 1.1613533,-0.01304 2.3212983,-0.112469 3.4825003,-0.1398 11.7508,-0.276569 3.915732,0.129053 18.796558,-0.501788 6.502485,-0.275656 28.347382,-1.415595 34.020842,-1.70737 32.277753,-1.817441 64.58778,-2.25922 96.89165,-2.531781 8.86486,-0.353544 17.70845,0.302644 26.52069,1.461262 2.46894,0.321511 4.94046,0.610937 7.41505,0.850254 0.91006,0.08801 1.94866,0.06031 2.85457,0.31844 -1.71109,1.564575 -3.36969,3.228644 -5.13327,4.693716 -0.12778,0.106155 -0.30265,-0.04298 -0.45464,-0.05159 -0.22056,-0.01249 -0.44152,-0.009 -0.66231,-0.01164 -0.80803,-0.0098 -1.61613,-0.0071 -2.42419,-0.0061 -1.5775,0.13785 -3.08958,-0.229989 -4.59573,-0.793118 -2.45245,-1.038964 -4.79878,-2.404979 -7.13143,-3.815521 -1.46967,-0.974031 -3.005,-1.759063 -4.50825,-2.640696 -1.16257,-0.538788 -2.36035,-0.93174 -3.54054,-1.39923 1.87925,-1.475901 3.64811,-3.214338 5.63776,-4.427697 0.3235,-0.1973 0.694,0.227768 1.03776,0.356691 0.44953,0.168603 0.89536,0.35336 1.34165,0.535722 1.7761,0.725729 3.53422,1.519382 5.30178,2.278435 3.03032,1.290337 5.97239,2.891086 8.93634,4.410138 4.02252,2.050377 8.31053,3.10502 12.33115,5.146294 0.18102,0.162178 0.41135,0.258952 0.54307,0.486538 0.11055,0.191015 0.29018,0.554429 0.13883,0.691651 -1.79612,1.628615 -3.72467,3.012191 -5.67108,4.324637 -0.221,0.149037 -2.50035,0.129189 -2.83124,0.139078 -2.08845,-0.01896 -4.19139,-0.176964 -6.26818,-0.480133 -1.97923,-0.329053 -3.94643,-0.737033 -5.9368,-0.947899 -1.34358,-0.14205 -2.67137,-0.227632 -3.99885,0.099 0,0 4.83745,-4.661761 4.83745,-4.661761 v 0 c 1.35038,-0.190731 2.69815,-0.07371 4.04921,0.08212 1.98785,0.248664 3.95409,0.690574 5.93969,0.963324 2.0594,0.277031 4.1367,0.453622 6.20768,0.400616 0.60468,-0.03494 1.3988,-0.06036 2.00284,-0.173653 0.27056,-0.05075 1.02221,-0.42785 0.80246,-0.218643 -1.4897,1.418249 -3.14258,2.532207 -4.66352,3.89452 -0.0704,0.06308 0.28594,0.157566 0.25371,0.05539 -0.0608,-0.192641 -0.2437,-0.273269 -0.36555,-0.409903 -3.86962,-2.3988 -8.19981,-3.271606 -12.20611,-5.214143 -2.9855,-1.425863 -5.91866,-3.01836 -8.92041,-4.386427 -1.77514,-0.780036 -3.54625,-1.552328 -5.3584,-2.181071 -0.45587,-0.158164 -0.91149,-0.320564 -1.3738,-0.443855 -0.34649,-0.09239 -1.28511,0.137415 -1.04985,-0.202459 1.23403,-1.78272 2.87907,-3.013132 4.31858,-4.519699 1.18523,0.51396 2.41448,0.864799 3.56724,1.497534 1.46696,0.918198 2.978,1.715979 4.40743,2.732455 2.29965,1.445135 4.64891,2.752509 7.11536,3.65945 1.48976,0.475832 2.99392,0.676999 4.53058,0.603634 1.03065,0.0039 2.09477,0.07964 3.12092,-0.07042 2.00115,-0.292636 5.73238,-5.17361 -4.38925,4.469397 -0.67829,-0.339255 -1.86599,-0.377848 -2.50401,-0.46627 -2.41915,-0.335268 -4.83845,-0.668675 -7.25756,-1.004388 -8.46973,-1.140629 -16.95223,-2.200976 -25.4757,-2.353733 -12.35853,-0.480052 -24.71487,-0.853815 -37.08062,-0.840544 -14.70262,0.01577 -23.601561,0.240353 -38.448104,0.931907 -6.643012,0.309431 -13.281993,0.748285 -19.922987,1.122428 -6.24952,0.440918 -12.500875,0.840735 -18.748558,1.322751 -9.496109,0.732638 -18.986748,1.578399 -28.478867,2.392086 -3.905467,0.334786 -7.8053271,0.776043 -11.712277,1.08084 -0.6541029,0.05103 -1.309953,0.05353 -1.9649319,0.08029 0,0 4.8806081,-4.559412 4.8806081,-4.559412 z"
    />
  </g>
</svg>
